G04 #@! TF.GenerationSoftware,KiCad,Pcbnew,5.1.5+dfsg1-2build2*
G04 #@! TF.CreationDate,2020-06-17T17:16:26+07:00*
G04 #@! TF.ProjectId,wrover_the_thesis,77726f76-6572-45f7-9468-655f74686573,rev?*
G04 #@! TF.SameCoordinates,Original*
G04 #@! TF.FileFunction,Soldermask,Top*
G04 #@! TF.FilePolarity,Negative*
%FSLAX46Y46*%
G04 Gerber Fmt 4.6, Leading zero omitted, Abs format (unit mm)*
G04 Created by KiCad (PCBNEW 5.1.5+dfsg1-2build2) date 2020-06-17 17:16:26*
%MOMM*%
%LPD*%
G04 APERTURE LIST*
%ADD10C,0.100000*%
G04 APERTURE END LIST*
D10*
G36*
X53401000Y-99961000D02*
G01*
X51799000Y-99961000D01*
X51799000Y-98359000D01*
X53401000Y-98359000D01*
X53401000Y-99961000D01*
G37*
G36*
X60131000Y-99951000D02*
G01*
X58529000Y-99951000D01*
X58529000Y-98349000D01*
X60131000Y-98349000D01*
X60131000Y-99951000D01*
G37*
G36*
X73187714Y-97568058D02*
G01*
X73305721Y-97603855D01*
X73414468Y-97661981D01*
X73509790Y-97740210D01*
X73588019Y-97835532D01*
X73646145Y-97944278D01*
X73681942Y-98062285D01*
X73691000Y-98154254D01*
X73691000Y-98865746D01*
X73681942Y-98957715D01*
X73646145Y-99075722D01*
X73588019Y-99184468D01*
X73509790Y-99279790D01*
X73414468Y-99358019D01*
X73305722Y-99416145D01*
X73187715Y-99451942D01*
X73065000Y-99464028D01*
X72942286Y-99451942D01*
X72824279Y-99416145D01*
X72715533Y-99358019D01*
X72620211Y-99279790D01*
X72541982Y-99184468D01*
X72483855Y-99075721D01*
X72448058Y-98957715D01*
X72439000Y-98865746D01*
X72439000Y-98154255D01*
X72448058Y-98062286D01*
X72483855Y-97944279D01*
X72541981Y-97835532D01*
X72620210Y-97740210D01*
X72715532Y-97661981D01*
X72824278Y-97603855D01*
X72942285Y-97568058D01*
X73065000Y-97555972D01*
X73187714Y-97568058D01*
G37*
G36*
X65437714Y-97568058D02*
G01*
X65555721Y-97603855D01*
X65664468Y-97661981D01*
X65759790Y-97740210D01*
X65838019Y-97835532D01*
X65896145Y-97944278D01*
X65931942Y-98062285D01*
X65941000Y-98154254D01*
X65941000Y-98865746D01*
X65931942Y-98957715D01*
X65896145Y-99075722D01*
X65838019Y-99184468D01*
X65759790Y-99279790D01*
X65664468Y-99358019D01*
X65555722Y-99416145D01*
X65437715Y-99451942D01*
X65315000Y-99464028D01*
X65192286Y-99451942D01*
X65074279Y-99416145D01*
X64965533Y-99358019D01*
X64870211Y-99279790D01*
X64791982Y-99184468D01*
X64733855Y-99075721D01*
X64698058Y-98957715D01*
X64689000Y-98865746D01*
X64689000Y-98154255D01*
X64698058Y-98062286D01*
X64733855Y-97944279D01*
X64791981Y-97835532D01*
X64870210Y-97740210D01*
X64965532Y-97661981D01*
X65074278Y-97603855D01*
X65192285Y-97568058D01*
X65315000Y-97555972D01*
X65437714Y-97568058D01*
G37*
G36*
X73067120Y-93670228D02*
G01*
X73213401Y-93714602D01*
X73348206Y-93786657D01*
X73466367Y-93883628D01*
X73563345Y-94001796D01*
X73635398Y-94136598D01*
X73679772Y-94282879D01*
X73691000Y-94396882D01*
X73691000Y-95023118D01*
X73679772Y-95137121D01*
X73635398Y-95283402D01*
X73563345Y-95418204D01*
X73563343Y-95418206D01*
X73563342Y-95418208D01*
X73466369Y-95536369D01*
X73409707Y-95582871D01*
X73348204Y-95633345D01*
X73213402Y-95705398D01*
X73067121Y-95749772D01*
X72915000Y-95764754D01*
X72762880Y-95749772D01*
X72616599Y-95705398D01*
X72481797Y-95633345D01*
X72363628Y-95536366D01*
X72336711Y-95503568D01*
X72319384Y-95486241D01*
X72299009Y-95472627D01*
X72276370Y-95463250D01*
X72252337Y-95458470D01*
X72227833Y-95458470D01*
X72203800Y-95463251D01*
X72181161Y-95472628D01*
X72160787Y-95486242D01*
X72143460Y-95503569D01*
X72129846Y-95523944D01*
X72120469Y-95546583D01*
X72115689Y-95570616D01*
X72115689Y-95595120D01*
X72120470Y-95619153D01*
X72123510Y-95627648D01*
X72141000Y-95715579D01*
X72141000Y-95804421D01*
X72123669Y-95891552D01*
X72089672Y-95973627D01*
X72089671Y-95973629D01*
X72040314Y-96047496D01*
X71977496Y-96110314D01*
X71903629Y-96159671D01*
X71903628Y-96159672D01*
X71903627Y-96159672D01*
X71821552Y-96193669D01*
X71734421Y-96211000D01*
X71645579Y-96211000D01*
X71558448Y-96193669D01*
X71476373Y-96159672D01*
X71476372Y-96159672D01*
X71476371Y-96159671D01*
X71402504Y-96110314D01*
X71339686Y-96047496D01*
X71290329Y-95973629D01*
X71290328Y-95973627D01*
X71256331Y-95891552D01*
X71239000Y-95804421D01*
X71239000Y-95715579D01*
X71256331Y-95628448D01*
X71290328Y-95546373D01*
X71305315Y-95523944D01*
X71330507Y-95486241D01*
X71339685Y-95472505D01*
X71402505Y-95409685D01*
X71475367Y-95361000D01*
X71476371Y-95360329D01*
X71476373Y-95360328D01*
X71558448Y-95326331D01*
X71645579Y-95309000D01*
X71734421Y-95309000D01*
X71821552Y-95326331D01*
X71903627Y-95360328D01*
X71903629Y-95360329D01*
X71904633Y-95361000D01*
X71977495Y-95409685D01*
X71993048Y-95425238D01*
X72011990Y-95440783D01*
X72033601Y-95452334D01*
X72057050Y-95459447D01*
X72081436Y-95461849D01*
X72105822Y-95459447D01*
X72129271Y-95452334D01*
X72150882Y-95440783D01*
X72169824Y-95425238D01*
X72185369Y-95406296D01*
X72196920Y-95384685D01*
X72204033Y-95361236D01*
X72206435Y-95336850D01*
X72204033Y-95312464D01*
X72196920Y-95289015D01*
X72195204Y-95285386D01*
X72150228Y-95137121D01*
X72139000Y-95023118D01*
X72139000Y-94396883D01*
X72150228Y-94282880D01*
X72194602Y-94136599D01*
X72266657Y-94001794D01*
X72363628Y-93883633D01*
X72481796Y-93786655D01*
X72616598Y-93714602D01*
X72762879Y-93670228D01*
X72915000Y-93655246D01*
X73067120Y-93670228D01*
G37*
G36*
X65617120Y-93670228D02*
G01*
X65763401Y-93714602D01*
X65898206Y-93786657D01*
X66016367Y-93883628D01*
X66113345Y-94001796D01*
X66185398Y-94136598D01*
X66229772Y-94282879D01*
X66241000Y-94396882D01*
X66241000Y-95023118D01*
X66229772Y-95137121D01*
X66183598Y-95289336D01*
X66178948Y-95300561D01*
X66174167Y-95324595D01*
X66174167Y-95349099D01*
X66178946Y-95373132D01*
X66188323Y-95395771D01*
X66201936Y-95416146D01*
X66219263Y-95433473D01*
X66239637Y-95447088D01*
X66262275Y-95456466D01*
X66286309Y-95461247D01*
X66310813Y-95461247D01*
X66334846Y-95456468D01*
X66357485Y-95447091D01*
X66377860Y-95433478D01*
X66386952Y-95425238D01*
X66402505Y-95409685D01*
X66475367Y-95361000D01*
X66476371Y-95360329D01*
X66476373Y-95360328D01*
X66558448Y-95326331D01*
X66645579Y-95309000D01*
X66734421Y-95309000D01*
X66821552Y-95326331D01*
X66903627Y-95360328D01*
X66903629Y-95360329D01*
X66904633Y-95361000D01*
X66977495Y-95409685D01*
X67040315Y-95472505D01*
X67049493Y-95486241D01*
X67074686Y-95523944D01*
X67089672Y-95546373D01*
X67123669Y-95628448D01*
X67141000Y-95715579D01*
X67141000Y-95804421D01*
X67123669Y-95891552D01*
X67089672Y-95973627D01*
X67089671Y-95973629D01*
X67040314Y-96047496D01*
X66977496Y-96110314D01*
X66903629Y-96159671D01*
X66903628Y-96159672D01*
X66903627Y-96159672D01*
X66821552Y-96193669D01*
X66734421Y-96211000D01*
X66645579Y-96211000D01*
X66558448Y-96193669D01*
X66476373Y-96159672D01*
X66476372Y-96159672D01*
X66476371Y-96159671D01*
X66402504Y-96110314D01*
X66339686Y-96047496D01*
X66290329Y-95973629D01*
X66290328Y-95973627D01*
X66256331Y-95891552D01*
X66239000Y-95804421D01*
X66239000Y-95715579D01*
X66256807Y-95626054D01*
X66262510Y-95607257D01*
X66264912Y-95582871D01*
X66262511Y-95558485D01*
X66255398Y-95535036D01*
X66243847Y-95513425D01*
X66228302Y-95494483D01*
X66209361Y-95478937D01*
X66187750Y-95467386D01*
X66164301Y-95460272D01*
X66139915Y-95457870D01*
X66115529Y-95460271D01*
X66092080Y-95467384D01*
X66070469Y-95478935D01*
X66051527Y-95494480D01*
X66043288Y-95503570D01*
X66016372Y-95536367D01*
X65898204Y-95633345D01*
X65763402Y-95705398D01*
X65617121Y-95749772D01*
X65465000Y-95764754D01*
X65312880Y-95749772D01*
X65166599Y-95705398D01*
X65031797Y-95633345D01*
X64970295Y-95582871D01*
X64913632Y-95536369D01*
X64886714Y-95503570D01*
X64816657Y-95418206D01*
X64744601Y-95283400D01*
X64700228Y-95137121D01*
X64689000Y-95023118D01*
X64689000Y-94396883D01*
X64700228Y-94282880D01*
X64744602Y-94136599D01*
X64816657Y-94001794D01*
X64913628Y-93883633D01*
X65031796Y-93786655D01*
X65166598Y-93714602D01*
X65312879Y-93670228D01*
X65465000Y-93655246D01*
X65617120Y-93670228D01*
G37*
G36*
X42963512Y-93573927D02*
G01*
X43112812Y-93603624D01*
X43276784Y-93671544D01*
X43424354Y-93770147D01*
X43549853Y-93895646D01*
X43648456Y-94043216D01*
X43716376Y-94207188D01*
X43751000Y-94381259D01*
X43751000Y-94558741D01*
X43716376Y-94732812D01*
X43648456Y-94896784D01*
X43549853Y-95044354D01*
X43424354Y-95169853D01*
X43276784Y-95268456D01*
X43112812Y-95336376D01*
X42963512Y-95366073D01*
X42938742Y-95371000D01*
X42761258Y-95371000D01*
X42736488Y-95366073D01*
X42587188Y-95336376D01*
X42423216Y-95268456D01*
X42275646Y-95169853D01*
X42150147Y-95044354D01*
X42051544Y-94896784D01*
X41983624Y-94732812D01*
X41949000Y-94558741D01*
X41949000Y-94381259D01*
X41983624Y-94207188D01*
X42051544Y-94043216D01*
X42150147Y-93895646D01*
X42275646Y-93770147D01*
X42423216Y-93671544D01*
X42587188Y-93603624D01*
X42736488Y-93573927D01*
X42761258Y-93569000D01*
X42938742Y-93569000D01*
X42963512Y-93573927D01*
G37*
G36*
X46583512Y-93573927D02*
G01*
X46732812Y-93603624D01*
X46896784Y-93671544D01*
X47044354Y-93770147D01*
X47169853Y-93895646D01*
X47268456Y-94043216D01*
X47336376Y-94207188D01*
X47371000Y-94381259D01*
X47371000Y-94558741D01*
X47336376Y-94732812D01*
X47268456Y-94896784D01*
X47169853Y-95044354D01*
X47044354Y-95169853D01*
X46896784Y-95268456D01*
X46732812Y-95336376D01*
X46583512Y-95366073D01*
X46558742Y-95371000D01*
X46381258Y-95371000D01*
X46356488Y-95366073D01*
X46207188Y-95336376D01*
X46043216Y-95268456D01*
X45895646Y-95169853D01*
X45770147Y-95044354D01*
X45671544Y-94896784D01*
X45603624Y-94732812D01*
X45569000Y-94558741D01*
X45569000Y-94381259D01*
X45603624Y-94207188D01*
X45671544Y-94043216D01*
X45770147Y-93895646D01*
X45895646Y-93770147D01*
X46043216Y-93671544D01*
X46207188Y-93603624D01*
X46356488Y-93573927D01*
X46381258Y-93569000D01*
X46558742Y-93569000D01*
X46583512Y-93573927D01*
G37*
G36*
X70766000Y-95361000D02*
G01*
X67614000Y-95361000D01*
X67614000Y-93959000D01*
X70766000Y-93959000D01*
X70766000Y-95361000D01*
G37*
G36*
X42963512Y-91033927D02*
G01*
X43112812Y-91063624D01*
X43276784Y-91131544D01*
X43424354Y-91230147D01*
X43549853Y-91355646D01*
X43648456Y-91503216D01*
X43716376Y-91667188D01*
X43751000Y-91841259D01*
X43751000Y-92018741D01*
X43716376Y-92192812D01*
X43648456Y-92356784D01*
X43549853Y-92504354D01*
X43424354Y-92629853D01*
X43276784Y-92728456D01*
X43112812Y-92796376D01*
X42963512Y-92826073D01*
X42938742Y-92831000D01*
X42761258Y-92831000D01*
X42736488Y-92826073D01*
X42587188Y-92796376D01*
X42423216Y-92728456D01*
X42275646Y-92629853D01*
X42150147Y-92504354D01*
X42051544Y-92356784D01*
X41983624Y-92192812D01*
X41949000Y-92018741D01*
X41949000Y-91841259D01*
X41983624Y-91667188D01*
X42051544Y-91503216D01*
X42150147Y-91355646D01*
X42275646Y-91230147D01*
X42423216Y-91131544D01*
X42587188Y-91063624D01*
X42736488Y-91033927D01*
X42761258Y-91029000D01*
X42938742Y-91029000D01*
X42963512Y-91033927D01*
G37*
G36*
X46583512Y-91033927D02*
G01*
X46732812Y-91063624D01*
X46896784Y-91131544D01*
X47044354Y-91230147D01*
X47169853Y-91355646D01*
X47268456Y-91503216D01*
X47336376Y-91667188D01*
X47371000Y-91841259D01*
X47371000Y-92018741D01*
X47336376Y-92192812D01*
X47268456Y-92356784D01*
X47169853Y-92504354D01*
X47044354Y-92629853D01*
X46896784Y-92728456D01*
X46732812Y-92796376D01*
X46583512Y-92826073D01*
X46558742Y-92831000D01*
X46381258Y-92831000D01*
X46356488Y-92826073D01*
X46207188Y-92796376D01*
X46043216Y-92728456D01*
X45895646Y-92629853D01*
X45770147Y-92504354D01*
X45671544Y-92356784D01*
X45603624Y-92192812D01*
X45569000Y-92018741D01*
X45569000Y-91841259D01*
X45603624Y-91667188D01*
X45671544Y-91503216D01*
X45770147Y-91355646D01*
X45895646Y-91230147D01*
X46043216Y-91131544D01*
X46207188Y-91063624D01*
X46356488Y-91033927D01*
X46381258Y-91029000D01*
X46558742Y-91029000D01*
X46583512Y-91033927D01*
G37*
G36*
X53401000Y-92161000D02*
G01*
X51799000Y-92161000D01*
X51799000Y-90559000D01*
X53401000Y-90559000D01*
X53401000Y-92161000D01*
G37*
G36*
X60131000Y-92151000D02*
G01*
X58529000Y-92151000D01*
X58529000Y-90549000D01*
X60131000Y-90549000D01*
X60131000Y-92151000D01*
G37*
G36*
X87051000Y-90901000D02*
G01*
X85249000Y-90901000D01*
X85249000Y-89099000D01*
X87051000Y-89099000D01*
X87051000Y-90901000D01*
G37*
G36*
X90781000Y-90881000D02*
G01*
X88979000Y-90881000D01*
X88979000Y-89079000D01*
X90781000Y-89079000D01*
X90781000Y-90881000D01*
G37*
G36*
X42963512Y-88493927D02*
G01*
X43112812Y-88523624D01*
X43276784Y-88591544D01*
X43424354Y-88690147D01*
X43549853Y-88815646D01*
X43648456Y-88963216D01*
X43716376Y-89127188D01*
X43751000Y-89301259D01*
X43751000Y-89478741D01*
X43716376Y-89652812D01*
X43648456Y-89816784D01*
X43549853Y-89964354D01*
X43424354Y-90089853D01*
X43276784Y-90188456D01*
X43112812Y-90256376D01*
X42963512Y-90286073D01*
X42938742Y-90291000D01*
X42761258Y-90291000D01*
X42736488Y-90286073D01*
X42587188Y-90256376D01*
X42423216Y-90188456D01*
X42275646Y-90089853D01*
X42150147Y-89964354D01*
X42051544Y-89816784D01*
X41983624Y-89652812D01*
X41949000Y-89478741D01*
X41949000Y-89301259D01*
X41983624Y-89127188D01*
X42051544Y-88963216D01*
X42150147Y-88815646D01*
X42275646Y-88690147D01*
X42423216Y-88591544D01*
X42587188Y-88523624D01*
X42736488Y-88493927D01*
X42761258Y-88489000D01*
X42938742Y-88489000D01*
X42963512Y-88493927D01*
G37*
G36*
X46583512Y-88493927D02*
G01*
X46732812Y-88523624D01*
X46896784Y-88591544D01*
X47044354Y-88690147D01*
X47169853Y-88815646D01*
X47268456Y-88963216D01*
X47336376Y-89127188D01*
X47371000Y-89301259D01*
X47371000Y-89478741D01*
X47336376Y-89652812D01*
X47268456Y-89816784D01*
X47169853Y-89964354D01*
X47044354Y-90089853D01*
X46896784Y-90188456D01*
X46732812Y-90256376D01*
X46583512Y-90286073D01*
X46558742Y-90291000D01*
X46381258Y-90291000D01*
X46356488Y-90286073D01*
X46207188Y-90256376D01*
X46043216Y-90188456D01*
X45895646Y-90089853D01*
X45770147Y-89964354D01*
X45671544Y-89816784D01*
X45603624Y-89652812D01*
X45569000Y-89478741D01*
X45569000Y-89301259D01*
X45603624Y-89127188D01*
X45671544Y-88963216D01*
X45770147Y-88815646D01*
X45895646Y-88690147D01*
X46043216Y-88591544D01*
X46207188Y-88523624D01*
X46356488Y-88493927D01*
X46381258Y-88489000D01*
X46558742Y-88489000D01*
X46583512Y-88493927D01*
G37*
G36*
X54749499Y-89008445D02*
G01*
X54786995Y-89019820D01*
X54821554Y-89038292D01*
X54851847Y-89063153D01*
X54876708Y-89093446D01*
X54895180Y-89128005D01*
X54906555Y-89165501D01*
X54911000Y-89210638D01*
X54911000Y-89849362D01*
X54906555Y-89894499D01*
X54895180Y-89931995D01*
X54876708Y-89966554D01*
X54851847Y-89996847D01*
X54821554Y-90021708D01*
X54786995Y-90040180D01*
X54749499Y-90051555D01*
X54704362Y-90056000D01*
X53965638Y-90056000D01*
X53920501Y-90051555D01*
X53883005Y-90040180D01*
X53848446Y-90021708D01*
X53818153Y-89996847D01*
X53793292Y-89966554D01*
X53774820Y-89931995D01*
X53763445Y-89894499D01*
X53759000Y-89849362D01*
X53759000Y-89210638D01*
X53763445Y-89165501D01*
X53774820Y-89128005D01*
X53793292Y-89093446D01*
X53818153Y-89063153D01*
X53848446Y-89038292D01*
X53883005Y-89019820D01*
X53920501Y-89008445D01*
X53965638Y-89004000D01*
X54704362Y-89004000D01*
X54749499Y-89008445D01*
G37*
G36*
X59672091Y-89008085D02*
G01*
X59706069Y-89018393D01*
X59737390Y-89035134D01*
X59764839Y-89057661D01*
X59787366Y-89085110D01*
X59804107Y-89116431D01*
X59814415Y-89150409D01*
X59818500Y-89191890D01*
X59818500Y-89868110D01*
X59814415Y-89909591D01*
X59804107Y-89943569D01*
X59787366Y-89974890D01*
X59764839Y-90002339D01*
X59737390Y-90024866D01*
X59706069Y-90041607D01*
X59672091Y-90051915D01*
X59630610Y-90056000D01*
X59029390Y-90056000D01*
X58987909Y-90051915D01*
X58953931Y-90041607D01*
X58922610Y-90024866D01*
X58895161Y-90002339D01*
X58872634Y-89974890D01*
X58855893Y-89943569D01*
X58845585Y-89909591D01*
X58841500Y-89868110D01*
X58841500Y-89191890D01*
X58845585Y-89150409D01*
X58855893Y-89116431D01*
X58872634Y-89085110D01*
X58895161Y-89057661D01*
X58922610Y-89035134D01*
X58953931Y-89018393D01*
X58987909Y-89008085D01*
X59029390Y-89004000D01*
X59630610Y-89004000D01*
X59672091Y-89008085D01*
G37*
G36*
X61247091Y-89008085D02*
G01*
X61281069Y-89018393D01*
X61312390Y-89035134D01*
X61339839Y-89057661D01*
X61362366Y-89085110D01*
X61379107Y-89116431D01*
X61389415Y-89150409D01*
X61393500Y-89191890D01*
X61393500Y-89868110D01*
X61389415Y-89909591D01*
X61379107Y-89943569D01*
X61362366Y-89974890D01*
X61339839Y-90002339D01*
X61312390Y-90024866D01*
X61281069Y-90041607D01*
X61247091Y-90051915D01*
X61205610Y-90056000D01*
X60604390Y-90056000D01*
X60562909Y-90051915D01*
X60528931Y-90041607D01*
X60497610Y-90024866D01*
X60470161Y-90002339D01*
X60447634Y-89974890D01*
X60430893Y-89943569D01*
X60420585Y-89909591D01*
X60416500Y-89868110D01*
X60416500Y-89191890D01*
X60420585Y-89150409D01*
X60430893Y-89116431D01*
X60447634Y-89085110D01*
X60470161Y-89057661D01*
X60497610Y-89035134D01*
X60528931Y-89018393D01*
X60562909Y-89008085D01*
X60604390Y-89004000D01*
X61205610Y-89004000D01*
X61247091Y-89008085D01*
G37*
G36*
X52999499Y-89008445D02*
G01*
X53036995Y-89019820D01*
X53071554Y-89038292D01*
X53101847Y-89063153D01*
X53126708Y-89093446D01*
X53145180Y-89128005D01*
X53156555Y-89165501D01*
X53161000Y-89210638D01*
X53161000Y-89849362D01*
X53156555Y-89894499D01*
X53145180Y-89931995D01*
X53126708Y-89966554D01*
X53101847Y-89996847D01*
X53071554Y-90021708D01*
X53036995Y-90040180D01*
X52999499Y-90051555D01*
X52954362Y-90056000D01*
X52215638Y-90056000D01*
X52170501Y-90051555D01*
X52133005Y-90040180D01*
X52098446Y-90021708D01*
X52068153Y-89996847D01*
X52043292Y-89966554D01*
X52024820Y-89931995D01*
X52013445Y-89894499D01*
X52009000Y-89849362D01*
X52009000Y-89210638D01*
X52013445Y-89165501D01*
X52024820Y-89128005D01*
X52043292Y-89093446D01*
X52068153Y-89063153D01*
X52098446Y-89038292D01*
X52133005Y-89019820D01*
X52170501Y-89008445D01*
X52215638Y-89004000D01*
X52954362Y-89004000D01*
X52999499Y-89008445D01*
G37*
G36*
X51382091Y-89008085D02*
G01*
X51416069Y-89018393D01*
X51447390Y-89035134D01*
X51474839Y-89057661D01*
X51497366Y-89085110D01*
X51514107Y-89116431D01*
X51524415Y-89150409D01*
X51528500Y-89191890D01*
X51528500Y-89868110D01*
X51524415Y-89909591D01*
X51514107Y-89943569D01*
X51497366Y-89974890D01*
X51474839Y-90002339D01*
X51447390Y-90024866D01*
X51416069Y-90041607D01*
X51382091Y-90051915D01*
X51340610Y-90056000D01*
X50739390Y-90056000D01*
X50697909Y-90051915D01*
X50663931Y-90041607D01*
X50632610Y-90024866D01*
X50605161Y-90002339D01*
X50582634Y-89974890D01*
X50565893Y-89943569D01*
X50555585Y-89909591D01*
X50551500Y-89868110D01*
X50551500Y-89191890D01*
X50555585Y-89150409D01*
X50565893Y-89116431D01*
X50582634Y-89085110D01*
X50605161Y-89057661D01*
X50632610Y-89035134D01*
X50663931Y-89018393D01*
X50697909Y-89008085D01*
X50739390Y-89004000D01*
X51340610Y-89004000D01*
X51382091Y-89008085D01*
G37*
G36*
X49807091Y-89008085D02*
G01*
X49841069Y-89018393D01*
X49872390Y-89035134D01*
X49899839Y-89057661D01*
X49922366Y-89085110D01*
X49939107Y-89116431D01*
X49949415Y-89150409D01*
X49953500Y-89191890D01*
X49953500Y-89868110D01*
X49949415Y-89909591D01*
X49939107Y-89943569D01*
X49922366Y-89974890D01*
X49899839Y-90002339D01*
X49872390Y-90024866D01*
X49841069Y-90041607D01*
X49807091Y-90051915D01*
X49765610Y-90056000D01*
X49164390Y-90056000D01*
X49122909Y-90051915D01*
X49088931Y-90041607D01*
X49057610Y-90024866D01*
X49030161Y-90002339D01*
X49007634Y-89974890D01*
X48990893Y-89943569D01*
X48980585Y-89909591D01*
X48976500Y-89868110D01*
X48976500Y-89191890D01*
X48980585Y-89150409D01*
X48990893Y-89116431D01*
X49007634Y-89085110D01*
X49030161Y-89057661D01*
X49057610Y-89035134D01*
X49088931Y-89018393D01*
X49122909Y-89008085D01*
X49164390Y-89004000D01*
X49765610Y-89004000D01*
X49807091Y-89008085D01*
G37*
G36*
X56459499Y-88998445D02*
G01*
X56496995Y-89009820D01*
X56531554Y-89028292D01*
X56561847Y-89053153D01*
X56586708Y-89083446D01*
X56605180Y-89118005D01*
X56616555Y-89155501D01*
X56621000Y-89200638D01*
X56621000Y-89839362D01*
X56616555Y-89884499D01*
X56605180Y-89921995D01*
X56586708Y-89956554D01*
X56561847Y-89986847D01*
X56531554Y-90011708D01*
X56496995Y-90030180D01*
X56459499Y-90041555D01*
X56414362Y-90046000D01*
X55675638Y-90046000D01*
X55630501Y-90041555D01*
X55593005Y-90030180D01*
X55558446Y-90011708D01*
X55528153Y-89986847D01*
X55503292Y-89956554D01*
X55484820Y-89921995D01*
X55473445Y-89884499D01*
X55469000Y-89839362D01*
X55469000Y-89200638D01*
X55473445Y-89155501D01*
X55484820Y-89118005D01*
X55503292Y-89083446D01*
X55528153Y-89053153D01*
X55558446Y-89028292D01*
X55593005Y-89009820D01*
X55630501Y-88998445D01*
X55675638Y-88994000D01*
X56414362Y-88994000D01*
X56459499Y-88998445D01*
G37*
G36*
X58209499Y-88998445D02*
G01*
X58246995Y-89009820D01*
X58281554Y-89028292D01*
X58311847Y-89053153D01*
X58336708Y-89083446D01*
X58355180Y-89118005D01*
X58366555Y-89155501D01*
X58371000Y-89200638D01*
X58371000Y-89839362D01*
X58366555Y-89884499D01*
X58355180Y-89921995D01*
X58336708Y-89956554D01*
X58311847Y-89986847D01*
X58281554Y-90011708D01*
X58246995Y-90030180D01*
X58209499Y-90041555D01*
X58164362Y-90046000D01*
X57425638Y-90046000D01*
X57380501Y-90041555D01*
X57343005Y-90030180D01*
X57308446Y-90011708D01*
X57278153Y-89986847D01*
X57253292Y-89956554D01*
X57234820Y-89921995D01*
X57223445Y-89884499D01*
X57219000Y-89839362D01*
X57219000Y-89200638D01*
X57223445Y-89155501D01*
X57234820Y-89118005D01*
X57253292Y-89083446D01*
X57278153Y-89053153D01*
X57308446Y-89028292D01*
X57343005Y-89009820D01*
X57380501Y-88998445D01*
X57425638Y-88994000D01*
X58164362Y-88994000D01*
X58209499Y-88998445D01*
G37*
G36*
X86263512Y-86563927D02*
G01*
X86412812Y-86593624D01*
X86576784Y-86661544D01*
X86724354Y-86760147D01*
X86849853Y-86885646D01*
X86948456Y-87033216D01*
X87016376Y-87197188D01*
X87051000Y-87371259D01*
X87051000Y-87548741D01*
X87016376Y-87722812D01*
X86948456Y-87886784D01*
X86849853Y-88034354D01*
X86724354Y-88159853D01*
X86576784Y-88258456D01*
X86412812Y-88326376D01*
X86263512Y-88356073D01*
X86238742Y-88361000D01*
X86061258Y-88361000D01*
X86036488Y-88356073D01*
X85887188Y-88326376D01*
X85723216Y-88258456D01*
X85575646Y-88159853D01*
X85450147Y-88034354D01*
X85351544Y-87886784D01*
X85283624Y-87722812D01*
X85249000Y-87548741D01*
X85249000Y-87371259D01*
X85283624Y-87197188D01*
X85351544Y-87033216D01*
X85450147Y-86885646D01*
X85575646Y-86760147D01*
X85723216Y-86661544D01*
X85887188Y-86593624D01*
X86036488Y-86563927D01*
X86061258Y-86559000D01*
X86238742Y-86559000D01*
X86263512Y-86563927D01*
G37*
G36*
X89993512Y-86543927D02*
G01*
X90142812Y-86573624D01*
X90306784Y-86641544D01*
X90454354Y-86740147D01*
X90579853Y-86865646D01*
X90678456Y-87013216D01*
X90746376Y-87177188D01*
X90781000Y-87351259D01*
X90781000Y-87528741D01*
X90746376Y-87702812D01*
X90678456Y-87866784D01*
X90579853Y-88014354D01*
X90454354Y-88139853D01*
X90306784Y-88238456D01*
X90142812Y-88306376D01*
X89993512Y-88336073D01*
X89968742Y-88341000D01*
X89791258Y-88341000D01*
X89766488Y-88336073D01*
X89617188Y-88306376D01*
X89453216Y-88238456D01*
X89305646Y-88139853D01*
X89180147Y-88014354D01*
X89081544Y-87866784D01*
X89013624Y-87702812D01*
X88979000Y-87528741D01*
X88979000Y-87351259D01*
X89013624Y-87177188D01*
X89081544Y-87013216D01*
X89180147Y-86865646D01*
X89305646Y-86740147D01*
X89453216Y-86641544D01*
X89617188Y-86573624D01*
X89766488Y-86543927D01*
X89791258Y-86539000D01*
X89968742Y-86539000D01*
X89993512Y-86543927D01*
G37*
G36*
X43751000Y-87751000D02*
G01*
X41949000Y-87751000D01*
X41949000Y-85949000D01*
X43751000Y-85949000D01*
X43751000Y-87751000D01*
G37*
G36*
X47371000Y-87751000D02*
G01*
X45569000Y-87751000D01*
X45569000Y-85949000D01*
X47371000Y-85949000D01*
X47371000Y-87751000D01*
G37*
G36*
X74784499Y-86483445D02*
G01*
X74821995Y-86494820D01*
X74856554Y-86513292D01*
X74886847Y-86538153D01*
X74911708Y-86568446D01*
X74930180Y-86603005D01*
X74941555Y-86640501D01*
X74946000Y-86685638D01*
X74946000Y-87424362D01*
X74941555Y-87469499D01*
X74930180Y-87506995D01*
X74911708Y-87541554D01*
X74886847Y-87571847D01*
X74856554Y-87596708D01*
X74821995Y-87615180D01*
X74784499Y-87626555D01*
X74739362Y-87631000D01*
X74100638Y-87631000D01*
X74055501Y-87626555D01*
X74018005Y-87615180D01*
X73983446Y-87596708D01*
X73953153Y-87571847D01*
X73928292Y-87541554D01*
X73909820Y-87506995D01*
X73898445Y-87469499D01*
X73894000Y-87424362D01*
X73894000Y-86685638D01*
X73898445Y-86640501D01*
X73909820Y-86603005D01*
X73928292Y-86568446D01*
X73953153Y-86538153D01*
X73983446Y-86513292D01*
X74018005Y-86494820D01*
X74055501Y-86483445D01*
X74100638Y-86479000D01*
X74739362Y-86479000D01*
X74784499Y-86483445D01*
G37*
G36*
X62984499Y-86103445D02*
G01*
X63021995Y-86114820D01*
X63056554Y-86133292D01*
X63086847Y-86158153D01*
X63111708Y-86188446D01*
X63130180Y-86223005D01*
X63141555Y-86260501D01*
X63146000Y-86305638D01*
X63146000Y-87044362D01*
X63141555Y-87089499D01*
X63130180Y-87126995D01*
X63111708Y-87161554D01*
X63086847Y-87191847D01*
X63056554Y-87216708D01*
X63021995Y-87235180D01*
X62984499Y-87246555D01*
X62939362Y-87251000D01*
X62300638Y-87251000D01*
X62255501Y-87246555D01*
X62218005Y-87235180D01*
X62183446Y-87216708D01*
X62153153Y-87191847D01*
X62128292Y-87161554D01*
X62109820Y-87126995D01*
X62098445Y-87089499D01*
X62094000Y-87044362D01*
X62094000Y-86305638D01*
X62098445Y-86260501D01*
X62109820Y-86223005D01*
X62128292Y-86188446D01*
X62153153Y-86158153D01*
X62183446Y-86133292D01*
X62218005Y-86114820D01*
X62255501Y-86103445D01*
X62300638Y-86099000D01*
X62939362Y-86099000D01*
X62984499Y-86103445D01*
G37*
G36*
X61041000Y-87131000D02*
G01*
X59739000Y-87131000D01*
X59739000Y-86229000D01*
X61041000Y-86229000D01*
X61041000Y-87131000D01*
G37*
G36*
X68135355Y-85530083D02*
G01*
X68140029Y-85531501D01*
X68144330Y-85533800D01*
X68150702Y-85539029D01*
X68171076Y-85552643D01*
X68193715Y-85562020D01*
X68217749Y-85566800D01*
X68242253Y-85566800D01*
X68266286Y-85562019D01*
X68288925Y-85552642D01*
X68309298Y-85539029D01*
X68315670Y-85533800D01*
X68319971Y-85531501D01*
X68324645Y-85530083D01*
X68335641Y-85529000D01*
X68624359Y-85529000D01*
X68635355Y-85530083D01*
X68640029Y-85531501D01*
X68644330Y-85533800D01*
X68650702Y-85539029D01*
X68671076Y-85552643D01*
X68693715Y-85562020D01*
X68717749Y-85566800D01*
X68742253Y-85566800D01*
X68766286Y-85562019D01*
X68788925Y-85552642D01*
X68809298Y-85539029D01*
X68815670Y-85533800D01*
X68819971Y-85531501D01*
X68824645Y-85530083D01*
X68835641Y-85529000D01*
X69124359Y-85529000D01*
X69135355Y-85530083D01*
X69140029Y-85531501D01*
X69144330Y-85533800D01*
X69150702Y-85539029D01*
X69171076Y-85552643D01*
X69193715Y-85562020D01*
X69217749Y-85566800D01*
X69242253Y-85566800D01*
X69266286Y-85562019D01*
X69288925Y-85552642D01*
X69309298Y-85539029D01*
X69315670Y-85533800D01*
X69319971Y-85531501D01*
X69324645Y-85530083D01*
X69335641Y-85529000D01*
X69624359Y-85529000D01*
X69635355Y-85530083D01*
X69640029Y-85531501D01*
X69644330Y-85533800D01*
X69650702Y-85539029D01*
X69671076Y-85552643D01*
X69693715Y-85562020D01*
X69717749Y-85566800D01*
X69742253Y-85566800D01*
X69766286Y-85562019D01*
X69788925Y-85552642D01*
X69809298Y-85539029D01*
X69815670Y-85533800D01*
X69819971Y-85531501D01*
X69824645Y-85530083D01*
X69835641Y-85529000D01*
X70124359Y-85529000D01*
X70135355Y-85530083D01*
X70140029Y-85531501D01*
X70144330Y-85533800D01*
X70150702Y-85539029D01*
X70171076Y-85552643D01*
X70193715Y-85562020D01*
X70217749Y-85566800D01*
X70242253Y-85566800D01*
X70266286Y-85562019D01*
X70288925Y-85552642D01*
X70309298Y-85539029D01*
X70315670Y-85533800D01*
X70319971Y-85531501D01*
X70324645Y-85530083D01*
X70335641Y-85529000D01*
X70624359Y-85529000D01*
X70635355Y-85530083D01*
X70640029Y-85531501D01*
X70644330Y-85533800D01*
X70650702Y-85539029D01*
X70671076Y-85552643D01*
X70693715Y-85562020D01*
X70717749Y-85566800D01*
X70742253Y-85566800D01*
X70766286Y-85562019D01*
X70788925Y-85552642D01*
X70809298Y-85539029D01*
X70815670Y-85533800D01*
X70819971Y-85531501D01*
X70824645Y-85530083D01*
X70835641Y-85529000D01*
X71124359Y-85529000D01*
X71135355Y-85530083D01*
X71140029Y-85531501D01*
X71144331Y-85533800D01*
X71148104Y-85536896D01*
X71151200Y-85540669D01*
X71153499Y-85544971D01*
X71154917Y-85549645D01*
X71156000Y-85560641D01*
X71156000Y-86399359D01*
X71154917Y-86410355D01*
X71153499Y-86415029D01*
X71151200Y-86419331D01*
X71148104Y-86423104D01*
X71144331Y-86426200D01*
X71140029Y-86428499D01*
X71135355Y-86429917D01*
X71124359Y-86431000D01*
X70835641Y-86431000D01*
X70824645Y-86429917D01*
X70819971Y-86428499D01*
X70815670Y-86426200D01*
X70809298Y-86420971D01*
X70788924Y-86407357D01*
X70766285Y-86397980D01*
X70742251Y-86393200D01*
X70717747Y-86393200D01*
X70693714Y-86397981D01*
X70671075Y-86407358D01*
X70650702Y-86420971D01*
X70644330Y-86426200D01*
X70640029Y-86428499D01*
X70635355Y-86429917D01*
X70624359Y-86431000D01*
X70335641Y-86431000D01*
X70324645Y-86429917D01*
X70319971Y-86428499D01*
X70315670Y-86426200D01*
X70309298Y-86420971D01*
X70288924Y-86407357D01*
X70266285Y-86397980D01*
X70242251Y-86393200D01*
X70217747Y-86393200D01*
X70193714Y-86397981D01*
X70171075Y-86407358D01*
X70150702Y-86420971D01*
X70144330Y-86426200D01*
X70140029Y-86428499D01*
X70135355Y-86429917D01*
X70124359Y-86431000D01*
X69835641Y-86431000D01*
X69824645Y-86429917D01*
X69819971Y-86428499D01*
X69815670Y-86426200D01*
X69809298Y-86420971D01*
X69788924Y-86407357D01*
X69766285Y-86397980D01*
X69742251Y-86393200D01*
X69717747Y-86393200D01*
X69693714Y-86397981D01*
X69671075Y-86407358D01*
X69650702Y-86420971D01*
X69644330Y-86426200D01*
X69640029Y-86428499D01*
X69635355Y-86429917D01*
X69624359Y-86431000D01*
X69335641Y-86431000D01*
X69324645Y-86429917D01*
X69319971Y-86428499D01*
X69315670Y-86426200D01*
X69309298Y-86420971D01*
X69288924Y-86407357D01*
X69266285Y-86397980D01*
X69242251Y-86393200D01*
X69217747Y-86393200D01*
X69193714Y-86397981D01*
X69171075Y-86407358D01*
X69150702Y-86420971D01*
X69144330Y-86426200D01*
X69140029Y-86428499D01*
X69135355Y-86429917D01*
X69124359Y-86431000D01*
X68835641Y-86431000D01*
X68824645Y-86429917D01*
X68819971Y-86428499D01*
X68815670Y-86426200D01*
X68809298Y-86420971D01*
X68788924Y-86407357D01*
X68766285Y-86397980D01*
X68742251Y-86393200D01*
X68717747Y-86393200D01*
X68693714Y-86397981D01*
X68671075Y-86407358D01*
X68650702Y-86420971D01*
X68644330Y-86426200D01*
X68640029Y-86428499D01*
X68635355Y-86429917D01*
X68624359Y-86431000D01*
X68335641Y-86431000D01*
X68324645Y-86429917D01*
X68319971Y-86428499D01*
X68315670Y-86426200D01*
X68309298Y-86420971D01*
X68288924Y-86407357D01*
X68266285Y-86397980D01*
X68242251Y-86393200D01*
X68217747Y-86393200D01*
X68193714Y-86397981D01*
X68171075Y-86407358D01*
X68150702Y-86420971D01*
X68144330Y-86426200D01*
X68140029Y-86428499D01*
X68135355Y-86429917D01*
X68124359Y-86431000D01*
X67835641Y-86431000D01*
X67824645Y-86429917D01*
X67819971Y-86428499D01*
X67815669Y-86426200D01*
X67811896Y-86423104D01*
X67808800Y-86419331D01*
X67806501Y-86415029D01*
X67805083Y-86410355D01*
X67804000Y-86399359D01*
X67804000Y-85560641D01*
X67805083Y-85549645D01*
X67806501Y-85544971D01*
X67808800Y-85540669D01*
X67811896Y-85536896D01*
X67815669Y-85533800D01*
X67819971Y-85531501D01*
X67824645Y-85530083D01*
X67835641Y-85529000D01*
X68124359Y-85529000D01*
X68135355Y-85530083D01*
G37*
G36*
X58441000Y-86181000D02*
G01*
X57139000Y-86181000D01*
X57139000Y-85279000D01*
X58441000Y-85279000D01*
X58441000Y-86181000D01*
G37*
G36*
X74784499Y-84733445D02*
G01*
X74821995Y-84744820D01*
X74856554Y-84763292D01*
X74886847Y-84788153D01*
X74911708Y-84818446D01*
X74930180Y-84853005D01*
X74941555Y-84890501D01*
X74946000Y-84935638D01*
X74946000Y-85674362D01*
X74941555Y-85719499D01*
X74930180Y-85756995D01*
X74911708Y-85791554D01*
X74886847Y-85821847D01*
X74856554Y-85846708D01*
X74821995Y-85865180D01*
X74784499Y-85876555D01*
X74739362Y-85881000D01*
X74100638Y-85881000D01*
X74055501Y-85876555D01*
X74018005Y-85865180D01*
X73983446Y-85846708D01*
X73953153Y-85821847D01*
X73928292Y-85791554D01*
X73909820Y-85756995D01*
X73898445Y-85719499D01*
X73894000Y-85674362D01*
X73894000Y-84935638D01*
X73898445Y-84890501D01*
X73909820Y-84853005D01*
X73928292Y-84818446D01*
X73953153Y-84788153D01*
X73983446Y-84763292D01*
X74018005Y-84744820D01*
X74055501Y-84733445D01*
X74100638Y-84729000D01*
X74739362Y-84729000D01*
X74784499Y-84733445D01*
G37*
G36*
X86263512Y-84023927D02*
G01*
X86412812Y-84053624D01*
X86576784Y-84121544D01*
X86724354Y-84220147D01*
X86849853Y-84345646D01*
X86948456Y-84493216D01*
X87016376Y-84657188D01*
X87051000Y-84831259D01*
X87051000Y-85008741D01*
X87016376Y-85182812D01*
X86948456Y-85346784D01*
X86849853Y-85494354D01*
X86724354Y-85619853D01*
X86576784Y-85718456D01*
X86412812Y-85786376D01*
X86263512Y-85816073D01*
X86238742Y-85821000D01*
X86061258Y-85821000D01*
X86036488Y-85816073D01*
X85887188Y-85786376D01*
X85723216Y-85718456D01*
X85575646Y-85619853D01*
X85450147Y-85494354D01*
X85351544Y-85346784D01*
X85283624Y-85182812D01*
X85249000Y-85008741D01*
X85249000Y-84831259D01*
X85283624Y-84657188D01*
X85351544Y-84493216D01*
X85450147Y-84345646D01*
X85575646Y-84220147D01*
X85723216Y-84121544D01*
X85887188Y-84053624D01*
X86036488Y-84023927D01*
X86061258Y-84019000D01*
X86238742Y-84019000D01*
X86263512Y-84023927D01*
G37*
G36*
X89993512Y-84003927D02*
G01*
X90142812Y-84033624D01*
X90306784Y-84101544D01*
X90454354Y-84200147D01*
X90579853Y-84325646D01*
X90678456Y-84473216D01*
X90746376Y-84637188D01*
X90781000Y-84811259D01*
X90781000Y-84988741D01*
X90746376Y-85162812D01*
X90678456Y-85326784D01*
X90579853Y-85474354D01*
X90454354Y-85599853D01*
X90306784Y-85698456D01*
X90142812Y-85766376D01*
X90016230Y-85791554D01*
X89968742Y-85801000D01*
X89791258Y-85801000D01*
X89743770Y-85791554D01*
X89617188Y-85766376D01*
X89453216Y-85698456D01*
X89305646Y-85599853D01*
X89180147Y-85474354D01*
X89081544Y-85326784D01*
X89013624Y-85162812D01*
X88979000Y-84988741D01*
X88979000Y-84811259D01*
X89013624Y-84637188D01*
X89081544Y-84473216D01*
X89180147Y-84325646D01*
X89305646Y-84200147D01*
X89453216Y-84101544D01*
X89617188Y-84033624D01*
X89766488Y-84003927D01*
X89791258Y-83999000D01*
X89968742Y-83999000D01*
X89993512Y-84003927D01*
G37*
G36*
X62984499Y-84353445D02*
G01*
X63021995Y-84364820D01*
X63056554Y-84383292D01*
X63086847Y-84408153D01*
X63111708Y-84438446D01*
X63130180Y-84473005D01*
X63141555Y-84510501D01*
X63146000Y-84555638D01*
X63146000Y-85294362D01*
X63141555Y-85339499D01*
X63130180Y-85376995D01*
X63111708Y-85411554D01*
X63086847Y-85441847D01*
X63056554Y-85466708D01*
X63021995Y-85485180D01*
X62984499Y-85496555D01*
X62939362Y-85501000D01*
X62300638Y-85501000D01*
X62255501Y-85496555D01*
X62218005Y-85485180D01*
X62183446Y-85466708D01*
X62153153Y-85441847D01*
X62128292Y-85411554D01*
X62109820Y-85376995D01*
X62098445Y-85339499D01*
X62094000Y-85294362D01*
X62094000Y-84555638D01*
X62098445Y-84510501D01*
X62109820Y-84473005D01*
X62128292Y-84438446D01*
X62153153Y-84408153D01*
X62183446Y-84383292D01*
X62218005Y-84364820D01*
X62255501Y-84353445D01*
X62300638Y-84349000D01*
X62939362Y-84349000D01*
X62984499Y-84353445D01*
G37*
G36*
X71084124Y-81807499D02*
G01*
X71112387Y-81816073D01*
X71138434Y-81829996D01*
X71161267Y-81848733D01*
X71180004Y-81871566D01*
X71193927Y-81897613D01*
X71202501Y-81925876D01*
X71206000Y-81961408D01*
X71206000Y-85098592D01*
X71202501Y-85134124D01*
X71193927Y-85162387D01*
X71180004Y-85188434D01*
X71161267Y-85211267D01*
X71138434Y-85230004D01*
X71112387Y-85243927D01*
X71084124Y-85252501D01*
X71048592Y-85256000D01*
X67911408Y-85256000D01*
X67875876Y-85252501D01*
X67847613Y-85243927D01*
X67821566Y-85230004D01*
X67798733Y-85211267D01*
X67779996Y-85188434D01*
X67766073Y-85162387D01*
X67757499Y-85134124D01*
X67754000Y-85098592D01*
X67754000Y-81961408D01*
X67757499Y-81925876D01*
X67766073Y-81897613D01*
X67779996Y-81871566D01*
X67798733Y-81848733D01*
X67821566Y-81829996D01*
X67847613Y-81816073D01*
X67875876Y-81807499D01*
X67911408Y-81804000D01*
X71048592Y-81804000D01*
X71084124Y-81807499D01*
G37*
G36*
X61041000Y-85231000D02*
G01*
X59739000Y-85231000D01*
X59739000Y-84329000D01*
X61041000Y-84329000D01*
X61041000Y-85231000D01*
G37*
G36*
X67460355Y-81855083D02*
G01*
X67465029Y-81856501D01*
X67469331Y-81858800D01*
X67473104Y-81861896D01*
X67476200Y-81865669D01*
X67478499Y-81869971D01*
X67479917Y-81874645D01*
X67481000Y-81885641D01*
X67481000Y-82174359D01*
X67479917Y-82185355D01*
X67478499Y-82190029D01*
X67476200Y-82194330D01*
X67470971Y-82200702D01*
X67457357Y-82221076D01*
X67447980Y-82243715D01*
X67443200Y-82267749D01*
X67443200Y-82292253D01*
X67447981Y-82316286D01*
X67457358Y-82338925D01*
X67470971Y-82359298D01*
X67476200Y-82365670D01*
X67478499Y-82369971D01*
X67479917Y-82374645D01*
X67481000Y-82385641D01*
X67481000Y-82674359D01*
X67479917Y-82685355D01*
X67478499Y-82690029D01*
X67476200Y-82694330D01*
X67470971Y-82700702D01*
X67457357Y-82721076D01*
X67447980Y-82743715D01*
X67443200Y-82767749D01*
X67443200Y-82792253D01*
X67447981Y-82816286D01*
X67457358Y-82838925D01*
X67470971Y-82859298D01*
X67476200Y-82865670D01*
X67478499Y-82869971D01*
X67479917Y-82874645D01*
X67481000Y-82885641D01*
X67481000Y-83174359D01*
X67479917Y-83185355D01*
X67478499Y-83190029D01*
X67476200Y-83194330D01*
X67470971Y-83200702D01*
X67457357Y-83221076D01*
X67447980Y-83243715D01*
X67443200Y-83267749D01*
X67443200Y-83292253D01*
X67447981Y-83316286D01*
X67457358Y-83338925D01*
X67470971Y-83359298D01*
X67476200Y-83365670D01*
X67478499Y-83369971D01*
X67479917Y-83374645D01*
X67481000Y-83385641D01*
X67481000Y-83674359D01*
X67479917Y-83685355D01*
X67478499Y-83690029D01*
X67476200Y-83694330D01*
X67470971Y-83700702D01*
X67457357Y-83721076D01*
X67447980Y-83743715D01*
X67443200Y-83767749D01*
X67443200Y-83792253D01*
X67447981Y-83816286D01*
X67457358Y-83838925D01*
X67470971Y-83859298D01*
X67476200Y-83865670D01*
X67478499Y-83869971D01*
X67479917Y-83874645D01*
X67481000Y-83885641D01*
X67481000Y-84174359D01*
X67479917Y-84185355D01*
X67478499Y-84190029D01*
X67476200Y-84194330D01*
X67470971Y-84200702D01*
X67457357Y-84221076D01*
X67447980Y-84243715D01*
X67443200Y-84267749D01*
X67443200Y-84292253D01*
X67447981Y-84316286D01*
X67457358Y-84338925D01*
X67470971Y-84359298D01*
X67476200Y-84365670D01*
X67478499Y-84369971D01*
X67479917Y-84374645D01*
X67481000Y-84385641D01*
X67481000Y-84674359D01*
X67479917Y-84685355D01*
X67478499Y-84690029D01*
X67476200Y-84694330D01*
X67470971Y-84700702D01*
X67457357Y-84721076D01*
X67447980Y-84743715D01*
X67443200Y-84767749D01*
X67443200Y-84792253D01*
X67447981Y-84816286D01*
X67457358Y-84838925D01*
X67470971Y-84859298D01*
X67476200Y-84865670D01*
X67478499Y-84869971D01*
X67479917Y-84874645D01*
X67481000Y-84885641D01*
X67481000Y-85174359D01*
X67479917Y-85185355D01*
X67478499Y-85190029D01*
X67476200Y-85194331D01*
X67473104Y-85198104D01*
X67469331Y-85201200D01*
X67465029Y-85203499D01*
X67460355Y-85204917D01*
X67449359Y-85206000D01*
X66610641Y-85206000D01*
X66599645Y-85204917D01*
X66594971Y-85203499D01*
X66590669Y-85201200D01*
X66586896Y-85198104D01*
X66583800Y-85194331D01*
X66581501Y-85190029D01*
X66580083Y-85185355D01*
X66579000Y-85174359D01*
X66579000Y-84885641D01*
X66580083Y-84874645D01*
X66581501Y-84869971D01*
X66583800Y-84865670D01*
X66589029Y-84859298D01*
X66602643Y-84838924D01*
X66612020Y-84816285D01*
X66616800Y-84792251D01*
X66616800Y-84767747D01*
X66612019Y-84743714D01*
X66602642Y-84721075D01*
X66589029Y-84700702D01*
X66583800Y-84694330D01*
X66581501Y-84690029D01*
X66580083Y-84685355D01*
X66579000Y-84674359D01*
X66579000Y-84385641D01*
X66580083Y-84374645D01*
X66581501Y-84369971D01*
X66583800Y-84365670D01*
X66589029Y-84359298D01*
X66602643Y-84338924D01*
X66612020Y-84316285D01*
X66616800Y-84292251D01*
X66616800Y-84267747D01*
X66612019Y-84243714D01*
X66602642Y-84221075D01*
X66589029Y-84200702D01*
X66583800Y-84194330D01*
X66581501Y-84190029D01*
X66580083Y-84185355D01*
X66579000Y-84174359D01*
X66579000Y-83885641D01*
X66580083Y-83874645D01*
X66581501Y-83869971D01*
X66583800Y-83865670D01*
X66589029Y-83859298D01*
X66602643Y-83838924D01*
X66612020Y-83816285D01*
X66616800Y-83792251D01*
X66616800Y-83767747D01*
X66612019Y-83743714D01*
X66602642Y-83721075D01*
X66589029Y-83700702D01*
X66583800Y-83694330D01*
X66581501Y-83690029D01*
X66580083Y-83685355D01*
X66579000Y-83674359D01*
X66579000Y-83385641D01*
X66580083Y-83374645D01*
X66581501Y-83369971D01*
X66583800Y-83365670D01*
X66589029Y-83359298D01*
X66602643Y-83338924D01*
X66612020Y-83316285D01*
X66616800Y-83292251D01*
X66616800Y-83267747D01*
X66612019Y-83243714D01*
X66602642Y-83221075D01*
X66589029Y-83200702D01*
X66583800Y-83194330D01*
X66581501Y-83190029D01*
X66580083Y-83185355D01*
X66579000Y-83174359D01*
X66579000Y-82885641D01*
X66580083Y-82874645D01*
X66581501Y-82869971D01*
X66583800Y-82865670D01*
X66589029Y-82859298D01*
X66602643Y-82838924D01*
X66612020Y-82816285D01*
X66616800Y-82792251D01*
X66616800Y-82767747D01*
X66612019Y-82743714D01*
X66602642Y-82721075D01*
X66589029Y-82700702D01*
X66583800Y-82694330D01*
X66581501Y-82690029D01*
X66580083Y-82685355D01*
X66579000Y-82674359D01*
X66579000Y-82385641D01*
X66580083Y-82374645D01*
X66581501Y-82369971D01*
X66583800Y-82365670D01*
X66589029Y-82359298D01*
X66602643Y-82338924D01*
X66612020Y-82316285D01*
X66616800Y-82292251D01*
X66616800Y-82267747D01*
X66612019Y-82243714D01*
X66602642Y-82221075D01*
X66589029Y-82200702D01*
X66583800Y-82194330D01*
X66581501Y-82190029D01*
X66580083Y-82185355D01*
X66579000Y-82174359D01*
X66579000Y-81885641D01*
X66580083Y-81874645D01*
X66581501Y-81869971D01*
X66583800Y-81865669D01*
X66586896Y-81861896D01*
X66590669Y-81858800D01*
X66594971Y-81856501D01*
X66599645Y-81855083D01*
X66610641Y-81854000D01*
X67449359Y-81854000D01*
X67460355Y-81855083D01*
G37*
G36*
X72360355Y-81855083D02*
G01*
X72365029Y-81856501D01*
X72369331Y-81858800D01*
X72373104Y-81861896D01*
X72376200Y-81865669D01*
X72378499Y-81869971D01*
X72379917Y-81874645D01*
X72381000Y-81885641D01*
X72381000Y-82174359D01*
X72379917Y-82185355D01*
X72378499Y-82190029D01*
X72376200Y-82194330D01*
X72370971Y-82200702D01*
X72357357Y-82221076D01*
X72347980Y-82243715D01*
X72343200Y-82267749D01*
X72343200Y-82292253D01*
X72347981Y-82316286D01*
X72357358Y-82338925D01*
X72370971Y-82359298D01*
X72376200Y-82365670D01*
X72378499Y-82369971D01*
X72379917Y-82374645D01*
X72381000Y-82385641D01*
X72381000Y-82674359D01*
X72379917Y-82685355D01*
X72378499Y-82690029D01*
X72376200Y-82694330D01*
X72370971Y-82700702D01*
X72357357Y-82721076D01*
X72347980Y-82743715D01*
X72343200Y-82767749D01*
X72343200Y-82792253D01*
X72347981Y-82816286D01*
X72357358Y-82838925D01*
X72370971Y-82859298D01*
X72376200Y-82865670D01*
X72378499Y-82869971D01*
X72379917Y-82874645D01*
X72381000Y-82885641D01*
X72381000Y-83174359D01*
X72379917Y-83185355D01*
X72378499Y-83190029D01*
X72376200Y-83194330D01*
X72370971Y-83200702D01*
X72357357Y-83221076D01*
X72347980Y-83243715D01*
X72343200Y-83267749D01*
X72343200Y-83292253D01*
X72347981Y-83316286D01*
X72357358Y-83338925D01*
X72370971Y-83359298D01*
X72376200Y-83365670D01*
X72378499Y-83369971D01*
X72379917Y-83374645D01*
X72381000Y-83385641D01*
X72381000Y-83674359D01*
X72379917Y-83685355D01*
X72378499Y-83690029D01*
X72376200Y-83694330D01*
X72370971Y-83700702D01*
X72357357Y-83721076D01*
X72347980Y-83743715D01*
X72343200Y-83767749D01*
X72343200Y-83792253D01*
X72347981Y-83816286D01*
X72357358Y-83838925D01*
X72370971Y-83859298D01*
X72376200Y-83865670D01*
X72378499Y-83869971D01*
X72379917Y-83874645D01*
X72381000Y-83885641D01*
X72381000Y-84174359D01*
X72379917Y-84185355D01*
X72378499Y-84190029D01*
X72376200Y-84194330D01*
X72370971Y-84200702D01*
X72357357Y-84221076D01*
X72347980Y-84243715D01*
X72343200Y-84267749D01*
X72343200Y-84292253D01*
X72347981Y-84316286D01*
X72357358Y-84338925D01*
X72370971Y-84359298D01*
X72376200Y-84365670D01*
X72378499Y-84369971D01*
X72379917Y-84374645D01*
X72381000Y-84385641D01*
X72381000Y-84674359D01*
X72379917Y-84685355D01*
X72378499Y-84690029D01*
X72376200Y-84694330D01*
X72370971Y-84700702D01*
X72357357Y-84721076D01*
X72347980Y-84743715D01*
X72343200Y-84767749D01*
X72343200Y-84792253D01*
X72347981Y-84816286D01*
X72357358Y-84838925D01*
X72370971Y-84859298D01*
X72376200Y-84865670D01*
X72378499Y-84869971D01*
X72379917Y-84874645D01*
X72381000Y-84885641D01*
X72381000Y-85174359D01*
X72379917Y-85185355D01*
X72378499Y-85190029D01*
X72376200Y-85194331D01*
X72373104Y-85198104D01*
X72369331Y-85201200D01*
X72365029Y-85203499D01*
X72360355Y-85204917D01*
X72349359Y-85206000D01*
X71510641Y-85206000D01*
X71499645Y-85204917D01*
X71494971Y-85203499D01*
X71490669Y-85201200D01*
X71486896Y-85198104D01*
X71483800Y-85194331D01*
X71481501Y-85190029D01*
X71480083Y-85185355D01*
X71479000Y-85174359D01*
X71479000Y-84885641D01*
X71480083Y-84874645D01*
X71481501Y-84869971D01*
X71483800Y-84865670D01*
X71489029Y-84859298D01*
X71502643Y-84838924D01*
X71512020Y-84816285D01*
X71516800Y-84792251D01*
X71516800Y-84767747D01*
X71512019Y-84743714D01*
X71502642Y-84721075D01*
X71489029Y-84700702D01*
X71483800Y-84694330D01*
X71481501Y-84690029D01*
X71480083Y-84685355D01*
X71479000Y-84674359D01*
X71479000Y-84385641D01*
X71480083Y-84374645D01*
X71481501Y-84369971D01*
X71483800Y-84365670D01*
X71489029Y-84359298D01*
X71502643Y-84338924D01*
X71512020Y-84316285D01*
X71516800Y-84292251D01*
X71516800Y-84267747D01*
X71512019Y-84243714D01*
X71502642Y-84221075D01*
X71489029Y-84200702D01*
X71483800Y-84194330D01*
X71481501Y-84190029D01*
X71480083Y-84185355D01*
X71479000Y-84174359D01*
X71479000Y-83885641D01*
X71480083Y-83874645D01*
X71481501Y-83869971D01*
X71483800Y-83865670D01*
X71489029Y-83859298D01*
X71502643Y-83838924D01*
X71512020Y-83816285D01*
X71516800Y-83792251D01*
X71516800Y-83767747D01*
X71512019Y-83743714D01*
X71502642Y-83721075D01*
X71489029Y-83700702D01*
X71483800Y-83694330D01*
X71481501Y-83690029D01*
X71480083Y-83685355D01*
X71479000Y-83674359D01*
X71479000Y-83385641D01*
X71480083Y-83374645D01*
X71481501Y-83369971D01*
X71483800Y-83365670D01*
X71489029Y-83359298D01*
X71502643Y-83338924D01*
X71512020Y-83316285D01*
X71516800Y-83292251D01*
X71516800Y-83267747D01*
X71512019Y-83243714D01*
X71502642Y-83221075D01*
X71489029Y-83200702D01*
X71483800Y-83194330D01*
X71481501Y-83190029D01*
X71480083Y-83185355D01*
X71479000Y-83174359D01*
X71479000Y-82885641D01*
X71480083Y-82874645D01*
X71481501Y-82869971D01*
X71483800Y-82865670D01*
X71489029Y-82859298D01*
X71502643Y-82838924D01*
X71512020Y-82816285D01*
X71516800Y-82792251D01*
X71516800Y-82767747D01*
X71512019Y-82743714D01*
X71502642Y-82721075D01*
X71489029Y-82700702D01*
X71483800Y-82694330D01*
X71481501Y-82690029D01*
X71480083Y-82685355D01*
X71479000Y-82674359D01*
X71479000Y-82385641D01*
X71480083Y-82374645D01*
X71481501Y-82369971D01*
X71483800Y-82365670D01*
X71489029Y-82359298D01*
X71502643Y-82338924D01*
X71512020Y-82316285D01*
X71516800Y-82292251D01*
X71516800Y-82267747D01*
X71512019Y-82243714D01*
X71502642Y-82221075D01*
X71489029Y-82200702D01*
X71483800Y-82194330D01*
X71481501Y-82190029D01*
X71480083Y-82185355D01*
X71479000Y-82174359D01*
X71479000Y-81885641D01*
X71480083Y-81874645D01*
X71481501Y-81869971D01*
X71483800Y-81865669D01*
X71486896Y-81861896D01*
X71490669Y-81858800D01*
X71494971Y-81856501D01*
X71499645Y-81855083D01*
X71510641Y-81854000D01*
X72349359Y-81854000D01*
X72360355Y-81855083D01*
G37*
G36*
X76624499Y-83008445D02*
G01*
X76661995Y-83019820D01*
X76696554Y-83038292D01*
X76726847Y-83063153D01*
X76751708Y-83093446D01*
X76770180Y-83128005D01*
X76781555Y-83165501D01*
X76786000Y-83210638D01*
X76786000Y-83849362D01*
X76781555Y-83894499D01*
X76770180Y-83931995D01*
X76751708Y-83966554D01*
X76726847Y-83996847D01*
X76696554Y-84021708D01*
X76661995Y-84040180D01*
X76624499Y-84051555D01*
X76579362Y-84056000D01*
X75840638Y-84056000D01*
X75795501Y-84051555D01*
X75758005Y-84040180D01*
X75723446Y-84021708D01*
X75693153Y-83996847D01*
X75668292Y-83966554D01*
X75649820Y-83931995D01*
X75638445Y-83894499D01*
X75634000Y-83849362D01*
X75634000Y-83210638D01*
X75638445Y-83165501D01*
X75649820Y-83128005D01*
X75668292Y-83093446D01*
X75693153Y-83063153D01*
X75723446Y-83038292D01*
X75758005Y-83019820D01*
X75795501Y-83008445D01*
X75840638Y-83004000D01*
X76579362Y-83004000D01*
X76624499Y-83008445D01*
G37*
G36*
X74874499Y-83008445D02*
G01*
X74911995Y-83019820D01*
X74946554Y-83038292D01*
X74976847Y-83063153D01*
X75001708Y-83093446D01*
X75020180Y-83128005D01*
X75031555Y-83165501D01*
X75036000Y-83210638D01*
X75036000Y-83849362D01*
X75031555Y-83894499D01*
X75020180Y-83931995D01*
X75001708Y-83966554D01*
X74976847Y-83996847D01*
X74946554Y-84021708D01*
X74911995Y-84040180D01*
X74874499Y-84051555D01*
X74829362Y-84056000D01*
X74090638Y-84056000D01*
X74045501Y-84051555D01*
X74008005Y-84040180D01*
X73973446Y-84021708D01*
X73943153Y-83996847D01*
X73918292Y-83966554D01*
X73899820Y-83931995D01*
X73888445Y-83894499D01*
X73884000Y-83849362D01*
X73884000Y-83210638D01*
X73888445Y-83165501D01*
X73899820Y-83128005D01*
X73918292Y-83093446D01*
X73943153Y-83063153D01*
X73973446Y-83038292D01*
X74008005Y-83019820D01*
X74045501Y-83008445D01*
X74090638Y-83004000D01*
X74829362Y-83004000D01*
X74874499Y-83008445D01*
G37*
G36*
X62974499Y-82228445D02*
G01*
X63011995Y-82239820D01*
X63046554Y-82258292D01*
X63076847Y-82283153D01*
X63101708Y-82313446D01*
X63120180Y-82348005D01*
X63131555Y-82385501D01*
X63136000Y-82430638D01*
X63136000Y-83169362D01*
X63131555Y-83214499D01*
X63120180Y-83251995D01*
X63101708Y-83286554D01*
X63076847Y-83316847D01*
X63046554Y-83341708D01*
X63011995Y-83360180D01*
X62974499Y-83371555D01*
X62929362Y-83376000D01*
X62290638Y-83376000D01*
X62245501Y-83371555D01*
X62208005Y-83360180D01*
X62173446Y-83341708D01*
X62143153Y-83316847D01*
X62118292Y-83286554D01*
X62099820Y-83251995D01*
X62088445Y-83214499D01*
X62084000Y-83169362D01*
X62084000Y-82430638D01*
X62088445Y-82385501D01*
X62099820Y-82348005D01*
X62118292Y-82313446D01*
X62143153Y-82283153D01*
X62173446Y-82258292D01*
X62208005Y-82239820D01*
X62245501Y-82228445D01*
X62290638Y-82224000D01*
X62929362Y-82224000D01*
X62974499Y-82228445D01*
G37*
G36*
X86263512Y-81483927D02*
G01*
X86412812Y-81513624D01*
X86576784Y-81581544D01*
X86724354Y-81680147D01*
X86849853Y-81805646D01*
X86948456Y-81953216D01*
X87016376Y-82117188D01*
X87040768Y-82239820D01*
X87048960Y-82281000D01*
X87051000Y-82291259D01*
X87051000Y-82468741D01*
X87016376Y-82642812D01*
X86948456Y-82806784D01*
X86849853Y-82954354D01*
X86724354Y-83079853D01*
X86576784Y-83178456D01*
X86412812Y-83246376D01*
X86263512Y-83276073D01*
X86238742Y-83281000D01*
X86061258Y-83281000D01*
X86036488Y-83276073D01*
X85887188Y-83246376D01*
X85723216Y-83178456D01*
X85575646Y-83079853D01*
X85450147Y-82954354D01*
X85351544Y-82806784D01*
X85283624Y-82642812D01*
X85249000Y-82468741D01*
X85249000Y-82291259D01*
X85251041Y-82281000D01*
X85259232Y-82239820D01*
X85283624Y-82117188D01*
X85351544Y-81953216D01*
X85450147Y-81805646D01*
X85575646Y-81680147D01*
X85723216Y-81581544D01*
X85887188Y-81513624D01*
X86036488Y-81483927D01*
X86061258Y-81479000D01*
X86238742Y-81479000D01*
X86263512Y-81483927D01*
G37*
G36*
X89992099Y-81463646D02*
G01*
X90142812Y-81493624D01*
X90306784Y-81561544D01*
X90454354Y-81660147D01*
X90579853Y-81785646D01*
X90678456Y-81933216D01*
X90746376Y-82097188D01*
X90775521Y-82243714D01*
X90780302Y-82267747D01*
X90781000Y-82271259D01*
X90781000Y-82448741D01*
X90746376Y-82622812D01*
X90678456Y-82786784D01*
X90579853Y-82934354D01*
X90454354Y-83059853D01*
X90306784Y-83158456D01*
X90142812Y-83226376D01*
X90014013Y-83251995D01*
X89968742Y-83261000D01*
X89791258Y-83261000D01*
X89745987Y-83251995D01*
X89617188Y-83226376D01*
X89453216Y-83158456D01*
X89305646Y-83059853D01*
X89180147Y-82934354D01*
X89081544Y-82786784D01*
X89013624Y-82622812D01*
X88979000Y-82448741D01*
X88979000Y-82271259D01*
X88979699Y-82267747D01*
X88984479Y-82243714D01*
X89013624Y-82097188D01*
X89081544Y-81933216D01*
X89180147Y-81785646D01*
X89305646Y-81660147D01*
X89453216Y-81561544D01*
X89617188Y-81493624D01*
X89767901Y-81463646D01*
X89791258Y-81459000D01*
X89968742Y-81459000D01*
X89992099Y-81463646D01*
G37*
G36*
X61071000Y-83231000D02*
G01*
X59769000Y-83231000D01*
X59769000Y-82329000D01*
X61071000Y-82329000D01*
X61071000Y-83231000D01*
G37*
G36*
X43721000Y-82681000D02*
G01*
X41919000Y-82681000D01*
X41919000Y-80879000D01*
X43721000Y-80879000D01*
X43721000Y-82681000D01*
G37*
G36*
X58471000Y-82281000D02*
G01*
X57169000Y-82281000D01*
X57169000Y-81379000D01*
X58471000Y-81379000D01*
X58471000Y-82281000D01*
G37*
G36*
X62974499Y-80478445D02*
G01*
X63011995Y-80489820D01*
X63046554Y-80508292D01*
X63076847Y-80533153D01*
X63101708Y-80563446D01*
X63120180Y-80598005D01*
X63131555Y-80635501D01*
X63136000Y-80680638D01*
X63136000Y-81419362D01*
X63131555Y-81464499D01*
X63120180Y-81501995D01*
X63101708Y-81536554D01*
X63076847Y-81566847D01*
X63046554Y-81591708D01*
X63011995Y-81610180D01*
X62974499Y-81621555D01*
X62929362Y-81626000D01*
X62290638Y-81626000D01*
X62245501Y-81621555D01*
X62208005Y-81610180D01*
X62173446Y-81591708D01*
X62143153Y-81566847D01*
X62118292Y-81536554D01*
X62099820Y-81501995D01*
X62088445Y-81464499D01*
X62084000Y-81419362D01*
X62084000Y-80680638D01*
X62088445Y-80635501D01*
X62099820Y-80598005D01*
X62118292Y-80563446D01*
X62143153Y-80533153D01*
X62173446Y-80508292D01*
X62208005Y-80489820D01*
X62245501Y-80478445D01*
X62290638Y-80474000D01*
X62929362Y-80474000D01*
X62974499Y-80478445D01*
G37*
G36*
X68135355Y-80630083D02*
G01*
X68140029Y-80631501D01*
X68144330Y-80633800D01*
X68150702Y-80639029D01*
X68171076Y-80652643D01*
X68193715Y-80662020D01*
X68217749Y-80666800D01*
X68242253Y-80666800D01*
X68266286Y-80662019D01*
X68288925Y-80652642D01*
X68309298Y-80639029D01*
X68315670Y-80633800D01*
X68319971Y-80631501D01*
X68324645Y-80630083D01*
X68335641Y-80629000D01*
X68624359Y-80629000D01*
X68635355Y-80630083D01*
X68640029Y-80631501D01*
X68644330Y-80633800D01*
X68650702Y-80639029D01*
X68671076Y-80652643D01*
X68693715Y-80662020D01*
X68717749Y-80666800D01*
X68742253Y-80666800D01*
X68766286Y-80662019D01*
X68788925Y-80652642D01*
X68809298Y-80639029D01*
X68815670Y-80633800D01*
X68819971Y-80631501D01*
X68824645Y-80630083D01*
X68835641Y-80629000D01*
X69124359Y-80629000D01*
X69135355Y-80630083D01*
X69140029Y-80631501D01*
X69144330Y-80633800D01*
X69150702Y-80639029D01*
X69171076Y-80652643D01*
X69193715Y-80662020D01*
X69217749Y-80666800D01*
X69242253Y-80666800D01*
X69266286Y-80662019D01*
X69288925Y-80652642D01*
X69309298Y-80639029D01*
X69315670Y-80633800D01*
X69319971Y-80631501D01*
X69324645Y-80630083D01*
X69335641Y-80629000D01*
X69624359Y-80629000D01*
X69635355Y-80630083D01*
X69640029Y-80631501D01*
X69644330Y-80633800D01*
X69650702Y-80639029D01*
X69671076Y-80652643D01*
X69693715Y-80662020D01*
X69717749Y-80666800D01*
X69742253Y-80666800D01*
X69766286Y-80662019D01*
X69788925Y-80652642D01*
X69809298Y-80639029D01*
X69815670Y-80633800D01*
X69819971Y-80631501D01*
X69824645Y-80630083D01*
X69835641Y-80629000D01*
X70124359Y-80629000D01*
X70135355Y-80630083D01*
X70140029Y-80631501D01*
X70144330Y-80633800D01*
X70150702Y-80639029D01*
X70171076Y-80652643D01*
X70193715Y-80662020D01*
X70217749Y-80666800D01*
X70242253Y-80666800D01*
X70266286Y-80662019D01*
X70288925Y-80652642D01*
X70309298Y-80639029D01*
X70315670Y-80633800D01*
X70319971Y-80631501D01*
X70324645Y-80630083D01*
X70335641Y-80629000D01*
X70624359Y-80629000D01*
X70635355Y-80630083D01*
X70640029Y-80631501D01*
X70644330Y-80633800D01*
X70650702Y-80639029D01*
X70671076Y-80652643D01*
X70693715Y-80662020D01*
X70717749Y-80666800D01*
X70742253Y-80666800D01*
X70766286Y-80662019D01*
X70788925Y-80652642D01*
X70809298Y-80639029D01*
X70815670Y-80633800D01*
X70819971Y-80631501D01*
X70824645Y-80630083D01*
X70835641Y-80629000D01*
X71124359Y-80629000D01*
X71135355Y-80630083D01*
X71140029Y-80631501D01*
X71144331Y-80633800D01*
X71148104Y-80636896D01*
X71151200Y-80640669D01*
X71153499Y-80644971D01*
X71154917Y-80649645D01*
X71156000Y-80660641D01*
X71156000Y-81499359D01*
X71154917Y-81510355D01*
X71153499Y-81515029D01*
X71151200Y-81519331D01*
X71148104Y-81523104D01*
X71144331Y-81526200D01*
X71140029Y-81528499D01*
X71135355Y-81529917D01*
X71124359Y-81531000D01*
X70835641Y-81531000D01*
X70824645Y-81529917D01*
X70819971Y-81528499D01*
X70815670Y-81526200D01*
X70809298Y-81520971D01*
X70788924Y-81507357D01*
X70766285Y-81497980D01*
X70742251Y-81493200D01*
X70717747Y-81493200D01*
X70693714Y-81497981D01*
X70671075Y-81507358D01*
X70650702Y-81520971D01*
X70644330Y-81526200D01*
X70640029Y-81528499D01*
X70635355Y-81529917D01*
X70624359Y-81531000D01*
X70335641Y-81531000D01*
X70324645Y-81529917D01*
X70319971Y-81528499D01*
X70315670Y-81526200D01*
X70309298Y-81520971D01*
X70288924Y-81507357D01*
X70266285Y-81497980D01*
X70242251Y-81493200D01*
X70217747Y-81493200D01*
X70193714Y-81497981D01*
X70171075Y-81507358D01*
X70150702Y-81520971D01*
X70144330Y-81526200D01*
X70140029Y-81528499D01*
X70135355Y-81529917D01*
X70124359Y-81531000D01*
X69835641Y-81531000D01*
X69824645Y-81529917D01*
X69819971Y-81528499D01*
X69815670Y-81526200D01*
X69809298Y-81520971D01*
X69788924Y-81507357D01*
X69766285Y-81497980D01*
X69742251Y-81493200D01*
X69717747Y-81493200D01*
X69693714Y-81497981D01*
X69671075Y-81507358D01*
X69650702Y-81520971D01*
X69644330Y-81526200D01*
X69640029Y-81528499D01*
X69635355Y-81529917D01*
X69624359Y-81531000D01*
X69335641Y-81531000D01*
X69324645Y-81529917D01*
X69319971Y-81528499D01*
X69315670Y-81526200D01*
X69309298Y-81520971D01*
X69288924Y-81507357D01*
X69266285Y-81497980D01*
X69242251Y-81493200D01*
X69217747Y-81493200D01*
X69193714Y-81497981D01*
X69171075Y-81507358D01*
X69150702Y-81520971D01*
X69144330Y-81526200D01*
X69140029Y-81528499D01*
X69135355Y-81529917D01*
X69124359Y-81531000D01*
X68835641Y-81531000D01*
X68824645Y-81529917D01*
X68819971Y-81528499D01*
X68815670Y-81526200D01*
X68809298Y-81520971D01*
X68788924Y-81507357D01*
X68766285Y-81497980D01*
X68742251Y-81493200D01*
X68717747Y-81493200D01*
X68693714Y-81497981D01*
X68671075Y-81507358D01*
X68650702Y-81520971D01*
X68644330Y-81526200D01*
X68640029Y-81528499D01*
X68635355Y-81529917D01*
X68624359Y-81531000D01*
X68335641Y-81531000D01*
X68324645Y-81529917D01*
X68319971Y-81528499D01*
X68315670Y-81526200D01*
X68309298Y-81520971D01*
X68288924Y-81507357D01*
X68266285Y-81497980D01*
X68242251Y-81493200D01*
X68217747Y-81493200D01*
X68193714Y-81497981D01*
X68171075Y-81507358D01*
X68150702Y-81520971D01*
X68144330Y-81526200D01*
X68140029Y-81528499D01*
X68135355Y-81529917D01*
X68124359Y-81531000D01*
X67835641Y-81531000D01*
X67824645Y-81529917D01*
X67819971Y-81528499D01*
X67815669Y-81526200D01*
X67811896Y-81523104D01*
X67808800Y-81519331D01*
X67806501Y-81515029D01*
X67805083Y-81510355D01*
X67804000Y-81499359D01*
X67804000Y-80660641D01*
X67805083Y-80649645D01*
X67806501Y-80644971D01*
X67808800Y-80640669D01*
X67811896Y-80636896D01*
X67815669Y-80633800D01*
X67819971Y-80631501D01*
X67824645Y-80630083D01*
X67835641Y-80629000D01*
X68124359Y-80629000D01*
X68135355Y-80630083D01*
G37*
G36*
X61071000Y-81331000D02*
G01*
X59769000Y-81331000D01*
X59769000Y-80429000D01*
X61071000Y-80429000D01*
X61071000Y-81331000D01*
G37*
G36*
X75644499Y-80018445D02*
G01*
X75681995Y-80029820D01*
X75716554Y-80048292D01*
X75746847Y-80073153D01*
X75771708Y-80103446D01*
X75790180Y-80138005D01*
X75801555Y-80175501D01*
X75806000Y-80220638D01*
X75806000Y-80859362D01*
X75801555Y-80904499D01*
X75790180Y-80941995D01*
X75771708Y-80976554D01*
X75746847Y-81006847D01*
X75716554Y-81031708D01*
X75681995Y-81050180D01*
X75644499Y-81061555D01*
X75599362Y-81066000D01*
X74860638Y-81066000D01*
X74815501Y-81061555D01*
X74778005Y-81050180D01*
X74743446Y-81031708D01*
X74713153Y-81006847D01*
X74688292Y-80976554D01*
X74669820Y-80941995D01*
X74658445Y-80904499D01*
X74654000Y-80859362D01*
X74654000Y-80220638D01*
X74658445Y-80175501D01*
X74669820Y-80138005D01*
X74688292Y-80103446D01*
X74713153Y-80073153D01*
X74743446Y-80048292D01*
X74778005Y-80029820D01*
X74815501Y-80018445D01*
X74860638Y-80014000D01*
X75599362Y-80014000D01*
X75644499Y-80018445D01*
G37*
G36*
X77394499Y-80018445D02*
G01*
X77431995Y-80029820D01*
X77466554Y-80048292D01*
X77496847Y-80073153D01*
X77521708Y-80103446D01*
X77540180Y-80138005D01*
X77551555Y-80175501D01*
X77556000Y-80220638D01*
X77556000Y-80859362D01*
X77551555Y-80904499D01*
X77540180Y-80941995D01*
X77521708Y-80976554D01*
X77496847Y-81006847D01*
X77466554Y-81031708D01*
X77431995Y-81050180D01*
X77394499Y-81061555D01*
X77349362Y-81066000D01*
X76610638Y-81066000D01*
X76565501Y-81061555D01*
X76528005Y-81050180D01*
X76493446Y-81031708D01*
X76463153Y-81006847D01*
X76438292Y-80976554D01*
X76419820Y-80941995D01*
X76408445Y-80904499D01*
X76404000Y-80859362D01*
X76404000Y-80220638D01*
X76408445Y-80175501D01*
X76419820Y-80138005D01*
X76438292Y-80103446D01*
X76463153Y-80073153D01*
X76493446Y-80048292D01*
X76528005Y-80029820D01*
X76565501Y-80018445D01*
X76610638Y-80014000D01*
X77349362Y-80014000D01*
X77394499Y-80018445D01*
G37*
G36*
X78914591Y-80008085D02*
G01*
X78948569Y-80018393D01*
X78979890Y-80035134D01*
X79007339Y-80057661D01*
X79029866Y-80085110D01*
X79046607Y-80116431D01*
X79056915Y-80150409D01*
X79061000Y-80191890D01*
X79061000Y-80868110D01*
X79056915Y-80909591D01*
X79046607Y-80943569D01*
X79029866Y-80974890D01*
X79007339Y-81002339D01*
X78979890Y-81024866D01*
X78948569Y-81041607D01*
X78914591Y-81051915D01*
X78873110Y-81056000D01*
X78271890Y-81056000D01*
X78230409Y-81051915D01*
X78196431Y-81041607D01*
X78165110Y-81024866D01*
X78137661Y-81002339D01*
X78115134Y-80974890D01*
X78098393Y-80943569D01*
X78088085Y-80909591D01*
X78084000Y-80868110D01*
X78084000Y-80191890D01*
X78088085Y-80150409D01*
X78098393Y-80116431D01*
X78115134Y-80085110D01*
X78137661Y-80057661D01*
X78165110Y-80035134D01*
X78196431Y-80018393D01*
X78230409Y-80008085D01*
X78271890Y-80004000D01*
X78873110Y-80004000D01*
X78914591Y-80008085D01*
G37*
G36*
X80489591Y-80008085D02*
G01*
X80523569Y-80018393D01*
X80554890Y-80035134D01*
X80582339Y-80057661D01*
X80604866Y-80085110D01*
X80621607Y-80116431D01*
X80631915Y-80150409D01*
X80636000Y-80191890D01*
X80636000Y-80868110D01*
X80631915Y-80909591D01*
X80621607Y-80943569D01*
X80604866Y-80974890D01*
X80582339Y-81002339D01*
X80554890Y-81024866D01*
X80523569Y-81041607D01*
X80489591Y-81051915D01*
X80448110Y-81056000D01*
X79846890Y-81056000D01*
X79805409Y-81051915D01*
X79771431Y-81041607D01*
X79740110Y-81024866D01*
X79712661Y-81002339D01*
X79690134Y-80974890D01*
X79673393Y-80943569D01*
X79663085Y-80909591D01*
X79659000Y-80868110D01*
X79659000Y-80191890D01*
X79663085Y-80150409D01*
X79673393Y-80116431D01*
X79690134Y-80085110D01*
X79712661Y-80057661D01*
X79740110Y-80035134D01*
X79771431Y-80018393D01*
X79805409Y-80008085D01*
X79846890Y-80004000D01*
X80448110Y-80004000D01*
X80489591Y-80008085D01*
G37*
G36*
X42933512Y-78343927D02*
G01*
X43082812Y-78373624D01*
X43246784Y-78441544D01*
X43394354Y-78540147D01*
X43519853Y-78665646D01*
X43618456Y-78813216D01*
X43686376Y-78977188D01*
X43721000Y-79151259D01*
X43721000Y-79328741D01*
X43686376Y-79502812D01*
X43618456Y-79666784D01*
X43519853Y-79814354D01*
X43394354Y-79939853D01*
X43246784Y-80038456D01*
X43082812Y-80106376D01*
X42933512Y-80136073D01*
X42908742Y-80141000D01*
X42731258Y-80141000D01*
X42706488Y-80136073D01*
X42557188Y-80106376D01*
X42393216Y-80038456D01*
X42245646Y-79939853D01*
X42120147Y-79814354D01*
X42021544Y-79666784D01*
X41953624Y-79502812D01*
X41919000Y-79328741D01*
X41919000Y-79151259D01*
X41953624Y-78977188D01*
X42021544Y-78813216D01*
X42120147Y-78665646D01*
X42245646Y-78540147D01*
X42393216Y-78441544D01*
X42557188Y-78373624D01*
X42706488Y-78343927D01*
X42731258Y-78339000D01*
X42908742Y-78339000D01*
X42933512Y-78343927D01*
G37*
G36*
X67454499Y-78418445D02*
G01*
X67491995Y-78429820D01*
X67526554Y-78448292D01*
X67556847Y-78473153D01*
X67581708Y-78503446D01*
X67600180Y-78538005D01*
X67611555Y-78575501D01*
X67616000Y-78620638D01*
X67616000Y-79259362D01*
X67611555Y-79304499D01*
X67600180Y-79341995D01*
X67581708Y-79376554D01*
X67556847Y-79406847D01*
X67526554Y-79431708D01*
X67491995Y-79450180D01*
X67454499Y-79461555D01*
X67409362Y-79466000D01*
X66670638Y-79466000D01*
X66625501Y-79461555D01*
X66588005Y-79450180D01*
X66553446Y-79431708D01*
X66523153Y-79406847D01*
X66498292Y-79376554D01*
X66479820Y-79341995D01*
X66468445Y-79304499D01*
X66464000Y-79259362D01*
X66464000Y-78620638D01*
X66468445Y-78575501D01*
X66479820Y-78538005D01*
X66498292Y-78503446D01*
X66523153Y-78473153D01*
X66553446Y-78448292D01*
X66588005Y-78429820D01*
X66625501Y-78418445D01*
X66670638Y-78414000D01*
X67409362Y-78414000D01*
X67454499Y-78418445D01*
G37*
G36*
X69204499Y-78418445D02*
G01*
X69241995Y-78429820D01*
X69276554Y-78448292D01*
X69306847Y-78473153D01*
X69331708Y-78503446D01*
X69350180Y-78538005D01*
X69361555Y-78575501D01*
X69366000Y-78620638D01*
X69366000Y-79259362D01*
X69361555Y-79304499D01*
X69350180Y-79341995D01*
X69331708Y-79376554D01*
X69306847Y-79406847D01*
X69276554Y-79431708D01*
X69241995Y-79450180D01*
X69204499Y-79461555D01*
X69159362Y-79466000D01*
X68420638Y-79466000D01*
X68375501Y-79461555D01*
X68338005Y-79450180D01*
X68303446Y-79431708D01*
X68273153Y-79406847D01*
X68248292Y-79376554D01*
X68229820Y-79341995D01*
X68218445Y-79304499D01*
X68214000Y-79259362D01*
X68214000Y-78620638D01*
X68218445Y-78575501D01*
X68229820Y-78538005D01*
X68248292Y-78503446D01*
X68273153Y-78473153D01*
X68303446Y-78448292D01*
X68338005Y-78429820D01*
X68375501Y-78418445D01*
X68420638Y-78414000D01*
X69159362Y-78414000D01*
X69204499Y-78418445D01*
G37*
G36*
X70717091Y-78408085D02*
G01*
X70751069Y-78418393D01*
X70782390Y-78435134D01*
X70809839Y-78457661D01*
X70832366Y-78485110D01*
X70849107Y-78516431D01*
X70859415Y-78550409D01*
X70863500Y-78591890D01*
X70863500Y-79268110D01*
X70859415Y-79309591D01*
X70849107Y-79343569D01*
X70832366Y-79374890D01*
X70809839Y-79402339D01*
X70782390Y-79424866D01*
X70751069Y-79441607D01*
X70717091Y-79451915D01*
X70675610Y-79456000D01*
X70074390Y-79456000D01*
X70032909Y-79451915D01*
X69998931Y-79441607D01*
X69967610Y-79424866D01*
X69940161Y-79402339D01*
X69917634Y-79374890D01*
X69900893Y-79343569D01*
X69890585Y-79309591D01*
X69886500Y-79268110D01*
X69886500Y-78591890D01*
X69890585Y-78550409D01*
X69900893Y-78516431D01*
X69917634Y-78485110D01*
X69940161Y-78457661D01*
X69967610Y-78435134D01*
X69998931Y-78418393D01*
X70032909Y-78408085D01*
X70074390Y-78404000D01*
X70675610Y-78404000D01*
X70717091Y-78408085D01*
G37*
G36*
X72292091Y-78408085D02*
G01*
X72326069Y-78418393D01*
X72357390Y-78435134D01*
X72384839Y-78457661D01*
X72407366Y-78485110D01*
X72424107Y-78516431D01*
X72434415Y-78550409D01*
X72438500Y-78591890D01*
X72438500Y-79268110D01*
X72434415Y-79309591D01*
X72424107Y-79343569D01*
X72407366Y-79374890D01*
X72384839Y-79402339D01*
X72357390Y-79424866D01*
X72326069Y-79441607D01*
X72292091Y-79451915D01*
X72250610Y-79456000D01*
X71649390Y-79456000D01*
X71607909Y-79451915D01*
X71573931Y-79441607D01*
X71542610Y-79424866D01*
X71515161Y-79402339D01*
X71492634Y-79374890D01*
X71475893Y-79343569D01*
X71465585Y-79309591D01*
X71461500Y-79268110D01*
X71461500Y-78591890D01*
X71465585Y-78550409D01*
X71475893Y-78516431D01*
X71492634Y-78485110D01*
X71515161Y-78457661D01*
X71542610Y-78435134D01*
X71573931Y-78418393D01*
X71607909Y-78408085D01*
X71649390Y-78404000D01*
X72250610Y-78404000D01*
X72292091Y-78408085D01*
G37*
G36*
X73894499Y-78398445D02*
G01*
X73931995Y-78409820D01*
X73966554Y-78428292D01*
X73996847Y-78453153D01*
X74021708Y-78483446D01*
X74040180Y-78518005D01*
X74051555Y-78555501D01*
X74056000Y-78600638D01*
X74056000Y-79239362D01*
X74051555Y-79284499D01*
X74040180Y-79321995D01*
X74021708Y-79356554D01*
X73996847Y-79386847D01*
X73966554Y-79411708D01*
X73931995Y-79430180D01*
X73894499Y-79441555D01*
X73849362Y-79446000D01*
X73110638Y-79446000D01*
X73065501Y-79441555D01*
X73028005Y-79430180D01*
X72993446Y-79411708D01*
X72963153Y-79386847D01*
X72938292Y-79356554D01*
X72919820Y-79321995D01*
X72908445Y-79284499D01*
X72904000Y-79239362D01*
X72904000Y-78600638D01*
X72908445Y-78555501D01*
X72919820Y-78518005D01*
X72938292Y-78483446D01*
X72963153Y-78453153D01*
X72993446Y-78428292D01*
X73028005Y-78409820D01*
X73065501Y-78398445D01*
X73110638Y-78394000D01*
X73849362Y-78394000D01*
X73894499Y-78398445D01*
G37*
G36*
X75644499Y-78398445D02*
G01*
X75681995Y-78409820D01*
X75716554Y-78428292D01*
X75746847Y-78453153D01*
X75771708Y-78483446D01*
X75790180Y-78518005D01*
X75801555Y-78555501D01*
X75806000Y-78600638D01*
X75806000Y-79239362D01*
X75801555Y-79284499D01*
X75790180Y-79321995D01*
X75771708Y-79356554D01*
X75746847Y-79386847D01*
X75716554Y-79411708D01*
X75681995Y-79430180D01*
X75644499Y-79441555D01*
X75599362Y-79446000D01*
X74860638Y-79446000D01*
X74815501Y-79441555D01*
X74778005Y-79430180D01*
X74743446Y-79411708D01*
X74713153Y-79386847D01*
X74688292Y-79356554D01*
X74669820Y-79321995D01*
X74658445Y-79284499D01*
X74654000Y-79239362D01*
X74654000Y-78600638D01*
X74658445Y-78555501D01*
X74669820Y-78518005D01*
X74688292Y-78483446D01*
X74713153Y-78453153D01*
X74743446Y-78428292D01*
X74778005Y-78409820D01*
X74815501Y-78398445D01*
X74860638Y-78394000D01*
X75599362Y-78394000D01*
X75644499Y-78398445D01*
G37*
G36*
X90821000Y-78971000D02*
G01*
X89019000Y-78971000D01*
X89019000Y-77169000D01*
X90821000Y-77169000D01*
X90821000Y-78971000D01*
G37*
G36*
X58021000Y-78561000D02*
G01*
X55919000Y-78561000D01*
X55919000Y-76959000D01*
X58021000Y-76959000D01*
X58021000Y-78561000D01*
G37*
G36*
X69184499Y-76618445D02*
G01*
X69221995Y-76629820D01*
X69256554Y-76648292D01*
X69286847Y-76673153D01*
X69311708Y-76703446D01*
X69330180Y-76738005D01*
X69341555Y-76775501D01*
X69346000Y-76820638D01*
X69346000Y-77459362D01*
X69341555Y-77504499D01*
X69330180Y-77541995D01*
X69311708Y-77576554D01*
X69286847Y-77606847D01*
X69256554Y-77631708D01*
X69221995Y-77650180D01*
X69184499Y-77661555D01*
X69139362Y-77666000D01*
X68400638Y-77666000D01*
X68355501Y-77661555D01*
X68318005Y-77650180D01*
X68283446Y-77631708D01*
X68253153Y-77606847D01*
X68228292Y-77576554D01*
X68209820Y-77541995D01*
X68198445Y-77504499D01*
X68194000Y-77459362D01*
X68194000Y-76820638D01*
X68198445Y-76775501D01*
X68209820Y-76738005D01*
X68228292Y-76703446D01*
X68253153Y-76673153D01*
X68283446Y-76648292D01*
X68318005Y-76629820D01*
X68355501Y-76618445D01*
X68400638Y-76614000D01*
X69139362Y-76614000D01*
X69184499Y-76618445D01*
G37*
G36*
X67434499Y-76618445D02*
G01*
X67471995Y-76629820D01*
X67506554Y-76648292D01*
X67536847Y-76673153D01*
X67561708Y-76703446D01*
X67580180Y-76738005D01*
X67591555Y-76775501D01*
X67596000Y-76820638D01*
X67596000Y-77459362D01*
X67591555Y-77504499D01*
X67580180Y-77541995D01*
X67561708Y-77576554D01*
X67536847Y-77606847D01*
X67506554Y-77631708D01*
X67471995Y-77650180D01*
X67434499Y-77661555D01*
X67389362Y-77666000D01*
X66650638Y-77666000D01*
X66605501Y-77661555D01*
X66568005Y-77650180D01*
X66533446Y-77631708D01*
X66503153Y-77606847D01*
X66478292Y-77576554D01*
X66459820Y-77541995D01*
X66448445Y-77504499D01*
X66444000Y-77459362D01*
X66444000Y-76820638D01*
X66448445Y-76775501D01*
X66459820Y-76738005D01*
X66478292Y-76703446D01*
X66503153Y-76673153D01*
X66533446Y-76648292D01*
X66568005Y-76629820D01*
X66605501Y-76618445D01*
X66650638Y-76614000D01*
X67389362Y-76614000D01*
X67434499Y-76618445D01*
G37*
G36*
X72272091Y-76598085D02*
G01*
X72306069Y-76608393D01*
X72337390Y-76625134D01*
X72364839Y-76647661D01*
X72387366Y-76675110D01*
X72404107Y-76706431D01*
X72414415Y-76740409D01*
X72418500Y-76781890D01*
X72418500Y-77458110D01*
X72414415Y-77499591D01*
X72404107Y-77533569D01*
X72387366Y-77564890D01*
X72364839Y-77592339D01*
X72337390Y-77614866D01*
X72306069Y-77631607D01*
X72272091Y-77641915D01*
X72230610Y-77646000D01*
X71629390Y-77646000D01*
X71587909Y-77641915D01*
X71553931Y-77631607D01*
X71522610Y-77614866D01*
X71495161Y-77592339D01*
X71472634Y-77564890D01*
X71455893Y-77533569D01*
X71445585Y-77499591D01*
X71441500Y-77458110D01*
X71441500Y-76781890D01*
X71445585Y-76740409D01*
X71455893Y-76706431D01*
X71472634Y-76675110D01*
X71495161Y-76647661D01*
X71522610Y-76625134D01*
X71553931Y-76608393D01*
X71587909Y-76598085D01*
X71629390Y-76594000D01*
X72230610Y-76594000D01*
X72272091Y-76598085D01*
G37*
G36*
X70697091Y-76598085D02*
G01*
X70731069Y-76608393D01*
X70762390Y-76625134D01*
X70789839Y-76647661D01*
X70812366Y-76675110D01*
X70829107Y-76706431D01*
X70839415Y-76740409D01*
X70843500Y-76781890D01*
X70843500Y-77458110D01*
X70839415Y-77499591D01*
X70829107Y-77533569D01*
X70812366Y-77564890D01*
X70789839Y-77592339D01*
X70762390Y-77614866D01*
X70731069Y-77631607D01*
X70697091Y-77641915D01*
X70655610Y-77646000D01*
X70054390Y-77646000D01*
X70012909Y-77641915D01*
X69978931Y-77631607D01*
X69947610Y-77614866D01*
X69920161Y-77592339D01*
X69897634Y-77564890D01*
X69880893Y-77533569D01*
X69870585Y-77499591D01*
X69866500Y-77458110D01*
X69866500Y-76781890D01*
X69870585Y-76740409D01*
X69880893Y-76706431D01*
X69897634Y-76675110D01*
X69920161Y-76647661D01*
X69947610Y-76625134D01*
X69978931Y-76608393D01*
X70012909Y-76598085D01*
X70054390Y-76594000D01*
X70655610Y-76594000D01*
X70697091Y-76598085D01*
G37*
G36*
X73874499Y-76588445D02*
G01*
X73911995Y-76599820D01*
X73946554Y-76618292D01*
X73976847Y-76643153D01*
X74001708Y-76673446D01*
X74020180Y-76708005D01*
X74031555Y-76745501D01*
X74036000Y-76790638D01*
X74036000Y-77429362D01*
X74031555Y-77474499D01*
X74020180Y-77511995D01*
X74001708Y-77546554D01*
X73976847Y-77576847D01*
X73946554Y-77601708D01*
X73911995Y-77620180D01*
X73874499Y-77631555D01*
X73829362Y-77636000D01*
X73090638Y-77636000D01*
X73045501Y-77631555D01*
X73008005Y-77620180D01*
X72973446Y-77601708D01*
X72943153Y-77576847D01*
X72918292Y-77546554D01*
X72899820Y-77511995D01*
X72888445Y-77474499D01*
X72884000Y-77429362D01*
X72884000Y-76790638D01*
X72888445Y-76745501D01*
X72899820Y-76708005D01*
X72918292Y-76673446D01*
X72943153Y-76643153D01*
X72973446Y-76618292D01*
X73008005Y-76599820D01*
X73045501Y-76588445D01*
X73090638Y-76584000D01*
X73829362Y-76584000D01*
X73874499Y-76588445D01*
G37*
G36*
X75624499Y-76588445D02*
G01*
X75661995Y-76599820D01*
X75696554Y-76618292D01*
X75726847Y-76643153D01*
X75751708Y-76673446D01*
X75770180Y-76708005D01*
X75781555Y-76745501D01*
X75786000Y-76790638D01*
X75786000Y-77429362D01*
X75781555Y-77474499D01*
X75770180Y-77511995D01*
X75751708Y-77546554D01*
X75726847Y-77576847D01*
X75696554Y-77601708D01*
X75661995Y-77620180D01*
X75624499Y-77631555D01*
X75579362Y-77636000D01*
X74840638Y-77636000D01*
X74795501Y-77631555D01*
X74758005Y-77620180D01*
X74723446Y-77601708D01*
X74693153Y-77576847D01*
X74668292Y-77546554D01*
X74649820Y-77511995D01*
X74638445Y-77474499D01*
X74634000Y-77429362D01*
X74634000Y-76790638D01*
X74638445Y-76745501D01*
X74649820Y-76708005D01*
X74668292Y-76673446D01*
X74693153Y-76643153D01*
X74723446Y-76618292D01*
X74758005Y-76599820D01*
X74795501Y-76588445D01*
X74840638Y-76584000D01*
X75579362Y-76584000D01*
X75624499Y-76588445D01*
G37*
G36*
X42933512Y-75803927D02*
G01*
X43082812Y-75833624D01*
X43246784Y-75901544D01*
X43394354Y-76000147D01*
X43519853Y-76125646D01*
X43618456Y-76273216D01*
X43686376Y-76437188D01*
X43715578Y-76584000D01*
X43721000Y-76611258D01*
X43721000Y-76788742D01*
X43720623Y-76790638D01*
X43686376Y-76962812D01*
X43618456Y-77126784D01*
X43519853Y-77274354D01*
X43394354Y-77399853D01*
X43246784Y-77498456D01*
X43082812Y-77566376D01*
X42933512Y-77596073D01*
X42908742Y-77601000D01*
X42731258Y-77601000D01*
X42706488Y-77596073D01*
X42557188Y-77566376D01*
X42393216Y-77498456D01*
X42245646Y-77399853D01*
X42120147Y-77274354D01*
X42021544Y-77126784D01*
X41953624Y-76962812D01*
X41919377Y-76790638D01*
X41919000Y-76788742D01*
X41919000Y-76611258D01*
X41924422Y-76584000D01*
X41953624Y-76437188D01*
X42021544Y-76273216D01*
X42120147Y-76125646D01*
X42245646Y-76000147D01*
X42393216Y-75901544D01*
X42557188Y-75833624D01*
X42706488Y-75803927D01*
X42731258Y-75799000D01*
X42908742Y-75799000D01*
X42933512Y-75803927D01*
G37*
G36*
X51721000Y-77411000D02*
G01*
X49619000Y-77411000D01*
X49619000Y-73509000D01*
X51721000Y-73509000D01*
X51721000Y-77411000D01*
G37*
G36*
X90033512Y-74633927D02*
G01*
X90182812Y-74663624D01*
X90346784Y-74731544D01*
X90494354Y-74830147D01*
X90619853Y-74955646D01*
X90718456Y-75103216D01*
X90786376Y-75267188D01*
X90821000Y-75441259D01*
X90821000Y-75618741D01*
X90786376Y-75792812D01*
X90718456Y-75956784D01*
X90619853Y-76104354D01*
X90494354Y-76229853D01*
X90346784Y-76328456D01*
X90182812Y-76396376D01*
X90033512Y-76426073D01*
X90008742Y-76431000D01*
X89831258Y-76431000D01*
X89806488Y-76426073D01*
X89657188Y-76396376D01*
X89493216Y-76328456D01*
X89345646Y-76229853D01*
X89220147Y-76104354D01*
X89121544Y-75956784D01*
X89053624Y-75792812D01*
X89019000Y-75618741D01*
X89019000Y-75441259D01*
X89053624Y-75267188D01*
X89121544Y-75103216D01*
X89220147Y-74955646D01*
X89345646Y-74830147D01*
X89493216Y-74731544D01*
X89657188Y-74663624D01*
X89806488Y-74633927D01*
X89831258Y-74629000D01*
X90008742Y-74629000D01*
X90033512Y-74633927D01*
G37*
G36*
X58021000Y-76261000D02*
G01*
X55919000Y-76261000D01*
X55919000Y-74659000D01*
X58021000Y-74659000D01*
X58021000Y-76261000D01*
G37*
G36*
X62608604Y-74868347D02*
G01*
X62645144Y-74879432D01*
X62678821Y-74897433D01*
X62708341Y-74921659D01*
X62732567Y-74951179D01*
X62750568Y-74984856D01*
X62761653Y-75021396D01*
X62766000Y-75065538D01*
X62766000Y-76014462D01*
X62761653Y-76058604D01*
X62750568Y-76095144D01*
X62732567Y-76128821D01*
X62708341Y-76158341D01*
X62678821Y-76182567D01*
X62645144Y-76200568D01*
X62608604Y-76211653D01*
X62564462Y-76216000D01*
X60215538Y-76216000D01*
X60171396Y-76211653D01*
X60134856Y-76200568D01*
X60101179Y-76182567D01*
X60071659Y-76158341D01*
X60047433Y-76128821D01*
X60029432Y-76095144D01*
X60018347Y-76058604D01*
X60014000Y-76014462D01*
X60014000Y-75065538D01*
X60018347Y-75021396D01*
X60029432Y-74984856D01*
X60047433Y-74951179D01*
X60071659Y-74921659D01*
X60101179Y-74897433D01*
X60134856Y-74879432D01*
X60171396Y-74868347D01*
X60215538Y-74864000D01*
X62564462Y-74864000D01*
X62608604Y-74868347D01*
G37*
G36*
X48999591Y-75023085D02*
G01*
X49033569Y-75033393D01*
X49064890Y-75050134D01*
X49092339Y-75072661D01*
X49114866Y-75100110D01*
X49131607Y-75131431D01*
X49141915Y-75165409D01*
X49146000Y-75206890D01*
X49146000Y-75808110D01*
X49141915Y-75849591D01*
X49131607Y-75883569D01*
X49114866Y-75914890D01*
X49092339Y-75942339D01*
X49064890Y-75964866D01*
X49033569Y-75981607D01*
X48999591Y-75991915D01*
X48958110Y-75996000D01*
X48281890Y-75996000D01*
X48240409Y-75991915D01*
X48206431Y-75981607D01*
X48175110Y-75964866D01*
X48147661Y-75942339D01*
X48125134Y-75914890D01*
X48108393Y-75883569D01*
X48098085Y-75849591D01*
X48094000Y-75808110D01*
X48094000Y-75206890D01*
X48098085Y-75165409D01*
X48108393Y-75131431D01*
X48125134Y-75100110D01*
X48147661Y-75072661D01*
X48175110Y-75050134D01*
X48206431Y-75033393D01*
X48240409Y-75023085D01*
X48281890Y-75019000D01*
X48958110Y-75019000D01*
X48999591Y-75023085D01*
G37*
G36*
X42933512Y-73263927D02*
G01*
X43082812Y-73293624D01*
X43246784Y-73361544D01*
X43394354Y-73460147D01*
X43519853Y-73585646D01*
X43618456Y-73733216D01*
X43686376Y-73897188D01*
X43721000Y-74071259D01*
X43721000Y-74248741D01*
X43686376Y-74422812D01*
X43618456Y-74586784D01*
X43519853Y-74734354D01*
X43394354Y-74859853D01*
X43246784Y-74958456D01*
X43082812Y-75026376D01*
X42933512Y-75056073D01*
X42908742Y-75061000D01*
X42731258Y-75061000D01*
X42706488Y-75056073D01*
X42557188Y-75026376D01*
X42393216Y-74958456D01*
X42245646Y-74859853D01*
X42120147Y-74734354D01*
X42021544Y-74586784D01*
X41953624Y-74422812D01*
X41919000Y-74248741D01*
X41919000Y-74071259D01*
X41953624Y-73897188D01*
X42021544Y-73733216D01*
X42120147Y-73585646D01*
X42245646Y-73460147D01*
X42393216Y-73361544D01*
X42557188Y-73293624D01*
X42706488Y-73263927D01*
X42731258Y-73259000D01*
X42908742Y-73259000D01*
X42933512Y-73263927D01*
G37*
G36*
X59399591Y-73650585D02*
G01*
X59433569Y-73660893D01*
X59464890Y-73677634D01*
X59492339Y-73700161D01*
X59514866Y-73727610D01*
X59531607Y-73758931D01*
X59541915Y-73792909D01*
X59546000Y-73834390D01*
X59546000Y-74435610D01*
X59541915Y-74477091D01*
X59531607Y-74511069D01*
X59514866Y-74542390D01*
X59492339Y-74569839D01*
X59464890Y-74592366D01*
X59433569Y-74609107D01*
X59399591Y-74619415D01*
X59358110Y-74623500D01*
X58681890Y-74623500D01*
X58640409Y-74619415D01*
X58606431Y-74609107D01*
X58575110Y-74592366D01*
X58547661Y-74569839D01*
X58525134Y-74542390D01*
X58508393Y-74511069D01*
X58498085Y-74477091D01*
X58494000Y-74435610D01*
X58494000Y-73834390D01*
X58498085Y-73792909D01*
X58508393Y-73758931D01*
X58525134Y-73727610D01*
X58547661Y-73700161D01*
X58575110Y-73677634D01*
X58606431Y-73660893D01*
X58640409Y-73650585D01*
X58681890Y-73646500D01*
X59358110Y-73646500D01*
X59399591Y-73650585D01*
G37*
G36*
X48999591Y-73448085D02*
G01*
X49033569Y-73458393D01*
X49064890Y-73475134D01*
X49092339Y-73497661D01*
X49114866Y-73525110D01*
X49131607Y-73556431D01*
X49141915Y-73590409D01*
X49146000Y-73631890D01*
X49146000Y-74233110D01*
X49141915Y-74274591D01*
X49131607Y-74308569D01*
X49114866Y-74339890D01*
X49092339Y-74367339D01*
X49064890Y-74389866D01*
X49033569Y-74406607D01*
X48999591Y-74416915D01*
X48958110Y-74421000D01*
X48281890Y-74421000D01*
X48240409Y-74416915D01*
X48206431Y-74406607D01*
X48175110Y-74389866D01*
X48147661Y-74367339D01*
X48125134Y-74339890D01*
X48108393Y-74308569D01*
X48098085Y-74274591D01*
X48094000Y-74233110D01*
X48094000Y-73631890D01*
X48098085Y-73590409D01*
X48108393Y-73556431D01*
X48125134Y-73525110D01*
X48147661Y-73497661D01*
X48175110Y-73475134D01*
X48206431Y-73458393D01*
X48240409Y-73448085D01*
X48281890Y-73444000D01*
X48958110Y-73444000D01*
X48999591Y-73448085D01*
G37*
G36*
X58021000Y-73961000D02*
G01*
X55919000Y-73961000D01*
X55919000Y-72359000D01*
X58021000Y-72359000D01*
X58021000Y-73961000D01*
G37*
G36*
X62608604Y-72068347D02*
G01*
X62645144Y-72079432D01*
X62678821Y-72097433D01*
X62708341Y-72121659D01*
X62732567Y-72151179D01*
X62750568Y-72184856D01*
X62761653Y-72221396D01*
X62766000Y-72265538D01*
X62766000Y-73214462D01*
X62761653Y-73258604D01*
X62750568Y-73295144D01*
X62732567Y-73328821D01*
X62708341Y-73358341D01*
X62678821Y-73382567D01*
X62645144Y-73400568D01*
X62608604Y-73411653D01*
X62564462Y-73416000D01*
X60215538Y-73416000D01*
X60171396Y-73411653D01*
X60134856Y-73400568D01*
X60101179Y-73382567D01*
X60071659Y-73358341D01*
X60047433Y-73328821D01*
X60029432Y-73295144D01*
X60018347Y-73258604D01*
X60014000Y-73214462D01*
X60014000Y-72265538D01*
X60018347Y-72221396D01*
X60029432Y-72184856D01*
X60047433Y-72151179D01*
X60071659Y-72121659D01*
X60101179Y-72097433D01*
X60134856Y-72079432D01*
X60171396Y-72068347D01*
X60215538Y-72064000D01*
X62564462Y-72064000D01*
X62608604Y-72068347D01*
G37*
G36*
X84879928Y-72606764D02*
G01*
X84901009Y-72613160D01*
X84920445Y-72623548D01*
X84937476Y-72637524D01*
X84951452Y-72654555D01*
X84961840Y-72673991D01*
X84968236Y-72695072D01*
X84971000Y-72723140D01*
X84971000Y-73186860D01*
X84968236Y-73214928D01*
X84961840Y-73236009D01*
X84951452Y-73255445D01*
X84937476Y-73272476D01*
X84920445Y-73286452D01*
X84901009Y-73296840D01*
X84879928Y-73303236D01*
X84851860Y-73306000D01*
X83038140Y-73306000D01*
X83010072Y-73303236D01*
X82988991Y-73296840D01*
X82969555Y-73286452D01*
X82952524Y-73272476D01*
X82938548Y-73255445D01*
X82928160Y-73236009D01*
X82921764Y-73214928D01*
X82919000Y-73186860D01*
X82919000Y-72723140D01*
X82921764Y-72695072D01*
X82928160Y-72673991D01*
X82938548Y-72654555D01*
X82952524Y-72637524D01*
X82969555Y-72623548D01*
X82988991Y-72613160D01*
X83010072Y-72606764D01*
X83038140Y-72604000D01*
X84851860Y-72604000D01*
X84879928Y-72606764D01*
G37*
G36*
X79929928Y-72606764D02*
G01*
X79951009Y-72613160D01*
X79970445Y-72623548D01*
X79987476Y-72637524D01*
X80001452Y-72654555D01*
X80011840Y-72673991D01*
X80018236Y-72695072D01*
X80021000Y-72723140D01*
X80021000Y-73186860D01*
X80018236Y-73214928D01*
X80011840Y-73236009D01*
X80001452Y-73255445D01*
X79987476Y-73272476D01*
X79970445Y-73286452D01*
X79951009Y-73296840D01*
X79929928Y-73303236D01*
X79901860Y-73306000D01*
X78088140Y-73306000D01*
X78060072Y-73303236D01*
X78038991Y-73296840D01*
X78019555Y-73286452D01*
X78002524Y-73272476D01*
X77988548Y-73255445D01*
X77978160Y-73236009D01*
X77971764Y-73214928D01*
X77969000Y-73186860D01*
X77969000Y-72723140D01*
X77971764Y-72695072D01*
X77978160Y-72673991D01*
X77988548Y-72654555D01*
X78002524Y-72637524D01*
X78019555Y-72623548D01*
X78038991Y-72613160D01*
X78060072Y-72606764D01*
X78088140Y-72604000D01*
X79901860Y-72604000D01*
X79929928Y-72606764D01*
G37*
G36*
X59399591Y-72075585D02*
G01*
X59433569Y-72085893D01*
X59464890Y-72102634D01*
X59492339Y-72125161D01*
X59514866Y-72152610D01*
X59531607Y-72183931D01*
X59541915Y-72217909D01*
X59546000Y-72259390D01*
X59546000Y-72860610D01*
X59541915Y-72902091D01*
X59531607Y-72936069D01*
X59514866Y-72967390D01*
X59492339Y-72994839D01*
X59464890Y-73017366D01*
X59433569Y-73034107D01*
X59399591Y-73044415D01*
X59358110Y-73048500D01*
X58681890Y-73048500D01*
X58640409Y-73044415D01*
X58606431Y-73034107D01*
X58575110Y-73017366D01*
X58547661Y-72994839D01*
X58525134Y-72967390D01*
X58508393Y-72936069D01*
X58498085Y-72902091D01*
X58494000Y-72860610D01*
X58494000Y-72259390D01*
X58498085Y-72217909D01*
X58508393Y-72183931D01*
X58525134Y-72152610D01*
X58547661Y-72125161D01*
X58575110Y-72102634D01*
X58606431Y-72085893D01*
X58640409Y-72075585D01*
X58681890Y-72071500D01*
X59358110Y-72071500D01*
X59399591Y-72075585D01*
G37*
G36*
X86544499Y-71778445D02*
G01*
X86581995Y-71789820D01*
X86616554Y-71808292D01*
X86646847Y-71833153D01*
X86671708Y-71863446D01*
X86690180Y-71898005D01*
X86701555Y-71935501D01*
X86706000Y-71980638D01*
X86706000Y-72719362D01*
X86701555Y-72764499D01*
X86690180Y-72801995D01*
X86671708Y-72836554D01*
X86646847Y-72866847D01*
X86616554Y-72891708D01*
X86581995Y-72910180D01*
X86544499Y-72921555D01*
X86499362Y-72926000D01*
X85860638Y-72926000D01*
X85815501Y-72921555D01*
X85778005Y-72910180D01*
X85743446Y-72891708D01*
X85713153Y-72866847D01*
X85688292Y-72836554D01*
X85669820Y-72801995D01*
X85658445Y-72764499D01*
X85654000Y-72719362D01*
X85654000Y-71980638D01*
X85658445Y-71935501D01*
X85669820Y-71898005D01*
X85688292Y-71863446D01*
X85713153Y-71833153D01*
X85743446Y-71808292D01*
X85778005Y-71789820D01*
X85815501Y-71778445D01*
X85860638Y-71774000D01*
X86499362Y-71774000D01*
X86544499Y-71778445D01*
G37*
G36*
X42933512Y-70723927D02*
G01*
X43082812Y-70753624D01*
X43246784Y-70821544D01*
X43394354Y-70920147D01*
X43519853Y-71045646D01*
X43618456Y-71193216D01*
X43686376Y-71357188D01*
X43721000Y-71531259D01*
X43721000Y-71708741D01*
X43686376Y-71882812D01*
X43618456Y-72046784D01*
X43519853Y-72194354D01*
X43394354Y-72319853D01*
X43246784Y-72418456D01*
X43082812Y-72486376D01*
X42933512Y-72516073D01*
X42908742Y-72521000D01*
X42731258Y-72521000D01*
X42706488Y-72516073D01*
X42557188Y-72486376D01*
X42393216Y-72418456D01*
X42245646Y-72319853D01*
X42120147Y-72194354D01*
X42021544Y-72046784D01*
X41953624Y-71882812D01*
X41919000Y-71708741D01*
X41919000Y-71531259D01*
X41953624Y-71357188D01*
X42021544Y-71193216D01*
X42120147Y-71045646D01*
X42245646Y-70920147D01*
X42393216Y-70821544D01*
X42557188Y-70753624D01*
X42706488Y-70723927D01*
X42731258Y-70719000D01*
X42908742Y-70719000D01*
X42933512Y-70723927D01*
G37*
G36*
X90063512Y-70293927D02*
G01*
X90212812Y-70323624D01*
X90376784Y-70391544D01*
X90524354Y-70490147D01*
X90649853Y-70615646D01*
X90748456Y-70763216D01*
X90816376Y-70927188D01*
X90851000Y-71101259D01*
X90851000Y-71278741D01*
X90816376Y-71452812D01*
X90748456Y-71616784D01*
X90649853Y-71764354D01*
X90524354Y-71889853D01*
X90376784Y-71988456D01*
X90212812Y-72056376D01*
X90071002Y-72084583D01*
X90038742Y-72091000D01*
X89861258Y-72091000D01*
X89828998Y-72084583D01*
X89687188Y-72056376D01*
X89523216Y-71988456D01*
X89375646Y-71889853D01*
X89250147Y-71764354D01*
X89151544Y-71616784D01*
X89083624Y-71452812D01*
X89049000Y-71278741D01*
X89049000Y-71101259D01*
X89083624Y-70927188D01*
X89151544Y-70763216D01*
X89250147Y-70615646D01*
X89375646Y-70490147D01*
X89523216Y-70391544D01*
X89687188Y-70323624D01*
X89836488Y-70293927D01*
X89861258Y-70289000D01*
X90038742Y-70289000D01*
X90063512Y-70293927D01*
G37*
G36*
X79929928Y-71336764D02*
G01*
X79951009Y-71343160D01*
X79970445Y-71353548D01*
X79987476Y-71367524D01*
X80001452Y-71384555D01*
X80011840Y-71403991D01*
X80018236Y-71425072D01*
X80021000Y-71453140D01*
X80021000Y-71916860D01*
X80018236Y-71944928D01*
X80011840Y-71966009D01*
X80001452Y-71985445D01*
X79987476Y-72002476D01*
X79970445Y-72016452D01*
X79951009Y-72026840D01*
X79929928Y-72033236D01*
X79901860Y-72036000D01*
X78088140Y-72036000D01*
X78060072Y-72033236D01*
X78038991Y-72026840D01*
X78019555Y-72016452D01*
X78002524Y-72002476D01*
X77988548Y-71985445D01*
X77978160Y-71966009D01*
X77971764Y-71944928D01*
X77969000Y-71916860D01*
X77969000Y-71453140D01*
X77971764Y-71425072D01*
X77978160Y-71403991D01*
X77988548Y-71384555D01*
X78002524Y-71367524D01*
X78019555Y-71353548D01*
X78038991Y-71343160D01*
X78060072Y-71336764D01*
X78088140Y-71334000D01*
X79901860Y-71334000D01*
X79929928Y-71336764D01*
G37*
G36*
X84879928Y-71336764D02*
G01*
X84901009Y-71343160D01*
X84920445Y-71353548D01*
X84937476Y-71367524D01*
X84951452Y-71384555D01*
X84961840Y-71403991D01*
X84968236Y-71425072D01*
X84971000Y-71453140D01*
X84971000Y-71916860D01*
X84968236Y-71944928D01*
X84961840Y-71966009D01*
X84951452Y-71985445D01*
X84937476Y-72002476D01*
X84920445Y-72016452D01*
X84901009Y-72026840D01*
X84879928Y-72033236D01*
X84851860Y-72036000D01*
X83038140Y-72036000D01*
X83010072Y-72033236D01*
X82988991Y-72026840D01*
X82969555Y-72016452D01*
X82952524Y-72002476D01*
X82938548Y-71985445D01*
X82928160Y-71966009D01*
X82921764Y-71944928D01*
X82919000Y-71916860D01*
X82919000Y-71453140D01*
X82921764Y-71425072D01*
X82928160Y-71403991D01*
X82938548Y-71384555D01*
X82952524Y-71367524D01*
X82969555Y-71353548D01*
X82988991Y-71343160D01*
X83010072Y-71336764D01*
X83038140Y-71334000D01*
X84851860Y-71334000D01*
X84879928Y-71336764D01*
G37*
G36*
X86544499Y-70028445D02*
G01*
X86581995Y-70039820D01*
X86616554Y-70058292D01*
X86646847Y-70083153D01*
X86671708Y-70113446D01*
X86690180Y-70148005D01*
X86701555Y-70185501D01*
X86706000Y-70230638D01*
X86706000Y-70969362D01*
X86701555Y-71014499D01*
X86690180Y-71051995D01*
X86671708Y-71086554D01*
X86646847Y-71116847D01*
X86616554Y-71141708D01*
X86581995Y-71160180D01*
X86544499Y-71171555D01*
X86499362Y-71176000D01*
X85860638Y-71176000D01*
X85815501Y-71171555D01*
X85778005Y-71160180D01*
X85743446Y-71141708D01*
X85713153Y-71116847D01*
X85688292Y-71086554D01*
X85669820Y-71051995D01*
X85658445Y-71014499D01*
X85654000Y-70969362D01*
X85654000Y-70230638D01*
X85658445Y-70185501D01*
X85669820Y-70148005D01*
X85688292Y-70113446D01*
X85713153Y-70083153D01*
X85743446Y-70058292D01*
X85778005Y-70039820D01*
X85815501Y-70028445D01*
X85860638Y-70024000D01*
X86499362Y-70024000D01*
X86544499Y-70028445D01*
G37*
G36*
X79929928Y-70066764D02*
G01*
X79951009Y-70073160D01*
X79970445Y-70083548D01*
X79987476Y-70097524D01*
X80001452Y-70114555D01*
X80011840Y-70133991D01*
X80018236Y-70155072D01*
X80021000Y-70183140D01*
X80021000Y-70646860D01*
X80018236Y-70674928D01*
X80011840Y-70696009D01*
X80001452Y-70715445D01*
X79987476Y-70732476D01*
X79970445Y-70746452D01*
X79951009Y-70756840D01*
X79929928Y-70763236D01*
X79901860Y-70766000D01*
X78088140Y-70766000D01*
X78060072Y-70763236D01*
X78038991Y-70756840D01*
X78019555Y-70746452D01*
X78002524Y-70732476D01*
X77988548Y-70715445D01*
X77978160Y-70696009D01*
X77971764Y-70674928D01*
X77969000Y-70646860D01*
X77969000Y-70183140D01*
X77971764Y-70155072D01*
X77978160Y-70133991D01*
X77988548Y-70114555D01*
X78002524Y-70097524D01*
X78019555Y-70083548D01*
X78038991Y-70073160D01*
X78060072Y-70066764D01*
X78088140Y-70064000D01*
X79901860Y-70064000D01*
X79929928Y-70066764D01*
G37*
G36*
X84879928Y-70066764D02*
G01*
X84901009Y-70073160D01*
X84920445Y-70083548D01*
X84937476Y-70097524D01*
X84951452Y-70114555D01*
X84961840Y-70133991D01*
X84968236Y-70155072D01*
X84971000Y-70183140D01*
X84971000Y-70646860D01*
X84968236Y-70674928D01*
X84961840Y-70696009D01*
X84951452Y-70715445D01*
X84937476Y-70732476D01*
X84920445Y-70746452D01*
X84901009Y-70756840D01*
X84879928Y-70763236D01*
X84851860Y-70766000D01*
X83038140Y-70766000D01*
X83010072Y-70763236D01*
X82988991Y-70756840D01*
X82969555Y-70746452D01*
X82952524Y-70732476D01*
X82938548Y-70715445D01*
X82928160Y-70696009D01*
X82921764Y-70674928D01*
X82919000Y-70646860D01*
X82919000Y-70183140D01*
X82921764Y-70155072D01*
X82928160Y-70133991D01*
X82938548Y-70114555D01*
X82952524Y-70097524D01*
X82969555Y-70083548D01*
X82988991Y-70073160D01*
X83010072Y-70066764D01*
X83038140Y-70064000D01*
X84851860Y-70064000D01*
X84879928Y-70066764D01*
G37*
G36*
X90851000Y-69551000D02*
G01*
X89049000Y-69551000D01*
X89049000Y-67749000D01*
X90851000Y-67749000D01*
X90851000Y-69551000D01*
G37*
G36*
X79929928Y-68796764D02*
G01*
X79951009Y-68803160D01*
X79970445Y-68813548D01*
X79987476Y-68827524D01*
X80001452Y-68844555D01*
X80011840Y-68863991D01*
X80018236Y-68885072D01*
X80021000Y-68913140D01*
X80021000Y-69376860D01*
X80018236Y-69404928D01*
X80011840Y-69426009D01*
X80001452Y-69445445D01*
X79987476Y-69462476D01*
X79970445Y-69476452D01*
X79951009Y-69486840D01*
X79929928Y-69493236D01*
X79901860Y-69496000D01*
X78088140Y-69496000D01*
X78060072Y-69493236D01*
X78038991Y-69486840D01*
X78019555Y-69476452D01*
X78002524Y-69462476D01*
X77988548Y-69445445D01*
X77978160Y-69426009D01*
X77971764Y-69404928D01*
X77969000Y-69376860D01*
X77969000Y-68913140D01*
X77971764Y-68885072D01*
X77978160Y-68863991D01*
X77988548Y-68844555D01*
X78002524Y-68827524D01*
X78019555Y-68813548D01*
X78038991Y-68803160D01*
X78060072Y-68796764D01*
X78088140Y-68794000D01*
X79901860Y-68794000D01*
X79929928Y-68796764D01*
G37*
G36*
X84879928Y-68796764D02*
G01*
X84901009Y-68803160D01*
X84920445Y-68813548D01*
X84937476Y-68827524D01*
X84951452Y-68844555D01*
X84961840Y-68863991D01*
X84968236Y-68885072D01*
X84971000Y-68913140D01*
X84971000Y-69376860D01*
X84968236Y-69404928D01*
X84961840Y-69426009D01*
X84951452Y-69445445D01*
X84937476Y-69462476D01*
X84920445Y-69476452D01*
X84901009Y-69486840D01*
X84879928Y-69493236D01*
X84851860Y-69496000D01*
X83038140Y-69496000D01*
X83010072Y-69493236D01*
X82988991Y-69486840D01*
X82969555Y-69476452D01*
X82952524Y-69462476D01*
X82938548Y-69445445D01*
X82928160Y-69426009D01*
X82921764Y-69404928D01*
X82919000Y-69376860D01*
X82919000Y-68913140D01*
X82921764Y-68885072D01*
X82928160Y-68863991D01*
X82938548Y-68844555D01*
X82952524Y-68827524D01*
X82969555Y-68813548D01*
X82988991Y-68803160D01*
X83010072Y-68796764D01*
X83038140Y-68794000D01*
X84851860Y-68794000D01*
X84879928Y-68796764D01*
G37*
G36*
X56471000Y-68371000D02*
G01*
X54369000Y-68371000D01*
X54369000Y-67369000D01*
X56471000Y-67369000D01*
X56471000Y-68371000D01*
G37*
G36*
X73471000Y-68371000D02*
G01*
X71369000Y-68371000D01*
X71369000Y-67369000D01*
X73471000Y-67369000D01*
X73471000Y-68371000D01*
G37*
G36*
X42933512Y-66283927D02*
G01*
X43082812Y-66313624D01*
X43246784Y-66381544D01*
X43394354Y-66480147D01*
X43519853Y-66605646D01*
X43618456Y-66753216D01*
X43686376Y-66917188D01*
X43721000Y-67091259D01*
X43721000Y-67268741D01*
X43686376Y-67442812D01*
X43618456Y-67606784D01*
X43519853Y-67754354D01*
X43394354Y-67879853D01*
X43246784Y-67978456D01*
X43082812Y-68046376D01*
X42933512Y-68076073D01*
X42908742Y-68081000D01*
X42731258Y-68081000D01*
X42706488Y-68076073D01*
X42557188Y-68046376D01*
X42393216Y-67978456D01*
X42245646Y-67879853D01*
X42120147Y-67754354D01*
X42021544Y-67606784D01*
X41953624Y-67442812D01*
X41919000Y-67268741D01*
X41919000Y-67091259D01*
X41953624Y-66917188D01*
X42021544Y-66753216D01*
X42120147Y-66605646D01*
X42245646Y-66480147D01*
X42393216Y-66381544D01*
X42557188Y-66313624D01*
X42706488Y-66283927D01*
X42731258Y-66279000D01*
X42908742Y-66279000D01*
X42933512Y-66283927D01*
G37*
G36*
X82604499Y-66978445D02*
G01*
X82641995Y-66989820D01*
X82676554Y-67008292D01*
X82706847Y-67033153D01*
X82731708Y-67063446D01*
X82750180Y-67098005D01*
X82761555Y-67135501D01*
X82766000Y-67180638D01*
X82766000Y-67819362D01*
X82761555Y-67864499D01*
X82750180Y-67901995D01*
X82731708Y-67936554D01*
X82706847Y-67966847D01*
X82676554Y-67991708D01*
X82641995Y-68010180D01*
X82604499Y-68021555D01*
X82559362Y-68026000D01*
X81820638Y-68026000D01*
X81775501Y-68021555D01*
X81738005Y-68010180D01*
X81703446Y-67991708D01*
X81673153Y-67966847D01*
X81648292Y-67936554D01*
X81629820Y-67901995D01*
X81618445Y-67864499D01*
X81614000Y-67819362D01*
X81614000Y-67180638D01*
X81618445Y-67135501D01*
X81629820Y-67098005D01*
X81648292Y-67063446D01*
X81673153Y-67033153D01*
X81703446Y-67008292D01*
X81738005Y-66989820D01*
X81775501Y-66978445D01*
X81820638Y-66974000D01*
X82559362Y-66974000D01*
X82604499Y-66978445D01*
G37*
G36*
X84354499Y-66978445D02*
G01*
X84391995Y-66989820D01*
X84426554Y-67008292D01*
X84456847Y-67033153D01*
X84481708Y-67063446D01*
X84500180Y-67098005D01*
X84511555Y-67135501D01*
X84516000Y-67180638D01*
X84516000Y-67819362D01*
X84511555Y-67864499D01*
X84500180Y-67901995D01*
X84481708Y-67936554D01*
X84456847Y-67966847D01*
X84426554Y-67991708D01*
X84391995Y-68010180D01*
X84354499Y-68021555D01*
X84309362Y-68026000D01*
X83570638Y-68026000D01*
X83525501Y-68021555D01*
X83488005Y-68010180D01*
X83453446Y-67991708D01*
X83423153Y-67966847D01*
X83398292Y-67936554D01*
X83379820Y-67901995D01*
X83368445Y-67864499D01*
X83364000Y-67819362D01*
X83364000Y-67180638D01*
X83368445Y-67135501D01*
X83379820Y-67098005D01*
X83398292Y-67063446D01*
X83423153Y-67033153D01*
X83453446Y-67008292D01*
X83488005Y-66989820D01*
X83525501Y-66978445D01*
X83570638Y-66974000D01*
X84309362Y-66974000D01*
X84354499Y-66978445D01*
G37*
G36*
X56471000Y-67101000D02*
G01*
X54369000Y-67101000D01*
X54369000Y-66099000D01*
X56471000Y-66099000D01*
X56471000Y-67101000D01*
G37*
G36*
X73471000Y-67101000D02*
G01*
X71369000Y-67101000D01*
X71369000Y-66099000D01*
X73471000Y-66099000D01*
X73471000Y-67101000D01*
G37*
G36*
X56471000Y-65831000D02*
G01*
X54369000Y-65831000D01*
X54369000Y-64829000D01*
X56471000Y-64829000D01*
X56471000Y-65831000D01*
G37*
G36*
X73471000Y-65831000D02*
G01*
X71369000Y-65831000D01*
X71369000Y-64829000D01*
X73471000Y-64829000D01*
X73471000Y-65831000D01*
G37*
G36*
X43721000Y-65541000D02*
G01*
X41919000Y-65541000D01*
X41919000Y-63739000D01*
X43721000Y-63739000D01*
X43721000Y-65541000D01*
G37*
G36*
X86483512Y-63393927D02*
G01*
X86632812Y-63423624D01*
X86796784Y-63491544D01*
X86944354Y-63590147D01*
X87069853Y-63715646D01*
X87168456Y-63863216D01*
X87236376Y-64027188D01*
X87271000Y-64201259D01*
X87271000Y-64378741D01*
X87236376Y-64552812D01*
X87168456Y-64716784D01*
X87069853Y-64864354D01*
X86944354Y-64989853D01*
X86796784Y-65088456D01*
X86632812Y-65156376D01*
X86483512Y-65186073D01*
X86458742Y-65191000D01*
X86281258Y-65191000D01*
X86256488Y-65186073D01*
X86107188Y-65156376D01*
X85943216Y-65088456D01*
X85795646Y-64989853D01*
X85670147Y-64864354D01*
X85571544Y-64716784D01*
X85503624Y-64552812D01*
X85469000Y-64378741D01*
X85469000Y-64201259D01*
X85503624Y-64027188D01*
X85571544Y-63863216D01*
X85670147Y-63715646D01*
X85795646Y-63590147D01*
X85943216Y-63491544D01*
X86107188Y-63423624D01*
X86256488Y-63393927D01*
X86281258Y-63389000D01*
X86458742Y-63389000D01*
X86483512Y-63393927D01*
G37*
G36*
X90123512Y-63393927D02*
G01*
X90272812Y-63423624D01*
X90436784Y-63491544D01*
X90584354Y-63590147D01*
X90709853Y-63715646D01*
X90808456Y-63863216D01*
X90876376Y-64027188D01*
X90911000Y-64201259D01*
X90911000Y-64378741D01*
X90876376Y-64552812D01*
X90808456Y-64716784D01*
X90709853Y-64864354D01*
X90584354Y-64989853D01*
X90436784Y-65088456D01*
X90272812Y-65156376D01*
X90123512Y-65186073D01*
X90098742Y-65191000D01*
X89921258Y-65191000D01*
X89896488Y-65186073D01*
X89747188Y-65156376D01*
X89583216Y-65088456D01*
X89435646Y-64989853D01*
X89310147Y-64864354D01*
X89211544Y-64716784D01*
X89143624Y-64552812D01*
X89109000Y-64378741D01*
X89109000Y-64201259D01*
X89143624Y-64027188D01*
X89211544Y-63863216D01*
X89310147Y-63715646D01*
X89435646Y-63590147D01*
X89583216Y-63491544D01*
X89747188Y-63423624D01*
X89896488Y-63393927D01*
X89921258Y-63389000D01*
X90098742Y-63389000D01*
X90123512Y-63393927D01*
G37*
G36*
X78013512Y-63353927D02*
G01*
X78162812Y-63383624D01*
X78326784Y-63451544D01*
X78474354Y-63550147D01*
X78599853Y-63675646D01*
X78698456Y-63823216D01*
X78766376Y-63987188D01*
X78801000Y-64161259D01*
X78801000Y-64338741D01*
X78766376Y-64512812D01*
X78698456Y-64676784D01*
X78599853Y-64824354D01*
X78474354Y-64949853D01*
X78326784Y-65048456D01*
X78162812Y-65116376D01*
X78013512Y-65146073D01*
X77988742Y-65151000D01*
X77811258Y-65151000D01*
X77786488Y-65146073D01*
X77637188Y-65116376D01*
X77473216Y-65048456D01*
X77325646Y-64949853D01*
X77200147Y-64824354D01*
X77101544Y-64676784D01*
X77033624Y-64512812D01*
X76999000Y-64338741D01*
X76999000Y-64161259D01*
X77033624Y-63987188D01*
X77101544Y-63823216D01*
X77200147Y-63675646D01*
X77325646Y-63550147D01*
X77473216Y-63451544D01*
X77637188Y-63383624D01*
X77786488Y-63353927D01*
X77811258Y-63349000D01*
X77988742Y-63349000D01*
X78013512Y-63353927D01*
G37*
G36*
X81643512Y-63343927D02*
G01*
X81792812Y-63373624D01*
X81956784Y-63441544D01*
X82104354Y-63540147D01*
X82229853Y-63665646D01*
X82328456Y-63813216D01*
X82396376Y-63977188D01*
X82431000Y-64151259D01*
X82431000Y-64328741D01*
X82396376Y-64502812D01*
X82328456Y-64666784D01*
X82229853Y-64814354D01*
X82104354Y-64939853D01*
X81956784Y-65038456D01*
X81792812Y-65106376D01*
X81643512Y-65136073D01*
X81618742Y-65141000D01*
X81441258Y-65141000D01*
X81416488Y-65136073D01*
X81267188Y-65106376D01*
X81103216Y-65038456D01*
X80955646Y-64939853D01*
X80830147Y-64814354D01*
X80731544Y-64666784D01*
X80663624Y-64502812D01*
X80629000Y-64328741D01*
X80629000Y-64151259D01*
X80663624Y-63977188D01*
X80731544Y-63813216D01*
X80830147Y-63665646D01*
X80955646Y-63540147D01*
X81103216Y-63441544D01*
X81267188Y-63373624D01*
X81416488Y-63343927D01*
X81441258Y-63339000D01*
X81618742Y-63339000D01*
X81643512Y-63343927D01*
G37*
G36*
X73471000Y-64561000D02*
G01*
X71369000Y-64561000D01*
X71369000Y-63559000D01*
X73471000Y-63559000D01*
X73471000Y-64561000D01*
G37*
G36*
X56471000Y-64561000D02*
G01*
X54369000Y-64561000D01*
X54369000Y-63559000D01*
X56471000Y-63559000D01*
X56471000Y-64561000D01*
G37*
G36*
X56471000Y-63291000D02*
G01*
X54369000Y-63291000D01*
X54369000Y-62289000D01*
X56471000Y-62289000D01*
X56471000Y-63291000D01*
G37*
G36*
X73471000Y-63291000D02*
G01*
X71369000Y-63291000D01*
X71369000Y-62289000D01*
X73471000Y-62289000D01*
X73471000Y-63291000D01*
G37*
G36*
X86483512Y-60853927D02*
G01*
X86632812Y-60883624D01*
X86796784Y-60951544D01*
X86944354Y-61050147D01*
X87069853Y-61175646D01*
X87168456Y-61323216D01*
X87236376Y-61487188D01*
X87271000Y-61661259D01*
X87271000Y-61838741D01*
X87236376Y-62012812D01*
X87168456Y-62176784D01*
X87069853Y-62324354D01*
X86944354Y-62449853D01*
X86796784Y-62548456D01*
X86632812Y-62616376D01*
X86483512Y-62646073D01*
X86458742Y-62651000D01*
X86281258Y-62651000D01*
X86256488Y-62646073D01*
X86107188Y-62616376D01*
X85943216Y-62548456D01*
X85795646Y-62449853D01*
X85670147Y-62324354D01*
X85571544Y-62176784D01*
X85503624Y-62012812D01*
X85469000Y-61838741D01*
X85469000Y-61661259D01*
X85503624Y-61487188D01*
X85571544Y-61323216D01*
X85670147Y-61175646D01*
X85795646Y-61050147D01*
X85943216Y-60951544D01*
X86107188Y-60883624D01*
X86256488Y-60853927D01*
X86281258Y-60849000D01*
X86458742Y-60849000D01*
X86483512Y-60853927D01*
G37*
G36*
X90123512Y-60853927D02*
G01*
X90272812Y-60883624D01*
X90436784Y-60951544D01*
X90584354Y-61050147D01*
X90709853Y-61175646D01*
X90808456Y-61323216D01*
X90876376Y-61487188D01*
X90911000Y-61661259D01*
X90911000Y-61838741D01*
X90876376Y-62012812D01*
X90808456Y-62176784D01*
X90709853Y-62324354D01*
X90584354Y-62449853D01*
X90436784Y-62548456D01*
X90272812Y-62616376D01*
X90123512Y-62646073D01*
X90098742Y-62651000D01*
X89921258Y-62651000D01*
X89896488Y-62646073D01*
X89747188Y-62616376D01*
X89583216Y-62548456D01*
X89435646Y-62449853D01*
X89310147Y-62324354D01*
X89211544Y-62176784D01*
X89143624Y-62012812D01*
X89109000Y-61838741D01*
X89109000Y-61661259D01*
X89143624Y-61487188D01*
X89211544Y-61323216D01*
X89310147Y-61175646D01*
X89435646Y-61050147D01*
X89583216Y-60951544D01*
X89747188Y-60883624D01*
X89896488Y-60853927D01*
X89921258Y-60849000D01*
X90098742Y-60849000D01*
X90123512Y-60853927D01*
G37*
G36*
X78013512Y-60813927D02*
G01*
X78162812Y-60843624D01*
X78326784Y-60911544D01*
X78474354Y-61010147D01*
X78599853Y-61135646D01*
X78698456Y-61283216D01*
X78766376Y-61447188D01*
X78801000Y-61621259D01*
X78801000Y-61798741D01*
X78766376Y-61972812D01*
X78698456Y-62136784D01*
X78599853Y-62284354D01*
X78474354Y-62409853D01*
X78326784Y-62508456D01*
X78162812Y-62576376D01*
X78013512Y-62606073D01*
X77988742Y-62611000D01*
X77811258Y-62611000D01*
X77786488Y-62606073D01*
X77637188Y-62576376D01*
X77473216Y-62508456D01*
X77325646Y-62409853D01*
X77200147Y-62284354D01*
X77101544Y-62136784D01*
X77033624Y-61972812D01*
X76999000Y-61798741D01*
X76999000Y-61621259D01*
X77033624Y-61447188D01*
X77101544Y-61283216D01*
X77200147Y-61135646D01*
X77325646Y-61010147D01*
X77473216Y-60911544D01*
X77637188Y-60843624D01*
X77786488Y-60813927D01*
X77811258Y-60809000D01*
X77988742Y-60809000D01*
X78013512Y-60813927D01*
G37*
G36*
X81643512Y-60803927D02*
G01*
X81792812Y-60833624D01*
X81956784Y-60901544D01*
X82104354Y-61000147D01*
X82229853Y-61125646D01*
X82328456Y-61273216D01*
X82396376Y-61437188D01*
X82431000Y-61611259D01*
X82431000Y-61788741D01*
X82396376Y-61962812D01*
X82328456Y-62126784D01*
X82229853Y-62274354D01*
X82104354Y-62399853D01*
X81956784Y-62498456D01*
X81792812Y-62566376D01*
X81643512Y-62596073D01*
X81618742Y-62601000D01*
X81441258Y-62601000D01*
X81416488Y-62596073D01*
X81267188Y-62566376D01*
X81103216Y-62498456D01*
X80955646Y-62399853D01*
X80830147Y-62274354D01*
X80731544Y-62126784D01*
X80663624Y-61962812D01*
X80629000Y-61788741D01*
X80629000Y-61611259D01*
X80663624Y-61437188D01*
X80731544Y-61273216D01*
X80830147Y-61125646D01*
X80955646Y-61000147D01*
X81103216Y-60901544D01*
X81267188Y-60833624D01*
X81416488Y-60803927D01*
X81441258Y-60799000D01*
X81618742Y-60799000D01*
X81643512Y-60803927D01*
G37*
G36*
X56471000Y-62021000D02*
G01*
X54369000Y-62021000D01*
X54369000Y-61019000D01*
X56471000Y-61019000D01*
X56471000Y-62021000D01*
G37*
G36*
X73471000Y-62021000D02*
G01*
X71369000Y-62021000D01*
X71369000Y-61019000D01*
X73471000Y-61019000D01*
X73471000Y-62021000D01*
G37*
G36*
X73471000Y-60751000D02*
G01*
X71369000Y-60751000D01*
X71369000Y-59749000D01*
X73471000Y-59749000D01*
X73471000Y-60751000D01*
G37*
G36*
X56471000Y-60751000D02*
G01*
X54369000Y-60751000D01*
X54369000Y-59749000D01*
X56471000Y-59749000D01*
X56471000Y-60751000D01*
G37*
G36*
X42923512Y-58843927D02*
G01*
X43072812Y-58873624D01*
X43236784Y-58941544D01*
X43384354Y-59040147D01*
X43509853Y-59165646D01*
X43608456Y-59313216D01*
X43676376Y-59477188D01*
X43706073Y-59626488D01*
X43708121Y-59636782D01*
X43711000Y-59651259D01*
X43711000Y-59828741D01*
X43676376Y-60002812D01*
X43608456Y-60166784D01*
X43509853Y-60314354D01*
X43384354Y-60439853D01*
X43236784Y-60538456D01*
X43072812Y-60606376D01*
X42923512Y-60636073D01*
X42898742Y-60641000D01*
X42721258Y-60641000D01*
X42696488Y-60636073D01*
X42547188Y-60606376D01*
X42383216Y-60538456D01*
X42235646Y-60439853D01*
X42110147Y-60314354D01*
X42011544Y-60166784D01*
X41943624Y-60002812D01*
X41909000Y-59828741D01*
X41909000Y-59651259D01*
X41911880Y-59636782D01*
X41913927Y-59626488D01*
X41943624Y-59477188D01*
X42011544Y-59313216D01*
X42110147Y-59165646D01*
X42235646Y-59040147D01*
X42383216Y-58941544D01*
X42547188Y-58873624D01*
X42696488Y-58843927D01*
X42721258Y-58839000D01*
X42898742Y-58839000D01*
X42923512Y-58843927D01*
G37*
G36*
X86483512Y-58313927D02*
G01*
X86632812Y-58343624D01*
X86796784Y-58411544D01*
X86944354Y-58510147D01*
X87069853Y-58635646D01*
X87168456Y-58783216D01*
X87236376Y-58947188D01*
X87263044Y-59081259D01*
X87271000Y-59121258D01*
X87271000Y-59298742D01*
X87266073Y-59323512D01*
X87236376Y-59472812D01*
X87168456Y-59636784D01*
X87069853Y-59784354D01*
X86944354Y-59909853D01*
X86796784Y-60008456D01*
X86632812Y-60076376D01*
X86483512Y-60106073D01*
X86458742Y-60111000D01*
X86281258Y-60111000D01*
X86256488Y-60106073D01*
X86107188Y-60076376D01*
X85943216Y-60008456D01*
X85795646Y-59909853D01*
X85670147Y-59784354D01*
X85571544Y-59636784D01*
X85503624Y-59472812D01*
X85473927Y-59323512D01*
X85469000Y-59298742D01*
X85469000Y-59121258D01*
X85476956Y-59081259D01*
X85503624Y-58947188D01*
X85571544Y-58783216D01*
X85670147Y-58635646D01*
X85795646Y-58510147D01*
X85943216Y-58411544D01*
X86107188Y-58343624D01*
X86256488Y-58313927D01*
X86281258Y-58309000D01*
X86458742Y-58309000D01*
X86483512Y-58313927D01*
G37*
G36*
X90123512Y-58313927D02*
G01*
X90272812Y-58343624D01*
X90436784Y-58411544D01*
X90584354Y-58510147D01*
X90709853Y-58635646D01*
X90808456Y-58783216D01*
X90876376Y-58947188D01*
X90903044Y-59081259D01*
X90911000Y-59121258D01*
X90911000Y-59298742D01*
X90906073Y-59323512D01*
X90876376Y-59472812D01*
X90808456Y-59636784D01*
X90709853Y-59784354D01*
X90584354Y-59909853D01*
X90436784Y-60008456D01*
X90272812Y-60076376D01*
X90123512Y-60106073D01*
X90098742Y-60111000D01*
X89921258Y-60111000D01*
X89896488Y-60106073D01*
X89747188Y-60076376D01*
X89583216Y-60008456D01*
X89435646Y-59909853D01*
X89310147Y-59784354D01*
X89211544Y-59636784D01*
X89143624Y-59472812D01*
X89113927Y-59323512D01*
X89109000Y-59298742D01*
X89109000Y-59121258D01*
X89116956Y-59081259D01*
X89143624Y-58947188D01*
X89211544Y-58783216D01*
X89310147Y-58635646D01*
X89435646Y-58510147D01*
X89583216Y-58411544D01*
X89747188Y-58343624D01*
X89896488Y-58313927D01*
X89921258Y-58309000D01*
X90098742Y-58309000D01*
X90123512Y-58313927D01*
G37*
G36*
X78013512Y-58273927D02*
G01*
X78162812Y-58303624D01*
X78326784Y-58371544D01*
X78474354Y-58470147D01*
X78599853Y-58595646D01*
X78698456Y-58743216D01*
X78766376Y-58907188D01*
X78801000Y-59081259D01*
X78801000Y-59258741D01*
X78766376Y-59432812D01*
X78698456Y-59596784D01*
X78599853Y-59744354D01*
X78474354Y-59869853D01*
X78326784Y-59968456D01*
X78162812Y-60036376D01*
X78013512Y-60066073D01*
X77988742Y-60071000D01*
X77811258Y-60071000D01*
X77786488Y-60066073D01*
X77637188Y-60036376D01*
X77473216Y-59968456D01*
X77325646Y-59869853D01*
X77200147Y-59744354D01*
X77101544Y-59596784D01*
X77033624Y-59432812D01*
X76999000Y-59258741D01*
X76999000Y-59081259D01*
X77033624Y-58907188D01*
X77101544Y-58743216D01*
X77200147Y-58595646D01*
X77325646Y-58470147D01*
X77473216Y-58371544D01*
X77637188Y-58303624D01*
X77786488Y-58273927D01*
X77811258Y-58269000D01*
X77988742Y-58269000D01*
X78013512Y-58273927D01*
G37*
G36*
X81643512Y-58263927D02*
G01*
X81792812Y-58293624D01*
X81956784Y-58361544D01*
X82104354Y-58460147D01*
X82229853Y-58585646D01*
X82328456Y-58733216D01*
X82396376Y-58897188D01*
X82431000Y-59071259D01*
X82431000Y-59248741D01*
X82396376Y-59422812D01*
X82328456Y-59586784D01*
X82229853Y-59734354D01*
X82104354Y-59859853D01*
X81956784Y-59958456D01*
X81792812Y-60026376D01*
X81643512Y-60056073D01*
X81618742Y-60061000D01*
X81441258Y-60061000D01*
X81416488Y-60056073D01*
X81267188Y-60026376D01*
X81103216Y-59958456D01*
X80955646Y-59859853D01*
X80830147Y-59734354D01*
X80731544Y-59586784D01*
X80663624Y-59422812D01*
X80629000Y-59248741D01*
X80629000Y-59071259D01*
X80663624Y-58897188D01*
X80731544Y-58733216D01*
X80830147Y-58585646D01*
X80955646Y-58460147D01*
X81103216Y-58361544D01*
X81267188Y-58293624D01*
X81416488Y-58263927D01*
X81441258Y-58259000D01*
X81618742Y-58259000D01*
X81643512Y-58263927D01*
G37*
G36*
X56471000Y-59481000D02*
G01*
X54369000Y-59481000D01*
X54369000Y-58479000D01*
X56471000Y-58479000D01*
X56471000Y-59481000D01*
G37*
G36*
X73471000Y-59481000D02*
G01*
X71369000Y-59481000D01*
X71369000Y-58479000D01*
X73471000Y-58479000D01*
X73471000Y-59481000D01*
G37*
G36*
X73471000Y-58211000D02*
G01*
X71369000Y-58211000D01*
X71369000Y-57209000D01*
X73471000Y-57209000D01*
X73471000Y-58211000D01*
G37*
G36*
X56471000Y-58211000D02*
G01*
X54369000Y-58211000D01*
X54369000Y-57209000D01*
X56471000Y-57209000D01*
X56471000Y-58211000D01*
G37*
G36*
X42923512Y-56303927D02*
G01*
X43072812Y-56333624D01*
X43236784Y-56401544D01*
X43384354Y-56500147D01*
X43509853Y-56625646D01*
X43608456Y-56773216D01*
X43676376Y-56937188D01*
X43706073Y-57086488D01*
X43708121Y-57096782D01*
X43711000Y-57111259D01*
X43711000Y-57288741D01*
X43676376Y-57462812D01*
X43608456Y-57626784D01*
X43509853Y-57774354D01*
X43384354Y-57899853D01*
X43236784Y-57998456D01*
X43072812Y-58066376D01*
X42923512Y-58096073D01*
X42898742Y-58101000D01*
X42721258Y-58101000D01*
X42696488Y-58096073D01*
X42547188Y-58066376D01*
X42383216Y-57998456D01*
X42235646Y-57899853D01*
X42110147Y-57774354D01*
X42011544Y-57626784D01*
X41943624Y-57462812D01*
X41909000Y-57288741D01*
X41909000Y-57111259D01*
X41911880Y-57096782D01*
X41913927Y-57086488D01*
X41943624Y-56937188D01*
X42011544Y-56773216D01*
X42110147Y-56625646D01*
X42235646Y-56500147D01*
X42383216Y-56401544D01*
X42547188Y-56333624D01*
X42696488Y-56303927D01*
X42721258Y-56299000D01*
X42898742Y-56299000D01*
X42923512Y-56303927D01*
G37*
G36*
X90123512Y-55773927D02*
G01*
X90272812Y-55803624D01*
X90436784Y-55871544D01*
X90584354Y-55970147D01*
X90709853Y-56095646D01*
X90808456Y-56243216D01*
X90876376Y-56407188D01*
X90903044Y-56541259D01*
X90911000Y-56581258D01*
X90911000Y-56758742D01*
X90906073Y-56783512D01*
X90876376Y-56932812D01*
X90808456Y-57096784D01*
X90709853Y-57244354D01*
X90584354Y-57369853D01*
X90436784Y-57468456D01*
X90272812Y-57536376D01*
X90123512Y-57566073D01*
X90098742Y-57571000D01*
X89921258Y-57571000D01*
X89896488Y-57566073D01*
X89747188Y-57536376D01*
X89583216Y-57468456D01*
X89435646Y-57369853D01*
X89310147Y-57244354D01*
X89211544Y-57096784D01*
X89143624Y-56932812D01*
X89113927Y-56783512D01*
X89109000Y-56758742D01*
X89109000Y-56581258D01*
X89116956Y-56541259D01*
X89143624Y-56407188D01*
X89211544Y-56243216D01*
X89310147Y-56095646D01*
X89435646Y-55970147D01*
X89583216Y-55871544D01*
X89747188Y-55803624D01*
X89896488Y-55773927D01*
X89921258Y-55769000D01*
X90098742Y-55769000D01*
X90123512Y-55773927D01*
G37*
G36*
X86483512Y-55773927D02*
G01*
X86632812Y-55803624D01*
X86796784Y-55871544D01*
X86944354Y-55970147D01*
X87069853Y-56095646D01*
X87168456Y-56243216D01*
X87236376Y-56407188D01*
X87263044Y-56541259D01*
X87271000Y-56581258D01*
X87271000Y-56758742D01*
X87266073Y-56783512D01*
X87236376Y-56932812D01*
X87168456Y-57096784D01*
X87069853Y-57244354D01*
X86944354Y-57369853D01*
X86796784Y-57468456D01*
X86632812Y-57536376D01*
X86483512Y-57566073D01*
X86458742Y-57571000D01*
X86281258Y-57571000D01*
X86256488Y-57566073D01*
X86107188Y-57536376D01*
X85943216Y-57468456D01*
X85795646Y-57369853D01*
X85670147Y-57244354D01*
X85571544Y-57096784D01*
X85503624Y-56932812D01*
X85473927Y-56783512D01*
X85469000Y-56758742D01*
X85469000Y-56581258D01*
X85476956Y-56541259D01*
X85503624Y-56407188D01*
X85571544Y-56243216D01*
X85670147Y-56095646D01*
X85795646Y-55970147D01*
X85943216Y-55871544D01*
X86107188Y-55803624D01*
X86256488Y-55773927D01*
X86281258Y-55769000D01*
X86458742Y-55769000D01*
X86483512Y-55773927D01*
G37*
G36*
X78013512Y-55733927D02*
G01*
X78162812Y-55763624D01*
X78326784Y-55831544D01*
X78474354Y-55930147D01*
X78599853Y-56055646D01*
X78698456Y-56203216D01*
X78766376Y-56367188D01*
X78801000Y-56541259D01*
X78801000Y-56718741D01*
X78766376Y-56892812D01*
X78698456Y-57056784D01*
X78599853Y-57204354D01*
X78474354Y-57329853D01*
X78326784Y-57428456D01*
X78162812Y-57496376D01*
X78013512Y-57526073D01*
X77988742Y-57531000D01*
X77811258Y-57531000D01*
X77786488Y-57526073D01*
X77637188Y-57496376D01*
X77473216Y-57428456D01*
X77325646Y-57329853D01*
X77200147Y-57204354D01*
X77101544Y-57056784D01*
X77033624Y-56892812D01*
X76999000Y-56718741D01*
X76999000Y-56541259D01*
X77033624Y-56367188D01*
X77101544Y-56203216D01*
X77200147Y-56055646D01*
X77325646Y-55930147D01*
X77473216Y-55831544D01*
X77637188Y-55763624D01*
X77786488Y-55733927D01*
X77811258Y-55729000D01*
X77988742Y-55729000D01*
X78013512Y-55733927D01*
G37*
G36*
X81643512Y-55723927D02*
G01*
X81792812Y-55753624D01*
X81956784Y-55821544D01*
X82104354Y-55920147D01*
X82229853Y-56045646D01*
X82328456Y-56193216D01*
X82396376Y-56357188D01*
X82431000Y-56531259D01*
X82431000Y-56708741D01*
X82396376Y-56882812D01*
X82328456Y-57046784D01*
X82229853Y-57194354D01*
X82104354Y-57319853D01*
X81956784Y-57418456D01*
X81792812Y-57486376D01*
X81643512Y-57516073D01*
X81618742Y-57521000D01*
X81441258Y-57521000D01*
X81416488Y-57516073D01*
X81267188Y-57486376D01*
X81103216Y-57418456D01*
X80955646Y-57319853D01*
X80830147Y-57194354D01*
X80731544Y-57046784D01*
X80663624Y-56882812D01*
X80629000Y-56708741D01*
X80629000Y-56531259D01*
X80663624Y-56357188D01*
X80731544Y-56193216D01*
X80830147Y-56045646D01*
X80955646Y-55920147D01*
X81103216Y-55821544D01*
X81267188Y-55753624D01*
X81416488Y-55723927D01*
X81441258Y-55719000D01*
X81618742Y-55719000D01*
X81643512Y-55723927D01*
G37*
G36*
X73471000Y-56941000D02*
G01*
X71369000Y-56941000D01*
X71369000Y-55939000D01*
X73471000Y-55939000D01*
X73471000Y-56941000D01*
G37*
G36*
X56471000Y-56941000D02*
G01*
X54369000Y-56941000D01*
X54369000Y-55939000D01*
X56471000Y-55939000D01*
X56471000Y-56941000D01*
G37*
G36*
X73471000Y-55671000D02*
G01*
X71369000Y-55671000D01*
X71369000Y-54669000D01*
X73471000Y-54669000D01*
X73471000Y-55671000D01*
G37*
G36*
X56471000Y-55671000D02*
G01*
X54369000Y-55671000D01*
X54369000Y-54669000D01*
X56471000Y-54669000D01*
X56471000Y-55671000D01*
G37*
G36*
X42923512Y-53763927D02*
G01*
X43072812Y-53793624D01*
X43236784Y-53861544D01*
X43384354Y-53960147D01*
X43509853Y-54085646D01*
X43608456Y-54233216D01*
X43676376Y-54397188D01*
X43706073Y-54546488D01*
X43708121Y-54556782D01*
X43711000Y-54571259D01*
X43711000Y-54748741D01*
X43676376Y-54922812D01*
X43608456Y-55086784D01*
X43509853Y-55234354D01*
X43384354Y-55359853D01*
X43236784Y-55458456D01*
X43072812Y-55526376D01*
X42923512Y-55556073D01*
X42898742Y-55561000D01*
X42721258Y-55561000D01*
X42696488Y-55556073D01*
X42547188Y-55526376D01*
X42383216Y-55458456D01*
X42235646Y-55359853D01*
X42110147Y-55234354D01*
X42011544Y-55086784D01*
X41943624Y-54922812D01*
X41909000Y-54748741D01*
X41909000Y-54571259D01*
X41911880Y-54556782D01*
X41913927Y-54546488D01*
X41943624Y-54397188D01*
X42011544Y-54233216D01*
X42110147Y-54085646D01*
X42235646Y-53960147D01*
X42383216Y-53861544D01*
X42547188Y-53793624D01*
X42696488Y-53763927D01*
X42721258Y-53759000D01*
X42898742Y-53759000D01*
X42923512Y-53763927D01*
G37*
G36*
X65471000Y-55061000D02*
G01*
X60369000Y-55061000D01*
X60369000Y-49959000D01*
X65471000Y-49959000D01*
X65471000Y-55061000D01*
G37*
G36*
X86483512Y-53233927D02*
G01*
X86632812Y-53263624D01*
X86796784Y-53331544D01*
X86944354Y-53430147D01*
X87069853Y-53555646D01*
X87168456Y-53703216D01*
X87236376Y-53867188D01*
X87263044Y-54001259D01*
X87271000Y-54041258D01*
X87271000Y-54218742D01*
X87266073Y-54243512D01*
X87236376Y-54392812D01*
X87168456Y-54556784D01*
X87069853Y-54704354D01*
X86944354Y-54829853D01*
X86796784Y-54928456D01*
X86632812Y-54996376D01*
X86483512Y-55026073D01*
X86458742Y-55031000D01*
X86281258Y-55031000D01*
X86256488Y-55026073D01*
X86107188Y-54996376D01*
X85943216Y-54928456D01*
X85795646Y-54829853D01*
X85670147Y-54704354D01*
X85571544Y-54556784D01*
X85503624Y-54392812D01*
X85473927Y-54243512D01*
X85469000Y-54218742D01*
X85469000Y-54041258D01*
X85476956Y-54001259D01*
X85503624Y-53867188D01*
X85571544Y-53703216D01*
X85670147Y-53555646D01*
X85795646Y-53430147D01*
X85943216Y-53331544D01*
X86107188Y-53263624D01*
X86256488Y-53233927D01*
X86281258Y-53229000D01*
X86458742Y-53229000D01*
X86483512Y-53233927D01*
G37*
G36*
X90123512Y-53233927D02*
G01*
X90272812Y-53263624D01*
X90436784Y-53331544D01*
X90584354Y-53430147D01*
X90709853Y-53555646D01*
X90808456Y-53703216D01*
X90876376Y-53867188D01*
X90903044Y-54001259D01*
X90911000Y-54041258D01*
X90911000Y-54218742D01*
X90906073Y-54243512D01*
X90876376Y-54392812D01*
X90808456Y-54556784D01*
X90709853Y-54704354D01*
X90584354Y-54829853D01*
X90436784Y-54928456D01*
X90272812Y-54996376D01*
X90123512Y-55026073D01*
X90098742Y-55031000D01*
X89921258Y-55031000D01*
X89896488Y-55026073D01*
X89747188Y-54996376D01*
X89583216Y-54928456D01*
X89435646Y-54829853D01*
X89310147Y-54704354D01*
X89211544Y-54556784D01*
X89143624Y-54392812D01*
X89113927Y-54243512D01*
X89109000Y-54218742D01*
X89109000Y-54041258D01*
X89116956Y-54001259D01*
X89143624Y-53867188D01*
X89211544Y-53703216D01*
X89310147Y-53555646D01*
X89435646Y-53430147D01*
X89583216Y-53331544D01*
X89747188Y-53263624D01*
X89896488Y-53233927D01*
X89921258Y-53229000D01*
X90098742Y-53229000D01*
X90123512Y-53233927D01*
G37*
G36*
X78013512Y-53193927D02*
G01*
X78162812Y-53223624D01*
X78326784Y-53291544D01*
X78474354Y-53390147D01*
X78599853Y-53515646D01*
X78698456Y-53663216D01*
X78766376Y-53827188D01*
X78801000Y-54001259D01*
X78801000Y-54178741D01*
X78766376Y-54352812D01*
X78698456Y-54516784D01*
X78599853Y-54664354D01*
X78474354Y-54789853D01*
X78326784Y-54888456D01*
X78162812Y-54956376D01*
X78013512Y-54986073D01*
X77988742Y-54991000D01*
X77811258Y-54991000D01*
X77786488Y-54986073D01*
X77637188Y-54956376D01*
X77473216Y-54888456D01*
X77325646Y-54789853D01*
X77200147Y-54664354D01*
X77101544Y-54516784D01*
X77033624Y-54352812D01*
X76999000Y-54178741D01*
X76999000Y-54001259D01*
X77033624Y-53827188D01*
X77101544Y-53663216D01*
X77200147Y-53515646D01*
X77325646Y-53390147D01*
X77473216Y-53291544D01*
X77637188Y-53223624D01*
X77786488Y-53193927D01*
X77811258Y-53189000D01*
X77988742Y-53189000D01*
X78013512Y-53193927D01*
G37*
G36*
X81643512Y-53183927D02*
G01*
X81792812Y-53213624D01*
X81956784Y-53281544D01*
X82104354Y-53380147D01*
X82229853Y-53505646D01*
X82328456Y-53653216D01*
X82396376Y-53817188D01*
X82431000Y-53991259D01*
X82431000Y-54168741D01*
X82396376Y-54342812D01*
X82328456Y-54506784D01*
X82229853Y-54654354D01*
X82104354Y-54779853D01*
X81956784Y-54878456D01*
X81792812Y-54946376D01*
X81643512Y-54976073D01*
X81618742Y-54981000D01*
X81441258Y-54981000D01*
X81416488Y-54976073D01*
X81267188Y-54946376D01*
X81103216Y-54878456D01*
X80955646Y-54779853D01*
X80830147Y-54654354D01*
X80731544Y-54506784D01*
X80663624Y-54342812D01*
X80629000Y-54168741D01*
X80629000Y-53991259D01*
X80663624Y-53817188D01*
X80731544Y-53653216D01*
X80830147Y-53505646D01*
X80955646Y-53380147D01*
X81103216Y-53281544D01*
X81267188Y-53213624D01*
X81416488Y-53183927D01*
X81441258Y-53179000D01*
X81618742Y-53179000D01*
X81643512Y-53183927D01*
G37*
G36*
X73471000Y-54401000D02*
G01*
X71369000Y-54401000D01*
X71369000Y-53399000D01*
X73471000Y-53399000D01*
X73471000Y-54401000D01*
G37*
G36*
X56471000Y-54401000D02*
G01*
X54369000Y-54401000D01*
X54369000Y-53399000D01*
X56471000Y-53399000D01*
X56471000Y-54401000D01*
G37*
G36*
X73471000Y-53131000D02*
G01*
X71369000Y-53131000D01*
X71369000Y-52129000D01*
X73471000Y-52129000D01*
X73471000Y-53131000D01*
G37*
G36*
X56471000Y-53131000D02*
G01*
X54369000Y-53131000D01*
X54369000Y-52129000D01*
X56471000Y-52129000D01*
X56471000Y-53131000D01*
G37*
G36*
X42923512Y-51223927D02*
G01*
X43072812Y-51253624D01*
X43236784Y-51321544D01*
X43384354Y-51420147D01*
X43509853Y-51545646D01*
X43608456Y-51693216D01*
X43676376Y-51857188D01*
X43706073Y-52006488D01*
X43708121Y-52016782D01*
X43711000Y-52031259D01*
X43711000Y-52208741D01*
X43676376Y-52382812D01*
X43608456Y-52546784D01*
X43509853Y-52694354D01*
X43384354Y-52819853D01*
X43236784Y-52918456D01*
X43072812Y-52986376D01*
X42923512Y-53016073D01*
X42898742Y-53021000D01*
X42721258Y-53021000D01*
X42696488Y-53016073D01*
X42547188Y-52986376D01*
X42383216Y-52918456D01*
X42235646Y-52819853D01*
X42110147Y-52694354D01*
X42011544Y-52546784D01*
X41943624Y-52382812D01*
X41909000Y-52208741D01*
X41909000Y-52031259D01*
X41911880Y-52016782D01*
X41913927Y-52006488D01*
X41943624Y-51857188D01*
X42011544Y-51693216D01*
X42110147Y-51545646D01*
X42235646Y-51420147D01*
X42383216Y-51321544D01*
X42547188Y-51253624D01*
X42696488Y-51223927D01*
X42721258Y-51219000D01*
X42898742Y-51219000D01*
X42923512Y-51223927D01*
G37*
G36*
X86483512Y-50693927D02*
G01*
X86632812Y-50723624D01*
X86796784Y-50791544D01*
X86944354Y-50890147D01*
X87069853Y-51015646D01*
X87168456Y-51163216D01*
X87236376Y-51327188D01*
X87263044Y-51461259D01*
X87271000Y-51501258D01*
X87271000Y-51678742D01*
X87266073Y-51703512D01*
X87236376Y-51852812D01*
X87168456Y-52016784D01*
X87069853Y-52164354D01*
X86944354Y-52289853D01*
X86796784Y-52388456D01*
X86632812Y-52456376D01*
X86483512Y-52486073D01*
X86458742Y-52491000D01*
X86281258Y-52491000D01*
X86256488Y-52486073D01*
X86107188Y-52456376D01*
X85943216Y-52388456D01*
X85795646Y-52289853D01*
X85670147Y-52164354D01*
X85571544Y-52016784D01*
X85503624Y-51852812D01*
X85473927Y-51703512D01*
X85469000Y-51678742D01*
X85469000Y-51501258D01*
X85476956Y-51461259D01*
X85503624Y-51327188D01*
X85571544Y-51163216D01*
X85670147Y-51015646D01*
X85795646Y-50890147D01*
X85943216Y-50791544D01*
X86107188Y-50723624D01*
X86256488Y-50693927D01*
X86281258Y-50689000D01*
X86458742Y-50689000D01*
X86483512Y-50693927D01*
G37*
G36*
X90123512Y-50693927D02*
G01*
X90272812Y-50723624D01*
X90436784Y-50791544D01*
X90584354Y-50890147D01*
X90709853Y-51015646D01*
X90808456Y-51163216D01*
X90876376Y-51327188D01*
X90903044Y-51461259D01*
X90911000Y-51501258D01*
X90911000Y-51678742D01*
X90906073Y-51703512D01*
X90876376Y-51852812D01*
X90808456Y-52016784D01*
X90709853Y-52164354D01*
X90584354Y-52289853D01*
X90436784Y-52388456D01*
X90272812Y-52456376D01*
X90123512Y-52486073D01*
X90098742Y-52491000D01*
X89921258Y-52491000D01*
X89896488Y-52486073D01*
X89747188Y-52456376D01*
X89583216Y-52388456D01*
X89435646Y-52289853D01*
X89310147Y-52164354D01*
X89211544Y-52016784D01*
X89143624Y-51852812D01*
X89113927Y-51703512D01*
X89109000Y-51678742D01*
X89109000Y-51501258D01*
X89116956Y-51461259D01*
X89143624Y-51327188D01*
X89211544Y-51163216D01*
X89310147Y-51015646D01*
X89435646Y-50890147D01*
X89583216Y-50791544D01*
X89747188Y-50723624D01*
X89896488Y-50693927D01*
X89921258Y-50689000D01*
X90098742Y-50689000D01*
X90123512Y-50693927D01*
G37*
G36*
X78013512Y-50653927D02*
G01*
X78162812Y-50683624D01*
X78326784Y-50751544D01*
X78474354Y-50850147D01*
X78599853Y-50975646D01*
X78698456Y-51123216D01*
X78766376Y-51287188D01*
X78801000Y-51461259D01*
X78801000Y-51638741D01*
X78766376Y-51812812D01*
X78698456Y-51976784D01*
X78599853Y-52124354D01*
X78474354Y-52249853D01*
X78326784Y-52348456D01*
X78162812Y-52416376D01*
X78013512Y-52446073D01*
X77988742Y-52451000D01*
X77811258Y-52451000D01*
X77786488Y-52446073D01*
X77637188Y-52416376D01*
X77473216Y-52348456D01*
X77325646Y-52249853D01*
X77200147Y-52124354D01*
X77101544Y-51976784D01*
X77033624Y-51812812D01*
X76999000Y-51638741D01*
X76999000Y-51461259D01*
X77033624Y-51287188D01*
X77101544Y-51123216D01*
X77200147Y-50975646D01*
X77325646Y-50850147D01*
X77473216Y-50751544D01*
X77637188Y-50683624D01*
X77786488Y-50653927D01*
X77811258Y-50649000D01*
X77988742Y-50649000D01*
X78013512Y-50653927D01*
G37*
G36*
X81643512Y-50643927D02*
G01*
X81792812Y-50673624D01*
X81956784Y-50741544D01*
X82104354Y-50840147D01*
X82229853Y-50965646D01*
X82328456Y-51113216D01*
X82396376Y-51277188D01*
X82431000Y-51451259D01*
X82431000Y-51628741D01*
X82396376Y-51802812D01*
X82328456Y-51966784D01*
X82229853Y-52114354D01*
X82104354Y-52239853D01*
X81956784Y-52338456D01*
X81792812Y-52406376D01*
X81643512Y-52436073D01*
X81618742Y-52441000D01*
X81441258Y-52441000D01*
X81416488Y-52436073D01*
X81267188Y-52406376D01*
X81103216Y-52338456D01*
X80955646Y-52239853D01*
X80830147Y-52114354D01*
X80731544Y-51966784D01*
X80663624Y-51802812D01*
X80629000Y-51628741D01*
X80629000Y-51451259D01*
X80663624Y-51277188D01*
X80731544Y-51113216D01*
X80830147Y-50965646D01*
X80955646Y-50840147D01*
X81103216Y-50741544D01*
X81267188Y-50673624D01*
X81416488Y-50643927D01*
X81441258Y-50639000D01*
X81618742Y-50639000D01*
X81643512Y-50643927D01*
G37*
G36*
X56471000Y-51861000D02*
G01*
X54369000Y-51861000D01*
X54369000Y-50859000D01*
X56471000Y-50859000D01*
X56471000Y-51861000D01*
G37*
G36*
X73471000Y-51861000D02*
G01*
X71369000Y-51861000D01*
X71369000Y-50859000D01*
X73471000Y-50859000D01*
X73471000Y-51861000D01*
G37*
G36*
X56471000Y-50591000D02*
G01*
X54369000Y-50591000D01*
X54369000Y-49589000D01*
X56471000Y-49589000D01*
X56471000Y-50591000D01*
G37*
G36*
X73471000Y-50591000D02*
G01*
X71369000Y-50591000D01*
X71369000Y-49589000D01*
X73471000Y-49589000D01*
X73471000Y-50591000D01*
G37*
G36*
X42923512Y-48683927D02*
G01*
X43072812Y-48713624D01*
X43236784Y-48781544D01*
X43384354Y-48880147D01*
X43509853Y-49005646D01*
X43608456Y-49153216D01*
X43676376Y-49317188D01*
X43706073Y-49466488D01*
X43708121Y-49476782D01*
X43711000Y-49491259D01*
X43711000Y-49668741D01*
X43676376Y-49842812D01*
X43608456Y-50006784D01*
X43509853Y-50154354D01*
X43384354Y-50279853D01*
X43236784Y-50378456D01*
X43072812Y-50446376D01*
X42923512Y-50476073D01*
X42898742Y-50481000D01*
X42721258Y-50481000D01*
X42696488Y-50476073D01*
X42547188Y-50446376D01*
X42383216Y-50378456D01*
X42235646Y-50279853D01*
X42110147Y-50154354D01*
X42011544Y-50006784D01*
X41943624Y-49842812D01*
X41909000Y-49668741D01*
X41909000Y-49491259D01*
X41911880Y-49476782D01*
X41913927Y-49466488D01*
X41943624Y-49317188D01*
X42011544Y-49153216D01*
X42110147Y-49005646D01*
X42235646Y-48880147D01*
X42383216Y-48781544D01*
X42547188Y-48713624D01*
X42696488Y-48683927D01*
X42721258Y-48679000D01*
X42898742Y-48679000D01*
X42923512Y-48683927D01*
G37*
G36*
X86483512Y-48153927D02*
G01*
X86632812Y-48183624D01*
X86796784Y-48251544D01*
X86944354Y-48350147D01*
X87069853Y-48475646D01*
X87168456Y-48623216D01*
X87236376Y-48787188D01*
X87263044Y-48921259D01*
X87271000Y-48961258D01*
X87271000Y-49138742D01*
X87266073Y-49163512D01*
X87236376Y-49312812D01*
X87168456Y-49476784D01*
X87069853Y-49624354D01*
X86944354Y-49749853D01*
X86796784Y-49848456D01*
X86632812Y-49916376D01*
X86483512Y-49946073D01*
X86458742Y-49951000D01*
X86281258Y-49951000D01*
X86256488Y-49946073D01*
X86107188Y-49916376D01*
X85943216Y-49848456D01*
X85795646Y-49749853D01*
X85670147Y-49624354D01*
X85571544Y-49476784D01*
X85503624Y-49312812D01*
X85473927Y-49163512D01*
X85469000Y-49138742D01*
X85469000Y-48961258D01*
X85476956Y-48921259D01*
X85503624Y-48787188D01*
X85571544Y-48623216D01*
X85670147Y-48475646D01*
X85795646Y-48350147D01*
X85943216Y-48251544D01*
X86107188Y-48183624D01*
X86256488Y-48153927D01*
X86281258Y-48149000D01*
X86458742Y-48149000D01*
X86483512Y-48153927D01*
G37*
G36*
X90123512Y-48153927D02*
G01*
X90272812Y-48183624D01*
X90436784Y-48251544D01*
X90584354Y-48350147D01*
X90709853Y-48475646D01*
X90808456Y-48623216D01*
X90876376Y-48787188D01*
X90903044Y-48921259D01*
X90911000Y-48961258D01*
X90911000Y-49138742D01*
X90906073Y-49163512D01*
X90876376Y-49312812D01*
X90808456Y-49476784D01*
X90709853Y-49624354D01*
X90584354Y-49749853D01*
X90436784Y-49848456D01*
X90272812Y-49916376D01*
X90123512Y-49946073D01*
X90098742Y-49951000D01*
X89921258Y-49951000D01*
X89896488Y-49946073D01*
X89747188Y-49916376D01*
X89583216Y-49848456D01*
X89435646Y-49749853D01*
X89310147Y-49624354D01*
X89211544Y-49476784D01*
X89143624Y-49312812D01*
X89113927Y-49163512D01*
X89109000Y-49138742D01*
X89109000Y-48961258D01*
X89116956Y-48921259D01*
X89143624Y-48787188D01*
X89211544Y-48623216D01*
X89310147Y-48475646D01*
X89435646Y-48350147D01*
X89583216Y-48251544D01*
X89747188Y-48183624D01*
X89896488Y-48153927D01*
X89921258Y-48149000D01*
X90098742Y-48149000D01*
X90123512Y-48153927D01*
G37*
G36*
X78013512Y-48113927D02*
G01*
X78162812Y-48143624D01*
X78326784Y-48211544D01*
X78474354Y-48310147D01*
X78599853Y-48435646D01*
X78698456Y-48583216D01*
X78766376Y-48747188D01*
X78801000Y-48921259D01*
X78801000Y-49098741D01*
X78766376Y-49272812D01*
X78698456Y-49436784D01*
X78599853Y-49584354D01*
X78474354Y-49709853D01*
X78326784Y-49808456D01*
X78162812Y-49876376D01*
X78013512Y-49906073D01*
X77988742Y-49911000D01*
X77811258Y-49911000D01*
X77786488Y-49906073D01*
X77637188Y-49876376D01*
X77473216Y-49808456D01*
X77325646Y-49709853D01*
X77200147Y-49584354D01*
X77101544Y-49436784D01*
X77033624Y-49272812D01*
X76999000Y-49098741D01*
X76999000Y-48921259D01*
X77033624Y-48747188D01*
X77101544Y-48583216D01*
X77200147Y-48435646D01*
X77325646Y-48310147D01*
X77473216Y-48211544D01*
X77637188Y-48143624D01*
X77786488Y-48113927D01*
X77811258Y-48109000D01*
X77988742Y-48109000D01*
X78013512Y-48113927D01*
G37*
G36*
X81643512Y-48103927D02*
G01*
X81792812Y-48133624D01*
X81956784Y-48201544D01*
X82104354Y-48300147D01*
X82229853Y-48425646D01*
X82328456Y-48573216D01*
X82396376Y-48737188D01*
X82431000Y-48911259D01*
X82431000Y-49088741D01*
X82396376Y-49262812D01*
X82328456Y-49426784D01*
X82229853Y-49574354D01*
X82104354Y-49699853D01*
X81956784Y-49798456D01*
X81792812Y-49866376D01*
X81643512Y-49896073D01*
X81618742Y-49901000D01*
X81441258Y-49901000D01*
X81416488Y-49896073D01*
X81267188Y-49866376D01*
X81103216Y-49798456D01*
X80955646Y-49699853D01*
X80830147Y-49574354D01*
X80731544Y-49426784D01*
X80663624Y-49262812D01*
X80629000Y-49088741D01*
X80629000Y-48911259D01*
X80663624Y-48737188D01*
X80731544Y-48573216D01*
X80830147Y-48425646D01*
X80955646Y-48300147D01*
X81103216Y-48201544D01*
X81267188Y-48133624D01*
X81416488Y-48103927D01*
X81441258Y-48099000D01*
X81618742Y-48099000D01*
X81643512Y-48103927D01*
G37*
G36*
X56471000Y-49321000D02*
G01*
X54369000Y-49321000D01*
X54369000Y-48319000D01*
X56471000Y-48319000D01*
X56471000Y-49321000D01*
G37*
G36*
X73471000Y-49321000D02*
G01*
X71369000Y-49321000D01*
X71369000Y-48319000D01*
X73471000Y-48319000D01*
X73471000Y-49321000D01*
G37*
G36*
X50158604Y-47108347D02*
G01*
X50195144Y-47119432D01*
X50228821Y-47137433D01*
X50258341Y-47161659D01*
X50282567Y-47191179D01*
X50300568Y-47224856D01*
X50311653Y-47261396D01*
X50316000Y-47305538D01*
X50316000Y-48254462D01*
X50311653Y-48298604D01*
X50300568Y-48335144D01*
X50282567Y-48368821D01*
X50258341Y-48398341D01*
X50228821Y-48422567D01*
X50195144Y-48440568D01*
X50158604Y-48451653D01*
X50114462Y-48456000D01*
X47765538Y-48456000D01*
X47721396Y-48451653D01*
X47684856Y-48440568D01*
X47651179Y-48422567D01*
X47621659Y-48398341D01*
X47597433Y-48368821D01*
X47579432Y-48335144D01*
X47568347Y-48298604D01*
X47564000Y-48254462D01*
X47564000Y-47305538D01*
X47568347Y-47261396D01*
X47579432Y-47224856D01*
X47597433Y-47191179D01*
X47621659Y-47161659D01*
X47651179Y-47137433D01*
X47684856Y-47119432D01*
X47721396Y-47108347D01*
X47765538Y-47104000D01*
X50114462Y-47104000D01*
X50158604Y-47108347D01*
G37*
G36*
X46919591Y-47303085D02*
G01*
X46953569Y-47313393D01*
X46984890Y-47330134D01*
X47012339Y-47352661D01*
X47034866Y-47380110D01*
X47051607Y-47411431D01*
X47061915Y-47445409D01*
X47066000Y-47486890D01*
X47066000Y-48088110D01*
X47061915Y-48129591D01*
X47051607Y-48163569D01*
X47034866Y-48194890D01*
X47012339Y-48222339D01*
X46984890Y-48244866D01*
X46953569Y-48261607D01*
X46919591Y-48271915D01*
X46878110Y-48276000D01*
X46201890Y-48276000D01*
X46160409Y-48271915D01*
X46126431Y-48261607D01*
X46095110Y-48244866D01*
X46067661Y-48222339D01*
X46045134Y-48194890D01*
X46028393Y-48163569D01*
X46018085Y-48129591D01*
X46014000Y-48088110D01*
X46014000Y-47486890D01*
X46018085Y-47445409D01*
X46028393Y-47411431D01*
X46045134Y-47380110D01*
X46067661Y-47352661D01*
X46095110Y-47330134D01*
X46126431Y-47313393D01*
X46160409Y-47303085D01*
X46201890Y-47299000D01*
X46878110Y-47299000D01*
X46919591Y-47303085D01*
G37*
G36*
X73471000Y-48051000D02*
G01*
X71369000Y-48051000D01*
X71369000Y-47049000D01*
X73471000Y-47049000D01*
X73471000Y-48051000D01*
G37*
G36*
X56471000Y-48051000D02*
G01*
X54369000Y-48051000D01*
X54369000Y-47049000D01*
X56471000Y-47049000D01*
X56471000Y-48051000D01*
G37*
G36*
X43711000Y-47941000D02*
G01*
X41909000Y-47941000D01*
X41909000Y-46139000D01*
X43711000Y-46139000D01*
X43711000Y-47941000D01*
G37*
G36*
X87271000Y-47411000D02*
G01*
X85469000Y-47411000D01*
X85469000Y-45609000D01*
X87271000Y-45609000D01*
X87271000Y-47411000D01*
G37*
G36*
X90911000Y-47411000D02*
G01*
X89109000Y-47411000D01*
X89109000Y-45609000D01*
X90911000Y-45609000D01*
X90911000Y-47411000D01*
G37*
G36*
X78801000Y-47371000D02*
G01*
X76999000Y-47371000D01*
X76999000Y-45569000D01*
X78801000Y-45569000D01*
X78801000Y-47371000D01*
G37*
G36*
X82431000Y-47361000D02*
G01*
X80629000Y-47361000D01*
X80629000Y-45559000D01*
X82431000Y-45559000D01*
X82431000Y-47361000D01*
G37*
G36*
X56471000Y-46781000D02*
G01*
X54369000Y-46781000D01*
X54369000Y-45779000D01*
X56471000Y-45779000D01*
X56471000Y-46781000D01*
G37*
G36*
X73471000Y-46781000D02*
G01*
X71369000Y-46781000D01*
X71369000Y-45779000D01*
X73471000Y-45779000D01*
X73471000Y-46781000D01*
G37*
G36*
X46919591Y-45728085D02*
G01*
X46953569Y-45738393D01*
X46984890Y-45755134D01*
X47012339Y-45777661D01*
X47034866Y-45805110D01*
X47051607Y-45836431D01*
X47061915Y-45870409D01*
X47066000Y-45911890D01*
X47066000Y-46513110D01*
X47061915Y-46554591D01*
X47051607Y-46588569D01*
X47034866Y-46619890D01*
X47012339Y-46647339D01*
X46984890Y-46669866D01*
X46953569Y-46686607D01*
X46919591Y-46696915D01*
X46878110Y-46701000D01*
X46201890Y-46701000D01*
X46160409Y-46696915D01*
X46126431Y-46686607D01*
X46095110Y-46669866D01*
X46067661Y-46647339D01*
X46045134Y-46619890D01*
X46028393Y-46588569D01*
X46018085Y-46554591D01*
X46014000Y-46513110D01*
X46014000Y-45911890D01*
X46018085Y-45870409D01*
X46028393Y-45836431D01*
X46045134Y-45805110D01*
X46067661Y-45777661D01*
X46095110Y-45755134D01*
X46126431Y-45738393D01*
X46160409Y-45728085D01*
X46201890Y-45724000D01*
X46878110Y-45724000D01*
X46919591Y-45728085D01*
G37*
G36*
X50158604Y-44308347D02*
G01*
X50195144Y-44319432D01*
X50228821Y-44337433D01*
X50258341Y-44361659D01*
X50282567Y-44391179D01*
X50300568Y-44424856D01*
X50311653Y-44461396D01*
X50316000Y-44505538D01*
X50316000Y-45454462D01*
X50311653Y-45498604D01*
X50300568Y-45535144D01*
X50282567Y-45568821D01*
X50258341Y-45598341D01*
X50228821Y-45622567D01*
X50195144Y-45640568D01*
X50158604Y-45651653D01*
X50114462Y-45656000D01*
X47765538Y-45656000D01*
X47721396Y-45651653D01*
X47684856Y-45640568D01*
X47651179Y-45622567D01*
X47621659Y-45598341D01*
X47597433Y-45568821D01*
X47579432Y-45535144D01*
X47568347Y-45498604D01*
X47564000Y-45454462D01*
X47564000Y-44505538D01*
X47568347Y-44461396D01*
X47579432Y-44424856D01*
X47597433Y-44391179D01*
X47621659Y-44361659D01*
X47651179Y-44337433D01*
X47684856Y-44319432D01*
X47721396Y-44308347D01*
X47765538Y-44304000D01*
X50114462Y-44304000D01*
X50158604Y-44308347D01*
G37*
G36*
X73471000Y-45511000D02*
G01*
X71369000Y-45511000D01*
X71369000Y-44509000D01*
X73471000Y-44509000D01*
X73471000Y-45511000D01*
G37*
G36*
X56471000Y-45511000D02*
G01*
X54369000Y-45511000D01*
X54369000Y-44509000D01*
X56471000Y-44509000D01*
X56471000Y-45511000D01*
G37*
M02*
