G04 #@! TF.GenerationSoftware,KiCad,Pcbnew,5.1.5+dfsg1-2build2*
G04 #@! TF.CreationDate,2020-06-17T17:16:25+07:00*
G04 #@! TF.ProjectId,wrover_the_thesis,77726f76-6572-45f7-9468-655f74686573,rev?*
G04 #@! TF.SameCoordinates,Original*
G04 #@! TF.FileFunction,Paste,Top*
G04 #@! TF.FilePolarity,Positive*
%FSLAX46Y46*%
G04 Gerber Fmt 4.6, Leading zero omitted, Abs format (unit mm)*
G04 Created by KiCad (PCBNEW 5.1.5+dfsg1-2build2) date 2020-06-17 17:16:25*
%MOMM*%
%LPD*%
G04 APERTURE LIST*
%ADD10C,0.010000*%
%ADD11R,1.500000X1.500000*%
%ADD12C,0.100000*%
%ADD13R,1.200000X0.800000*%
%ADD14R,2.000000X1.500000*%
%ADD15R,2.000000X3.800000*%
%ADD16R,2.000000X0.900000*%
%ADD17R,0.450000X1.300000*%
G04 APERTURE END LIST*
D10*
G36*
X61340000Y-50930000D02*
G01*
X64500000Y-50930000D01*
X64500000Y-54090000D01*
X61340000Y-54090000D01*
X61340000Y-50930000D01*
G37*
X61340000Y-50930000D02*
X64500000Y-50930000D01*
X64500000Y-54090000D01*
X61340000Y-54090000D01*
X61340000Y-50930000D01*
D11*
X59330000Y-99150000D03*
X59330000Y-91350000D03*
D12*
G36*
X62489504Y-74916204D02*
G01*
X62513773Y-74919804D01*
X62537571Y-74925765D01*
X62560671Y-74934030D01*
X62582849Y-74944520D01*
X62603893Y-74957133D01*
X62623598Y-74971747D01*
X62641777Y-74988223D01*
X62658253Y-75006402D01*
X62672867Y-75026107D01*
X62685480Y-75047151D01*
X62695970Y-75069329D01*
X62704235Y-75092429D01*
X62710196Y-75116227D01*
X62713796Y-75140496D01*
X62715000Y-75165000D01*
X62715000Y-75915000D01*
X62713796Y-75939504D01*
X62710196Y-75963773D01*
X62704235Y-75987571D01*
X62695970Y-76010671D01*
X62685480Y-76032849D01*
X62672867Y-76053893D01*
X62658253Y-76073598D01*
X62641777Y-76091777D01*
X62623598Y-76108253D01*
X62603893Y-76122867D01*
X62582849Y-76135480D01*
X62560671Y-76145970D01*
X62537571Y-76154235D01*
X62513773Y-76160196D01*
X62489504Y-76163796D01*
X62465000Y-76165000D01*
X60315000Y-76165000D01*
X60290496Y-76163796D01*
X60266227Y-76160196D01*
X60242429Y-76154235D01*
X60219329Y-76145970D01*
X60197151Y-76135480D01*
X60176107Y-76122867D01*
X60156402Y-76108253D01*
X60138223Y-76091777D01*
X60121747Y-76073598D01*
X60107133Y-76053893D01*
X60094520Y-76032849D01*
X60084030Y-76010671D01*
X60075765Y-75987571D01*
X60069804Y-75963773D01*
X60066204Y-75939504D01*
X60065000Y-75915000D01*
X60065000Y-75165000D01*
X60066204Y-75140496D01*
X60069804Y-75116227D01*
X60075765Y-75092429D01*
X60084030Y-75069329D01*
X60094520Y-75047151D01*
X60107133Y-75026107D01*
X60121747Y-75006402D01*
X60138223Y-74988223D01*
X60156402Y-74971747D01*
X60176107Y-74957133D01*
X60197151Y-74944520D01*
X60219329Y-74934030D01*
X60242429Y-74925765D01*
X60266227Y-74919804D01*
X60290496Y-74916204D01*
X60315000Y-74915000D01*
X62465000Y-74915000D01*
X62489504Y-74916204D01*
G37*
G36*
X62489504Y-72116204D02*
G01*
X62513773Y-72119804D01*
X62537571Y-72125765D01*
X62560671Y-72134030D01*
X62582849Y-72144520D01*
X62603893Y-72157133D01*
X62623598Y-72171747D01*
X62641777Y-72188223D01*
X62658253Y-72206402D01*
X62672867Y-72226107D01*
X62685480Y-72247151D01*
X62695970Y-72269329D01*
X62704235Y-72292429D01*
X62710196Y-72316227D01*
X62713796Y-72340496D01*
X62715000Y-72365000D01*
X62715000Y-73115000D01*
X62713796Y-73139504D01*
X62710196Y-73163773D01*
X62704235Y-73187571D01*
X62695970Y-73210671D01*
X62685480Y-73232849D01*
X62672867Y-73253893D01*
X62658253Y-73273598D01*
X62641777Y-73291777D01*
X62623598Y-73308253D01*
X62603893Y-73322867D01*
X62582849Y-73335480D01*
X62560671Y-73345970D01*
X62537571Y-73354235D01*
X62513773Y-73360196D01*
X62489504Y-73363796D01*
X62465000Y-73365000D01*
X60315000Y-73365000D01*
X60290496Y-73363796D01*
X60266227Y-73360196D01*
X60242429Y-73354235D01*
X60219329Y-73345970D01*
X60197151Y-73335480D01*
X60176107Y-73322867D01*
X60156402Y-73308253D01*
X60138223Y-73291777D01*
X60121747Y-73273598D01*
X60107133Y-73253893D01*
X60094520Y-73232849D01*
X60084030Y-73210671D01*
X60075765Y-73187571D01*
X60069804Y-73163773D01*
X60066204Y-73139504D01*
X60065000Y-73115000D01*
X60065000Y-72365000D01*
X60066204Y-72340496D01*
X60069804Y-72316227D01*
X60075765Y-72292429D01*
X60084030Y-72269329D01*
X60094520Y-72247151D01*
X60107133Y-72226107D01*
X60121747Y-72206402D01*
X60138223Y-72188223D01*
X60156402Y-72171747D01*
X60176107Y-72157133D01*
X60197151Y-72144520D01*
X60219329Y-72134030D01*
X60242429Y-72125765D01*
X60266227Y-72119804D01*
X60290496Y-72116204D01*
X60315000Y-72115000D01*
X62465000Y-72115000D01*
X62489504Y-72116204D01*
G37*
G36*
X75540779Y-80066144D02*
G01*
X75563834Y-80069563D01*
X75586443Y-80075227D01*
X75608387Y-80083079D01*
X75629457Y-80093044D01*
X75649448Y-80105026D01*
X75668168Y-80118910D01*
X75685438Y-80134562D01*
X75701090Y-80151832D01*
X75714974Y-80170552D01*
X75726956Y-80190543D01*
X75736921Y-80211613D01*
X75744773Y-80233557D01*
X75750437Y-80256166D01*
X75753856Y-80279221D01*
X75755000Y-80302500D01*
X75755000Y-80777500D01*
X75753856Y-80800779D01*
X75750437Y-80823834D01*
X75744773Y-80846443D01*
X75736921Y-80868387D01*
X75726956Y-80889457D01*
X75714974Y-80909448D01*
X75701090Y-80928168D01*
X75685438Y-80945438D01*
X75668168Y-80961090D01*
X75649448Y-80974974D01*
X75629457Y-80986956D01*
X75608387Y-80996921D01*
X75586443Y-81004773D01*
X75563834Y-81010437D01*
X75540779Y-81013856D01*
X75517500Y-81015000D01*
X74942500Y-81015000D01*
X74919221Y-81013856D01*
X74896166Y-81010437D01*
X74873557Y-81004773D01*
X74851613Y-80996921D01*
X74830543Y-80986956D01*
X74810552Y-80974974D01*
X74791832Y-80961090D01*
X74774562Y-80945438D01*
X74758910Y-80928168D01*
X74745026Y-80909448D01*
X74733044Y-80889457D01*
X74723079Y-80868387D01*
X74715227Y-80846443D01*
X74709563Y-80823834D01*
X74706144Y-80800779D01*
X74705000Y-80777500D01*
X74705000Y-80302500D01*
X74706144Y-80279221D01*
X74709563Y-80256166D01*
X74715227Y-80233557D01*
X74723079Y-80211613D01*
X74733044Y-80190543D01*
X74745026Y-80170552D01*
X74758910Y-80151832D01*
X74774562Y-80134562D01*
X74791832Y-80118910D01*
X74810552Y-80105026D01*
X74830543Y-80093044D01*
X74851613Y-80083079D01*
X74873557Y-80075227D01*
X74896166Y-80069563D01*
X74919221Y-80066144D01*
X74942500Y-80065000D01*
X75517500Y-80065000D01*
X75540779Y-80066144D01*
G37*
G36*
X77290779Y-80066144D02*
G01*
X77313834Y-80069563D01*
X77336443Y-80075227D01*
X77358387Y-80083079D01*
X77379457Y-80093044D01*
X77399448Y-80105026D01*
X77418168Y-80118910D01*
X77435438Y-80134562D01*
X77451090Y-80151832D01*
X77464974Y-80170552D01*
X77476956Y-80190543D01*
X77486921Y-80211613D01*
X77494773Y-80233557D01*
X77500437Y-80256166D01*
X77503856Y-80279221D01*
X77505000Y-80302500D01*
X77505000Y-80777500D01*
X77503856Y-80800779D01*
X77500437Y-80823834D01*
X77494773Y-80846443D01*
X77486921Y-80868387D01*
X77476956Y-80889457D01*
X77464974Y-80909448D01*
X77451090Y-80928168D01*
X77435438Y-80945438D01*
X77418168Y-80961090D01*
X77399448Y-80974974D01*
X77379457Y-80986956D01*
X77358387Y-80996921D01*
X77336443Y-81004773D01*
X77313834Y-81010437D01*
X77290779Y-81013856D01*
X77267500Y-81015000D01*
X76692500Y-81015000D01*
X76669221Y-81013856D01*
X76646166Y-81010437D01*
X76623557Y-81004773D01*
X76601613Y-80996921D01*
X76580543Y-80986956D01*
X76560552Y-80974974D01*
X76541832Y-80961090D01*
X76524562Y-80945438D01*
X76508910Y-80928168D01*
X76495026Y-80909448D01*
X76483044Y-80889457D01*
X76473079Y-80868387D01*
X76465227Y-80846443D01*
X76459563Y-80823834D01*
X76456144Y-80800779D01*
X76455000Y-80777500D01*
X76455000Y-80302500D01*
X76456144Y-80279221D01*
X76459563Y-80256166D01*
X76465227Y-80233557D01*
X76473079Y-80211613D01*
X76483044Y-80190543D01*
X76495026Y-80170552D01*
X76508910Y-80151832D01*
X76524562Y-80134562D01*
X76541832Y-80118910D01*
X76560552Y-80105026D01*
X76580543Y-80093044D01*
X76601613Y-80083079D01*
X76623557Y-80075227D01*
X76646166Y-80069563D01*
X76669221Y-80066144D01*
X76692500Y-80065000D01*
X77267500Y-80065000D01*
X77290779Y-80066144D01*
G37*
G36*
X78812691Y-80056053D02*
G01*
X78833926Y-80059203D01*
X78854750Y-80064419D01*
X78874962Y-80071651D01*
X78894368Y-80080830D01*
X78912781Y-80091866D01*
X78930024Y-80104654D01*
X78945930Y-80119070D01*
X78960346Y-80134976D01*
X78973134Y-80152219D01*
X78984170Y-80170632D01*
X78993349Y-80190038D01*
X79000581Y-80210250D01*
X79005797Y-80231074D01*
X79008947Y-80252309D01*
X79010000Y-80273750D01*
X79010000Y-80786250D01*
X79008947Y-80807691D01*
X79005797Y-80828926D01*
X79000581Y-80849750D01*
X78993349Y-80869962D01*
X78984170Y-80889368D01*
X78973134Y-80907781D01*
X78960346Y-80925024D01*
X78945930Y-80940930D01*
X78930024Y-80955346D01*
X78912781Y-80968134D01*
X78894368Y-80979170D01*
X78874962Y-80988349D01*
X78854750Y-80995581D01*
X78833926Y-81000797D01*
X78812691Y-81003947D01*
X78791250Y-81005000D01*
X78353750Y-81005000D01*
X78332309Y-81003947D01*
X78311074Y-81000797D01*
X78290250Y-80995581D01*
X78270038Y-80988349D01*
X78250632Y-80979170D01*
X78232219Y-80968134D01*
X78214976Y-80955346D01*
X78199070Y-80940930D01*
X78184654Y-80925024D01*
X78171866Y-80907781D01*
X78160830Y-80889368D01*
X78151651Y-80869962D01*
X78144419Y-80849750D01*
X78139203Y-80828926D01*
X78136053Y-80807691D01*
X78135000Y-80786250D01*
X78135000Y-80273750D01*
X78136053Y-80252309D01*
X78139203Y-80231074D01*
X78144419Y-80210250D01*
X78151651Y-80190038D01*
X78160830Y-80170632D01*
X78171866Y-80152219D01*
X78184654Y-80134976D01*
X78199070Y-80119070D01*
X78214976Y-80104654D01*
X78232219Y-80091866D01*
X78250632Y-80080830D01*
X78270038Y-80071651D01*
X78290250Y-80064419D01*
X78311074Y-80059203D01*
X78332309Y-80056053D01*
X78353750Y-80055000D01*
X78791250Y-80055000D01*
X78812691Y-80056053D01*
G37*
G36*
X80387691Y-80056053D02*
G01*
X80408926Y-80059203D01*
X80429750Y-80064419D01*
X80449962Y-80071651D01*
X80469368Y-80080830D01*
X80487781Y-80091866D01*
X80505024Y-80104654D01*
X80520930Y-80119070D01*
X80535346Y-80134976D01*
X80548134Y-80152219D01*
X80559170Y-80170632D01*
X80568349Y-80190038D01*
X80575581Y-80210250D01*
X80580797Y-80231074D01*
X80583947Y-80252309D01*
X80585000Y-80273750D01*
X80585000Y-80786250D01*
X80583947Y-80807691D01*
X80580797Y-80828926D01*
X80575581Y-80849750D01*
X80568349Y-80869962D01*
X80559170Y-80889368D01*
X80548134Y-80907781D01*
X80535346Y-80925024D01*
X80520930Y-80940930D01*
X80505024Y-80955346D01*
X80487781Y-80968134D01*
X80469368Y-80979170D01*
X80449962Y-80988349D01*
X80429750Y-80995581D01*
X80408926Y-81000797D01*
X80387691Y-81003947D01*
X80366250Y-81005000D01*
X79928750Y-81005000D01*
X79907309Y-81003947D01*
X79886074Y-81000797D01*
X79865250Y-80995581D01*
X79845038Y-80988349D01*
X79825632Y-80979170D01*
X79807219Y-80968134D01*
X79789976Y-80955346D01*
X79774070Y-80940930D01*
X79759654Y-80925024D01*
X79746866Y-80907781D01*
X79735830Y-80889368D01*
X79726651Y-80869962D01*
X79719419Y-80849750D01*
X79714203Y-80828926D01*
X79711053Y-80807691D01*
X79710000Y-80786250D01*
X79710000Y-80273750D01*
X79711053Y-80252309D01*
X79714203Y-80231074D01*
X79719419Y-80210250D01*
X79726651Y-80190038D01*
X79735830Y-80170632D01*
X79746866Y-80152219D01*
X79759654Y-80134976D01*
X79774070Y-80119070D01*
X79789976Y-80104654D01*
X79807219Y-80091866D01*
X79825632Y-80080830D01*
X79845038Y-80071651D01*
X79865250Y-80064419D01*
X79886074Y-80059203D01*
X79907309Y-80056053D01*
X79928750Y-80055000D01*
X80366250Y-80055000D01*
X80387691Y-80056053D01*
G37*
G36*
X62880779Y-86151144D02*
G01*
X62903834Y-86154563D01*
X62926443Y-86160227D01*
X62948387Y-86168079D01*
X62969457Y-86178044D01*
X62989448Y-86190026D01*
X63008168Y-86203910D01*
X63025438Y-86219562D01*
X63041090Y-86236832D01*
X63054974Y-86255552D01*
X63066956Y-86275543D01*
X63076921Y-86296613D01*
X63084773Y-86318557D01*
X63090437Y-86341166D01*
X63093856Y-86364221D01*
X63095000Y-86387500D01*
X63095000Y-86962500D01*
X63093856Y-86985779D01*
X63090437Y-87008834D01*
X63084773Y-87031443D01*
X63076921Y-87053387D01*
X63066956Y-87074457D01*
X63054974Y-87094448D01*
X63041090Y-87113168D01*
X63025438Y-87130438D01*
X63008168Y-87146090D01*
X62989448Y-87159974D01*
X62969457Y-87171956D01*
X62948387Y-87181921D01*
X62926443Y-87189773D01*
X62903834Y-87195437D01*
X62880779Y-87198856D01*
X62857500Y-87200000D01*
X62382500Y-87200000D01*
X62359221Y-87198856D01*
X62336166Y-87195437D01*
X62313557Y-87189773D01*
X62291613Y-87181921D01*
X62270543Y-87171956D01*
X62250552Y-87159974D01*
X62231832Y-87146090D01*
X62214562Y-87130438D01*
X62198910Y-87113168D01*
X62185026Y-87094448D01*
X62173044Y-87074457D01*
X62163079Y-87053387D01*
X62155227Y-87031443D01*
X62149563Y-87008834D01*
X62146144Y-86985779D01*
X62145000Y-86962500D01*
X62145000Y-86387500D01*
X62146144Y-86364221D01*
X62149563Y-86341166D01*
X62155227Y-86318557D01*
X62163079Y-86296613D01*
X62173044Y-86275543D01*
X62185026Y-86255552D01*
X62198910Y-86236832D01*
X62214562Y-86219562D01*
X62231832Y-86203910D01*
X62250552Y-86190026D01*
X62270543Y-86178044D01*
X62291613Y-86168079D01*
X62313557Y-86160227D01*
X62336166Y-86154563D01*
X62359221Y-86151144D01*
X62382500Y-86150000D01*
X62857500Y-86150000D01*
X62880779Y-86151144D01*
G37*
G36*
X62880779Y-84401144D02*
G01*
X62903834Y-84404563D01*
X62926443Y-84410227D01*
X62948387Y-84418079D01*
X62969457Y-84428044D01*
X62989448Y-84440026D01*
X63008168Y-84453910D01*
X63025438Y-84469562D01*
X63041090Y-84486832D01*
X63054974Y-84505552D01*
X63066956Y-84525543D01*
X63076921Y-84546613D01*
X63084773Y-84568557D01*
X63090437Y-84591166D01*
X63093856Y-84614221D01*
X63095000Y-84637500D01*
X63095000Y-85212500D01*
X63093856Y-85235779D01*
X63090437Y-85258834D01*
X63084773Y-85281443D01*
X63076921Y-85303387D01*
X63066956Y-85324457D01*
X63054974Y-85344448D01*
X63041090Y-85363168D01*
X63025438Y-85380438D01*
X63008168Y-85396090D01*
X62989448Y-85409974D01*
X62969457Y-85421956D01*
X62948387Y-85431921D01*
X62926443Y-85439773D01*
X62903834Y-85445437D01*
X62880779Y-85448856D01*
X62857500Y-85450000D01*
X62382500Y-85450000D01*
X62359221Y-85448856D01*
X62336166Y-85445437D01*
X62313557Y-85439773D01*
X62291613Y-85431921D01*
X62270543Y-85421956D01*
X62250552Y-85409974D01*
X62231832Y-85396090D01*
X62214562Y-85380438D01*
X62198910Y-85363168D01*
X62185026Y-85344448D01*
X62173044Y-85324457D01*
X62163079Y-85303387D01*
X62155227Y-85281443D01*
X62149563Y-85258834D01*
X62146144Y-85235779D01*
X62145000Y-85212500D01*
X62145000Y-84637500D01*
X62146144Y-84614221D01*
X62149563Y-84591166D01*
X62155227Y-84568557D01*
X62163079Y-84546613D01*
X62173044Y-84525543D01*
X62185026Y-84505552D01*
X62198910Y-84486832D01*
X62214562Y-84469562D01*
X62231832Y-84453910D01*
X62250552Y-84440026D01*
X62270543Y-84428044D01*
X62291613Y-84418079D01*
X62313557Y-84410227D01*
X62336166Y-84404563D01*
X62359221Y-84401144D01*
X62382500Y-84400000D01*
X62857500Y-84400000D01*
X62880779Y-84401144D01*
G37*
G36*
X76520779Y-83056144D02*
G01*
X76543834Y-83059563D01*
X76566443Y-83065227D01*
X76588387Y-83073079D01*
X76609457Y-83083044D01*
X76629448Y-83095026D01*
X76648168Y-83108910D01*
X76665438Y-83124562D01*
X76681090Y-83141832D01*
X76694974Y-83160552D01*
X76706956Y-83180543D01*
X76716921Y-83201613D01*
X76724773Y-83223557D01*
X76730437Y-83246166D01*
X76733856Y-83269221D01*
X76735000Y-83292500D01*
X76735000Y-83767500D01*
X76733856Y-83790779D01*
X76730437Y-83813834D01*
X76724773Y-83836443D01*
X76716921Y-83858387D01*
X76706956Y-83879457D01*
X76694974Y-83899448D01*
X76681090Y-83918168D01*
X76665438Y-83935438D01*
X76648168Y-83951090D01*
X76629448Y-83964974D01*
X76609457Y-83976956D01*
X76588387Y-83986921D01*
X76566443Y-83994773D01*
X76543834Y-84000437D01*
X76520779Y-84003856D01*
X76497500Y-84005000D01*
X75922500Y-84005000D01*
X75899221Y-84003856D01*
X75876166Y-84000437D01*
X75853557Y-83994773D01*
X75831613Y-83986921D01*
X75810543Y-83976956D01*
X75790552Y-83964974D01*
X75771832Y-83951090D01*
X75754562Y-83935438D01*
X75738910Y-83918168D01*
X75725026Y-83899448D01*
X75713044Y-83879457D01*
X75703079Y-83858387D01*
X75695227Y-83836443D01*
X75689563Y-83813834D01*
X75686144Y-83790779D01*
X75685000Y-83767500D01*
X75685000Y-83292500D01*
X75686144Y-83269221D01*
X75689563Y-83246166D01*
X75695227Y-83223557D01*
X75703079Y-83201613D01*
X75713044Y-83180543D01*
X75725026Y-83160552D01*
X75738910Y-83141832D01*
X75754562Y-83124562D01*
X75771832Y-83108910D01*
X75790552Y-83095026D01*
X75810543Y-83083044D01*
X75831613Y-83073079D01*
X75853557Y-83065227D01*
X75876166Y-83059563D01*
X75899221Y-83056144D01*
X75922500Y-83055000D01*
X76497500Y-83055000D01*
X76520779Y-83056144D01*
G37*
G36*
X74770779Y-83056144D02*
G01*
X74793834Y-83059563D01*
X74816443Y-83065227D01*
X74838387Y-83073079D01*
X74859457Y-83083044D01*
X74879448Y-83095026D01*
X74898168Y-83108910D01*
X74915438Y-83124562D01*
X74931090Y-83141832D01*
X74944974Y-83160552D01*
X74956956Y-83180543D01*
X74966921Y-83201613D01*
X74974773Y-83223557D01*
X74980437Y-83246166D01*
X74983856Y-83269221D01*
X74985000Y-83292500D01*
X74985000Y-83767500D01*
X74983856Y-83790779D01*
X74980437Y-83813834D01*
X74974773Y-83836443D01*
X74966921Y-83858387D01*
X74956956Y-83879457D01*
X74944974Y-83899448D01*
X74931090Y-83918168D01*
X74915438Y-83935438D01*
X74898168Y-83951090D01*
X74879448Y-83964974D01*
X74859457Y-83976956D01*
X74838387Y-83986921D01*
X74816443Y-83994773D01*
X74793834Y-84000437D01*
X74770779Y-84003856D01*
X74747500Y-84005000D01*
X74172500Y-84005000D01*
X74149221Y-84003856D01*
X74126166Y-84000437D01*
X74103557Y-83994773D01*
X74081613Y-83986921D01*
X74060543Y-83976956D01*
X74040552Y-83964974D01*
X74021832Y-83951090D01*
X74004562Y-83935438D01*
X73988910Y-83918168D01*
X73975026Y-83899448D01*
X73963044Y-83879457D01*
X73953079Y-83858387D01*
X73945227Y-83836443D01*
X73939563Y-83813834D01*
X73936144Y-83790779D01*
X73935000Y-83767500D01*
X73935000Y-83292500D01*
X73936144Y-83269221D01*
X73939563Y-83246166D01*
X73945227Y-83223557D01*
X73953079Y-83201613D01*
X73963044Y-83180543D01*
X73975026Y-83160552D01*
X73988910Y-83141832D01*
X74004562Y-83124562D01*
X74021832Y-83108910D01*
X74040552Y-83095026D01*
X74060543Y-83083044D01*
X74081613Y-83073079D01*
X74103557Y-83065227D01*
X74126166Y-83059563D01*
X74149221Y-83056144D01*
X74172500Y-83055000D01*
X74747500Y-83055000D01*
X74770779Y-83056144D01*
G37*
G36*
X74680779Y-84781144D02*
G01*
X74703834Y-84784563D01*
X74726443Y-84790227D01*
X74748387Y-84798079D01*
X74769457Y-84808044D01*
X74789448Y-84820026D01*
X74808168Y-84833910D01*
X74825438Y-84849562D01*
X74841090Y-84866832D01*
X74854974Y-84885552D01*
X74866956Y-84905543D01*
X74876921Y-84926613D01*
X74884773Y-84948557D01*
X74890437Y-84971166D01*
X74893856Y-84994221D01*
X74895000Y-85017500D01*
X74895000Y-85592500D01*
X74893856Y-85615779D01*
X74890437Y-85638834D01*
X74884773Y-85661443D01*
X74876921Y-85683387D01*
X74866956Y-85704457D01*
X74854974Y-85724448D01*
X74841090Y-85743168D01*
X74825438Y-85760438D01*
X74808168Y-85776090D01*
X74789448Y-85789974D01*
X74769457Y-85801956D01*
X74748387Y-85811921D01*
X74726443Y-85819773D01*
X74703834Y-85825437D01*
X74680779Y-85828856D01*
X74657500Y-85830000D01*
X74182500Y-85830000D01*
X74159221Y-85828856D01*
X74136166Y-85825437D01*
X74113557Y-85819773D01*
X74091613Y-85811921D01*
X74070543Y-85801956D01*
X74050552Y-85789974D01*
X74031832Y-85776090D01*
X74014562Y-85760438D01*
X73998910Y-85743168D01*
X73985026Y-85724448D01*
X73973044Y-85704457D01*
X73963079Y-85683387D01*
X73955227Y-85661443D01*
X73949563Y-85638834D01*
X73946144Y-85615779D01*
X73945000Y-85592500D01*
X73945000Y-85017500D01*
X73946144Y-84994221D01*
X73949563Y-84971166D01*
X73955227Y-84948557D01*
X73963079Y-84926613D01*
X73973044Y-84905543D01*
X73985026Y-84885552D01*
X73998910Y-84866832D01*
X74014562Y-84849562D01*
X74031832Y-84833910D01*
X74050552Y-84820026D01*
X74070543Y-84808044D01*
X74091613Y-84798079D01*
X74113557Y-84790227D01*
X74136166Y-84784563D01*
X74159221Y-84781144D01*
X74182500Y-84780000D01*
X74657500Y-84780000D01*
X74680779Y-84781144D01*
G37*
G36*
X74680779Y-86531144D02*
G01*
X74703834Y-86534563D01*
X74726443Y-86540227D01*
X74748387Y-86548079D01*
X74769457Y-86558044D01*
X74789448Y-86570026D01*
X74808168Y-86583910D01*
X74825438Y-86599562D01*
X74841090Y-86616832D01*
X74854974Y-86635552D01*
X74866956Y-86655543D01*
X74876921Y-86676613D01*
X74884773Y-86698557D01*
X74890437Y-86721166D01*
X74893856Y-86744221D01*
X74895000Y-86767500D01*
X74895000Y-87342500D01*
X74893856Y-87365779D01*
X74890437Y-87388834D01*
X74884773Y-87411443D01*
X74876921Y-87433387D01*
X74866956Y-87454457D01*
X74854974Y-87474448D01*
X74841090Y-87493168D01*
X74825438Y-87510438D01*
X74808168Y-87526090D01*
X74789448Y-87539974D01*
X74769457Y-87551956D01*
X74748387Y-87561921D01*
X74726443Y-87569773D01*
X74703834Y-87575437D01*
X74680779Y-87578856D01*
X74657500Y-87580000D01*
X74182500Y-87580000D01*
X74159221Y-87578856D01*
X74136166Y-87575437D01*
X74113557Y-87569773D01*
X74091613Y-87561921D01*
X74070543Y-87551956D01*
X74050552Y-87539974D01*
X74031832Y-87526090D01*
X74014562Y-87510438D01*
X73998910Y-87493168D01*
X73985026Y-87474448D01*
X73973044Y-87454457D01*
X73963079Y-87433387D01*
X73955227Y-87411443D01*
X73949563Y-87388834D01*
X73946144Y-87365779D01*
X73945000Y-87342500D01*
X73945000Y-86767500D01*
X73946144Y-86744221D01*
X73949563Y-86721166D01*
X73955227Y-86698557D01*
X73963079Y-86676613D01*
X73973044Y-86655543D01*
X73985026Y-86635552D01*
X73998910Y-86616832D01*
X74014562Y-86599562D01*
X74031832Y-86583910D01*
X74050552Y-86570026D01*
X74070543Y-86558044D01*
X74091613Y-86548079D01*
X74113557Y-86540227D01*
X74136166Y-86534563D01*
X74159221Y-86531144D01*
X74182500Y-86530000D01*
X74657500Y-86530000D01*
X74680779Y-86531144D01*
G37*
G36*
X62870779Y-82276144D02*
G01*
X62893834Y-82279563D01*
X62916443Y-82285227D01*
X62938387Y-82293079D01*
X62959457Y-82303044D01*
X62979448Y-82315026D01*
X62998168Y-82328910D01*
X63015438Y-82344562D01*
X63031090Y-82361832D01*
X63044974Y-82380552D01*
X63056956Y-82400543D01*
X63066921Y-82421613D01*
X63074773Y-82443557D01*
X63080437Y-82466166D01*
X63083856Y-82489221D01*
X63085000Y-82512500D01*
X63085000Y-83087500D01*
X63083856Y-83110779D01*
X63080437Y-83133834D01*
X63074773Y-83156443D01*
X63066921Y-83178387D01*
X63056956Y-83199457D01*
X63044974Y-83219448D01*
X63031090Y-83238168D01*
X63015438Y-83255438D01*
X62998168Y-83271090D01*
X62979448Y-83284974D01*
X62959457Y-83296956D01*
X62938387Y-83306921D01*
X62916443Y-83314773D01*
X62893834Y-83320437D01*
X62870779Y-83323856D01*
X62847500Y-83325000D01*
X62372500Y-83325000D01*
X62349221Y-83323856D01*
X62326166Y-83320437D01*
X62303557Y-83314773D01*
X62281613Y-83306921D01*
X62260543Y-83296956D01*
X62240552Y-83284974D01*
X62221832Y-83271090D01*
X62204562Y-83255438D01*
X62188910Y-83238168D01*
X62175026Y-83219448D01*
X62163044Y-83199457D01*
X62153079Y-83178387D01*
X62145227Y-83156443D01*
X62139563Y-83133834D01*
X62136144Y-83110779D01*
X62135000Y-83087500D01*
X62135000Y-82512500D01*
X62136144Y-82489221D01*
X62139563Y-82466166D01*
X62145227Y-82443557D01*
X62153079Y-82421613D01*
X62163044Y-82400543D01*
X62175026Y-82380552D01*
X62188910Y-82361832D01*
X62204562Y-82344562D01*
X62221832Y-82328910D01*
X62240552Y-82315026D01*
X62260543Y-82303044D01*
X62281613Y-82293079D01*
X62303557Y-82285227D01*
X62326166Y-82279563D01*
X62349221Y-82276144D01*
X62372500Y-82275000D01*
X62847500Y-82275000D01*
X62870779Y-82276144D01*
G37*
G36*
X62870779Y-80526144D02*
G01*
X62893834Y-80529563D01*
X62916443Y-80535227D01*
X62938387Y-80543079D01*
X62959457Y-80553044D01*
X62979448Y-80565026D01*
X62998168Y-80578910D01*
X63015438Y-80594562D01*
X63031090Y-80611832D01*
X63044974Y-80630552D01*
X63056956Y-80650543D01*
X63066921Y-80671613D01*
X63074773Y-80693557D01*
X63080437Y-80716166D01*
X63083856Y-80739221D01*
X63085000Y-80762500D01*
X63085000Y-81337500D01*
X63083856Y-81360779D01*
X63080437Y-81383834D01*
X63074773Y-81406443D01*
X63066921Y-81428387D01*
X63056956Y-81449457D01*
X63044974Y-81469448D01*
X63031090Y-81488168D01*
X63015438Y-81505438D01*
X62998168Y-81521090D01*
X62979448Y-81534974D01*
X62959457Y-81546956D01*
X62938387Y-81556921D01*
X62916443Y-81564773D01*
X62893834Y-81570437D01*
X62870779Y-81573856D01*
X62847500Y-81575000D01*
X62372500Y-81575000D01*
X62349221Y-81573856D01*
X62326166Y-81570437D01*
X62303557Y-81564773D01*
X62281613Y-81556921D01*
X62260543Y-81546956D01*
X62240552Y-81534974D01*
X62221832Y-81521090D01*
X62204562Y-81505438D01*
X62188910Y-81488168D01*
X62175026Y-81469448D01*
X62163044Y-81449457D01*
X62153079Y-81428387D01*
X62145227Y-81406443D01*
X62139563Y-81383834D01*
X62136144Y-81360779D01*
X62135000Y-81337500D01*
X62135000Y-80762500D01*
X62136144Y-80739221D01*
X62139563Y-80716166D01*
X62145227Y-80693557D01*
X62153079Y-80671613D01*
X62163044Y-80650543D01*
X62175026Y-80630552D01*
X62188910Y-80611832D01*
X62204562Y-80594562D01*
X62221832Y-80578910D01*
X62240552Y-80565026D01*
X62260543Y-80553044D01*
X62281613Y-80543079D01*
X62303557Y-80535227D01*
X62326166Y-80529563D01*
X62349221Y-80526144D01*
X62372500Y-80525000D01*
X62847500Y-80525000D01*
X62870779Y-80526144D01*
G37*
G36*
X67330779Y-76666144D02*
G01*
X67353834Y-76669563D01*
X67376443Y-76675227D01*
X67398387Y-76683079D01*
X67419457Y-76693044D01*
X67439448Y-76705026D01*
X67458168Y-76718910D01*
X67475438Y-76734562D01*
X67491090Y-76751832D01*
X67504974Y-76770552D01*
X67516956Y-76790543D01*
X67526921Y-76811613D01*
X67534773Y-76833557D01*
X67540437Y-76856166D01*
X67543856Y-76879221D01*
X67545000Y-76902500D01*
X67545000Y-77377500D01*
X67543856Y-77400779D01*
X67540437Y-77423834D01*
X67534773Y-77446443D01*
X67526921Y-77468387D01*
X67516956Y-77489457D01*
X67504974Y-77509448D01*
X67491090Y-77528168D01*
X67475438Y-77545438D01*
X67458168Y-77561090D01*
X67439448Y-77574974D01*
X67419457Y-77586956D01*
X67398387Y-77596921D01*
X67376443Y-77604773D01*
X67353834Y-77610437D01*
X67330779Y-77613856D01*
X67307500Y-77615000D01*
X66732500Y-77615000D01*
X66709221Y-77613856D01*
X66686166Y-77610437D01*
X66663557Y-77604773D01*
X66641613Y-77596921D01*
X66620543Y-77586956D01*
X66600552Y-77574974D01*
X66581832Y-77561090D01*
X66564562Y-77545438D01*
X66548910Y-77528168D01*
X66535026Y-77509448D01*
X66523044Y-77489457D01*
X66513079Y-77468387D01*
X66505227Y-77446443D01*
X66499563Y-77423834D01*
X66496144Y-77400779D01*
X66495000Y-77377500D01*
X66495000Y-76902500D01*
X66496144Y-76879221D01*
X66499563Y-76856166D01*
X66505227Y-76833557D01*
X66513079Y-76811613D01*
X66523044Y-76790543D01*
X66535026Y-76770552D01*
X66548910Y-76751832D01*
X66564562Y-76734562D01*
X66581832Y-76718910D01*
X66600552Y-76705026D01*
X66620543Y-76693044D01*
X66641613Y-76683079D01*
X66663557Y-76675227D01*
X66686166Y-76669563D01*
X66709221Y-76666144D01*
X66732500Y-76665000D01*
X67307500Y-76665000D01*
X67330779Y-76666144D01*
G37*
G36*
X69080779Y-76666144D02*
G01*
X69103834Y-76669563D01*
X69126443Y-76675227D01*
X69148387Y-76683079D01*
X69169457Y-76693044D01*
X69189448Y-76705026D01*
X69208168Y-76718910D01*
X69225438Y-76734562D01*
X69241090Y-76751832D01*
X69254974Y-76770552D01*
X69266956Y-76790543D01*
X69276921Y-76811613D01*
X69284773Y-76833557D01*
X69290437Y-76856166D01*
X69293856Y-76879221D01*
X69295000Y-76902500D01*
X69295000Y-77377500D01*
X69293856Y-77400779D01*
X69290437Y-77423834D01*
X69284773Y-77446443D01*
X69276921Y-77468387D01*
X69266956Y-77489457D01*
X69254974Y-77509448D01*
X69241090Y-77528168D01*
X69225438Y-77545438D01*
X69208168Y-77561090D01*
X69189448Y-77574974D01*
X69169457Y-77586956D01*
X69148387Y-77596921D01*
X69126443Y-77604773D01*
X69103834Y-77610437D01*
X69080779Y-77613856D01*
X69057500Y-77615000D01*
X68482500Y-77615000D01*
X68459221Y-77613856D01*
X68436166Y-77610437D01*
X68413557Y-77604773D01*
X68391613Y-77596921D01*
X68370543Y-77586956D01*
X68350552Y-77574974D01*
X68331832Y-77561090D01*
X68314562Y-77545438D01*
X68298910Y-77528168D01*
X68285026Y-77509448D01*
X68273044Y-77489457D01*
X68263079Y-77468387D01*
X68255227Y-77446443D01*
X68249563Y-77423834D01*
X68246144Y-77400779D01*
X68245000Y-77377500D01*
X68245000Y-76902500D01*
X68246144Y-76879221D01*
X68249563Y-76856166D01*
X68255227Y-76833557D01*
X68263079Y-76811613D01*
X68273044Y-76790543D01*
X68285026Y-76770552D01*
X68298910Y-76751832D01*
X68314562Y-76734562D01*
X68331832Y-76718910D01*
X68350552Y-76705026D01*
X68370543Y-76693044D01*
X68391613Y-76683079D01*
X68413557Y-76675227D01*
X68436166Y-76669563D01*
X68459221Y-76666144D01*
X68482500Y-76665000D01*
X69057500Y-76665000D01*
X69080779Y-76666144D01*
G37*
G36*
X67350779Y-78466144D02*
G01*
X67373834Y-78469563D01*
X67396443Y-78475227D01*
X67418387Y-78483079D01*
X67439457Y-78493044D01*
X67459448Y-78505026D01*
X67478168Y-78518910D01*
X67495438Y-78534562D01*
X67511090Y-78551832D01*
X67524974Y-78570552D01*
X67536956Y-78590543D01*
X67546921Y-78611613D01*
X67554773Y-78633557D01*
X67560437Y-78656166D01*
X67563856Y-78679221D01*
X67565000Y-78702500D01*
X67565000Y-79177500D01*
X67563856Y-79200779D01*
X67560437Y-79223834D01*
X67554773Y-79246443D01*
X67546921Y-79268387D01*
X67536956Y-79289457D01*
X67524974Y-79309448D01*
X67511090Y-79328168D01*
X67495438Y-79345438D01*
X67478168Y-79361090D01*
X67459448Y-79374974D01*
X67439457Y-79386956D01*
X67418387Y-79396921D01*
X67396443Y-79404773D01*
X67373834Y-79410437D01*
X67350779Y-79413856D01*
X67327500Y-79415000D01*
X66752500Y-79415000D01*
X66729221Y-79413856D01*
X66706166Y-79410437D01*
X66683557Y-79404773D01*
X66661613Y-79396921D01*
X66640543Y-79386956D01*
X66620552Y-79374974D01*
X66601832Y-79361090D01*
X66584562Y-79345438D01*
X66568910Y-79328168D01*
X66555026Y-79309448D01*
X66543044Y-79289457D01*
X66533079Y-79268387D01*
X66525227Y-79246443D01*
X66519563Y-79223834D01*
X66516144Y-79200779D01*
X66515000Y-79177500D01*
X66515000Y-78702500D01*
X66516144Y-78679221D01*
X66519563Y-78656166D01*
X66525227Y-78633557D01*
X66533079Y-78611613D01*
X66543044Y-78590543D01*
X66555026Y-78570552D01*
X66568910Y-78551832D01*
X66584562Y-78534562D01*
X66601832Y-78518910D01*
X66620552Y-78505026D01*
X66640543Y-78493044D01*
X66661613Y-78483079D01*
X66683557Y-78475227D01*
X66706166Y-78469563D01*
X66729221Y-78466144D01*
X66752500Y-78465000D01*
X67327500Y-78465000D01*
X67350779Y-78466144D01*
G37*
G36*
X69100779Y-78466144D02*
G01*
X69123834Y-78469563D01*
X69146443Y-78475227D01*
X69168387Y-78483079D01*
X69189457Y-78493044D01*
X69209448Y-78505026D01*
X69228168Y-78518910D01*
X69245438Y-78534562D01*
X69261090Y-78551832D01*
X69274974Y-78570552D01*
X69286956Y-78590543D01*
X69296921Y-78611613D01*
X69304773Y-78633557D01*
X69310437Y-78656166D01*
X69313856Y-78679221D01*
X69315000Y-78702500D01*
X69315000Y-79177500D01*
X69313856Y-79200779D01*
X69310437Y-79223834D01*
X69304773Y-79246443D01*
X69296921Y-79268387D01*
X69286956Y-79289457D01*
X69274974Y-79309448D01*
X69261090Y-79328168D01*
X69245438Y-79345438D01*
X69228168Y-79361090D01*
X69209448Y-79374974D01*
X69189457Y-79386956D01*
X69168387Y-79396921D01*
X69146443Y-79404773D01*
X69123834Y-79410437D01*
X69100779Y-79413856D01*
X69077500Y-79415000D01*
X68502500Y-79415000D01*
X68479221Y-79413856D01*
X68456166Y-79410437D01*
X68433557Y-79404773D01*
X68411613Y-79396921D01*
X68390543Y-79386956D01*
X68370552Y-79374974D01*
X68351832Y-79361090D01*
X68334562Y-79345438D01*
X68318910Y-79328168D01*
X68305026Y-79309448D01*
X68293044Y-79289457D01*
X68283079Y-79268387D01*
X68275227Y-79246443D01*
X68269563Y-79223834D01*
X68266144Y-79200779D01*
X68265000Y-79177500D01*
X68265000Y-78702500D01*
X68266144Y-78679221D01*
X68269563Y-78656166D01*
X68275227Y-78633557D01*
X68283079Y-78611613D01*
X68293044Y-78590543D01*
X68305026Y-78570552D01*
X68318910Y-78551832D01*
X68334562Y-78534562D01*
X68351832Y-78518910D01*
X68370552Y-78505026D01*
X68390543Y-78493044D01*
X68411613Y-78483079D01*
X68433557Y-78475227D01*
X68456166Y-78469563D01*
X68479221Y-78466144D01*
X68502500Y-78465000D01*
X69077500Y-78465000D01*
X69100779Y-78466144D01*
G37*
G36*
X73790779Y-78446144D02*
G01*
X73813834Y-78449563D01*
X73836443Y-78455227D01*
X73858387Y-78463079D01*
X73879457Y-78473044D01*
X73899448Y-78485026D01*
X73918168Y-78498910D01*
X73935438Y-78514562D01*
X73951090Y-78531832D01*
X73964974Y-78550552D01*
X73976956Y-78570543D01*
X73986921Y-78591613D01*
X73994773Y-78613557D01*
X74000437Y-78636166D01*
X74003856Y-78659221D01*
X74005000Y-78682500D01*
X74005000Y-79157500D01*
X74003856Y-79180779D01*
X74000437Y-79203834D01*
X73994773Y-79226443D01*
X73986921Y-79248387D01*
X73976956Y-79269457D01*
X73964974Y-79289448D01*
X73951090Y-79308168D01*
X73935438Y-79325438D01*
X73918168Y-79341090D01*
X73899448Y-79354974D01*
X73879457Y-79366956D01*
X73858387Y-79376921D01*
X73836443Y-79384773D01*
X73813834Y-79390437D01*
X73790779Y-79393856D01*
X73767500Y-79395000D01*
X73192500Y-79395000D01*
X73169221Y-79393856D01*
X73146166Y-79390437D01*
X73123557Y-79384773D01*
X73101613Y-79376921D01*
X73080543Y-79366956D01*
X73060552Y-79354974D01*
X73041832Y-79341090D01*
X73024562Y-79325438D01*
X73008910Y-79308168D01*
X72995026Y-79289448D01*
X72983044Y-79269457D01*
X72973079Y-79248387D01*
X72965227Y-79226443D01*
X72959563Y-79203834D01*
X72956144Y-79180779D01*
X72955000Y-79157500D01*
X72955000Y-78682500D01*
X72956144Y-78659221D01*
X72959563Y-78636166D01*
X72965227Y-78613557D01*
X72973079Y-78591613D01*
X72983044Y-78570543D01*
X72995026Y-78550552D01*
X73008910Y-78531832D01*
X73024562Y-78514562D01*
X73041832Y-78498910D01*
X73060552Y-78485026D01*
X73080543Y-78473044D01*
X73101613Y-78463079D01*
X73123557Y-78455227D01*
X73146166Y-78449563D01*
X73169221Y-78446144D01*
X73192500Y-78445000D01*
X73767500Y-78445000D01*
X73790779Y-78446144D01*
G37*
G36*
X75540779Y-78446144D02*
G01*
X75563834Y-78449563D01*
X75586443Y-78455227D01*
X75608387Y-78463079D01*
X75629457Y-78473044D01*
X75649448Y-78485026D01*
X75668168Y-78498910D01*
X75685438Y-78514562D01*
X75701090Y-78531832D01*
X75714974Y-78550552D01*
X75726956Y-78570543D01*
X75736921Y-78591613D01*
X75744773Y-78613557D01*
X75750437Y-78636166D01*
X75753856Y-78659221D01*
X75755000Y-78682500D01*
X75755000Y-79157500D01*
X75753856Y-79180779D01*
X75750437Y-79203834D01*
X75744773Y-79226443D01*
X75736921Y-79248387D01*
X75726956Y-79269457D01*
X75714974Y-79289448D01*
X75701090Y-79308168D01*
X75685438Y-79325438D01*
X75668168Y-79341090D01*
X75649448Y-79354974D01*
X75629457Y-79366956D01*
X75608387Y-79376921D01*
X75586443Y-79384773D01*
X75563834Y-79390437D01*
X75540779Y-79393856D01*
X75517500Y-79395000D01*
X74942500Y-79395000D01*
X74919221Y-79393856D01*
X74896166Y-79390437D01*
X74873557Y-79384773D01*
X74851613Y-79376921D01*
X74830543Y-79366956D01*
X74810552Y-79354974D01*
X74791832Y-79341090D01*
X74774562Y-79325438D01*
X74758910Y-79308168D01*
X74745026Y-79289448D01*
X74733044Y-79269457D01*
X74723079Y-79248387D01*
X74715227Y-79226443D01*
X74709563Y-79203834D01*
X74706144Y-79180779D01*
X74705000Y-79157500D01*
X74705000Y-78682500D01*
X74706144Y-78659221D01*
X74709563Y-78636166D01*
X74715227Y-78613557D01*
X74723079Y-78591613D01*
X74733044Y-78570543D01*
X74745026Y-78550552D01*
X74758910Y-78531832D01*
X74774562Y-78514562D01*
X74791832Y-78498910D01*
X74810552Y-78485026D01*
X74830543Y-78473044D01*
X74851613Y-78463079D01*
X74873557Y-78455227D01*
X74896166Y-78449563D01*
X74919221Y-78446144D01*
X74942500Y-78445000D01*
X75517500Y-78445000D01*
X75540779Y-78446144D01*
G37*
G36*
X73770779Y-76636144D02*
G01*
X73793834Y-76639563D01*
X73816443Y-76645227D01*
X73838387Y-76653079D01*
X73859457Y-76663044D01*
X73879448Y-76675026D01*
X73898168Y-76688910D01*
X73915438Y-76704562D01*
X73931090Y-76721832D01*
X73944974Y-76740552D01*
X73956956Y-76760543D01*
X73966921Y-76781613D01*
X73974773Y-76803557D01*
X73980437Y-76826166D01*
X73983856Y-76849221D01*
X73985000Y-76872500D01*
X73985000Y-77347500D01*
X73983856Y-77370779D01*
X73980437Y-77393834D01*
X73974773Y-77416443D01*
X73966921Y-77438387D01*
X73956956Y-77459457D01*
X73944974Y-77479448D01*
X73931090Y-77498168D01*
X73915438Y-77515438D01*
X73898168Y-77531090D01*
X73879448Y-77544974D01*
X73859457Y-77556956D01*
X73838387Y-77566921D01*
X73816443Y-77574773D01*
X73793834Y-77580437D01*
X73770779Y-77583856D01*
X73747500Y-77585000D01*
X73172500Y-77585000D01*
X73149221Y-77583856D01*
X73126166Y-77580437D01*
X73103557Y-77574773D01*
X73081613Y-77566921D01*
X73060543Y-77556956D01*
X73040552Y-77544974D01*
X73021832Y-77531090D01*
X73004562Y-77515438D01*
X72988910Y-77498168D01*
X72975026Y-77479448D01*
X72963044Y-77459457D01*
X72953079Y-77438387D01*
X72945227Y-77416443D01*
X72939563Y-77393834D01*
X72936144Y-77370779D01*
X72935000Y-77347500D01*
X72935000Y-76872500D01*
X72936144Y-76849221D01*
X72939563Y-76826166D01*
X72945227Y-76803557D01*
X72953079Y-76781613D01*
X72963044Y-76760543D01*
X72975026Y-76740552D01*
X72988910Y-76721832D01*
X73004562Y-76704562D01*
X73021832Y-76688910D01*
X73040552Y-76675026D01*
X73060543Y-76663044D01*
X73081613Y-76653079D01*
X73103557Y-76645227D01*
X73126166Y-76639563D01*
X73149221Y-76636144D01*
X73172500Y-76635000D01*
X73747500Y-76635000D01*
X73770779Y-76636144D01*
G37*
G36*
X75520779Y-76636144D02*
G01*
X75543834Y-76639563D01*
X75566443Y-76645227D01*
X75588387Y-76653079D01*
X75609457Y-76663044D01*
X75629448Y-76675026D01*
X75648168Y-76688910D01*
X75665438Y-76704562D01*
X75681090Y-76721832D01*
X75694974Y-76740552D01*
X75706956Y-76760543D01*
X75716921Y-76781613D01*
X75724773Y-76803557D01*
X75730437Y-76826166D01*
X75733856Y-76849221D01*
X75735000Y-76872500D01*
X75735000Y-77347500D01*
X75733856Y-77370779D01*
X75730437Y-77393834D01*
X75724773Y-77416443D01*
X75716921Y-77438387D01*
X75706956Y-77459457D01*
X75694974Y-77479448D01*
X75681090Y-77498168D01*
X75665438Y-77515438D01*
X75648168Y-77531090D01*
X75629448Y-77544974D01*
X75609457Y-77556956D01*
X75588387Y-77566921D01*
X75566443Y-77574773D01*
X75543834Y-77580437D01*
X75520779Y-77583856D01*
X75497500Y-77585000D01*
X74922500Y-77585000D01*
X74899221Y-77583856D01*
X74876166Y-77580437D01*
X74853557Y-77574773D01*
X74831613Y-77566921D01*
X74810543Y-77556956D01*
X74790552Y-77544974D01*
X74771832Y-77531090D01*
X74754562Y-77515438D01*
X74738910Y-77498168D01*
X74725026Y-77479448D01*
X74713044Y-77459457D01*
X74703079Y-77438387D01*
X74695227Y-77416443D01*
X74689563Y-77393834D01*
X74686144Y-77370779D01*
X74685000Y-77347500D01*
X74685000Y-76872500D01*
X74686144Y-76849221D01*
X74689563Y-76826166D01*
X74695227Y-76803557D01*
X74703079Y-76781613D01*
X74713044Y-76760543D01*
X74725026Y-76740552D01*
X74738910Y-76721832D01*
X74754562Y-76704562D01*
X74771832Y-76688910D01*
X74790552Y-76675026D01*
X74810543Y-76663044D01*
X74831613Y-76653079D01*
X74853557Y-76645227D01*
X74876166Y-76639563D01*
X74899221Y-76636144D01*
X74922500Y-76635000D01*
X75497500Y-76635000D01*
X75520779Y-76636144D01*
G37*
D13*
X57790000Y-85730000D03*
X60390000Y-84780000D03*
X60390000Y-86680000D03*
X57820000Y-81830000D03*
X60420000Y-80880000D03*
X60420000Y-82780000D03*
D12*
G36*
X72190191Y-78456053D02*
G01*
X72211426Y-78459203D01*
X72232250Y-78464419D01*
X72252462Y-78471651D01*
X72271868Y-78480830D01*
X72290281Y-78491866D01*
X72307524Y-78504654D01*
X72323430Y-78519070D01*
X72337846Y-78534976D01*
X72350634Y-78552219D01*
X72361670Y-78570632D01*
X72370849Y-78590038D01*
X72378081Y-78610250D01*
X72383297Y-78631074D01*
X72386447Y-78652309D01*
X72387500Y-78673750D01*
X72387500Y-79186250D01*
X72386447Y-79207691D01*
X72383297Y-79228926D01*
X72378081Y-79249750D01*
X72370849Y-79269962D01*
X72361670Y-79289368D01*
X72350634Y-79307781D01*
X72337846Y-79325024D01*
X72323430Y-79340930D01*
X72307524Y-79355346D01*
X72290281Y-79368134D01*
X72271868Y-79379170D01*
X72252462Y-79388349D01*
X72232250Y-79395581D01*
X72211426Y-79400797D01*
X72190191Y-79403947D01*
X72168750Y-79405000D01*
X71731250Y-79405000D01*
X71709809Y-79403947D01*
X71688574Y-79400797D01*
X71667750Y-79395581D01*
X71647538Y-79388349D01*
X71628132Y-79379170D01*
X71609719Y-79368134D01*
X71592476Y-79355346D01*
X71576570Y-79340930D01*
X71562154Y-79325024D01*
X71549366Y-79307781D01*
X71538330Y-79289368D01*
X71529151Y-79269962D01*
X71521919Y-79249750D01*
X71516703Y-79228926D01*
X71513553Y-79207691D01*
X71512500Y-79186250D01*
X71512500Y-78673750D01*
X71513553Y-78652309D01*
X71516703Y-78631074D01*
X71521919Y-78610250D01*
X71529151Y-78590038D01*
X71538330Y-78570632D01*
X71549366Y-78552219D01*
X71562154Y-78534976D01*
X71576570Y-78519070D01*
X71592476Y-78504654D01*
X71609719Y-78491866D01*
X71628132Y-78480830D01*
X71647538Y-78471651D01*
X71667750Y-78464419D01*
X71688574Y-78459203D01*
X71709809Y-78456053D01*
X71731250Y-78455000D01*
X72168750Y-78455000D01*
X72190191Y-78456053D01*
G37*
G36*
X70615191Y-78456053D02*
G01*
X70636426Y-78459203D01*
X70657250Y-78464419D01*
X70677462Y-78471651D01*
X70696868Y-78480830D01*
X70715281Y-78491866D01*
X70732524Y-78504654D01*
X70748430Y-78519070D01*
X70762846Y-78534976D01*
X70775634Y-78552219D01*
X70786670Y-78570632D01*
X70795849Y-78590038D01*
X70803081Y-78610250D01*
X70808297Y-78631074D01*
X70811447Y-78652309D01*
X70812500Y-78673750D01*
X70812500Y-79186250D01*
X70811447Y-79207691D01*
X70808297Y-79228926D01*
X70803081Y-79249750D01*
X70795849Y-79269962D01*
X70786670Y-79289368D01*
X70775634Y-79307781D01*
X70762846Y-79325024D01*
X70748430Y-79340930D01*
X70732524Y-79355346D01*
X70715281Y-79368134D01*
X70696868Y-79379170D01*
X70677462Y-79388349D01*
X70657250Y-79395581D01*
X70636426Y-79400797D01*
X70615191Y-79403947D01*
X70593750Y-79405000D01*
X70156250Y-79405000D01*
X70134809Y-79403947D01*
X70113574Y-79400797D01*
X70092750Y-79395581D01*
X70072538Y-79388349D01*
X70053132Y-79379170D01*
X70034719Y-79368134D01*
X70017476Y-79355346D01*
X70001570Y-79340930D01*
X69987154Y-79325024D01*
X69974366Y-79307781D01*
X69963330Y-79289368D01*
X69954151Y-79269962D01*
X69946919Y-79249750D01*
X69941703Y-79228926D01*
X69938553Y-79207691D01*
X69937500Y-79186250D01*
X69937500Y-78673750D01*
X69938553Y-78652309D01*
X69941703Y-78631074D01*
X69946919Y-78610250D01*
X69954151Y-78590038D01*
X69963330Y-78570632D01*
X69974366Y-78552219D01*
X69987154Y-78534976D01*
X70001570Y-78519070D01*
X70017476Y-78504654D01*
X70034719Y-78491866D01*
X70053132Y-78480830D01*
X70072538Y-78471651D01*
X70092750Y-78464419D01*
X70113574Y-78459203D01*
X70134809Y-78456053D01*
X70156250Y-78455000D01*
X70593750Y-78455000D01*
X70615191Y-78456053D01*
G37*
G36*
X72170191Y-76646053D02*
G01*
X72191426Y-76649203D01*
X72212250Y-76654419D01*
X72232462Y-76661651D01*
X72251868Y-76670830D01*
X72270281Y-76681866D01*
X72287524Y-76694654D01*
X72303430Y-76709070D01*
X72317846Y-76724976D01*
X72330634Y-76742219D01*
X72341670Y-76760632D01*
X72350849Y-76780038D01*
X72358081Y-76800250D01*
X72363297Y-76821074D01*
X72366447Y-76842309D01*
X72367500Y-76863750D01*
X72367500Y-77376250D01*
X72366447Y-77397691D01*
X72363297Y-77418926D01*
X72358081Y-77439750D01*
X72350849Y-77459962D01*
X72341670Y-77479368D01*
X72330634Y-77497781D01*
X72317846Y-77515024D01*
X72303430Y-77530930D01*
X72287524Y-77545346D01*
X72270281Y-77558134D01*
X72251868Y-77569170D01*
X72232462Y-77578349D01*
X72212250Y-77585581D01*
X72191426Y-77590797D01*
X72170191Y-77593947D01*
X72148750Y-77595000D01*
X71711250Y-77595000D01*
X71689809Y-77593947D01*
X71668574Y-77590797D01*
X71647750Y-77585581D01*
X71627538Y-77578349D01*
X71608132Y-77569170D01*
X71589719Y-77558134D01*
X71572476Y-77545346D01*
X71556570Y-77530930D01*
X71542154Y-77515024D01*
X71529366Y-77497781D01*
X71518330Y-77479368D01*
X71509151Y-77459962D01*
X71501919Y-77439750D01*
X71496703Y-77418926D01*
X71493553Y-77397691D01*
X71492500Y-77376250D01*
X71492500Y-76863750D01*
X71493553Y-76842309D01*
X71496703Y-76821074D01*
X71501919Y-76800250D01*
X71509151Y-76780038D01*
X71518330Y-76760632D01*
X71529366Y-76742219D01*
X71542154Y-76724976D01*
X71556570Y-76709070D01*
X71572476Y-76694654D01*
X71589719Y-76681866D01*
X71608132Y-76670830D01*
X71627538Y-76661651D01*
X71647750Y-76654419D01*
X71668574Y-76649203D01*
X71689809Y-76646053D01*
X71711250Y-76645000D01*
X72148750Y-76645000D01*
X72170191Y-76646053D01*
G37*
G36*
X70595191Y-76646053D02*
G01*
X70616426Y-76649203D01*
X70637250Y-76654419D01*
X70657462Y-76661651D01*
X70676868Y-76670830D01*
X70695281Y-76681866D01*
X70712524Y-76694654D01*
X70728430Y-76709070D01*
X70742846Y-76724976D01*
X70755634Y-76742219D01*
X70766670Y-76760632D01*
X70775849Y-76780038D01*
X70783081Y-76800250D01*
X70788297Y-76821074D01*
X70791447Y-76842309D01*
X70792500Y-76863750D01*
X70792500Y-77376250D01*
X70791447Y-77397691D01*
X70788297Y-77418926D01*
X70783081Y-77439750D01*
X70775849Y-77459962D01*
X70766670Y-77479368D01*
X70755634Y-77497781D01*
X70742846Y-77515024D01*
X70728430Y-77530930D01*
X70712524Y-77545346D01*
X70695281Y-77558134D01*
X70676868Y-77569170D01*
X70657462Y-77578349D01*
X70637250Y-77585581D01*
X70616426Y-77590797D01*
X70595191Y-77593947D01*
X70573750Y-77595000D01*
X70136250Y-77595000D01*
X70114809Y-77593947D01*
X70093574Y-77590797D01*
X70072750Y-77585581D01*
X70052538Y-77578349D01*
X70033132Y-77569170D01*
X70014719Y-77558134D01*
X69997476Y-77545346D01*
X69981570Y-77530930D01*
X69967154Y-77515024D01*
X69954366Y-77497781D01*
X69943330Y-77479368D01*
X69934151Y-77459962D01*
X69926919Y-77439750D01*
X69921703Y-77418926D01*
X69918553Y-77397691D01*
X69917500Y-77376250D01*
X69917500Y-76863750D01*
X69918553Y-76842309D01*
X69921703Y-76821074D01*
X69926919Y-76800250D01*
X69934151Y-76780038D01*
X69943330Y-76760632D01*
X69954366Y-76742219D01*
X69967154Y-76724976D01*
X69981570Y-76709070D01*
X69997476Y-76694654D01*
X70014719Y-76681866D01*
X70033132Y-76670830D01*
X70052538Y-76661651D01*
X70072750Y-76654419D01*
X70093574Y-76649203D01*
X70114809Y-76646053D01*
X70136250Y-76645000D01*
X70573750Y-76645000D01*
X70595191Y-76646053D01*
G37*
G36*
X84784703Y-68845722D02*
G01*
X84799264Y-68847882D01*
X84813543Y-68851459D01*
X84827403Y-68856418D01*
X84840710Y-68862712D01*
X84853336Y-68870280D01*
X84865159Y-68879048D01*
X84876066Y-68888934D01*
X84885952Y-68899841D01*
X84894720Y-68911664D01*
X84902288Y-68924290D01*
X84908582Y-68937597D01*
X84913541Y-68951457D01*
X84917118Y-68965736D01*
X84919278Y-68980297D01*
X84920000Y-68995000D01*
X84920000Y-69295000D01*
X84919278Y-69309703D01*
X84917118Y-69324264D01*
X84913541Y-69338543D01*
X84908582Y-69352403D01*
X84902288Y-69365710D01*
X84894720Y-69378336D01*
X84885952Y-69390159D01*
X84876066Y-69401066D01*
X84865159Y-69410952D01*
X84853336Y-69419720D01*
X84840710Y-69427288D01*
X84827403Y-69433582D01*
X84813543Y-69438541D01*
X84799264Y-69442118D01*
X84784703Y-69444278D01*
X84770000Y-69445000D01*
X83120000Y-69445000D01*
X83105297Y-69444278D01*
X83090736Y-69442118D01*
X83076457Y-69438541D01*
X83062597Y-69433582D01*
X83049290Y-69427288D01*
X83036664Y-69419720D01*
X83024841Y-69410952D01*
X83013934Y-69401066D01*
X83004048Y-69390159D01*
X82995280Y-69378336D01*
X82987712Y-69365710D01*
X82981418Y-69352403D01*
X82976459Y-69338543D01*
X82972882Y-69324264D01*
X82970722Y-69309703D01*
X82970000Y-69295000D01*
X82970000Y-68995000D01*
X82970722Y-68980297D01*
X82972882Y-68965736D01*
X82976459Y-68951457D01*
X82981418Y-68937597D01*
X82987712Y-68924290D01*
X82995280Y-68911664D01*
X83004048Y-68899841D01*
X83013934Y-68888934D01*
X83024841Y-68879048D01*
X83036664Y-68870280D01*
X83049290Y-68862712D01*
X83062597Y-68856418D01*
X83076457Y-68851459D01*
X83090736Y-68847882D01*
X83105297Y-68845722D01*
X83120000Y-68845000D01*
X84770000Y-68845000D01*
X84784703Y-68845722D01*
G37*
G36*
X84784703Y-70115722D02*
G01*
X84799264Y-70117882D01*
X84813543Y-70121459D01*
X84827403Y-70126418D01*
X84840710Y-70132712D01*
X84853336Y-70140280D01*
X84865159Y-70149048D01*
X84876066Y-70158934D01*
X84885952Y-70169841D01*
X84894720Y-70181664D01*
X84902288Y-70194290D01*
X84908582Y-70207597D01*
X84913541Y-70221457D01*
X84917118Y-70235736D01*
X84919278Y-70250297D01*
X84920000Y-70265000D01*
X84920000Y-70565000D01*
X84919278Y-70579703D01*
X84917118Y-70594264D01*
X84913541Y-70608543D01*
X84908582Y-70622403D01*
X84902288Y-70635710D01*
X84894720Y-70648336D01*
X84885952Y-70660159D01*
X84876066Y-70671066D01*
X84865159Y-70680952D01*
X84853336Y-70689720D01*
X84840710Y-70697288D01*
X84827403Y-70703582D01*
X84813543Y-70708541D01*
X84799264Y-70712118D01*
X84784703Y-70714278D01*
X84770000Y-70715000D01*
X83120000Y-70715000D01*
X83105297Y-70714278D01*
X83090736Y-70712118D01*
X83076457Y-70708541D01*
X83062597Y-70703582D01*
X83049290Y-70697288D01*
X83036664Y-70689720D01*
X83024841Y-70680952D01*
X83013934Y-70671066D01*
X83004048Y-70660159D01*
X82995280Y-70648336D01*
X82987712Y-70635710D01*
X82981418Y-70622403D01*
X82976459Y-70608543D01*
X82972882Y-70594264D01*
X82970722Y-70579703D01*
X82970000Y-70565000D01*
X82970000Y-70265000D01*
X82970722Y-70250297D01*
X82972882Y-70235736D01*
X82976459Y-70221457D01*
X82981418Y-70207597D01*
X82987712Y-70194290D01*
X82995280Y-70181664D01*
X83004048Y-70169841D01*
X83013934Y-70158934D01*
X83024841Y-70149048D01*
X83036664Y-70140280D01*
X83049290Y-70132712D01*
X83062597Y-70126418D01*
X83076457Y-70121459D01*
X83090736Y-70117882D01*
X83105297Y-70115722D01*
X83120000Y-70115000D01*
X84770000Y-70115000D01*
X84784703Y-70115722D01*
G37*
G36*
X84784703Y-71385722D02*
G01*
X84799264Y-71387882D01*
X84813543Y-71391459D01*
X84827403Y-71396418D01*
X84840710Y-71402712D01*
X84853336Y-71410280D01*
X84865159Y-71419048D01*
X84876066Y-71428934D01*
X84885952Y-71439841D01*
X84894720Y-71451664D01*
X84902288Y-71464290D01*
X84908582Y-71477597D01*
X84913541Y-71491457D01*
X84917118Y-71505736D01*
X84919278Y-71520297D01*
X84920000Y-71535000D01*
X84920000Y-71835000D01*
X84919278Y-71849703D01*
X84917118Y-71864264D01*
X84913541Y-71878543D01*
X84908582Y-71892403D01*
X84902288Y-71905710D01*
X84894720Y-71918336D01*
X84885952Y-71930159D01*
X84876066Y-71941066D01*
X84865159Y-71950952D01*
X84853336Y-71959720D01*
X84840710Y-71967288D01*
X84827403Y-71973582D01*
X84813543Y-71978541D01*
X84799264Y-71982118D01*
X84784703Y-71984278D01*
X84770000Y-71985000D01*
X83120000Y-71985000D01*
X83105297Y-71984278D01*
X83090736Y-71982118D01*
X83076457Y-71978541D01*
X83062597Y-71973582D01*
X83049290Y-71967288D01*
X83036664Y-71959720D01*
X83024841Y-71950952D01*
X83013934Y-71941066D01*
X83004048Y-71930159D01*
X82995280Y-71918336D01*
X82987712Y-71905710D01*
X82981418Y-71892403D01*
X82976459Y-71878543D01*
X82972882Y-71864264D01*
X82970722Y-71849703D01*
X82970000Y-71835000D01*
X82970000Y-71535000D01*
X82970722Y-71520297D01*
X82972882Y-71505736D01*
X82976459Y-71491457D01*
X82981418Y-71477597D01*
X82987712Y-71464290D01*
X82995280Y-71451664D01*
X83004048Y-71439841D01*
X83013934Y-71428934D01*
X83024841Y-71419048D01*
X83036664Y-71410280D01*
X83049290Y-71402712D01*
X83062597Y-71396418D01*
X83076457Y-71391459D01*
X83090736Y-71387882D01*
X83105297Y-71385722D01*
X83120000Y-71385000D01*
X84770000Y-71385000D01*
X84784703Y-71385722D01*
G37*
G36*
X84784703Y-72655722D02*
G01*
X84799264Y-72657882D01*
X84813543Y-72661459D01*
X84827403Y-72666418D01*
X84840710Y-72672712D01*
X84853336Y-72680280D01*
X84865159Y-72689048D01*
X84876066Y-72698934D01*
X84885952Y-72709841D01*
X84894720Y-72721664D01*
X84902288Y-72734290D01*
X84908582Y-72747597D01*
X84913541Y-72761457D01*
X84917118Y-72775736D01*
X84919278Y-72790297D01*
X84920000Y-72805000D01*
X84920000Y-73105000D01*
X84919278Y-73119703D01*
X84917118Y-73134264D01*
X84913541Y-73148543D01*
X84908582Y-73162403D01*
X84902288Y-73175710D01*
X84894720Y-73188336D01*
X84885952Y-73200159D01*
X84876066Y-73211066D01*
X84865159Y-73220952D01*
X84853336Y-73229720D01*
X84840710Y-73237288D01*
X84827403Y-73243582D01*
X84813543Y-73248541D01*
X84799264Y-73252118D01*
X84784703Y-73254278D01*
X84770000Y-73255000D01*
X83120000Y-73255000D01*
X83105297Y-73254278D01*
X83090736Y-73252118D01*
X83076457Y-73248541D01*
X83062597Y-73243582D01*
X83049290Y-73237288D01*
X83036664Y-73229720D01*
X83024841Y-73220952D01*
X83013934Y-73211066D01*
X83004048Y-73200159D01*
X82995280Y-73188336D01*
X82987712Y-73175710D01*
X82981418Y-73162403D01*
X82976459Y-73148543D01*
X82972882Y-73134264D01*
X82970722Y-73119703D01*
X82970000Y-73105000D01*
X82970000Y-72805000D01*
X82970722Y-72790297D01*
X82972882Y-72775736D01*
X82976459Y-72761457D01*
X82981418Y-72747597D01*
X82987712Y-72734290D01*
X82995280Y-72721664D01*
X83004048Y-72709841D01*
X83013934Y-72698934D01*
X83024841Y-72689048D01*
X83036664Y-72680280D01*
X83049290Y-72672712D01*
X83062597Y-72666418D01*
X83076457Y-72661459D01*
X83090736Y-72657882D01*
X83105297Y-72655722D01*
X83120000Y-72655000D01*
X84770000Y-72655000D01*
X84784703Y-72655722D01*
G37*
G36*
X79834703Y-72655722D02*
G01*
X79849264Y-72657882D01*
X79863543Y-72661459D01*
X79877403Y-72666418D01*
X79890710Y-72672712D01*
X79903336Y-72680280D01*
X79915159Y-72689048D01*
X79926066Y-72698934D01*
X79935952Y-72709841D01*
X79944720Y-72721664D01*
X79952288Y-72734290D01*
X79958582Y-72747597D01*
X79963541Y-72761457D01*
X79967118Y-72775736D01*
X79969278Y-72790297D01*
X79970000Y-72805000D01*
X79970000Y-73105000D01*
X79969278Y-73119703D01*
X79967118Y-73134264D01*
X79963541Y-73148543D01*
X79958582Y-73162403D01*
X79952288Y-73175710D01*
X79944720Y-73188336D01*
X79935952Y-73200159D01*
X79926066Y-73211066D01*
X79915159Y-73220952D01*
X79903336Y-73229720D01*
X79890710Y-73237288D01*
X79877403Y-73243582D01*
X79863543Y-73248541D01*
X79849264Y-73252118D01*
X79834703Y-73254278D01*
X79820000Y-73255000D01*
X78170000Y-73255000D01*
X78155297Y-73254278D01*
X78140736Y-73252118D01*
X78126457Y-73248541D01*
X78112597Y-73243582D01*
X78099290Y-73237288D01*
X78086664Y-73229720D01*
X78074841Y-73220952D01*
X78063934Y-73211066D01*
X78054048Y-73200159D01*
X78045280Y-73188336D01*
X78037712Y-73175710D01*
X78031418Y-73162403D01*
X78026459Y-73148543D01*
X78022882Y-73134264D01*
X78020722Y-73119703D01*
X78020000Y-73105000D01*
X78020000Y-72805000D01*
X78020722Y-72790297D01*
X78022882Y-72775736D01*
X78026459Y-72761457D01*
X78031418Y-72747597D01*
X78037712Y-72734290D01*
X78045280Y-72721664D01*
X78054048Y-72709841D01*
X78063934Y-72698934D01*
X78074841Y-72689048D01*
X78086664Y-72680280D01*
X78099290Y-72672712D01*
X78112597Y-72666418D01*
X78126457Y-72661459D01*
X78140736Y-72657882D01*
X78155297Y-72655722D01*
X78170000Y-72655000D01*
X79820000Y-72655000D01*
X79834703Y-72655722D01*
G37*
G36*
X79834703Y-71385722D02*
G01*
X79849264Y-71387882D01*
X79863543Y-71391459D01*
X79877403Y-71396418D01*
X79890710Y-71402712D01*
X79903336Y-71410280D01*
X79915159Y-71419048D01*
X79926066Y-71428934D01*
X79935952Y-71439841D01*
X79944720Y-71451664D01*
X79952288Y-71464290D01*
X79958582Y-71477597D01*
X79963541Y-71491457D01*
X79967118Y-71505736D01*
X79969278Y-71520297D01*
X79970000Y-71535000D01*
X79970000Y-71835000D01*
X79969278Y-71849703D01*
X79967118Y-71864264D01*
X79963541Y-71878543D01*
X79958582Y-71892403D01*
X79952288Y-71905710D01*
X79944720Y-71918336D01*
X79935952Y-71930159D01*
X79926066Y-71941066D01*
X79915159Y-71950952D01*
X79903336Y-71959720D01*
X79890710Y-71967288D01*
X79877403Y-71973582D01*
X79863543Y-71978541D01*
X79849264Y-71982118D01*
X79834703Y-71984278D01*
X79820000Y-71985000D01*
X78170000Y-71985000D01*
X78155297Y-71984278D01*
X78140736Y-71982118D01*
X78126457Y-71978541D01*
X78112597Y-71973582D01*
X78099290Y-71967288D01*
X78086664Y-71959720D01*
X78074841Y-71950952D01*
X78063934Y-71941066D01*
X78054048Y-71930159D01*
X78045280Y-71918336D01*
X78037712Y-71905710D01*
X78031418Y-71892403D01*
X78026459Y-71878543D01*
X78022882Y-71864264D01*
X78020722Y-71849703D01*
X78020000Y-71835000D01*
X78020000Y-71535000D01*
X78020722Y-71520297D01*
X78022882Y-71505736D01*
X78026459Y-71491457D01*
X78031418Y-71477597D01*
X78037712Y-71464290D01*
X78045280Y-71451664D01*
X78054048Y-71439841D01*
X78063934Y-71428934D01*
X78074841Y-71419048D01*
X78086664Y-71410280D01*
X78099290Y-71402712D01*
X78112597Y-71396418D01*
X78126457Y-71391459D01*
X78140736Y-71387882D01*
X78155297Y-71385722D01*
X78170000Y-71385000D01*
X79820000Y-71385000D01*
X79834703Y-71385722D01*
G37*
G36*
X79834703Y-70115722D02*
G01*
X79849264Y-70117882D01*
X79863543Y-70121459D01*
X79877403Y-70126418D01*
X79890710Y-70132712D01*
X79903336Y-70140280D01*
X79915159Y-70149048D01*
X79926066Y-70158934D01*
X79935952Y-70169841D01*
X79944720Y-70181664D01*
X79952288Y-70194290D01*
X79958582Y-70207597D01*
X79963541Y-70221457D01*
X79967118Y-70235736D01*
X79969278Y-70250297D01*
X79970000Y-70265000D01*
X79970000Y-70565000D01*
X79969278Y-70579703D01*
X79967118Y-70594264D01*
X79963541Y-70608543D01*
X79958582Y-70622403D01*
X79952288Y-70635710D01*
X79944720Y-70648336D01*
X79935952Y-70660159D01*
X79926066Y-70671066D01*
X79915159Y-70680952D01*
X79903336Y-70689720D01*
X79890710Y-70697288D01*
X79877403Y-70703582D01*
X79863543Y-70708541D01*
X79849264Y-70712118D01*
X79834703Y-70714278D01*
X79820000Y-70715000D01*
X78170000Y-70715000D01*
X78155297Y-70714278D01*
X78140736Y-70712118D01*
X78126457Y-70708541D01*
X78112597Y-70703582D01*
X78099290Y-70697288D01*
X78086664Y-70689720D01*
X78074841Y-70680952D01*
X78063934Y-70671066D01*
X78054048Y-70660159D01*
X78045280Y-70648336D01*
X78037712Y-70635710D01*
X78031418Y-70622403D01*
X78026459Y-70608543D01*
X78022882Y-70594264D01*
X78020722Y-70579703D01*
X78020000Y-70565000D01*
X78020000Y-70265000D01*
X78020722Y-70250297D01*
X78022882Y-70235736D01*
X78026459Y-70221457D01*
X78031418Y-70207597D01*
X78037712Y-70194290D01*
X78045280Y-70181664D01*
X78054048Y-70169841D01*
X78063934Y-70158934D01*
X78074841Y-70149048D01*
X78086664Y-70140280D01*
X78099290Y-70132712D01*
X78112597Y-70126418D01*
X78126457Y-70121459D01*
X78140736Y-70117882D01*
X78155297Y-70115722D01*
X78170000Y-70115000D01*
X79820000Y-70115000D01*
X79834703Y-70115722D01*
G37*
G36*
X79834703Y-68845722D02*
G01*
X79849264Y-68847882D01*
X79863543Y-68851459D01*
X79877403Y-68856418D01*
X79890710Y-68862712D01*
X79903336Y-68870280D01*
X79915159Y-68879048D01*
X79926066Y-68888934D01*
X79935952Y-68899841D01*
X79944720Y-68911664D01*
X79952288Y-68924290D01*
X79958582Y-68937597D01*
X79963541Y-68951457D01*
X79967118Y-68965736D01*
X79969278Y-68980297D01*
X79970000Y-68995000D01*
X79970000Y-69295000D01*
X79969278Y-69309703D01*
X79967118Y-69324264D01*
X79963541Y-69338543D01*
X79958582Y-69352403D01*
X79952288Y-69365710D01*
X79944720Y-69378336D01*
X79935952Y-69390159D01*
X79926066Y-69401066D01*
X79915159Y-69410952D01*
X79903336Y-69419720D01*
X79890710Y-69427288D01*
X79877403Y-69433582D01*
X79863543Y-69438541D01*
X79849264Y-69442118D01*
X79834703Y-69444278D01*
X79820000Y-69445000D01*
X78170000Y-69445000D01*
X78155297Y-69444278D01*
X78140736Y-69442118D01*
X78126457Y-69438541D01*
X78112597Y-69433582D01*
X78099290Y-69427288D01*
X78086664Y-69419720D01*
X78074841Y-69410952D01*
X78063934Y-69401066D01*
X78054048Y-69390159D01*
X78045280Y-69378336D01*
X78037712Y-69365710D01*
X78031418Y-69352403D01*
X78026459Y-69338543D01*
X78022882Y-69324264D01*
X78020722Y-69309703D01*
X78020000Y-69295000D01*
X78020000Y-68995000D01*
X78020722Y-68980297D01*
X78022882Y-68965736D01*
X78026459Y-68951457D01*
X78031418Y-68937597D01*
X78037712Y-68924290D01*
X78045280Y-68911664D01*
X78054048Y-68899841D01*
X78063934Y-68888934D01*
X78074841Y-68879048D01*
X78086664Y-68870280D01*
X78099290Y-68862712D01*
X78112597Y-68856418D01*
X78126457Y-68851459D01*
X78140736Y-68847882D01*
X78155297Y-68845722D01*
X78170000Y-68845000D01*
X79820000Y-68845000D01*
X79834703Y-68845722D01*
G37*
D14*
X56970000Y-77760000D03*
X56970000Y-73160000D03*
X56970000Y-75460000D03*
D15*
X50670000Y-75460000D03*
D12*
G36*
X67373626Y-84905301D02*
G01*
X67379693Y-84906201D01*
X67385643Y-84907691D01*
X67391418Y-84909758D01*
X67396962Y-84912380D01*
X67402223Y-84915533D01*
X67407150Y-84919187D01*
X67411694Y-84923306D01*
X67415813Y-84927850D01*
X67419467Y-84932777D01*
X67422620Y-84938038D01*
X67425242Y-84943582D01*
X67427309Y-84949357D01*
X67428799Y-84955307D01*
X67429699Y-84961374D01*
X67430000Y-84967500D01*
X67430000Y-85092500D01*
X67429699Y-85098626D01*
X67428799Y-85104693D01*
X67427309Y-85110643D01*
X67425242Y-85116418D01*
X67422620Y-85121962D01*
X67419467Y-85127223D01*
X67415813Y-85132150D01*
X67411694Y-85136694D01*
X67407150Y-85140813D01*
X67402223Y-85144467D01*
X67396962Y-85147620D01*
X67391418Y-85150242D01*
X67385643Y-85152309D01*
X67379693Y-85153799D01*
X67373626Y-85154699D01*
X67367500Y-85155000D01*
X66692500Y-85155000D01*
X66686374Y-85154699D01*
X66680307Y-85153799D01*
X66674357Y-85152309D01*
X66668582Y-85150242D01*
X66663038Y-85147620D01*
X66657777Y-85144467D01*
X66652850Y-85140813D01*
X66648306Y-85136694D01*
X66644187Y-85132150D01*
X66640533Y-85127223D01*
X66637380Y-85121962D01*
X66634758Y-85116418D01*
X66632691Y-85110643D01*
X66631201Y-85104693D01*
X66630301Y-85098626D01*
X66630000Y-85092500D01*
X66630000Y-84967500D01*
X66630301Y-84961374D01*
X66631201Y-84955307D01*
X66632691Y-84949357D01*
X66634758Y-84943582D01*
X66637380Y-84938038D01*
X66640533Y-84932777D01*
X66644187Y-84927850D01*
X66648306Y-84923306D01*
X66652850Y-84919187D01*
X66657777Y-84915533D01*
X66663038Y-84912380D01*
X66668582Y-84909758D01*
X66674357Y-84907691D01*
X66680307Y-84906201D01*
X66686374Y-84905301D01*
X66692500Y-84905000D01*
X67367500Y-84905000D01*
X67373626Y-84905301D01*
G37*
G36*
X67373626Y-84405301D02*
G01*
X67379693Y-84406201D01*
X67385643Y-84407691D01*
X67391418Y-84409758D01*
X67396962Y-84412380D01*
X67402223Y-84415533D01*
X67407150Y-84419187D01*
X67411694Y-84423306D01*
X67415813Y-84427850D01*
X67419467Y-84432777D01*
X67422620Y-84438038D01*
X67425242Y-84443582D01*
X67427309Y-84449357D01*
X67428799Y-84455307D01*
X67429699Y-84461374D01*
X67430000Y-84467500D01*
X67430000Y-84592500D01*
X67429699Y-84598626D01*
X67428799Y-84604693D01*
X67427309Y-84610643D01*
X67425242Y-84616418D01*
X67422620Y-84621962D01*
X67419467Y-84627223D01*
X67415813Y-84632150D01*
X67411694Y-84636694D01*
X67407150Y-84640813D01*
X67402223Y-84644467D01*
X67396962Y-84647620D01*
X67391418Y-84650242D01*
X67385643Y-84652309D01*
X67379693Y-84653799D01*
X67373626Y-84654699D01*
X67367500Y-84655000D01*
X66692500Y-84655000D01*
X66686374Y-84654699D01*
X66680307Y-84653799D01*
X66674357Y-84652309D01*
X66668582Y-84650242D01*
X66663038Y-84647620D01*
X66657777Y-84644467D01*
X66652850Y-84640813D01*
X66648306Y-84636694D01*
X66644187Y-84632150D01*
X66640533Y-84627223D01*
X66637380Y-84621962D01*
X66634758Y-84616418D01*
X66632691Y-84610643D01*
X66631201Y-84604693D01*
X66630301Y-84598626D01*
X66630000Y-84592500D01*
X66630000Y-84467500D01*
X66630301Y-84461374D01*
X66631201Y-84455307D01*
X66632691Y-84449357D01*
X66634758Y-84443582D01*
X66637380Y-84438038D01*
X66640533Y-84432777D01*
X66644187Y-84427850D01*
X66648306Y-84423306D01*
X66652850Y-84419187D01*
X66657777Y-84415533D01*
X66663038Y-84412380D01*
X66668582Y-84409758D01*
X66674357Y-84407691D01*
X66680307Y-84406201D01*
X66686374Y-84405301D01*
X66692500Y-84405000D01*
X67367500Y-84405000D01*
X67373626Y-84405301D01*
G37*
G36*
X67373626Y-83905301D02*
G01*
X67379693Y-83906201D01*
X67385643Y-83907691D01*
X67391418Y-83909758D01*
X67396962Y-83912380D01*
X67402223Y-83915533D01*
X67407150Y-83919187D01*
X67411694Y-83923306D01*
X67415813Y-83927850D01*
X67419467Y-83932777D01*
X67422620Y-83938038D01*
X67425242Y-83943582D01*
X67427309Y-83949357D01*
X67428799Y-83955307D01*
X67429699Y-83961374D01*
X67430000Y-83967500D01*
X67430000Y-84092500D01*
X67429699Y-84098626D01*
X67428799Y-84104693D01*
X67427309Y-84110643D01*
X67425242Y-84116418D01*
X67422620Y-84121962D01*
X67419467Y-84127223D01*
X67415813Y-84132150D01*
X67411694Y-84136694D01*
X67407150Y-84140813D01*
X67402223Y-84144467D01*
X67396962Y-84147620D01*
X67391418Y-84150242D01*
X67385643Y-84152309D01*
X67379693Y-84153799D01*
X67373626Y-84154699D01*
X67367500Y-84155000D01*
X66692500Y-84155000D01*
X66686374Y-84154699D01*
X66680307Y-84153799D01*
X66674357Y-84152309D01*
X66668582Y-84150242D01*
X66663038Y-84147620D01*
X66657777Y-84144467D01*
X66652850Y-84140813D01*
X66648306Y-84136694D01*
X66644187Y-84132150D01*
X66640533Y-84127223D01*
X66637380Y-84121962D01*
X66634758Y-84116418D01*
X66632691Y-84110643D01*
X66631201Y-84104693D01*
X66630301Y-84098626D01*
X66630000Y-84092500D01*
X66630000Y-83967500D01*
X66630301Y-83961374D01*
X66631201Y-83955307D01*
X66632691Y-83949357D01*
X66634758Y-83943582D01*
X66637380Y-83938038D01*
X66640533Y-83932777D01*
X66644187Y-83927850D01*
X66648306Y-83923306D01*
X66652850Y-83919187D01*
X66657777Y-83915533D01*
X66663038Y-83912380D01*
X66668582Y-83909758D01*
X66674357Y-83907691D01*
X66680307Y-83906201D01*
X66686374Y-83905301D01*
X66692500Y-83905000D01*
X67367500Y-83905000D01*
X67373626Y-83905301D01*
G37*
G36*
X67373626Y-83405301D02*
G01*
X67379693Y-83406201D01*
X67385643Y-83407691D01*
X67391418Y-83409758D01*
X67396962Y-83412380D01*
X67402223Y-83415533D01*
X67407150Y-83419187D01*
X67411694Y-83423306D01*
X67415813Y-83427850D01*
X67419467Y-83432777D01*
X67422620Y-83438038D01*
X67425242Y-83443582D01*
X67427309Y-83449357D01*
X67428799Y-83455307D01*
X67429699Y-83461374D01*
X67430000Y-83467500D01*
X67430000Y-83592500D01*
X67429699Y-83598626D01*
X67428799Y-83604693D01*
X67427309Y-83610643D01*
X67425242Y-83616418D01*
X67422620Y-83621962D01*
X67419467Y-83627223D01*
X67415813Y-83632150D01*
X67411694Y-83636694D01*
X67407150Y-83640813D01*
X67402223Y-83644467D01*
X67396962Y-83647620D01*
X67391418Y-83650242D01*
X67385643Y-83652309D01*
X67379693Y-83653799D01*
X67373626Y-83654699D01*
X67367500Y-83655000D01*
X66692500Y-83655000D01*
X66686374Y-83654699D01*
X66680307Y-83653799D01*
X66674357Y-83652309D01*
X66668582Y-83650242D01*
X66663038Y-83647620D01*
X66657777Y-83644467D01*
X66652850Y-83640813D01*
X66648306Y-83636694D01*
X66644187Y-83632150D01*
X66640533Y-83627223D01*
X66637380Y-83621962D01*
X66634758Y-83616418D01*
X66632691Y-83610643D01*
X66631201Y-83604693D01*
X66630301Y-83598626D01*
X66630000Y-83592500D01*
X66630000Y-83467500D01*
X66630301Y-83461374D01*
X66631201Y-83455307D01*
X66632691Y-83449357D01*
X66634758Y-83443582D01*
X66637380Y-83438038D01*
X66640533Y-83432777D01*
X66644187Y-83427850D01*
X66648306Y-83423306D01*
X66652850Y-83419187D01*
X66657777Y-83415533D01*
X66663038Y-83412380D01*
X66668582Y-83409758D01*
X66674357Y-83407691D01*
X66680307Y-83406201D01*
X66686374Y-83405301D01*
X66692500Y-83405000D01*
X67367500Y-83405000D01*
X67373626Y-83405301D01*
G37*
G36*
X67373626Y-82905301D02*
G01*
X67379693Y-82906201D01*
X67385643Y-82907691D01*
X67391418Y-82909758D01*
X67396962Y-82912380D01*
X67402223Y-82915533D01*
X67407150Y-82919187D01*
X67411694Y-82923306D01*
X67415813Y-82927850D01*
X67419467Y-82932777D01*
X67422620Y-82938038D01*
X67425242Y-82943582D01*
X67427309Y-82949357D01*
X67428799Y-82955307D01*
X67429699Y-82961374D01*
X67430000Y-82967500D01*
X67430000Y-83092500D01*
X67429699Y-83098626D01*
X67428799Y-83104693D01*
X67427309Y-83110643D01*
X67425242Y-83116418D01*
X67422620Y-83121962D01*
X67419467Y-83127223D01*
X67415813Y-83132150D01*
X67411694Y-83136694D01*
X67407150Y-83140813D01*
X67402223Y-83144467D01*
X67396962Y-83147620D01*
X67391418Y-83150242D01*
X67385643Y-83152309D01*
X67379693Y-83153799D01*
X67373626Y-83154699D01*
X67367500Y-83155000D01*
X66692500Y-83155000D01*
X66686374Y-83154699D01*
X66680307Y-83153799D01*
X66674357Y-83152309D01*
X66668582Y-83150242D01*
X66663038Y-83147620D01*
X66657777Y-83144467D01*
X66652850Y-83140813D01*
X66648306Y-83136694D01*
X66644187Y-83132150D01*
X66640533Y-83127223D01*
X66637380Y-83121962D01*
X66634758Y-83116418D01*
X66632691Y-83110643D01*
X66631201Y-83104693D01*
X66630301Y-83098626D01*
X66630000Y-83092500D01*
X66630000Y-82967500D01*
X66630301Y-82961374D01*
X66631201Y-82955307D01*
X66632691Y-82949357D01*
X66634758Y-82943582D01*
X66637380Y-82938038D01*
X66640533Y-82932777D01*
X66644187Y-82927850D01*
X66648306Y-82923306D01*
X66652850Y-82919187D01*
X66657777Y-82915533D01*
X66663038Y-82912380D01*
X66668582Y-82909758D01*
X66674357Y-82907691D01*
X66680307Y-82906201D01*
X66686374Y-82905301D01*
X66692500Y-82905000D01*
X67367500Y-82905000D01*
X67373626Y-82905301D01*
G37*
G36*
X67373626Y-82405301D02*
G01*
X67379693Y-82406201D01*
X67385643Y-82407691D01*
X67391418Y-82409758D01*
X67396962Y-82412380D01*
X67402223Y-82415533D01*
X67407150Y-82419187D01*
X67411694Y-82423306D01*
X67415813Y-82427850D01*
X67419467Y-82432777D01*
X67422620Y-82438038D01*
X67425242Y-82443582D01*
X67427309Y-82449357D01*
X67428799Y-82455307D01*
X67429699Y-82461374D01*
X67430000Y-82467500D01*
X67430000Y-82592500D01*
X67429699Y-82598626D01*
X67428799Y-82604693D01*
X67427309Y-82610643D01*
X67425242Y-82616418D01*
X67422620Y-82621962D01*
X67419467Y-82627223D01*
X67415813Y-82632150D01*
X67411694Y-82636694D01*
X67407150Y-82640813D01*
X67402223Y-82644467D01*
X67396962Y-82647620D01*
X67391418Y-82650242D01*
X67385643Y-82652309D01*
X67379693Y-82653799D01*
X67373626Y-82654699D01*
X67367500Y-82655000D01*
X66692500Y-82655000D01*
X66686374Y-82654699D01*
X66680307Y-82653799D01*
X66674357Y-82652309D01*
X66668582Y-82650242D01*
X66663038Y-82647620D01*
X66657777Y-82644467D01*
X66652850Y-82640813D01*
X66648306Y-82636694D01*
X66644187Y-82632150D01*
X66640533Y-82627223D01*
X66637380Y-82621962D01*
X66634758Y-82616418D01*
X66632691Y-82610643D01*
X66631201Y-82604693D01*
X66630301Y-82598626D01*
X66630000Y-82592500D01*
X66630000Y-82467500D01*
X66630301Y-82461374D01*
X66631201Y-82455307D01*
X66632691Y-82449357D01*
X66634758Y-82443582D01*
X66637380Y-82438038D01*
X66640533Y-82432777D01*
X66644187Y-82427850D01*
X66648306Y-82423306D01*
X66652850Y-82419187D01*
X66657777Y-82415533D01*
X66663038Y-82412380D01*
X66668582Y-82409758D01*
X66674357Y-82407691D01*
X66680307Y-82406201D01*
X66686374Y-82405301D01*
X66692500Y-82405000D01*
X67367500Y-82405000D01*
X67373626Y-82405301D01*
G37*
G36*
X67373626Y-81905301D02*
G01*
X67379693Y-81906201D01*
X67385643Y-81907691D01*
X67391418Y-81909758D01*
X67396962Y-81912380D01*
X67402223Y-81915533D01*
X67407150Y-81919187D01*
X67411694Y-81923306D01*
X67415813Y-81927850D01*
X67419467Y-81932777D01*
X67422620Y-81938038D01*
X67425242Y-81943582D01*
X67427309Y-81949357D01*
X67428799Y-81955307D01*
X67429699Y-81961374D01*
X67430000Y-81967500D01*
X67430000Y-82092500D01*
X67429699Y-82098626D01*
X67428799Y-82104693D01*
X67427309Y-82110643D01*
X67425242Y-82116418D01*
X67422620Y-82121962D01*
X67419467Y-82127223D01*
X67415813Y-82132150D01*
X67411694Y-82136694D01*
X67407150Y-82140813D01*
X67402223Y-82144467D01*
X67396962Y-82147620D01*
X67391418Y-82150242D01*
X67385643Y-82152309D01*
X67379693Y-82153799D01*
X67373626Y-82154699D01*
X67367500Y-82155000D01*
X66692500Y-82155000D01*
X66686374Y-82154699D01*
X66680307Y-82153799D01*
X66674357Y-82152309D01*
X66668582Y-82150242D01*
X66663038Y-82147620D01*
X66657777Y-82144467D01*
X66652850Y-82140813D01*
X66648306Y-82136694D01*
X66644187Y-82132150D01*
X66640533Y-82127223D01*
X66637380Y-82121962D01*
X66634758Y-82116418D01*
X66632691Y-82110643D01*
X66631201Y-82104693D01*
X66630301Y-82098626D01*
X66630000Y-82092500D01*
X66630000Y-81967500D01*
X66630301Y-81961374D01*
X66631201Y-81955307D01*
X66632691Y-81949357D01*
X66634758Y-81943582D01*
X66637380Y-81938038D01*
X66640533Y-81932777D01*
X66644187Y-81927850D01*
X66648306Y-81923306D01*
X66652850Y-81919187D01*
X66657777Y-81915533D01*
X66663038Y-81912380D01*
X66668582Y-81909758D01*
X66674357Y-81907691D01*
X66680307Y-81906201D01*
X66686374Y-81905301D01*
X66692500Y-81905000D01*
X67367500Y-81905000D01*
X67373626Y-81905301D01*
G37*
G36*
X68048626Y-80680301D02*
G01*
X68054693Y-80681201D01*
X68060643Y-80682691D01*
X68066418Y-80684758D01*
X68071962Y-80687380D01*
X68077223Y-80690533D01*
X68082150Y-80694187D01*
X68086694Y-80698306D01*
X68090813Y-80702850D01*
X68094467Y-80707777D01*
X68097620Y-80713038D01*
X68100242Y-80718582D01*
X68102309Y-80724357D01*
X68103799Y-80730307D01*
X68104699Y-80736374D01*
X68105000Y-80742500D01*
X68105000Y-81417500D01*
X68104699Y-81423626D01*
X68103799Y-81429693D01*
X68102309Y-81435643D01*
X68100242Y-81441418D01*
X68097620Y-81446962D01*
X68094467Y-81452223D01*
X68090813Y-81457150D01*
X68086694Y-81461694D01*
X68082150Y-81465813D01*
X68077223Y-81469467D01*
X68071962Y-81472620D01*
X68066418Y-81475242D01*
X68060643Y-81477309D01*
X68054693Y-81478799D01*
X68048626Y-81479699D01*
X68042500Y-81480000D01*
X67917500Y-81480000D01*
X67911374Y-81479699D01*
X67905307Y-81478799D01*
X67899357Y-81477309D01*
X67893582Y-81475242D01*
X67888038Y-81472620D01*
X67882777Y-81469467D01*
X67877850Y-81465813D01*
X67873306Y-81461694D01*
X67869187Y-81457150D01*
X67865533Y-81452223D01*
X67862380Y-81446962D01*
X67859758Y-81441418D01*
X67857691Y-81435643D01*
X67856201Y-81429693D01*
X67855301Y-81423626D01*
X67855000Y-81417500D01*
X67855000Y-80742500D01*
X67855301Y-80736374D01*
X67856201Y-80730307D01*
X67857691Y-80724357D01*
X67859758Y-80718582D01*
X67862380Y-80713038D01*
X67865533Y-80707777D01*
X67869187Y-80702850D01*
X67873306Y-80698306D01*
X67877850Y-80694187D01*
X67882777Y-80690533D01*
X67888038Y-80687380D01*
X67893582Y-80684758D01*
X67899357Y-80682691D01*
X67905307Y-80681201D01*
X67911374Y-80680301D01*
X67917500Y-80680000D01*
X68042500Y-80680000D01*
X68048626Y-80680301D01*
G37*
G36*
X68548626Y-80680301D02*
G01*
X68554693Y-80681201D01*
X68560643Y-80682691D01*
X68566418Y-80684758D01*
X68571962Y-80687380D01*
X68577223Y-80690533D01*
X68582150Y-80694187D01*
X68586694Y-80698306D01*
X68590813Y-80702850D01*
X68594467Y-80707777D01*
X68597620Y-80713038D01*
X68600242Y-80718582D01*
X68602309Y-80724357D01*
X68603799Y-80730307D01*
X68604699Y-80736374D01*
X68605000Y-80742500D01*
X68605000Y-81417500D01*
X68604699Y-81423626D01*
X68603799Y-81429693D01*
X68602309Y-81435643D01*
X68600242Y-81441418D01*
X68597620Y-81446962D01*
X68594467Y-81452223D01*
X68590813Y-81457150D01*
X68586694Y-81461694D01*
X68582150Y-81465813D01*
X68577223Y-81469467D01*
X68571962Y-81472620D01*
X68566418Y-81475242D01*
X68560643Y-81477309D01*
X68554693Y-81478799D01*
X68548626Y-81479699D01*
X68542500Y-81480000D01*
X68417500Y-81480000D01*
X68411374Y-81479699D01*
X68405307Y-81478799D01*
X68399357Y-81477309D01*
X68393582Y-81475242D01*
X68388038Y-81472620D01*
X68382777Y-81469467D01*
X68377850Y-81465813D01*
X68373306Y-81461694D01*
X68369187Y-81457150D01*
X68365533Y-81452223D01*
X68362380Y-81446962D01*
X68359758Y-81441418D01*
X68357691Y-81435643D01*
X68356201Y-81429693D01*
X68355301Y-81423626D01*
X68355000Y-81417500D01*
X68355000Y-80742500D01*
X68355301Y-80736374D01*
X68356201Y-80730307D01*
X68357691Y-80724357D01*
X68359758Y-80718582D01*
X68362380Y-80713038D01*
X68365533Y-80707777D01*
X68369187Y-80702850D01*
X68373306Y-80698306D01*
X68377850Y-80694187D01*
X68382777Y-80690533D01*
X68388038Y-80687380D01*
X68393582Y-80684758D01*
X68399357Y-80682691D01*
X68405307Y-80681201D01*
X68411374Y-80680301D01*
X68417500Y-80680000D01*
X68542500Y-80680000D01*
X68548626Y-80680301D01*
G37*
G36*
X69048626Y-80680301D02*
G01*
X69054693Y-80681201D01*
X69060643Y-80682691D01*
X69066418Y-80684758D01*
X69071962Y-80687380D01*
X69077223Y-80690533D01*
X69082150Y-80694187D01*
X69086694Y-80698306D01*
X69090813Y-80702850D01*
X69094467Y-80707777D01*
X69097620Y-80713038D01*
X69100242Y-80718582D01*
X69102309Y-80724357D01*
X69103799Y-80730307D01*
X69104699Y-80736374D01*
X69105000Y-80742500D01*
X69105000Y-81417500D01*
X69104699Y-81423626D01*
X69103799Y-81429693D01*
X69102309Y-81435643D01*
X69100242Y-81441418D01*
X69097620Y-81446962D01*
X69094467Y-81452223D01*
X69090813Y-81457150D01*
X69086694Y-81461694D01*
X69082150Y-81465813D01*
X69077223Y-81469467D01*
X69071962Y-81472620D01*
X69066418Y-81475242D01*
X69060643Y-81477309D01*
X69054693Y-81478799D01*
X69048626Y-81479699D01*
X69042500Y-81480000D01*
X68917500Y-81480000D01*
X68911374Y-81479699D01*
X68905307Y-81478799D01*
X68899357Y-81477309D01*
X68893582Y-81475242D01*
X68888038Y-81472620D01*
X68882777Y-81469467D01*
X68877850Y-81465813D01*
X68873306Y-81461694D01*
X68869187Y-81457150D01*
X68865533Y-81452223D01*
X68862380Y-81446962D01*
X68859758Y-81441418D01*
X68857691Y-81435643D01*
X68856201Y-81429693D01*
X68855301Y-81423626D01*
X68855000Y-81417500D01*
X68855000Y-80742500D01*
X68855301Y-80736374D01*
X68856201Y-80730307D01*
X68857691Y-80724357D01*
X68859758Y-80718582D01*
X68862380Y-80713038D01*
X68865533Y-80707777D01*
X68869187Y-80702850D01*
X68873306Y-80698306D01*
X68877850Y-80694187D01*
X68882777Y-80690533D01*
X68888038Y-80687380D01*
X68893582Y-80684758D01*
X68899357Y-80682691D01*
X68905307Y-80681201D01*
X68911374Y-80680301D01*
X68917500Y-80680000D01*
X69042500Y-80680000D01*
X69048626Y-80680301D01*
G37*
G36*
X69548626Y-80680301D02*
G01*
X69554693Y-80681201D01*
X69560643Y-80682691D01*
X69566418Y-80684758D01*
X69571962Y-80687380D01*
X69577223Y-80690533D01*
X69582150Y-80694187D01*
X69586694Y-80698306D01*
X69590813Y-80702850D01*
X69594467Y-80707777D01*
X69597620Y-80713038D01*
X69600242Y-80718582D01*
X69602309Y-80724357D01*
X69603799Y-80730307D01*
X69604699Y-80736374D01*
X69605000Y-80742500D01*
X69605000Y-81417500D01*
X69604699Y-81423626D01*
X69603799Y-81429693D01*
X69602309Y-81435643D01*
X69600242Y-81441418D01*
X69597620Y-81446962D01*
X69594467Y-81452223D01*
X69590813Y-81457150D01*
X69586694Y-81461694D01*
X69582150Y-81465813D01*
X69577223Y-81469467D01*
X69571962Y-81472620D01*
X69566418Y-81475242D01*
X69560643Y-81477309D01*
X69554693Y-81478799D01*
X69548626Y-81479699D01*
X69542500Y-81480000D01*
X69417500Y-81480000D01*
X69411374Y-81479699D01*
X69405307Y-81478799D01*
X69399357Y-81477309D01*
X69393582Y-81475242D01*
X69388038Y-81472620D01*
X69382777Y-81469467D01*
X69377850Y-81465813D01*
X69373306Y-81461694D01*
X69369187Y-81457150D01*
X69365533Y-81452223D01*
X69362380Y-81446962D01*
X69359758Y-81441418D01*
X69357691Y-81435643D01*
X69356201Y-81429693D01*
X69355301Y-81423626D01*
X69355000Y-81417500D01*
X69355000Y-80742500D01*
X69355301Y-80736374D01*
X69356201Y-80730307D01*
X69357691Y-80724357D01*
X69359758Y-80718582D01*
X69362380Y-80713038D01*
X69365533Y-80707777D01*
X69369187Y-80702850D01*
X69373306Y-80698306D01*
X69377850Y-80694187D01*
X69382777Y-80690533D01*
X69388038Y-80687380D01*
X69393582Y-80684758D01*
X69399357Y-80682691D01*
X69405307Y-80681201D01*
X69411374Y-80680301D01*
X69417500Y-80680000D01*
X69542500Y-80680000D01*
X69548626Y-80680301D01*
G37*
G36*
X70048626Y-80680301D02*
G01*
X70054693Y-80681201D01*
X70060643Y-80682691D01*
X70066418Y-80684758D01*
X70071962Y-80687380D01*
X70077223Y-80690533D01*
X70082150Y-80694187D01*
X70086694Y-80698306D01*
X70090813Y-80702850D01*
X70094467Y-80707777D01*
X70097620Y-80713038D01*
X70100242Y-80718582D01*
X70102309Y-80724357D01*
X70103799Y-80730307D01*
X70104699Y-80736374D01*
X70105000Y-80742500D01*
X70105000Y-81417500D01*
X70104699Y-81423626D01*
X70103799Y-81429693D01*
X70102309Y-81435643D01*
X70100242Y-81441418D01*
X70097620Y-81446962D01*
X70094467Y-81452223D01*
X70090813Y-81457150D01*
X70086694Y-81461694D01*
X70082150Y-81465813D01*
X70077223Y-81469467D01*
X70071962Y-81472620D01*
X70066418Y-81475242D01*
X70060643Y-81477309D01*
X70054693Y-81478799D01*
X70048626Y-81479699D01*
X70042500Y-81480000D01*
X69917500Y-81480000D01*
X69911374Y-81479699D01*
X69905307Y-81478799D01*
X69899357Y-81477309D01*
X69893582Y-81475242D01*
X69888038Y-81472620D01*
X69882777Y-81469467D01*
X69877850Y-81465813D01*
X69873306Y-81461694D01*
X69869187Y-81457150D01*
X69865533Y-81452223D01*
X69862380Y-81446962D01*
X69859758Y-81441418D01*
X69857691Y-81435643D01*
X69856201Y-81429693D01*
X69855301Y-81423626D01*
X69855000Y-81417500D01*
X69855000Y-80742500D01*
X69855301Y-80736374D01*
X69856201Y-80730307D01*
X69857691Y-80724357D01*
X69859758Y-80718582D01*
X69862380Y-80713038D01*
X69865533Y-80707777D01*
X69869187Y-80702850D01*
X69873306Y-80698306D01*
X69877850Y-80694187D01*
X69882777Y-80690533D01*
X69888038Y-80687380D01*
X69893582Y-80684758D01*
X69899357Y-80682691D01*
X69905307Y-80681201D01*
X69911374Y-80680301D01*
X69917500Y-80680000D01*
X70042500Y-80680000D01*
X70048626Y-80680301D01*
G37*
G36*
X70548626Y-80680301D02*
G01*
X70554693Y-80681201D01*
X70560643Y-80682691D01*
X70566418Y-80684758D01*
X70571962Y-80687380D01*
X70577223Y-80690533D01*
X70582150Y-80694187D01*
X70586694Y-80698306D01*
X70590813Y-80702850D01*
X70594467Y-80707777D01*
X70597620Y-80713038D01*
X70600242Y-80718582D01*
X70602309Y-80724357D01*
X70603799Y-80730307D01*
X70604699Y-80736374D01*
X70605000Y-80742500D01*
X70605000Y-81417500D01*
X70604699Y-81423626D01*
X70603799Y-81429693D01*
X70602309Y-81435643D01*
X70600242Y-81441418D01*
X70597620Y-81446962D01*
X70594467Y-81452223D01*
X70590813Y-81457150D01*
X70586694Y-81461694D01*
X70582150Y-81465813D01*
X70577223Y-81469467D01*
X70571962Y-81472620D01*
X70566418Y-81475242D01*
X70560643Y-81477309D01*
X70554693Y-81478799D01*
X70548626Y-81479699D01*
X70542500Y-81480000D01*
X70417500Y-81480000D01*
X70411374Y-81479699D01*
X70405307Y-81478799D01*
X70399357Y-81477309D01*
X70393582Y-81475242D01*
X70388038Y-81472620D01*
X70382777Y-81469467D01*
X70377850Y-81465813D01*
X70373306Y-81461694D01*
X70369187Y-81457150D01*
X70365533Y-81452223D01*
X70362380Y-81446962D01*
X70359758Y-81441418D01*
X70357691Y-81435643D01*
X70356201Y-81429693D01*
X70355301Y-81423626D01*
X70355000Y-81417500D01*
X70355000Y-80742500D01*
X70355301Y-80736374D01*
X70356201Y-80730307D01*
X70357691Y-80724357D01*
X70359758Y-80718582D01*
X70362380Y-80713038D01*
X70365533Y-80707777D01*
X70369187Y-80702850D01*
X70373306Y-80698306D01*
X70377850Y-80694187D01*
X70382777Y-80690533D01*
X70388038Y-80687380D01*
X70393582Y-80684758D01*
X70399357Y-80682691D01*
X70405307Y-80681201D01*
X70411374Y-80680301D01*
X70417500Y-80680000D01*
X70542500Y-80680000D01*
X70548626Y-80680301D01*
G37*
G36*
X71048626Y-80680301D02*
G01*
X71054693Y-80681201D01*
X71060643Y-80682691D01*
X71066418Y-80684758D01*
X71071962Y-80687380D01*
X71077223Y-80690533D01*
X71082150Y-80694187D01*
X71086694Y-80698306D01*
X71090813Y-80702850D01*
X71094467Y-80707777D01*
X71097620Y-80713038D01*
X71100242Y-80718582D01*
X71102309Y-80724357D01*
X71103799Y-80730307D01*
X71104699Y-80736374D01*
X71105000Y-80742500D01*
X71105000Y-81417500D01*
X71104699Y-81423626D01*
X71103799Y-81429693D01*
X71102309Y-81435643D01*
X71100242Y-81441418D01*
X71097620Y-81446962D01*
X71094467Y-81452223D01*
X71090813Y-81457150D01*
X71086694Y-81461694D01*
X71082150Y-81465813D01*
X71077223Y-81469467D01*
X71071962Y-81472620D01*
X71066418Y-81475242D01*
X71060643Y-81477309D01*
X71054693Y-81478799D01*
X71048626Y-81479699D01*
X71042500Y-81480000D01*
X70917500Y-81480000D01*
X70911374Y-81479699D01*
X70905307Y-81478799D01*
X70899357Y-81477309D01*
X70893582Y-81475242D01*
X70888038Y-81472620D01*
X70882777Y-81469467D01*
X70877850Y-81465813D01*
X70873306Y-81461694D01*
X70869187Y-81457150D01*
X70865533Y-81452223D01*
X70862380Y-81446962D01*
X70859758Y-81441418D01*
X70857691Y-81435643D01*
X70856201Y-81429693D01*
X70855301Y-81423626D01*
X70855000Y-81417500D01*
X70855000Y-80742500D01*
X70855301Y-80736374D01*
X70856201Y-80730307D01*
X70857691Y-80724357D01*
X70859758Y-80718582D01*
X70862380Y-80713038D01*
X70865533Y-80707777D01*
X70869187Y-80702850D01*
X70873306Y-80698306D01*
X70877850Y-80694187D01*
X70882777Y-80690533D01*
X70888038Y-80687380D01*
X70893582Y-80684758D01*
X70899357Y-80682691D01*
X70905307Y-80681201D01*
X70911374Y-80680301D01*
X70917500Y-80680000D01*
X71042500Y-80680000D01*
X71048626Y-80680301D01*
G37*
G36*
X72273626Y-81905301D02*
G01*
X72279693Y-81906201D01*
X72285643Y-81907691D01*
X72291418Y-81909758D01*
X72296962Y-81912380D01*
X72302223Y-81915533D01*
X72307150Y-81919187D01*
X72311694Y-81923306D01*
X72315813Y-81927850D01*
X72319467Y-81932777D01*
X72322620Y-81938038D01*
X72325242Y-81943582D01*
X72327309Y-81949357D01*
X72328799Y-81955307D01*
X72329699Y-81961374D01*
X72330000Y-81967500D01*
X72330000Y-82092500D01*
X72329699Y-82098626D01*
X72328799Y-82104693D01*
X72327309Y-82110643D01*
X72325242Y-82116418D01*
X72322620Y-82121962D01*
X72319467Y-82127223D01*
X72315813Y-82132150D01*
X72311694Y-82136694D01*
X72307150Y-82140813D01*
X72302223Y-82144467D01*
X72296962Y-82147620D01*
X72291418Y-82150242D01*
X72285643Y-82152309D01*
X72279693Y-82153799D01*
X72273626Y-82154699D01*
X72267500Y-82155000D01*
X71592500Y-82155000D01*
X71586374Y-82154699D01*
X71580307Y-82153799D01*
X71574357Y-82152309D01*
X71568582Y-82150242D01*
X71563038Y-82147620D01*
X71557777Y-82144467D01*
X71552850Y-82140813D01*
X71548306Y-82136694D01*
X71544187Y-82132150D01*
X71540533Y-82127223D01*
X71537380Y-82121962D01*
X71534758Y-82116418D01*
X71532691Y-82110643D01*
X71531201Y-82104693D01*
X71530301Y-82098626D01*
X71530000Y-82092500D01*
X71530000Y-81967500D01*
X71530301Y-81961374D01*
X71531201Y-81955307D01*
X71532691Y-81949357D01*
X71534758Y-81943582D01*
X71537380Y-81938038D01*
X71540533Y-81932777D01*
X71544187Y-81927850D01*
X71548306Y-81923306D01*
X71552850Y-81919187D01*
X71557777Y-81915533D01*
X71563038Y-81912380D01*
X71568582Y-81909758D01*
X71574357Y-81907691D01*
X71580307Y-81906201D01*
X71586374Y-81905301D01*
X71592500Y-81905000D01*
X72267500Y-81905000D01*
X72273626Y-81905301D01*
G37*
G36*
X72273626Y-82405301D02*
G01*
X72279693Y-82406201D01*
X72285643Y-82407691D01*
X72291418Y-82409758D01*
X72296962Y-82412380D01*
X72302223Y-82415533D01*
X72307150Y-82419187D01*
X72311694Y-82423306D01*
X72315813Y-82427850D01*
X72319467Y-82432777D01*
X72322620Y-82438038D01*
X72325242Y-82443582D01*
X72327309Y-82449357D01*
X72328799Y-82455307D01*
X72329699Y-82461374D01*
X72330000Y-82467500D01*
X72330000Y-82592500D01*
X72329699Y-82598626D01*
X72328799Y-82604693D01*
X72327309Y-82610643D01*
X72325242Y-82616418D01*
X72322620Y-82621962D01*
X72319467Y-82627223D01*
X72315813Y-82632150D01*
X72311694Y-82636694D01*
X72307150Y-82640813D01*
X72302223Y-82644467D01*
X72296962Y-82647620D01*
X72291418Y-82650242D01*
X72285643Y-82652309D01*
X72279693Y-82653799D01*
X72273626Y-82654699D01*
X72267500Y-82655000D01*
X71592500Y-82655000D01*
X71586374Y-82654699D01*
X71580307Y-82653799D01*
X71574357Y-82652309D01*
X71568582Y-82650242D01*
X71563038Y-82647620D01*
X71557777Y-82644467D01*
X71552850Y-82640813D01*
X71548306Y-82636694D01*
X71544187Y-82632150D01*
X71540533Y-82627223D01*
X71537380Y-82621962D01*
X71534758Y-82616418D01*
X71532691Y-82610643D01*
X71531201Y-82604693D01*
X71530301Y-82598626D01*
X71530000Y-82592500D01*
X71530000Y-82467500D01*
X71530301Y-82461374D01*
X71531201Y-82455307D01*
X71532691Y-82449357D01*
X71534758Y-82443582D01*
X71537380Y-82438038D01*
X71540533Y-82432777D01*
X71544187Y-82427850D01*
X71548306Y-82423306D01*
X71552850Y-82419187D01*
X71557777Y-82415533D01*
X71563038Y-82412380D01*
X71568582Y-82409758D01*
X71574357Y-82407691D01*
X71580307Y-82406201D01*
X71586374Y-82405301D01*
X71592500Y-82405000D01*
X72267500Y-82405000D01*
X72273626Y-82405301D01*
G37*
G36*
X72273626Y-82905301D02*
G01*
X72279693Y-82906201D01*
X72285643Y-82907691D01*
X72291418Y-82909758D01*
X72296962Y-82912380D01*
X72302223Y-82915533D01*
X72307150Y-82919187D01*
X72311694Y-82923306D01*
X72315813Y-82927850D01*
X72319467Y-82932777D01*
X72322620Y-82938038D01*
X72325242Y-82943582D01*
X72327309Y-82949357D01*
X72328799Y-82955307D01*
X72329699Y-82961374D01*
X72330000Y-82967500D01*
X72330000Y-83092500D01*
X72329699Y-83098626D01*
X72328799Y-83104693D01*
X72327309Y-83110643D01*
X72325242Y-83116418D01*
X72322620Y-83121962D01*
X72319467Y-83127223D01*
X72315813Y-83132150D01*
X72311694Y-83136694D01*
X72307150Y-83140813D01*
X72302223Y-83144467D01*
X72296962Y-83147620D01*
X72291418Y-83150242D01*
X72285643Y-83152309D01*
X72279693Y-83153799D01*
X72273626Y-83154699D01*
X72267500Y-83155000D01*
X71592500Y-83155000D01*
X71586374Y-83154699D01*
X71580307Y-83153799D01*
X71574357Y-83152309D01*
X71568582Y-83150242D01*
X71563038Y-83147620D01*
X71557777Y-83144467D01*
X71552850Y-83140813D01*
X71548306Y-83136694D01*
X71544187Y-83132150D01*
X71540533Y-83127223D01*
X71537380Y-83121962D01*
X71534758Y-83116418D01*
X71532691Y-83110643D01*
X71531201Y-83104693D01*
X71530301Y-83098626D01*
X71530000Y-83092500D01*
X71530000Y-82967500D01*
X71530301Y-82961374D01*
X71531201Y-82955307D01*
X71532691Y-82949357D01*
X71534758Y-82943582D01*
X71537380Y-82938038D01*
X71540533Y-82932777D01*
X71544187Y-82927850D01*
X71548306Y-82923306D01*
X71552850Y-82919187D01*
X71557777Y-82915533D01*
X71563038Y-82912380D01*
X71568582Y-82909758D01*
X71574357Y-82907691D01*
X71580307Y-82906201D01*
X71586374Y-82905301D01*
X71592500Y-82905000D01*
X72267500Y-82905000D01*
X72273626Y-82905301D01*
G37*
G36*
X72273626Y-83405301D02*
G01*
X72279693Y-83406201D01*
X72285643Y-83407691D01*
X72291418Y-83409758D01*
X72296962Y-83412380D01*
X72302223Y-83415533D01*
X72307150Y-83419187D01*
X72311694Y-83423306D01*
X72315813Y-83427850D01*
X72319467Y-83432777D01*
X72322620Y-83438038D01*
X72325242Y-83443582D01*
X72327309Y-83449357D01*
X72328799Y-83455307D01*
X72329699Y-83461374D01*
X72330000Y-83467500D01*
X72330000Y-83592500D01*
X72329699Y-83598626D01*
X72328799Y-83604693D01*
X72327309Y-83610643D01*
X72325242Y-83616418D01*
X72322620Y-83621962D01*
X72319467Y-83627223D01*
X72315813Y-83632150D01*
X72311694Y-83636694D01*
X72307150Y-83640813D01*
X72302223Y-83644467D01*
X72296962Y-83647620D01*
X72291418Y-83650242D01*
X72285643Y-83652309D01*
X72279693Y-83653799D01*
X72273626Y-83654699D01*
X72267500Y-83655000D01*
X71592500Y-83655000D01*
X71586374Y-83654699D01*
X71580307Y-83653799D01*
X71574357Y-83652309D01*
X71568582Y-83650242D01*
X71563038Y-83647620D01*
X71557777Y-83644467D01*
X71552850Y-83640813D01*
X71548306Y-83636694D01*
X71544187Y-83632150D01*
X71540533Y-83627223D01*
X71537380Y-83621962D01*
X71534758Y-83616418D01*
X71532691Y-83610643D01*
X71531201Y-83604693D01*
X71530301Y-83598626D01*
X71530000Y-83592500D01*
X71530000Y-83467500D01*
X71530301Y-83461374D01*
X71531201Y-83455307D01*
X71532691Y-83449357D01*
X71534758Y-83443582D01*
X71537380Y-83438038D01*
X71540533Y-83432777D01*
X71544187Y-83427850D01*
X71548306Y-83423306D01*
X71552850Y-83419187D01*
X71557777Y-83415533D01*
X71563038Y-83412380D01*
X71568582Y-83409758D01*
X71574357Y-83407691D01*
X71580307Y-83406201D01*
X71586374Y-83405301D01*
X71592500Y-83405000D01*
X72267500Y-83405000D01*
X72273626Y-83405301D01*
G37*
G36*
X72273626Y-83905301D02*
G01*
X72279693Y-83906201D01*
X72285643Y-83907691D01*
X72291418Y-83909758D01*
X72296962Y-83912380D01*
X72302223Y-83915533D01*
X72307150Y-83919187D01*
X72311694Y-83923306D01*
X72315813Y-83927850D01*
X72319467Y-83932777D01*
X72322620Y-83938038D01*
X72325242Y-83943582D01*
X72327309Y-83949357D01*
X72328799Y-83955307D01*
X72329699Y-83961374D01*
X72330000Y-83967500D01*
X72330000Y-84092500D01*
X72329699Y-84098626D01*
X72328799Y-84104693D01*
X72327309Y-84110643D01*
X72325242Y-84116418D01*
X72322620Y-84121962D01*
X72319467Y-84127223D01*
X72315813Y-84132150D01*
X72311694Y-84136694D01*
X72307150Y-84140813D01*
X72302223Y-84144467D01*
X72296962Y-84147620D01*
X72291418Y-84150242D01*
X72285643Y-84152309D01*
X72279693Y-84153799D01*
X72273626Y-84154699D01*
X72267500Y-84155000D01*
X71592500Y-84155000D01*
X71586374Y-84154699D01*
X71580307Y-84153799D01*
X71574357Y-84152309D01*
X71568582Y-84150242D01*
X71563038Y-84147620D01*
X71557777Y-84144467D01*
X71552850Y-84140813D01*
X71548306Y-84136694D01*
X71544187Y-84132150D01*
X71540533Y-84127223D01*
X71537380Y-84121962D01*
X71534758Y-84116418D01*
X71532691Y-84110643D01*
X71531201Y-84104693D01*
X71530301Y-84098626D01*
X71530000Y-84092500D01*
X71530000Y-83967500D01*
X71530301Y-83961374D01*
X71531201Y-83955307D01*
X71532691Y-83949357D01*
X71534758Y-83943582D01*
X71537380Y-83938038D01*
X71540533Y-83932777D01*
X71544187Y-83927850D01*
X71548306Y-83923306D01*
X71552850Y-83919187D01*
X71557777Y-83915533D01*
X71563038Y-83912380D01*
X71568582Y-83909758D01*
X71574357Y-83907691D01*
X71580307Y-83906201D01*
X71586374Y-83905301D01*
X71592500Y-83905000D01*
X72267500Y-83905000D01*
X72273626Y-83905301D01*
G37*
G36*
X72273626Y-84405301D02*
G01*
X72279693Y-84406201D01*
X72285643Y-84407691D01*
X72291418Y-84409758D01*
X72296962Y-84412380D01*
X72302223Y-84415533D01*
X72307150Y-84419187D01*
X72311694Y-84423306D01*
X72315813Y-84427850D01*
X72319467Y-84432777D01*
X72322620Y-84438038D01*
X72325242Y-84443582D01*
X72327309Y-84449357D01*
X72328799Y-84455307D01*
X72329699Y-84461374D01*
X72330000Y-84467500D01*
X72330000Y-84592500D01*
X72329699Y-84598626D01*
X72328799Y-84604693D01*
X72327309Y-84610643D01*
X72325242Y-84616418D01*
X72322620Y-84621962D01*
X72319467Y-84627223D01*
X72315813Y-84632150D01*
X72311694Y-84636694D01*
X72307150Y-84640813D01*
X72302223Y-84644467D01*
X72296962Y-84647620D01*
X72291418Y-84650242D01*
X72285643Y-84652309D01*
X72279693Y-84653799D01*
X72273626Y-84654699D01*
X72267500Y-84655000D01*
X71592500Y-84655000D01*
X71586374Y-84654699D01*
X71580307Y-84653799D01*
X71574357Y-84652309D01*
X71568582Y-84650242D01*
X71563038Y-84647620D01*
X71557777Y-84644467D01*
X71552850Y-84640813D01*
X71548306Y-84636694D01*
X71544187Y-84632150D01*
X71540533Y-84627223D01*
X71537380Y-84621962D01*
X71534758Y-84616418D01*
X71532691Y-84610643D01*
X71531201Y-84604693D01*
X71530301Y-84598626D01*
X71530000Y-84592500D01*
X71530000Y-84467500D01*
X71530301Y-84461374D01*
X71531201Y-84455307D01*
X71532691Y-84449357D01*
X71534758Y-84443582D01*
X71537380Y-84438038D01*
X71540533Y-84432777D01*
X71544187Y-84427850D01*
X71548306Y-84423306D01*
X71552850Y-84419187D01*
X71557777Y-84415533D01*
X71563038Y-84412380D01*
X71568582Y-84409758D01*
X71574357Y-84407691D01*
X71580307Y-84406201D01*
X71586374Y-84405301D01*
X71592500Y-84405000D01*
X72267500Y-84405000D01*
X72273626Y-84405301D01*
G37*
G36*
X72273626Y-84905301D02*
G01*
X72279693Y-84906201D01*
X72285643Y-84907691D01*
X72291418Y-84909758D01*
X72296962Y-84912380D01*
X72302223Y-84915533D01*
X72307150Y-84919187D01*
X72311694Y-84923306D01*
X72315813Y-84927850D01*
X72319467Y-84932777D01*
X72322620Y-84938038D01*
X72325242Y-84943582D01*
X72327309Y-84949357D01*
X72328799Y-84955307D01*
X72329699Y-84961374D01*
X72330000Y-84967500D01*
X72330000Y-85092500D01*
X72329699Y-85098626D01*
X72328799Y-85104693D01*
X72327309Y-85110643D01*
X72325242Y-85116418D01*
X72322620Y-85121962D01*
X72319467Y-85127223D01*
X72315813Y-85132150D01*
X72311694Y-85136694D01*
X72307150Y-85140813D01*
X72302223Y-85144467D01*
X72296962Y-85147620D01*
X72291418Y-85150242D01*
X72285643Y-85152309D01*
X72279693Y-85153799D01*
X72273626Y-85154699D01*
X72267500Y-85155000D01*
X71592500Y-85155000D01*
X71586374Y-85154699D01*
X71580307Y-85153799D01*
X71574357Y-85152309D01*
X71568582Y-85150242D01*
X71563038Y-85147620D01*
X71557777Y-85144467D01*
X71552850Y-85140813D01*
X71548306Y-85136694D01*
X71544187Y-85132150D01*
X71540533Y-85127223D01*
X71537380Y-85121962D01*
X71534758Y-85116418D01*
X71532691Y-85110643D01*
X71531201Y-85104693D01*
X71530301Y-85098626D01*
X71530000Y-85092500D01*
X71530000Y-84967500D01*
X71530301Y-84961374D01*
X71531201Y-84955307D01*
X71532691Y-84949357D01*
X71534758Y-84943582D01*
X71537380Y-84938038D01*
X71540533Y-84932777D01*
X71544187Y-84927850D01*
X71548306Y-84923306D01*
X71552850Y-84919187D01*
X71557777Y-84915533D01*
X71563038Y-84912380D01*
X71568582Y-84909758D01*
X71574357Y-84907691D01*
X71580307Y-84906201D01*
X71586374Y-84905301D01*
X71592500Y-84905000D01*
X72267500Y-84905000D01*
X72273626Y-84905301D01*
G37*
G36*
X71048626Y-85580301D02*
G01*
X71054693Y-85581201D01*
X71060643Y-85582691D01*
X71066418Y-85584758D01*
X71071962Y-85587380D01*
X71077223Y-85590533D01*
X71082150Y-85594187D01*
X71086694Y-85598306D01*
X71090813Y-85602850D01*
X71094467Y-85607777D01*
X71097620Y-85613038D01*
X71100242Y-85618582D01*
X71102309Y-85624357D01*
X71103799Y-85630307D01*
X71104699Y-85636374D01*
X71105000Y-85642500D01*
X71105000Y-86317500D01*
X71104699Y-86323626D01*
X71103799Y-86329693D01*
X71102309Y-86335643D01*
X71100242Y-86341418D01*
X71097620Y-86346962D01*
X71094467Y-86352223D01*
X71090813Y-86357150D01*
X71086694Y-86361694D01*
X71082150Y-86365813D01*
X71077223Y-86369467D01*
X71071962Y-86372620D01*
X71066418Y-86375242D01*
X71060643Y-86377309D01*
X71054693Y-86378799D01*
X71048626Y-86379699D01*
X71042500Y-86380000D01*
X70917500Y-86380000D01*
X70911374Y-86379699D01*
X70905307Y-86378799D01*
X70899357Y-86377309D01*
X70893582Y-86375242D01*
X70888038Y-86372620D01*
X70882777Y-86369467D01*
X70877850Y-86365813D01*
X70873306Y-86361694D01*
X70869187Y-86357150D01*
X70865533Y-86352223D01*
X70862380Y-86346962D01*
X70859758Y-86341418D01*
X70857691Y-86335643D01*
X70856201Y-86329693D01*
X70855301Y-86323626D01*
X70855000Y-86317500D01*
X70855000Y-85642500D01*
X70855301Y-85636374D01*
X70856201Y-85630307D01*
X70857691Y-85624357D01*
X70859758Y-85618582D01*
X70862380Y-85613038D01*
X70865533Y-85607777D01*
X70869187Y-85602850D01*
X70873306Y-85598306D01*
X70877850Y-85594187D01*
X70882777Y-85590533D01*
X70888038Y-85587380D01*
X70893582Y-85584758D01*
X70899357Y-85582691D01*
X70905307Y-85581201D01*
X70911374Y-85580301D01*
X70917500Y-85580000D01*
X71042500Y-85580000D01*
X71048626Y-85580301D01*
G37*
G36*
X70548626Y-85580301D02*
G01*
X70554693Y-85581201D01*
X70560643Y-85582691D01*
X70566418Y-85584758D01*
X70571962Y-85587380D01*
X70577223Y-85590533D01*
X70582150Y-85594187D01*
X70586694Y-85598306D01*
X70590813Y-85602850D01*
X70594467Y-85607777D01*
X70597620Y-85613038D01*
X70600242Y-85618582D01*
X70602309Y-85624357D01*
X70603799Y-85630307D01*
X70604699Y-85636374D01*
X70605000Y-85642500D01*
X70605000Y-86317500D01*
X70604699Y-86323626D01*
X70603799Y-86329693D01*
X70602309Y-86335643D01*
X70600242Y-86341418D01*
X70597620Y-86346962D01*
X70594467Y-86352223D01*
X70590813Y-86357150D01*
X70586694Y-86361694D01*
X70582150Y-86365813D01*
X70577223Y-86369467D01*
X70571962Y-86372620D01*
X70566418Y-86375242D01*
X70560643Y-86377309D01*
X70554693Y-86378799D01*
X70548626Y-86379699D01*
X70542500Y-86380000D01*
X70417500Y-86380000D01*
X70411374Y-86379699D01*
X70405307Y-86378799D01*
X70399357Y-86377309D01*
X70393582Y-86375242D01*
X70388038Y-86372620D01*
X70382777Y-86369467D01*
X70377850Y-86365813D01*
X70373306Y-86361694D01*
X70369187Y-86357150D01*
X70365533Y-86352223D01*
X70362380Y-86346962D01*
X70359758Y-86341418D01*
X70357691Y-86335643D01*
X70356201Y-86329693D01*
X70355301Y-86323626D01*
X70355000Y-86317500D01*
X70355000Y-85642500D01*
X70355301Y-85636374D01*
X70356201Y-85630307D01*
X70357691Y-85624357D01*
X70359758Y-85618582D01*
X70362380Y-85613038D01*
X70365533Y-85607777D01*
X70369187Y-85602850D01*
X70373306Y-85598306D01*
X70377850Y-85594187D01*
X70382777Y-85590533D01*
X70388038Y-85587380D01*
X70393582Y-85584758D01*
X70399357Y-85582691D01*
X70405307Y-85581201D01*
X70411374Y-85580301D01*
X70417500Y-85580000D01*
X70542500Y-85580000D01*
X70548626Y-85580301D01*
G37*
G36*
X70048626Y-85580301D02*
G01*
X70054693Y-85581201D01*
X70060643Y-85582691D01*
X70066418Y-85584758D01*
X70071962Y-85587380D01*
X70077223Y-85590533D01*
X70082150Y-85594187D01*
X70086694Y-85598306D01*
X70090813Y-85602850D01*
X70094467Y-85607777D01*
X70097620Y-85613038D01*
X70100242Y-85618582D01*
X70102309Y-85624357D01*
X70103799Y-85630307D01*
X70104699Y-85636374D01*
X70105000Y-85642500D01*
X70105000Y-86317500D01*
X70104699Y-86323626D01*
X70103799Y-86329693D01*
X70102309Y-86335643D01*
X70100242Y-86341418D01*
X70097620Y-86346962D01*
X70094467Y-86352223D01*
X70090813Y-86357150D01*
X70086694Y-86361694D01*
X70082150Y-86365813D01*
X70077223Y-86369467D01*
X70071962Y-86372620D01*
X70066418Y-86375242D01*
X70060643Y-86377309D01*
X70054693Y-86378799D01*
X70048626Y-86379699D01*
X70042500Y-86380000D01*
X69917500Y-86380000D01*
X69911374Y-86379699D01*
X69905307Y-86378799D01*
X69899357Y-86377309D01*
X69893582Y-86375242D01*
X69888038Y-86372620D01*
X69882777Y-86369467D01*
X69877850Y-86365813D01*
X69873306Y-86361694D01*
X69869187Y-86357150D01*
X69865533Y-86352223D01*
X69862380Y-86346962D01*
X69859758Y-86341418D01*
X69857691Y-86335643D01*
X69856201Y-86329693D01*
X69855301Y-86323626D01*
X69855000Y-86317500D01*
X69855000Y-85642500D01*
X69855301Y-85636374D01*
X69856201Y-85630307D01*
X69857691Y-85624357D01*
X69859758Y-85618582D01*
X69862380Y-85613038D01*
X69865533Y-85607777D01*
X69869187Y-85602850D01*
X69873306Y-85598306D01*
X69877850Y-85594187D01*
X69882777Y-85590533D01*
X69888038Y-85587380D01*
X69893582Y-85584758D01*
X69899357Y-85582691D01*
X69905307Y-85581201D01*
X69911374Y-85580301D01*
X69917500Y-85580000D01*
X70042500Y-85580000D01*
X70048626Y-85580301D01*
G37*
G36*
X69548626Y-85580301D02*
G01*
X69554693Y-85581201D01*
X69560643Y-85582691D01*
X69566418Y-85584758D01*
X69571962Y-85587380D01*
X69577223Y-85590533D01*
X69582150Y-85594187D01*
X69586694Y-85598306D01*
X69590813Y-85602850D01*
X69594467Y-85607777D01*
X69597620Y-85613038D01*
X69600242Y-85618582D01*
X69602309Y-85624357D01*
X69603799Y-85630307D01*
X69604699Y-85636374D01*
X69605000Y-85642500D01*
X69605000Y-86317500D01*
X69604699Y-86323626D01*
X69603799Y-86329693D01*
X69602309Y-86335643D01*
X69600242Y-86341418D01*
X69597620Y-86346962D01*
X69594467Y-86352223D01*
X69590813Y-86357150D01*
X69586694Y-86361694D01*
X69582150Y-86365813D01*
X69577223Y-86369467D01*
X69571962Y-86372620D01*
X69566418Y-86375242D01*
X69560643Y-86377309D01*
X69554693Y-86378799D01*
X69548626Y-86379699D01*
X69542500Y-86380000D01*
X69417500Y-86380000D01*
X69411374Y-86379699D01*
X69405307Y-86378799D01*
X69399357Y-86377309D01*
X69393582Y-86375242D01*
X69388038Y-86372620D01*
X69382777Y-86369467D01*
X69377850Y-86365813D01*
X69373306Y-86361694D01*
X69369187Y-86357150D01*
X69365533Y-86352223D01*
X69362380Y-86346962D01*
X69359758Y-86341418D01*
X69357691Y-86335643D01*
X69356201Y-86329693D01*
X69355301Y-86323626D01*
X69355000Y-86317500D01*
X69355000Y-85642500D01*
X69355301Y-85636374D01*
X69356201Y-85630307D01*
X69357691Y-85624357D01*
X69359758Y-85618582D01*
X69362380Y-85613038D01*
X69365533Y-85607777D01*
X69369187Y-85602850D01*
X69373306Y-85598306D01*
X69377850Y-85594187D01*
X69382777Y-85590533D01*
X69388038Y-85587380D01*
X69393582Y-85584758D01*
X69399357Y-85582691D01*
X69405307Y-85581201D01*
X69411374Y-85580301D01*
X69417500Y-85580000D01*
X69542500Y-85580000D01*
X69548626Y-85580301D01*
G37*
G36*
X69048626Y-85580301D02*
G01*
X69054693Y-85581201D01*
X69060643Y-85582691D01*
X69066418Y-85584758D01*
X69071962Y-85587380D01*
X69077223Y-85590533D01*
X69082150Y-85594187D01*
X69086694Y-85598306D01*
X69090813Y-85602850D01*
X69094467Y-85607777D01*
X69097620Y-85613038D01*
X69100242Y-85618582D01*
X69102309Y-85624357D01*
X69103799Y-85630307D01*
X69104699Y-85636374D01*
X69105000Y-85642500D01*
X69105000Y-86317500D01*
X69104699Y-86323626D01*
X69103799Y-86329693D01*
X69102309Y-86335643D01*
X69100242Y-86341418D01*
X69097620Y-86346962D01*
X69094467Y-86352223D01*
X69090813Y-86357150D01*
X69086694Y-86361694D01*
X69082150Y-86365813D01*
X69077223Y-86369467D01*
X69071962Y-86372620D01*
X69066418Y-86375242D01*
X69060643Y-86377309D01*
X69054693Y-86378799D01*
X69048626Y-86379699D01*
X69042500Y-86380000D01*
X68917500Y-86380000D01*
X68911374Y-86379699D01*
X68905307Y-86378799D01*
X68899357Y-86377309D01*
X68893582Y-86375242D01*
X68888038Y-86372620D01*
X68882777Y-86369467D01*
X68877850Y-86365813D01*
X68873306Y-86361694D01*
X68869187Y-86357150D01*
X68865533Y-86352223D01*
X68862380Y-86346962D01*
X68859758Y-86341418D01*
X68857691Y-86335643D01*
X68856201Y-86329693D01*
X68855301Y-86323626D01*
X68855000Y-86317500D01*
X68855000Y-85642500D01*
X68855301Y-85636374D01*
X68856201Y-85630307D01*
X68857691Y-85624357D01*
X68859758Y-85618582D01*
X68862380Y-85613038D01*
X68865533Y-85607777D01*
X68869187Y-85602850D01*
X68873306Y-85598306D01*
X68877850Y-85594187D01*
X68882777Y-85590533D01*
X68888038Y-85587380D01*
X68893582Y-85584758D01*
X68899357Y-85582691D01*
X68905307Y-85581201D01*
X68911374Y-85580301D01*
X68917500Y-85580000D01*
X69042500Y-85580000D01*
X69048626Y-85580301D01*
G37*
G36*
X68548626Y-85580301D02*
G01*
X68554693Y-85581201D01*
X68560643Y-85582691D01*
X68566418Y-85584758D01*
X68571962Y-85587380D01*
X68577223Y-85590533D01*
X68582150Y-85594187D01*
X68586694Y-85598306D01*
X68590813Y-85602850D01*
X68594467Y-85607777D01*
X68597620Y-85613038D01*
X68600242Y-85618582D01*
X68602309Y-85624357D01*
X68603799Y-85630307D01*
X68604699Y-85636374D01*
X68605000Y-85642500D01*
X68605000Y-86317500D01*
X68604699Y-86323626D01*
X68603799Y-86329693D01*
X68602309Y-86335643D01*
X68600242Y-86341418D01*
X68597620Y-86346962D01*
X68594467Y-86352223D01*
X68590813Y-86357150D01*
X68586694Y-86361694D01*
X68582150Y-86365813D01*
X68577223Y-86369467D01*
X68571962Y-86372620D01*
X68566418Y-86375242D01*
X68560643Y-86377309D01*
X68554693Y-86378799D01*
X68548626Y-86379699D01*
X68542500Y-86380000D01*
X68417500Y-86380000D01*
X68411374Y-86379699D01*
X68405307Y-86378799D01*
X68399357Y-86377309D01*
X68393582Y-86375242D01*
X68388038Y-86372620D01*
X68382777Y-86369467D01*
X68377850Y-86365813D01*
X68373306Y-86361694D01*
X68369187Y-86357150D01*
X68365533Y-86352223D01*
X68362380Y-86346962D01*
X68359758Y-86341418D01*
X68357691Y-86335643D01*
X68356201Y-86329693D01*
X68355301Y-86323626D01*
X68355000Y-86317500D01*
X68355000Y-85642500D01*
X68355301Y-85636374D01*
X68356201Y-85630307D01*
X68357691Y-85624357D01*
X68359758Y-85618582D01*
X68362380Y-85613038D01*
X68365533Y-85607777D01*
X68369187Y-85602850D01*
X68373306Y-85598306D01*
X68377850Y-85594187D01*
X68382777Y-85590533D01*
X68388038Y-85587380D01*
X68393582Y-85584758D01*
X68399357Y-85582691D01*
X68405307Y-85581201D01*
X68411374Y-85580301D01*
X68417500Y-85580000D01*
X68542500Y-85580000D01*
X68548626Y-85580301D01*
G37*
G36*
X68048626Y-85580301D02*
G01*
X68054693Y-85581201D01*
X68060643Y-85582691D01*
X68066418Y-85584758D01*
X68071962Y-85587380D01*
X68077223Y-85590533D01*
X68082150Y-85594187D01*
X68086694Y-85598306D01*
X68090813Y-85602850D01*
X68094467Y-85607777D01*
X68097620Y-85613038D01*
X68100242Y-85618582D01*
X68102309Y-85624357D01*
X68103799Y-85630307D01*
X68104699Y-85636374D01*
X68105000Y-85642500D01*
X68105000Y-86317500D01*
X68104699Y-86323626D01*
X68103799Y-86329693D01*
X68102309Y-86335643D01*
X68100242Y-86341418D01*
X68097620Y-86346962D01*
X68094467Y-86352223D01*
X68090813Y-86357150D01*
X68086694Y-86361694D01*
X68082150Y-86365813D01*
X68077223Y-86369467D01*
X68071962Y-86372620D01*
X68066418Y-86375242D01*
X68060643Y-86377309D01*
X68054693Y-86378799D01*
X68048626Y-86379699D01*
X68042500Y-86380000D01*
X67917500Y-86380000D01*
X67911374Y-86379699D01*
X67905307Y-86378799D01*
X67899357Y-86377309D01*
X67893582Y-86375242D01*
X67888038Y-86372620D01*
X67882777Y-86369467D01*
X67877850Y-86365813D01*
X67873306Y-86361694D01*
X67869187Y-86357150D01*
X67865533Y-86352223D01*
X67862380Y-86346962D01*
X67859758Y-86341418D01*
X67857691Y-86335643D01*
X67856201Y-86329693D01*
X67855301Y-86323626D01*
X67855000Y-86317500D01*
X67855000Y-85642500D01*
X67855301Y-85636374D01*
X67856201Y-85630307D01*
X67857691Y-85624357D01*
X67859758Y-85618582D01*
X67862380Y-85613038D01*
X67865533Y-85607777D01*
X67869187Y-85602850D01*
X67873306Y-85598306D01*
X67877850Y-85594187D01*
X67882777Y-85590533D01*
X67888038Y-85587380D01*
X67893582Y-85584758D01*
X67899357Y-85582691D01*
X67905307Y-85581201D01*
X67911374Y-85580301D01*
X67917500Y-85580000D01*
X68042500Y-85580000D01*
X68048626Y-85580301D01*
G37*
G36*
X70847054Y-81961083D02*
G01*
X70868895Y-81964323D01*
X70890314Y-81969688D01*
X70911104Y-81977127D01*
X70931064Y-81986568D01*
X70950003Y-81997919D01*
X70967738Y-82011073D01*
X70984099Y-82025901D01*
X70998927Y-82042262D01*
X71012081Y-82059997D01*
X71023432Y-82078936D01*
X71032873Y-82098896D01*
X71040312Y-82119686D01*
X71045677Y-82141105D01*
X71048917Y-82162946D01*
X71050000Y-82185000D01*
X71050000Y-82635000D01*
X71048917Y-82657054D01*
X71045677Y-82678895D01*
X71040312Y-82700314D01*
X71032873Y-82721104D01*
X71023432Y-82741064D01*
X71012081Y-82760003D01*
X70998927Y-82777738D01*
X70984099Y-82794099D01*
X70967738Y-82808927D01*
X70950003Y-82822081D01*
X70931064Y-82833432D01*
X70911104Y-82842873D01*
X70890314Y-82850312D01*
X70868895Y-82855677D01*
X70847054Y-82858917D01*
X70825000Y-82860000D01*
X70375000Y-82860000D01*
X70352946Y-82858917D01*
X70331105Y-82855677D01*
X70309686Y-82850312D01*
X70288896Y-82842873D01*
X70268936Y-82833432D01*
X70249997Y-82822081D01*
X70232262Y-82808927D01*
X70215901Y-82794099D01*
X70201073Y-82777738D01*
X70187919Y-82760003D01*
X70176568Y-82741064D01*
X70167127Y-82721104D01*
X70159688Y-82700314D01*
X70154323Y-82678895D01*
X70151083Y-82657054D01*
X70150000Y-82635000D01*
X70150000Y-82185000D01*
X70151083Y-82162946D01*
X70154323Y-82141105D01*
X70159688Y-82119686D01*
X70167127Y-82098896D01*
X70176568Y-82078936D01*
X70187919Y-82059997D01*
X70201073Y-82042262D01*
X70215901Y-82025901D01*
X70232262Y-82011073D01*
X70249997Y-81997919D01*
X70268936Y-81986568D01*
X70288896Y-81977127D01*
X70309686Y-81969688D01*
X70331105Y-81964323D01*
X70352946Y-81961083D01*
X70375000Y-81960000D01*
X70825000Y-81960000D01*
X70847054Y-81961083D01*
G37*
G36*
X69727054Y-81961083D02*
G01*
X69748895Y-81964323D01*
X69770314Y-81969688D01*
X69791104Y-81977127D01*
X69811064Y-81986568D01*
X69830003Y-81997919D01*
X69847738Y-82011073D01*
X69864099Y-82025901D01*
X69878927Y-82042262D01*
X69892081Y-82059997D01*
X69903432Y-82078936D01*
X69912873Y-82098896D01*
X69920312Y-82119686D01*
X69925677Y-82141105D01*
X69928917Y-82162946D01*
X69930000Y-82185000D01*
X69930000Y-82635000D01*
X69928917Y-82657054D01*
X69925677Y-82678895D01*
X69920312Y-82700314D01*
X69912873Y-82721104D01*
X69903432Y-82741064D01*
X69892081Y-82760003D01*
X69878927Y-82777738D01*
X69864099Y-82794099D01*
X69847738Y-82808927D01*
X69830003Y-82822081D01*
X69811064Y-82833432D01*
X69791104Y-82842873D01*
X69770314Y-82850312D01*
X69748895Y-82855677D01*
X69727054Y-82858917D01*
X69705000Y-82860000D01*
X69255000Y-82860000D01*
X69232946Y-82858917D01*
X69211105Y-82855677D01*
X69189686Y-82850312D01*
X69168896Y-82842873D01*
X69148936Y-82833432D01*
X69129997Y-82822081D01*
X69112262Y-82808927D01*
X69095901Y-82794099D01*
X69081073Y-82777738D01*
X69067919Y-82760003D01*
X69056568Y-82741064D01*
X69047127Y-82721104D01*
X69039688Y-82700314D01*
X69034323Y-82678895D01*
X69031083Y-82657054D01*
X69030000Y-82635000D01*
X69030000Y-82185000D01*
X69031083Y-82162946D01*
X69034323Y-82141105D01*
X69039688Y-82119686D01*
X69047127Y-82098896D01*
X69056568Y-82078936D01*
X69067919Y-82059997D01*
X69081073Y-82042262D01*
X69095901Y-82025901D01*
X69112262Y-82011073D01*
X69129997Y-81997919D01*
X69148936Y-81986568D01*
X69168896Y-81977127D01*
X69189686Y-81969688D01*
X69211105Y-81964323D01*
X69232946Y-81961083D01*
X69255000Y-81960000D01*
X69705000Y-81960000D01*
X69727054Y-81961083D01*
G37*
G36*
X68607054Y-81961083D02*
G01*
X68628895Y-81964323D01*
X68650314Y-81969688D01*
X68671104Y-81977127D01*
X68691064Y-81986568D01*
X68710003Y-81997919D01*
X68727738Y-82011073D01*
X68744099Y-82025901D01*
X68758927Y-82042262D01*
X68772081Y-82059997D01*
X68783432Y-82078936D01*
X68792873Y-82098896D01*
X68800312Y-82119686D01*
X68805677Y-82141105D01*
X68808917Y-82162946D01*
X68810000Y-82185000D01*
X68810000Y-82635000D01*
X68808917Y-82657054D01*
X68805677Y-82678895D01*
X68800312Y-82700314D01*
X68792873Y-82721104D01*
X68783432Y-82741064D01*
X68772081Y-82760003D01*
X68758927Y-82777738D01*
X68744099Y-82794099D01*
X68727738Y-82808927D01*
X68710003Y-82822081D01*
X68691064Y-82833432D01*
X68671104Y-82842873D01*
X68650314Y-82850312D01*
X68628895Y-82855677D01*
X68607054Y-82858917D01*
X68585000Y-82860000D01*
X68135000Y-82860000D01*
X68112946Y-82858917D01*
X68091105Y-82855677D01*
X68069686Y-82850312D01*
X68048896Y-82842873D01*
X68028936Y-82833432D01*
X68009997Y-82822081D01*
X67992262Y-82808927D01*
X67975901Y-82794099D01*
X67961073Y-82777738D01*
X67947919Y-82760003D01*
X67936568Y-82741064D01*
X67927127Y-82721104D01*
X67919688Y-82700314D01*
X67914323Y-82678895D01*
X67911083Y-82657054D01*
X67910000Y-82635000D01*
X67910000Y-82185000D01*
X67911083Y-82162946D01*
X67914323Y-82141105D01*
X67919688Y-82119686D01*
X67927127Y-82098896D01*
X67936568Y-82078936D01*
X67947919Y-82059997D01*
X67961073Y-82042262D01*
X67975901Y-82025901D01*
X67992262Y-82011073D01*
X68009997Y-81997919D01*
X68028936Y-81986568D01*
X68048896Y-81977127D01*
X68069686Y-81969688D01*
X68091105Y-81964323D01*
X68112946Y-81961083D01*
X68135000Y-81960000D01*
X68585000Y-81960000D01*
X68607054Y-81961083D01*
G37*
G36*
X70847054Y-83081083D02*
G01*
X70868895Y-83084323D01*
X70890314Y-83089688D01*
X70911104Y-83097127D01*
X70931064Y-83106568D01*
X70950003Y-83117919D01*
X70967738Y-83131073D01*
X70984099Y-83145901D01*
X70998927Y-83162262D01*
X71012081Y-83179997D01*
X71023432Y-83198936D01*
X71032873Y-83218896D01*
X71040312Y-83239686D01*
X71045677Y-83261105D01*
X71048917Y-83282946D01*
X71050000Y-83305000D01*
X71050000Y-83755000D01*
X71048917Y-83777054D01*
X71045677Y-83798895D01*
X71040312Y-83820314D01*
X71032873Y-83841104D01*
X71023432Y-83861064D01*
X71012081Y-83880003D01*
X70998927Y-83897738D01*
X70984099Y-83914099D01*
X70967738Y-83928927D01*
X70950003Y-83942081D01*
X70931064Y-83953432D01*
X70911104Y-83962873D01*
X70890314Y-83970312D01*
X70868895Y-83975677D01*
X70847054Y-83978917D01*
X70825000Y-83980000D01*
X70375000Y-83980000D01*
X70352946Y-83978917D01*
X70331105Y-83975677D01*
X70309686Y-83970312D01*
X70288896Y-83962873D01*
X70268936Y-83953432D01*
X70249997Y-83942081D01*
X70232262Y-83928927D01*
X70215901Y-83914099D01*
X70201073Y-83897738D01*
X70187919Y-83880003D01*
X70176568Y-83861064D01*
X70167127Y-83841104D01*
X70159688Y-83820314D01*
X70154323Y-83798895D01*
X70151083Y-83777054D01*
X70150000Y-83755000D01*
X70150000Y-83305000D01*
X70151083Y-83282946D01*
X70154323Y-83261105D01*
X70159688Y-83239686D01*
X70167127Y-83218896D01*
X70176568Y-83198936D01*
X70187919Y-83179997D01*
X70201073Y-83162262D01*
X70215901Y-83145901D01*
X70232262Y-83131073D01*
X70249997Y-83117919D01*
X70268936Y-83106568D01*
X70288896Y-83097127D01*
X70309686Y-83089688D01*
X70331105Y-83084323D01*
X70352946Y-83081083D01*
X70375000Y-83080000D01*
X70825000Y-83080000D01*
X70847054Y-83081083D01*
G37*
G36*
X69727054Y-83081083D02*
G01*
X69748895Y-83084323D01*
X69770314Y-83089688D01*
X69791104Y-83097127D01*
X69811064Y-83106568D01*
X69830003Y-83117919D01*
X69847738Y-83131073D01*
X69864099Y-83145901D01*
X69878927Y-83162262D01*
X69892081Y-83179997D01*
X69903432Y-83198936D01*
X69912873Y-83218896D01*
X69920312Y-83239686D01*
X69925677Y-83261105D01*
X69928917Y-83282946D01*
X69930000Y-83305000D01*
X69930000Y-83755000D01*
X69928917Y-83777054D01*
X69925677Y-83798895D01*
X69920312Y-83820314D01*
X69912873Y-83841104D01*
X69903432Y-83861064D01*
X69892081Y-83880003D01*
X69878927Y-83897738D01*
X69864099Y-83914099D01*
X69847738Y-83928927D01*
X69830003Y-83942081D01*
X69811064Y-83953432D01*
X69791104Y-83962873D01*
X69770314Y-83970312D01*
X69748895Y-83975677D01*
X69727054Y-83978917D01*
X69705000Y-83980000D01*
X69255000Y-83980000D01*
X69232946Y-83978917D01*
X69211105Y-83975677D01*
X69189686Y-83970312D01*
X69168896Y-83962873D01*
X69148936Y-83953432D01*
X69129997Y-83942081D01*
X69112262Y-83928927D01*
X69095901Y-83914099D01*
X69081073Y-83897738D01*
X69067919Y-83880003D01*
X69056568Y-83861064D01*
X69047127Y-83841104D01*
X69039688Y-83820314D01*
X69034323Y-83798895D01*
X69031083Y-83777054D01*
X69030000Y-83755000D01*
X69030000Y-83305000D01*
X69031083Y-83282946D01*
X69034323Y-83261105D01*
X69039688Y-83239686D01*
X69047127Y-83218896D01*
X69056568Y-83198936D01*
X69067919Y-83179997D01*
X69081073Y-83162262D01*
X69095901Y-83145901D01*
X69112262Y-83131073D01*
X69129997Y-83117919D01*
X69148936Y-83106568D01*
X69168896Y-83097127D01*
X69189686Y-83089688D01*
X69211105Y-83084323D01*
X69232946Y-83081083D01*
X69255000Y-83080000D01*
X69705000Y-83080000D01*
X69727054Y-83081083D01*
G37*
G36*
X68607054Y-83081083D02*
G01*
X68628895Y-83084323D01*
X68650314Y-83089688D01*
X68671104Y-83097127D01*
X68691064Y-83106568D01*
X68710003Y-83117919D01*
X68727738Y-83131073D01*
X68744099Y-83145901D01*
X68758927Y-83162262D01*
X68772081Y-83179997D01*
X68783432Y-83198936D01*
X68792873Y-83218896D01*
X68800312Y-83239686D01*
X68805677Y-83261105D01*
X68808917Y-83282946D01*
X68810000Y-83305000D01*
X68810000Y-83755000D01*
X68808917Y-83777054D01*
X68805677Y-83798895D01*
X68800312Y-83820314D01*
X68792873Y-83841104D01*
X68783432Y-83861064D01*
X68772081Y-83880003D01*
X68758927Y-83897738D01*
X68744099Y-83914099D01*
X68727738Y-83928927D01*
X68710003Y-83942081D01*
X68691064Y-83953432D01*
X68671104Y-83962873D01*
X68650314Y-83970312D01*
X68628895Y-83975677D01*
X68607054Y-83978917D01*
X68585000Y-83980000D01*
X68135000Y-83980000D01*
X68112946Y-83978917D01*
X68091105Y-83975677D01*
X68069686Y-83970312D01*
X68048896Y-83962873D01*
X68028936Y-83953432D01*
X68009997Y-83942081D01*
X67992262Y-83928927D01*
X67975901Y-83914099D01*
X67961073Y-83897738D01*
X67947919Y-83880003D01*
X67936568Y-83861064D01*
X67927127Y-83841104D01*
X67919688Y-83820314D01*
X67914323Y-83798895D01*
X67911083Y-83777054D01*
X67910000Y-83755000D01*
X67910000Y-83305000D01*
X67911083Y-83282946D01*
X67914323Y-83261105D01*
X67919688Y-83239686D01*
X67927127Y-83218896D01*
X67936568Y-83198936D01*
X67947919Y-83179997D01*
X67961073Y-83162262D01*
X67975901Y-83145901D01*
X67992262Y-83131073D01*
X68009997Y-83117919D01*
X68028936Y-83106568D01*
X68048896Y-83097127D01*
X68069686Y-83089688D01*
X68091105Y-83084323D01*
X68112946Y-83081083D01*
X68135000Y-83080000D01*
X68585000Y-83080000D01*
X68607054Y-83081083D01*
G37*
G36*
X70847054Y-84201083D02*
G01*
X70868895Y-84204323D01*
X70890314Y-84209688D01*
X70911104Y-84217127D01*
X70931064Y-84226568D01*
X70950003Y-84237919D01*
X70967738Y-84251073D01*
X70984099Y-84265901D01*
X70998927Y-84282262D01*
X71012081Y-84299997D01*
X71023432Y-84318936D01*
X71032873Y-84338896D01*
X71040312Y-84359686D01*
X71045677Y-84381105D01*
X71048917Y-84402946D01*
X71050000Y-84425000D01*
X71050000Y-84875000D01*
X71048917Y-84897054D01*
X71045677Y-84918895D01*
X71040312Y-84940314D01*
X71032873Y-84961104D01*
X71023432Y-84981064D01*
X71012081Y-85000003D01*
X70998927Y-85017738D01*
X70984099Y-85034099D01*
X70967738Y-85048927D01*
X70950003Y-85062081D01*
X70931064Y-85073432D01*
X70911104Y-85082873D01*
X70890314Y-85090312D01*
X70868895Y-85095677D01*
X70847054Y-85098917D01*
X70825000Y-85100000D01*
X70375000Y-85100000D01*
X70352946Y-85098917D01*
X70331105Y-85095677D01*
X70309686Y-85090312D01*
X70288896Y-85082873D01*
X70268936Y-85073432D01*
X70249997Y-85062081D01*
X70232262Y-85048927D01*
X70215901Y-85034099D01*
X70201073Y-85017738D01*
X70187919Y-85000003D01*
X70176568Y-84981064D01*
X70167127Y-84961104D01*
X70159688Y-84940314D01*
X70154323Y-84918895D01*
X70151083Y-84897054D01*
X70150000Y-84875000D01*
X70150000Y-84425000D01*
X70151083Y-84402946D01*
X70154323Y-84381105D01*
X70159688Y-84359686D01*
X70167127Y-84338896D01*
X70176568Y-84318936D01*
X70187919Y-84299997D01*
X70201073Y-84282262D01*
X70215901Y-84265901D01*
X70232262Y-84251073D01*
X70249997Y-84237919D01*
X70268936Y-84226568D01*
X70288896Y-84217127D01*
X70309686Y-84209688D01*
X70331105Y-84204323D01*
X70352946Y-84201083D01*
X70375000Y-84200000D01*
X70825000Y-84200000D01*
X70847054Y-84201083D01*
G37*
G36*
X69727054Y-84201083D02*
G01*
X69748895Y-84204323D01*
X69770314Y-84209688D01*
X69791104Y-84217127D01*
X69811064Y-84226568D01*
X69830003Y-84237919D01*
X69847738Y-84251073D01*
X69864099Y-84265901D01*
X69878927Y-84282262D01*
X69892081Y-84299997D01*
X69903432Y-84318936D01*
X69912873Y-84338896D01*
X69920312Y-84359686D01*
X69925677Y-84381105D01*
X69928917Y-84402946D01*
X69930000Y-84425000D01*
X69930000Y-84875000D01*
X69928917Y-84897054D01*
X69925677Y-84918895D01*
X69920312Y-84940314D01*
X69912873Y-84961104D01*
X69903432Y-84981064D01*
X69892081Y-85000003D01*
X69878927Y-85017738D01*
X69864099Y-85034099D01*
X69847738Y-85048927D01*
X69830003Y-85062081D01*
X69811064Y-85073432D01*
X69791104Y-85082873D01*
X69770314Y-85090312D01*
X69748895Y-85095677D01*
X69727054Y-85098917D01*
X69705000Y-85100000D01*
X69255000Y-85100000D01*
X69232946Y-85098917D01*
X69211105Y-85095677D01*
X69189686Y-85090312D01*
X69168896Y-85082873D01*
X69148936Y-85073432D01*
X69129997Y-85062081D01*
X69112262Y-85048927D01*
X69095901Y-85034099D01*
X69081073Y-85017738D01*
X69067919Y-85000003D01*
X69056568Y-84981064D01*
X69047127Y-84961104D01*
X69039688Y-84940314D01*
X69034323Y-84918895D01*
X69031083Y-84897054D01*
X69030000Y-84875000D01*
X69030000Y-84425000D01*
X69031083Y-84402946D01*
X69034323Y-84381105D01*
X69039688Y-84359686D01*
X69047127Y-84338896D01*
X69056568Y-84318936D01*
X69067919Y-84299997D01*
X69081073Y-84282262D01*
X69095901Y-84265901D01*
X69112262Y-84251073D01*
X69129997Y-84237919D01*
X69148936Y-84226568D01*
X69168896Y-84217127D01*
X69189686Y-84209688D01*
X69211105Y-84204323D01*
X69232946Y-84201083D01*
X69255000Y-84200000D01*
X69705000Y-84200000D01*
X69727054Y-84201083D01*
G37*
G36*
X68607054Y-84201083D02*
G01*
X68628895Y-84204323D01*
X68650314Y-84209688D01*
X68671104Y-84217127D01*
X68691064Y-84226568D01*
X68710003Y-84237919D01*
X68727738Y-84251073D01*
X68744099Y-84265901D01*
X68758927Y-84282262D01*
X68772081Y-84299997D01*
X68783432Y-84318936D01*
X68792873Y-84338896D01*
X68800312Y-84359686D01*
X68805677Y-84381105D01*
X68808917Y-84402946D01*
X68810000Y-84425000D01*
X68810000Y-84875000D01*
X68808917Y-84897054D01*
X68805677Y-84918895D01*
X68800312Y-84940314D01*
X68792873Y-84961104D01*
X68783432Y-84981064D01*
X68772081Y-85000003D01*
X68758927Y-85017738D01*
X68744099Y-85034099D01*
X68727738Y-85048927D01*
X68710003Y-85062081D01*
X68691064Y-85073432D01*
X68671104Y-85082873D01*
X68650314Y-85090312D01*
X68628895Y-85095677D01*
X68607054Y-85098917D01*
X68585000Y-85100000D01*
X68135000Y-85100000D01*
X68112946Y-85098917D01*
X68091105Y-85095677D01*
X68069686Y-85090312D01*
X68048896Y-85082873D01*
X68028936Y-85073432D01*
X68009997Y-85062081D01*
X67992262Y-85048927D01*
X67975901Y-85034099D01*
X67961073Y-85017738D01*
X67947919Y-85000003D01*
X67936568Y-84981064D01*
X67927127Y-84961104D01*
X67919688Y-84940314D01*
X67914323Y-84918895D01*
X67911083Y-84897054D01*
X67910000Y-84875000D01*
X67910000Y-84425000D01*
X67911083Y-84402946D01*
X67914323Y-84381105D01*
X67919688Y-84359686D01*
X67927127Y-84338896D01*
X67936568Y-84318936D01*
X67947919Y-84299997D01*
X67961073Y-84282262D01*
X67975901Y-84265901D01*
X67992262Y-84251073D01*
X68009997Y-84237919D01*
X68028936Y-84226568D01*
X68048896Y-84217127D01*
X68069686Y-84209688D01*
X68091105Y-84204323D01*
X68112946Y-84201083D01*
X68135000Y-84200000D01*
X68585000Y-84200000D01*
X68607054Y-84201083D01*
G37*
D16*
X72420000Y-45010000D03*
X72420000Y-46280000D03*
X72420000Y-47550000D03*
X72420000Y-48820000D03*
X72420000Y-50090000D03*
X72420000Y-51360000D03*
X72420000Y-52630000D03*
X72420000Y-53900000D03*
X72420000Y-55170000D03*
X72420000Y-56440000D03*
X72420000Y-57710000D03*
X72420000Y-58980000D03*
X72420000Y-60250000D03*
X72420000Y-61520000D03*
X72420000Y-62790000D03*
X72420000Y-64060000D03*
X72420000Y-65330000D03*
X72420000Y-66600000D03*
X72420000Y-67870000D03*
X55420000Y-67870000D03*
X55420000Y-66600000D03*
X55420000Y-65330000D03*
X55420000Y-64060000D03*
X55420000Y-62790000D03*
X55420000Y-61520000D03*
X55420000Y-60250000D03*
X55420000Y-58980000D03*
X55420000Y-57710000D03*
X55420000Y-56440000D03*
X55420000Y-55170000D03*
X55420000Y-53900000D03*
X55420000Y-52630000D03*
X55420000Y-51360000D03*
X55420000Y-50090000D03*
X55420000Y-48820000D03*
X55420000Y-47550000D03*
X55420000Y-46280000D03*
X55420000Y-45010000D03*
D11*
X52600000Y-99160000D03*
X52600000Y-91360000D03*
D12*
G36*
X86440779Y-71826144D02*
G01*
X86463834Y-71829563D01*
X86486443Y-71835227D01*
X86508387Y-71843079D01*
X86529457Y-71853044D01*
X86549448Y-71865026D01*
X86568168Y-71878910D01*
X86585438Y-71894562D01*
X86601090Y-71911832D01*
X86614974Y-71930552D01*
X86626956Y-71950543D01*
X86636921Y-71971613D01*
X86644773Y-71993557D01*
X86650437Y-72016166D01*
X86653856Y-72039221D01*
X86655000Y-72062500D01*
X86655000Y-72637500D01*
X86653856Y-72660779D01*
X86650437Y-72683834D01*
X86644773Y-72706443D01*
X86636921Y-72728387D01*
X86626956Y-72749457D01*
X86614974Y-72769448D01*
X86601090Y-72788168D01*
X86585438Y-72805438D01*
X86568168Y-72821090D01*
X86549448Y-72834974D01*
X86529457Y-72846956D01*
X86508387Y-72856921D01*
X86486443Y-72864773D01*
X86463834Y-72870437D01*
X86440779Y-72873856D01*
X86417500Y-72875000D01*
X85942500Y-72875000D01*
X85919221Y-72873856D01*
X85896166Y-72870437D01*
X85873557Y-72864773D01*
X85851613Y-72856921D01*
X85830543Y-72846956D01*
X85810552Y-72834974D01*
X85791832Y-72821090D01*
X85774562Y-72805438D01*
X85758910Y-72788168D01*
X85745026Y-72769448D01*
X85733044Y-72749457D01*
X85723079Y-72728387D01*
X85715227Y-72706443D01*
X85709563Y-72683834D01*
X85706144Y-72660779D01*
X85705000Y-72637500D01*
X85705000Y-72062500D01*
X85706144Y-72039221D01*
X85709563Y-72016166D01*
X85715227Y-71993557D01*
X85723079Y-71971613D01*
X85733044Y-71950543D01*
X85745026Y-71930552D01*
X85758910Y-71911832D01*
X85774562Y-71894562D01*
X85791832Y-71878910D01*
X85810552Y-71865026D01*
X85830543Y-71853044D01*
X85851613Y-71843079D01*
X85873557Y-71835227D01*
X85896166Y-71829563D01*
X85919221Y-71826144D01*
X85942500Y-71825000D01*
X86417500Y-71825000D01*
X86440779Y-71826144D01*
G37*
G36*
X86440779Y-70076144D02*
G01*
X86463834Y-70079563D01*
X86486443Y-70085227D01*
X86508387Y-70093079D01*
X86529457Y-70103044D01*
X86549448Y-70115026D01*
X86568168Y-70128910D01*
X86585438Y-70144562D01*
X86601090Y-70161832D01*
X86614974Y-70180552D01*
X86626956Y-70200543D01*
X86636921Y-70221613D01*
X86644773Y-70243557D01*
X86650437Y-70266166D01*
X86653856Y-70289221D01*
X86655000Y-70312500D01*
X86655000Y-70887500D01*
X86653856Y-70910779D01*
X86650437Y-70933834D01*
X86644773Y-70956443D01*
X86636921Y-70978387D01*
X86626956Y-70999457D01*
X86614974Y-71019448D01*
X86601090Y-71038168D01*
X86585438Y-71055438D01*
X86568168Y-71071090D01*
X86549448Y-71084974D01*
X86529457Y-71096956D01*
X86508387Y-71106921D01*
X86486443Y-71114773D01*
X86463834Y-71120437D01*
X86440779Y-71123856D01*
X86417500Y-71125000D01*
X85942500Y-71125000D01*
X85919221Y-71123856D01*
X85896166Y-71120437D01*
X85873557Y-71114773D01*
X85851613Y-71106921D01*
X85830543Y-71096956D01*
X85810552Y-71084974D01*
X85791832Y-71071090D01*
X85774562Y-71055438D01*
X85758910Y-71038168D01*
X85745026Y-71019448D01*
X85733044Y-70999457D01*
X85723079Y-70978387D01*
X85715227Y-70956443D01*
X85709563Y-70933834D01*
X85706144Y-70910779D01*
X85705000Y-70887500D01*
X85705000Y-70312500D01*
X85706144Y-70289221D01*
X85709563Y-70266166D01*
X85715227Y-70243557D01*
X85723079Y-70221613D01*
X85733044Y-70200543D01*
X85745026Y-70180552D01*
X85758910Y-70161832D01*
X85774562Y-70144562D01*
X85791832Y-70128910D01*
X85810552Y-70115026D01*
X85830543Y-70103044D01*
X85851613Y-70093079D01*
X85873557Y-70085227D01*
X85896166Y-70079563D01*
X85919221Y-70076144D01*
X85942500Y-70075000D01*
X86417500Y-70075000D01*
X86440779Y-70076144D01*
G37*
G36*
X82500779Y-67026144D02*
G01*
X82523834Y-67029563D01*
X82546443Y-67035227D01*
X82568387Y-67043079D01*
X82589457Y-67053044D01*
X82609448Y-67065026D01*
X82628168Y-67078910D01*
X82645438Y-67094562D01*
X82661090Y-67111832D01*
X82674974Y-67130552D01*
X82686956Y-67150543D01*
X82696921Y-67171613D01*
X82704773Y-67193557D01*
X82710437Y-67216166D01*
X82713856Y-67239221D01*
X82715000Y-67262500D01*
X82715000Y-67737500D01*
X82713856Y-67760779D01*
X82710437Y-67783834D01*
X82704773Y-67806443D01*
X82696921Y-67828387D01*
X82686956Y-67849457D01*
X82674974Y-67869448D01*
X82661090Y-67888168D01*
X82645438Y-67905438D01*
X82628168Y-67921090D01*
X82609448Y-67934974D01*
X82589457Y-67946956D01*
X82568387Y-67956921D01*
X82546443Y-67964773D01*
X82523834Y-67970437D01*
X82500779Y-67973856D01*
X82477500Y-67975000D01*
X81902500Y-67975000D01*
X81879221Y-67973856D01*
X81856166Y-67970437D01*
X81833557Y-67964773D01*
X81811613Y-67956921D01*
X81790543Y-67946956D01*
X81770552Y-67934974D01*
X81751832Y-67921090D01*
X81734562Y-67905438D01*
X81718910Y-67888168D01*
X81705026Y-67869448D01*
X81693044Y-67849457D01*
X81683079Y-67828387D01*
X81675227Y-67806443D01*
X81669563Y-67783834D01*
X81666144Y-67760779D01*
X81665000Y-67737500D01*
X81665000Y-67262500D01*
X81666144Y-67239221D01*
X81669563Y-67216166D01*
X81675227Y-67193557D01*
X81683079Y-67171613D01*
X81693044Y-67150543D01*
X81705026Y-67130552D01*
X81718910Y-67111832D01*
X81734562Y-67094562D01*
X81751832Y-67078910D01*
X81770552Y-67065026D01*
X81790543Y-67053044D01*
X81811613Y-67043079D01*
X81833557Y-67035227D01*
X81856166Y-67029563D01*
X81879221Y-67026144D01*
X81902500Y-67025000D01*
X82477500Y-67025000D01*
X82500779Y-67026144D01*
G37*
G36*
X84250779Y-67026144D02*
G01*
X84273834Y-67029563D01*
X84296443Y-67035227D01*
X84318387Y-67043079D01*
X84339457Y-67053044D01*
X84359448Y-67065026D01*
X84378168Y-67078910D01*
X84395438Y-67094562D01*
X84411090Y-67111832D01*
X84424974Y-67130552D01*
X84436956Y-67150543D01*
X84446921Y-67171613D01*
X84454773Y-67193557D01*
X84460437Y-67216166D01*
X84463856Y-67239221D01*
X84465000Y-67262500D01*
X84465000Y-67737500D01*
X84463856Y-67760779D01*
X84460437Y-67783834D01*
X84454773Y-67806443D01*
X84446921Y-67828387D01*
X84436956Y-67849457D01*
X84424974Y-67869448D01*
X84411090Y-67888168D01*
X84395438Y-67905438D01*
X84378168Y-67921090D01*
X84359448Y-67934974D01*
X84339457Y-67946956D01*
X84318387Y-67956921D01*
X84296443Y-67964773D01*
X84273834Y-67970437D01*
X84250779Y-67973856D01*
X84227500Y-67975000D01*
X83652500Y-67975000D01*
X83629221Y-67973856D01*
X83606166Y-67970437D01*
X83583557Y-67964773D01*
X83561613Y-67956921D01*
X83540543Y-67946956D01*
X83520552Y-67934974D01*
X83501832Y-67921090D01*
X83484562Y-67905438D01*
X83468910Y-67888168D01*
X83455026Y-67869448D01*
X83443044Y-67849457D01*
X83433079Y-67828387D01*
X83425227Y-67806443D01*
X83419563Y-67783834D01*
X83416144Y-67760779D01*
X83415000Y-67737500D01*
X83415000Y-67262500D01*
X83416144Y-67239221D01*
X83419563Y-67216166D01*
X83425227Y-67193557D01*
X83433079Y-67171613D01*
X83443044Y-67150543D01*
X83455026Y-67130552D01*
X83468910Y-67111832D01*
X83484562Y-67094562D01*
X83501832Y-67078910D01*
X83520552Y-67065026D01*
X83540543Y-67053044D01*
X83561613Y-67043079D01*
X83583557Y-67035227D01*
X83606166Y-67029563D01*
X83629221Y-67026144D01*
X83652500Y-67025000D01*
X84227500Y-67025000D01*
X84250779Y-67026144D01*
G37*
G36*
X52895779Y-89056144D02*
G01*
X52918834Y-89059563D01*
X52941443Y-89065227D01*
X52963387Y-89073079D01*
X52984457Y-89083044D01*
X53004448Y-89095026D01*
X53023168Y-89108910D01*
X53040438Y-89124562D01*
X53056090Y-89141832D01*
X53069974Y-89160552D01*
X53081956Y-89180543D01*
X53091921Y-89201613D01*
X53099773Y-89223557D01*
X53105437Y-89246166D01*
X53108856Y-89269221D01*
X53110000Y-89292500D01*
X53110000Y-89767500D01*
X53108856Y-89790779D01*
X53105437Y-89813834D01*
X53099773Y-89836443D01*
X53091921Y-89858387D01*
X53081956Y-89879457D01*
X53069974Y-89899448D01*
X53056090Y-89918168D01*
X53040438Y-89935438D01*
X53023168Y-89951090D01*
X53004448Y-89964974D01*
X52984457Y-89976956D01*
X52963387Y-89986921D01*
X52941443Y-89994773D01*
X52918834Y-90000437D01*
X52895779Y-90003856D01*
X52872500Y-90005000D01*
X52297500Y-90005000D01*
X52274221Y-90003856D01*
X52251166Y-90000437D01*
X52228557Y-89994773D01*
X52206613Y-89986921D01*
X52185543Y-89976956D01*
X52165552Y-89964974D01*
X52146832Y-89951090D01*
X52129562Y-89935438D01*
X52113910Y-89918168D01*
X52100026Y-89899448D01*
X52088044Y-89879457D01*
X52078079Y-89858387D01*
X52070227Y-89836443D01*
X52064563Y-89813834D01*
X52061144Y-89790779D01*
X52060000Y-89767500D01*
X52060000Y-89292500D01*
X52061144Y-89269221D01*
X52064563Y-89246166D01*
X52070227Y-89223557D01*
X52078079Y-89201613D01*
X52088044Y-89180543D01*
X52100026Y-89160552D01*
X52113910Y-89141832D01*
X52129562Y-89124562D01*
X52146832Y-89108910D01*
X52165552Y-89095026D01*
X52185543Y-89083044D01*
X52206613Y-89073079D01*
X52228557Y-89065227D01*
X52251166Y-89059563D01*
X52274221Y-89056144D01*
X52297500Y-89055000D01*
X52872500Y-89055000D01*
X52895779Y-89056144D01*
G37*
G36*
X54645779Y-89056144D02*
G01*
X54668834Y-89059563D01*
X54691443Y-89065227D01*
X54713387Y-89073079D01*
X54734457Y-89083044D01*
X54754448Y-89095026D01*
X54773168Y-89108910D01*
X54790438Y-89124562D01*
X54806090Y-89141832D01*
X54819974Y-89160552D01*
X54831956Y-89180543D01*
X54841921Y-89201613D01*
X54849773Y-89223557D01*
X54855437Y-89246166D01*
X54858856Y-89269221D01*
X54860000Y-89292500D01*
X54860000Y-89767500D01*
X54858856Y-89790779D01*
X54855437Y-89813834D01*
X54849773Y-89836443D01*
X54841921Y-89858387D01*
X54831956Y-89879457D01*
X54819974Y-89899448D01*
X54806090Y-89918168D01*
X54790438Y-89935438D01*
X54773168Y-89951090D01*
X54754448Y-89964974D01*
X54734457Y-89976956D01*
X54713387Y-89986921D01*
X54691443Y-89994773D01*
X54668834Y-90000437D01*
X54645779Y-90003856D01*
X54622500Y-90005000D01*
X54047500Y-90005000D01*
X54024221Y-90003856D01*
X54001166Y-90000437D01*
X53978557Y-89994773D01*
X53956613Y-89986921D01*
X53935543Y-89976956D01*
X53915552Y-89964974D01*
X53896832Y-89951090D01*
X53879562Y-89935438D01*
X53863910Y-89918168D01*
X53850026Y-89899448D01*
X53838044Y-89879457D01*
X53828079Y-89858387D01*
X53820227Y-89836443D01*
X53814563Y-89813834D01*
X53811144Y-89790779D01*
X53810000Y-89767500D01*
X53810000Y-89292500D01*
X53811144Y-89269221D01*
X53814563Y-89246166D01*
X53820227Y-89223557D01*
X53828079Y-89201613D01*
X53838044Y-89180543D01*
X53850026Y-89160552D01*
X53863910Y-89141832D01*
X53879562Y-89124562D01*
X53896832Y-89108910D01*
X53915552Y-89095026D01*
X53935543Y-89083044D01*
X53956613Y-89073079D01*
X53978557Y-89065227D01*
X54001166Y-89059563D01*
X54024221Y-89056144D01*
X54047500Y-89055000D01*
X54622500Y-89055000D01*
X54645779Y-89056144D01*
G37*
G36*
X58105779Y-89046144D02*
G01*
X58128834Y-89049563D01*
X58151443Y-89055227D01*
X58173387Y-89063079D01*
X58194457Y-89073044D01*
X58214448Y-89085026D01*
X58233168Y-89098910D01*
X58250438Y-89114562D01*
X58266090Y-89131832D01*
X58279974Y-89150552D01*
X58291956Y-89170543D01*
X58301921Y-89191613D01*
X58309773Y-89213557D01*
X58315437Y-89236166D01*
X58318856Y-89259221D01*
X58320000Y-89282500D01*
X58320000Y-89757500D01*
X58318856Y-89780779D01*
X58315437Y-89803834D01*
X58309773Y-89826443D01*
X58301921Y-89848387D01*
X58291956Y-89869457D01*
X58279974Y-89889448D01*
X58266090Y-89908168D01*
X58250438Y-89925438D01*
X58233168Y-89941090D01*
X58214448Y-89954974D01*
X58194457Y-89966956D01*
X58173387Y-89976921D01*
X58151443Y-89984773D01*
X58128834Y-89990437D01*
X58105779Y-89993856D01*
X58082500Y-89995000D01*
X57507500Y-89995000D01*
X57484221Y-89993856D01*
X57461166Y-89990437D01*
X57438557Y-89984773D01*
X57416613Y-89976921D01*
X57395543Y-89966956D01*
X57375552Y-89954974D01*
X57356832Y-89941090D01*
X57339562Y-89925438D01*
X57323910Y-89908168D01*
X57310026Y-89889448D01*
X57298044Y-89869457D01*
X57288079Y-89848387D01*
X57280227Y-89826443D01*
X57274563Y-89803834D01*
X57271144Y-89780779D01*
X57270000Y-89757500D01*
X57270000Y-89282500D01*
X57271144Y-89259221D01*
X57274563Y-89236166D01*
X57280227Y-89213557D01*
X57288079Y-89191613D01*
X57298044Y-89170543D01*
X57310026Y-89150552D01*
X57323910Y-89131832D01*
X57339562Y-89114562D01*
X57356832Y-89098910D01*
X57375552Y-89085026D01*
X57395543Y-89073044D01*
X57416613Y-89063079D01*
X57438557Y-89055227D01*
X57461166Y-89049563D01*
X57484221Y-89046144D01*
X57507500Y-89045000D01*
X58082500Y-89045000D01*
X58105779Y-89046144D01*
G37*
G36*
X56355779Y-89046144D02*
G01*
X56378834Y-89049563D01*
X56401443Y-89055227D01*
X56423387Y-89063079D01*
X56444457Y-89073044D01*
X56464448Y-89085026D01*
X56483168Y-89098910D01*
X56500438Y-89114562D01*
X56516090Y-89131832D01*
X56529974Y-89150552D01*
X56541956Y-89170543D01*
X56551921Y-89191613D01*
X56559773Y-89213557D01*
X56565437Y-89236166D01*
X56568856Y-89259221D01*
X56570000Y-89282500D01*
X56570000Y-89757500D01*
X56568856Y-89780779D01*
X56565437Y-89803834D01*
X56559773Y-89826443D01*
X56551921Y-89848387D01*
X56541956Y-89869457D01*
X56529974Y-89889448D01*
X56516090Y-89908168D01*
X56500438Y-89925438D01*
X56483168Y-89941090D01*
X56464448Y-89954974D01*
X56444457Y-89966956D01*
X56423387Y-89976921D01*
X56401443Y-89984773D01*
X56378834Y-89990437D01*
X56355779Y-89993856D01*
X56332500Y-89995000D01*
X55757500Y-89995000D01*
X55734221Y-89993856D01*
X55711166Y-89990437D01*
X55688557Y-89984773D01*
X55666613Y-89976921D01*
X55645543Y-89966956D01*
X55625552Y-89954974D01*
X55606832Y-89941090D01*
X55589562Y-89925438D01*
X55573910Y-89908168D01*
X55560026Y-89889448D01*
X55548044Y-89869457D01*
X55538079Y-89848387D01*
X55530227Y-89826443D01*
X55524563Y-89803834D01*
X55521144Y-89780779D01*
X55520000Y-89757500D01*
X55520000Y-89282500D01*
X55521144Y-89259221D01*
X55524563Y-89236166D01*
X55530227Y-89213557D01*
X55538079Y-89191613D01*
X55548044Y-89170543D01*
X55560026Y-89150552D01*
X55573910Y-89131832D01*
X55589562Y-89114562D01*
X55606832Y-89098910D01*
X55625552Y-89085026D01*
X55645543Y-89073044D01*
X55666613Y-89063079D01*
X55688557Y-89055227D01*
X55711166Y-89049563D01*
X55734221Y-89046144D01*
X55757500Y-89045000D01*
X56332500Y-89045000D01*
X56355779Y-89046144D01*
G37*
D17*
X70490000Y-94660000D03*
X69840000Y-94660000D03*
X69190000Y-94660000D03*
X68540000Y-94660000D03*
X67890000Y-94660000D03*
D12*
G36*
X50039504Y-47156204D02*
G01*
X50063773Y-47159804D01*
X50087571Y-47165765D01*
X50110671Y-47174030D01*
X50132849Y-47184520D01*
X50153893Y-47197133D01*
X50173598Y-47211747D01*
X50191777Y-47228223D01*
X50208253Y-47246402D01*
X50222867Y-47266107D01*
X50235480Y-47287151D01*
X50245970Y-47309329D01*
X50254235Y-47332429D01*
X50260196Y-47356227D01*
X50263796Y-47380496D01*
X50265000Y-47405000D01*
X50265000Y-48155000D01*
X50263796Y-48179504D01*
X50260196Y-48203773D01*
X50254235Y-48227571D01*
X50245970Y-48250671D01*
X50235480Y-48272849D01*
X50222867Y-48293893D01*
X50208253Y-48313598D01*
X50191777Y-48331777D01*
X50173598Y-48348253D01*
X50153893Y-48362867D01*
X50132849Y-48375480D01*
X50110671Y-48385970D01*
X50087571Y-48394235D01*
X50063773Y-48400196D01*
X50039504Y-48403796D01*
X50015000Y-48405000D01*
X47865000Y-48405000D01*
X47840496Y-48403796D01*
X47816227Y-48400196D01*
X47792429Y-48394235D01*
X47769329Y-48385970D01*
X47747151Y-48375480D01*
X47726107Y-48362867D01*
X47706402Y-48348253D01*
X47688223Y-48331777D01*
X47671747Y-48313598D01*
X47657133Y-48293893D01*
X47644520Y-48272849D01*
X47634030Y-48250671D01*
X47625765Y-48227571D01*
X47619804Y-48203773D01*
X47616204Y-48179504D01*
X47615000Y-48155000D01*
X47615000Y-47405000D01*
X47616204Y-47380496D01*
X47619804Y-47356227D01*
X47625765Y-47332429D01*
X47634030Y-47309329D01*
X47644520Y-47287151D01*
X47657133Y-47266107D01*
X47671747Y-47246402D01*
X47688223Y-47228223D01*
X47706402Y-47211747D01*
X47726107Y-47197133D01*
X47747151Y-47184520D01*
X47769329Y-47174030D01*
X47792429Y-47165765D01*
X47816227Y-47159804D01*
X47840496Y-47156204D01*
X47865000Y-47155000D01*
X50015000Y-47155000D01*
X50039504Y-47156204D01*
G37*
G36*
X50039504Y-44356204D02*
G01*
X50063773Y-44359804D01*
X50087571Y-44365765D01*
X50110671Y-44374030D01*
X50132849Y-44384520D01*
X50153893Y-44397133D01*
X50173598Y-44411747D01*
X50191777Y-44428223D01*
X50208253Y-44446402D01*
X50222867Y-44466107D01*
X50235480Y-44487151D01*
X50245970Y-44509329D01*
X50254235Y-44532429D01*
X50260196Y-44556227D01*
X50263796Y-44580496D01*
X50265000Y-44605000D01*
X50265000Y-45355000D01*
X50263796Y-45379504D01*
X50260196Y-45403773D01*
X50254235Y-45427571D01*
X50245970Y-45450671D01*
X50235480Y-45472849D01*
X50222867Y-45493893D01*
X50208253Y-45513598D01*
X50191777Y-45531777D01*
X50173598Y-45548253D01*
X50153893Y-45562867D01*
X50132849Y-45575480D01*
X50110671Y-45585970D01*
X50087571Y-45594235D01*
X50063773Y-45600196D01*
X50039504Y-45603796D01*
X50015000Y-45605000D01*
X47865000Y-45605000D01*
X47840496Y-45603796D01*
X47816227Y-45600196D01*
X47792429Y-45594235D01*
X47769329Y-45585970D01*
X47747151Y-45575480D01*
X47726107Y-45562867D01*
X47706402Y-45548253D01*
X47688223Y-45531777D01*
X47671747Y-45513598D01*
X47657133Y-45493893D01*
X47644520Y-45472849D01*
X47634030Y-45450671D01*
X47625765Y-45427571D01*
X47619804Y-45403773D01*
X47616204Y-45379504D01*
X47615000Y-45355000D01*
X47615000Y-44605000D01*
X47616204Y-44580496D01*
X47619804Y-44556227D01*
X47625765Y-44532429D01*
X47634030Y-44509329D01*
X47644520Y-44487151D01*
X47657133Y-44466107D01*
X47671747Y-44446402D01*
X47688223Y-44428223D01*
X47706402Y-44411747D01*
X47726107Y-44397133D01*
X47747151Y-44384520D01*
X47769329Y-44374030D01*
X47792429Y-44365765D01*
X47816227Y-44359804D01*
X47840496Y-44356204D01*
X47865000Y-44355000D01*
X50015000Y-44355000D01*
X50039504Y-44356204D01*
G37*
G36*
X46817691Y-47351053D02*
G01*
X46838926Y-47354203D01*
X46859750Y-47359419D01*
X46879962Y-47366651D01*
X46899368Y-47375830D01*
X46917781Y-47386866D01*
X46935024Y-47399654D01*
X46950930Y-47414070D01*
X46965346Y-47429976D01*
X46978134Y-47447219D01*
X46989170Y-47465632D01*
X46998349Y-47485038D01*
X47005581Y-47505250D01*
X47010797Y-47526074D01*
X47013947Y-47547309D01*
X47015000Y-47568750D01*
X47015000Y-48006250D01*
X47013947Y-48027691D01*
X47010797Y-48048926D01*
X47005581Y-48069750D01*
X46998349Y-48089962D01*
X46989170Y-48109368D01*
X46978134Y-48127781D01*
X46965346Y-48145024D01*
X46950930Y-48160930D01*
X46935024Y-48175346D01*
X46917781Y-48188134D01*
X46899368Y-48199170D01*
X46879962Y-48208349D01*
X46859750Y-48215581D01*
X46838926Y-48220797D01*
X46817691Y-48223947D01*
X46796250Y-48225000D01*
X46283750Y-48225000D01*
X46262309Y-48223947D01*
X46241074Y-48220797D01*
X46220250Y-48215581D01*
X46200038Y-48208349D01*
X46180632Y-48199170D01*
X46162219Y-48188134D01*
X46144976Y-48175346D01*
X46129070Y-48160930D01*
X46114654Y-48145024D01*
X46101866Y-48127781D01*
X46090830Y-48109368D01*
X46081651Y-48089962D01*
X46074419Y-48069750D01*
X46069203Y-48048926D01*
X46066053Y-48027691D01*
X46065000Y-48006250D01*
X46065000Y-47568750D01*
X46066053Y-47547309D01*
X46069203Y-47526074D01*
X46074419Y-47505250D01*
X46081651Y-47485038D01*
X46090830Y-47465632D01*
X46101866Y-47447219D01*
X46114654Y-47429976D01*
X46129070Y-47414070D01*
X46144976Y-47399654D01*
X46162219Y-47386866D01*
X46180632Y-47375830D01*
X46200038Y-47366651D01*
X46220250Y-47359419D01*
X46241074Y-47354203D01*
X46262309Y-47351053D01*
X46283750Y-47350000D01*
X46796250Y-47350000D01*
X46817691Y-47351053D01*
G37*
G36*
X46817691Y-45776053D02*
G01*
X46838926Y-45779203D01*
X46859750Y-45784419D01*
X46879962Y-45791651D01*
X46899368Y-45800830D01*
X46917781Y-45811866D01*
X46935024Y-45824654D01*
X46950930Y-45839070D01*
X46965346Y-45854976D01*
X46978134Y-45872219D01*
X46989170Y-45890632D01*
X46998349Y-45910038D01*
X47005581Y-45930250D01*
X47010797Y-45951074D01*
X47013947Y-45972309D01*
X47015000Y-45993750D01*
X47015000Y-46431250D01*
X47013947Y-46452691D01*
X47010797Y-46473926D01*
X47005581Y-46494750D01*
X46998349Y-46514962D01*
X46989170Y-46534368D01*
X46978134Y-46552781D01*
X46965346Y-46570024D01*
X46950930Y-46585930D01*
X46935024Y-46600346D01*
X46917781Y-46613134D01*
X46899368Y-46624170D01*
X46879962Y-46633349D01*
X46859750Y-46640581D01*
X46838926Y-46645797D01*
X46817691Y-46648947D01*
X46796250Y-46650000D01*
X46283750Y-46650000D01*
X46262309Y-46648947D01*
X46241074Y-46645797D01*
X46220250Y-46640581D01*
X46200038Y-46633349D01*
X46180632Y-46624170D01*
X46162219Y-46613134D01*
X46144976Y-46600346D01*
X46129070Y-46585930D01*
X46114654Y-46570024D01*
X46101866Y-46552781D01*
X46090830Y-46534368D01*
X46081651Y-46514962D01*
X46074419Y-46494750D01*
X46069203Y-46473926D01*
X46066053Y-46452691D01*
X46065000Y-46431250D01*
X46065000Y-45993750D01*
X46066053Y-45972309D01*
X46069203Y-45951074D01*
X46074419Y-45930250D01*
X46081651Y-45910038D01*
X46090830Y-45890632D01*
X46101866Y-45872219D01*
X46114654Y-45854976D01*
X46129070Y-45839070D01*
X46144976Y-45824654D01*
X46162219Y-45811866D01*
X46180632Y-45800830D01*
X46200038Y-45791651D01*
X46220250Y-45784419D01*
X46241074Y-45779203D01*
X46262309Y-45776053D01*
X46283750Y-45775000D01*
X46796250Y-45775000D01*
X46817691Y-45776053D01*
G37*
G36*
X48897691Y-73496053D02*
G01*
X48918926Y-73499203D01*
X48939750Y-73504419D01*
X48959962Y-73511651D01*
X48979368Y-73520830D01*
X48997781Y-73531866D01*
X49015024Y-73544654D01*
X49030930Y-73559070D01*
X49045346Y-73574976D01*
X49058134Y-73592219D01*
X49069170Y-73610632D01*
X49078349Y-73630038D01*
X49085581Y-73650250D01*
X49090797Y-73671074D01*
X49093947Y-73692309D01*
X49095000Y-73713750D01*
X49095000Y-74151250D01*
X49093947Y-74172691D01*
X49090797Y-74193926D01*
X49085581Y-74214750D01*
X49078349Y-74234962D01*
X49069170Y-74254368D01*
X49058134Y-74272781D01*
X49045346Y-74290024D01*
X49030930Y-74305930D01*
X49015024Y-74320346D01*
X48997781Y-74333134D01*
X48979368Y-74344170D01*
X48959962Y-74353349D01*
X48939750Y-74360581D01*
X48918926Y-74365797D01*
X48897691Y-74368947D01*
X48876250Y-74370000D01*
X48363750Y-74370000D01*
X48342309Y-74368947D01*
X48321074Y-74365797D01*
X48300250Y-74360581D01*
X48280038Y-74353349D01*
X48260632Y-74344170D01*
X48242219Y-74333134D01*
X48224976Y-74320346D01*
X48209070Y-74305930D01*
X48194654Y-74290024D01*
X48181866Y-74272781D01*
X48170830Y-74254368D01*
X48161651Y-74234962D01*
X48154419Y-74214750D01*
X48149203Y-74193926D01*
X48146053Y-74172691D01*
X48145000Y-74151250D01*
X48145000Y-73713750D01*
X48146053Y-73692309D01*
X48149203Y-73671074D01*
X48154419Y-73650250D01*
X48161651Y-73630038D01*
X48170830Y-73610632D01*
X48181866Y-73592219D01*
X48194654Y-73574976D01*
X48209070Y-73559070D01*
X48224976Y-73544654D01*
X48242219Y-73531866D01*
X48260632Y-73520830D01*
X48280038Y-73511651D01*
X48300250Y-73504419D01*
X48321074Y-73499203D01*
X48342309Y-73496053D01*
X48363750Y-73495000D01*
X48876250Y-73495000D01*
X48897691Y-73496053D01*
G37*
G36*
X48897691Y-75071053D02*
G01*
X48918926Y-75074203D01*
X48939750Y-75079419D01*
X48959962Y-75086651D01*
X48979368Y-75095830D01*
X48997781Y-75106866D01*
X49015024Y-75119654D01*
X49030930Y-75134070D01*
X49045346Y-75149976D01*
X49058134Y-75167219D01*
X49069170Y-75185632D01*
X49078349Y-75205038D01*
X49085581Y-75225250D01*
X49090797Y-75246074D01*
X49093947Y-75267309D01*
X49095000Y-75288750D01*
X49095000Y-75726250D01*
X49093947Y-75747691D01*
X49090797Y-75768926D01*
X49085581Y-75789750D01*
X49078349Y-75809962D01*
X49069170Y-75829368D01*
X49058134Y-75847781D01*
X49045346Y-75865024D01*
X49030930Y-75880930D01*
X49015024Y-75895346D01*
X48997781Y-75908134D01*
X48979368Y-75919170D01*
X48959962Y-75928349D01*
X48939750Y-75935581D01*
X48918926Y-75940797D01*
X48897691Y-75943947D01*
X48876250Y-75945000D01*
X48363750Y-75945000D01*
X48342309Y-75943947D01*
X48321074Y-75940797D01*
X48300250Y-75935581D01*
X48280038Y-75928349D01*
X48260632Y-75919170D01*
X48242219Y-75908134D01*
X48224976Y-75895346D01*
X48209070Y-75880930D01*
X48194654Y-75865024D01*
X48181866Y-75847781D01*
X48170830Y-75829368D01*
X48161651Y-75809962D01*
X48154419Y-75789750D01*
X48149203Y-75768926D01*
X48146053Y-75747691D01*
X48145000Y-75726250D01*
X48145000Y-75288750D01*
X48146053Y-75267309D01*
X48149203Y-75246074D01*
X48154419Y-75225250D01*
X48161651Y-75205038D01*
X48170830Y-75185632D01*
X48181866Y-75167219D01*
X48194654Y-75149976D01*
X48209070Y-75134070D01*
X48224976Y-75119654D01*
X48242219Y-75106866D01*
X48260632Y-75095830D01*
X48280038Y-75086651D01*
X48300250Y-75079419D01*
X48321074Y-75074203D01*
X48342309Y-75071053D01*
X48363750Y-75070000D01*
X48876250Y-75070000D01*
X48897691Y-75071053D01*
G37*
G36*
X59297691Y-73698553D02*
G01*
X59318926Y-73701703D01*
X59339750Y-73706919D01*
X59359962Y-73714151D01*
X59379368Y-73723330D01*
X59397781Y-73734366D01*
X59415024Y-73747154D01*
X59430930Y-73761570D01*
X59445346Y-73777476D01*
X59458134Y-73794719D01*
X59469170Y-73813132D01*
X59478349Y-73832538D01*
X59485581Y-73852750D01*
X59490797Y-73873574D01*
X59493947Y-73894809D01*
X59495000Y-73916250D01*
X59495000Y-74353750D01*
X59493947Y-74375191D01*
X59490797Y-74396426D01*
X59485581Y-74417250D01*
X59478349Y-74437462D01*
X59469170Y-74456868D01*
X59458134Y-74475281D01*
X59445346Y-74492524D01*
X59430930Y-74508430D01*
X59415024Y-74522846D01*
X59397781Y-74535634D01*
X59379368Y-74546670D01*
X59359962Y-74555849D01*
X59339750Y-74563081D01*
X59318926Y-74568297D01*
X59297691Y-74571447D01*
X59276250Y-74572500D01*
X58763750Y-74572500D01*
X58742309Y-74571447D01*
X58721074Y-74568297D01*
X58700250Y-74563081D01*
X58680038Y-74555849D01*
X58660632Y-74546670D01*
X58642219Y-74535634D01*
X58624976Y-74522846D01*
X58609070Y-74508430D01*
X58594654Y-74492524D01*
X58581866Y-74475281D01*
X58570830Y-74456868D01*
X58561651Y-74437462D01*
X58554419Y-74417250D01*
X58549203Y-74396426D01*
X58546053Y-74375191D01*
X58545000Y-74353750D01*
X58545000Y-73916250D01*
X58546053Y-73894809D01*
X58549203Y-73873574D01*
X58554419Y-73852750D01*
X58561651Y-73832538D01*
X58570830Y-73813132D01*
X58581866Y-73794719D01*
X58594654Y-73777476D01*
X58609070Y-73761570D01*
X58624976Y-73747154D01*
X58642219Y-73734366D01*
X58660632Y-73723330D01*
X58680038Y-73714151D01*
X58700250Y-73706919D01*
X58721074Y-73701703D01*
X58742309Y-73698553D01*
X58763750Y-73697500D01*
X59276250Y-73697500D01*
X59297691Y-73698553D01*
G37*
G36*
X59297691Y-72123553D02*
G01*
X59318926Y-72126703D01*
X59339750Y-72131919D01*
X59359962Y-72139151D01*
X59379368Y-72148330D01*
X59397781Y-72159366D01*
X59415024Y-72172154D01*
X59430930Y-72186570D01*
X59445346Y-72202476D01*
X59458134Y-72219719D01*
X59469170Y-72238132D01*
X59478349Y-72257538D01*
X59485581Y-72277750D01*
X59490797Y-72298574D01*
X59493947Y-72319809D01*
X59495000Y-72341250D01*
X59495000Y-72778750D01*
X59493947Y-72800191D01*
X59490797Y-72821426D01*
X59485581Y-72842250D01*
X59478349Y-72862462D01*
X59469170Y-72881868D01*
X59458134Y-72900281D01*
X59445346Y-72917524D01*
X59430930Y-72933430D01*
X59415024Y-72947846D01*
X59397781Y-72960634D01*
X59379368Y-72971670D01*
X59359962Y-72980849D01*
X59339750Y-72988081D01*
X59318926Y-72993297D01*
X59297691Y-72996447D01*
X59276250Y-72997500D01*
X58763750Y-72997500D01*
X58742309Y-72996447D01*
X58721074Y-72993297D01*
X58700250Y-72988081D01*
X58680038Y-72980849D01*
X58660632Y-72971670D01*
X58642219Y-72960634D01*
X58624976Y-72947846D01*
X58609070Y-72933430D01*
X58594654Y-72917524D01*
X58581866Y-72900281D01*
X58570830Y-72881868D01*
X58561651Y-72862462D01*
X58554419Y-72842250D01*
X58549203Y-72821426D01*
X58546053Y-72800191D01*
X58545000Y-72778750D01*
X58545000Y-72341250D01*
X58546053Y-72319809D01*
X58549203Y-72298574D01*
X58554419Y-72277750D01*
X58561651Y-72257538D01*
X58570830Y-72238132D01*
X58581866Y-72219719D01*
X58594654Y-72202476D01*
X58609070Y-72186570D01*
X58624976Y-72172154D01*
X58642219Y-72159366D01*
X58660632Y-72148330D01*
X58680038Y-72139151D01*
X58700250Y-72131919D01*
X58721074Y-72126703D01*
X58742309Y-72123553D01*
X58763750Y-72122500D01*
X59276250Y-72122500D01*
X59297691Y-72123553D01*
G37*
G36*
X49705191Y-89056053D02*
G01*
X49726426Y-89059203D01*
X49747250Y-89064419D01*
X49767462Y-89071651D01*
X49786868Y-89080830D01*
X49805281Y-89091866D01*
X49822524Y-89104654D01*
X49838430Y-89119070D01*
X49852846Y-89134976D01*
X49865634Y-89152219D01*
X49876670Y-89170632D01*
X49885849Y-89190038D01*
X49893081Y-89210250D01*
X49898297Y-89231074D01*
X49901447Y-89252309D01*
X49902500Y-89273750D01*
X49902500Y-89786250D01*
X49901447Y-89807691D01*
X49898297Y-89828926D01*
X49893081Y-89849750D01*
X49885849Y-89869962D01*
X49876670Y-89889368D01*
X49865634Y-89907781D01*
X49852846Y-89925024D01*
X49838430Y-89940930D01*
X49822524Y-89955346D01*
X49805281Y-89968134D01*
X49786868Y-89979170D01*
X49767462Y-89988349D01*
X49747250Y-89995581D01*
X49726426Y-90000797D01*
X49705191Y-90003947D01*
X49683750Y-90005000D01*
X49246250Y-90005000D01*
X49224809Y-90003947D01*
X49203574Y-90000797D01*
X49182750Y-89995581D01*
X49162538Y-89988349D01*
X49143132Y-89979170D01*
X49124719Y-89968134D01*
X49107476Y-89955346D01*
X49091570Y-89940930D01*
X49077154Y-89925024D01*
X49064366Y-89907781D01*
X49053330Y-89889368D01*
X49044151Y-89869962D01*
X49036919Y-89849750D01*
X49031703Y-89828926D01*
X49028553Y-89807691D01*
X49027500Y-89786250D01*
X49027500Y-89273750D01*
X49028553Y-89252309D01*
X49031703Y-89231074D01*
X49036919Y-89210250D01*
X49044151Y-89190038D01*
X49053330Y-89170632D01*
X49064366Y-89152219D01*
X49077154Y-89134976D01*
X49091570Y-89119070D01*
X49107476Y-89104654D01*
X49124719Y-89091866D01*
X49143132Y-89080830D01*
X49162538Y-89071651D01*
X49182750Y-89064419D01*
X49203574Y-89059203D01*
X49224809Y-89056053D01*
X49246250Y-89055000D01*
X49683750Y-89055000D01*
X49705191Y-89056053D01*
G37*
G36*
X51280191Y-89056053D02*
G01*
X51301426Y-89059203D01*
X51322250Y-89064419D01*
X51342462Y-89071651D01*
X51361868Y-89080830D01*
X51380281Y-89091866D01*
X51397524Y-89104654D01*
X51413430Y-89119070D01*
X51427846Y-89134976D01*
X51440634Y-89152219D01*
X51451670Y-89170632D01*
X51460849Y-89190038D01*
X51468081Y-89210250D01*
X51473297Y-89231074D01*
X51476447Y-89252309D01*
X51477500Y-89273750D01*
X51477500Y-89786250D01*
X51476447Y-89807691D01*
X51473297Y-89828926D01*
X51468081Y-89849750D01*
X51460849Y-89869962D01*
X51451670Y-89889368D01*
X51440634Y-89907781D01*
X51427846Y-89925024D01*
X51413430Y-89940930D01*
X51397524Y-89955346D01*
X51380281Y-89968134D01*
X51361868Y-89979170D01*
X51342462Y-89988349D01*
X51322250Y-89995581D01*
X51301426Y-90000797D01*
X51280191Y-90003947D01*
X51258750Y-90005000D01*
X50821250Y-90005000D01*
X50799809Y-90003947D01*
X50778574Y-90000797D01*
X50757750Y-89995581D01*
X50737538Y-89988349D01*
X50718132Y-89979170D01*
X50699719Y-89968134D01*
X50682476Y-89955346D01*
X50666570Y-89940930D01*
X50652154Y-89925024D01*
X50639366Y-89907781D01*
X50628330Y-89889368D01*
X50619151Y-89869962D01*
X50611919Y-89849750D01*
X50606703Y-89828926D01*
X50603553Y-89807691D01*
X50602500Y-89786250D01*
X50602500Y-89273750D01*
X50603553Y-89252309D01*
X50606703Y-89231074D01*
X50611919Y-89210250D01*
X50619151Y-89190038D01*
X50628330Y-89170632D01*
X50639366Y-89152219D01*
X50652154Y-89134976D01*
X50666570Y-89119070D01*
X50682476Y-89104654D01*
X50699719Y-89091866D01*
X50718132Y-89080830D01*
X50737538Y-89071651D01*
X50757750Y-89064419D01*
X50778574Y-89059203D01*
X50799809Y-89056053D01*
X50821250Y-89055000D01*
X51258750Y-89055000D01*
X51280191Y-89056053D01*
G37*
G36*
X61145191Y-89056053D02*
G01*
X61166426Y-89059203D01*
X61187250Y-89064419D01*
X61207462Y-89071651D01*
X61226868Y-89080830D01*
X61245281Y-89091866D01*
X61262524Y-89104654D01*
X61278430Y-89119070D01*
X61292846Y-89134976D01*
X61305634Y-89152219D01*
X61316670Y-89170632D01*
X61325849Y-89190038D01*
X61333081Y-89210250D01*
X61338297Y-89231074D01*
X61341447Y-89252309D01*
X61342500Y-89273750D01*
X61342500Y-89786250D01*
X61341447Y-89807691D01*
X61338297Y-89828926D01*
X61333081Y-89849750D01*
X61325849Y-89869962D01*
X61316670Y-89889368D01*
X61305634Y-89907781D01*
X61292846Y-89925024D01*
X61278430Y-89940930D01*
X61262524Y-89955346D01*
X61245281Y-89968134D01*
X61226868Y-89979170D01*
X61207462Y-89988349D01*
X61187250Y-89995581D01*
X61166426Y-90000797D01*
X61145191Y-90003947D01*
X61123750Y-90005000D01*
X60686250Y-90005000D01*
X60664809Y-90003947D01*
X60643574Y-90000797D01*
X60622750Y-89995581D01*
X60602538Y-89988349D01*
X60583132Y-89979170D01*
X60564719Y-89968134D01*
X60547476Y-89955346D01*
X60531570Y-89940930D01*
X60517154Y-89925024D01*
X60504366Y-89907781D01*
X60493330Y-89889368D01*
X60484151Y-89869962D01*
X60476919Y-89849750D01*
X60471703Y-89828926D01*
X60468553Y-89807691D01*
X60467500Y-89786250D01*
X60467500Y-89273750D01*
X60468553Y-89252309D01*
X60471703Y-89231074D01*
X60476919Y-89210250D01*
X60484151Y-89190038D01*
X60493330Y-89170632D01*
X60504366Y-89152219D01*
X60517154Y-89134976D01*
X60531570Y-89119070D01*
X60547476Y-89104654D01*
X60564719Y-89091866D01*
X60583132Y-89080830D01*
X60602538Y-89071651D01*
X60622750Y-89064419D01*
X60643574Y-89059203D01*
X60664809Y-89056053D01*
X60686250Y-89055000D01*
X61123750Y-89055000D01*
X61145191Y-89056053D01*
G37*
G36*
X59570191Y-89056053D02*
G01*
X59591426Y-89059203D01*
X59612250Y-89064419D01*
X59632462Y-89071651D01*
X59651868Y-89080830D01*
X59670281Y-89091866D01*
X59687524Y-89104654D01*
X59703430Y-89119070D01*
X59717846Y-89134976D01*
X59730634Y-89152219D01*
X59741670Y-89170632D01*
X59750849Y-89190038D01*
X59758081Y-89210250D01*
X59763297Y-89231074D01*
X59766447Y-89252309D01*
X59767500Y-89273750D01*
X59767500Y-89786250D01*
X59766447Y-89807691D01*
X59763297Y-89828926D01*
X59758081Y-89849750D01*
X59750849Y-89869962D01*
X59741670Y-89889368D01*
X59730634Y-89907781D01*
X59717846Y-89925024D01*
X59703430Y-89940930D01*
X59687524Y-89955346D01*
X59670281Y-89968134D01*
X59651868Y-89979170D01*
X59632462Y-89988349D01*
X59612250Y-89995581D01*
X59591426Y-90000797D01*
X59570191Y-90003947D01*
X59548750Y-90005000D01*
X59111250Y-90005000D01*
X59089809Y-90003947D01*
X59068574Y-90000797D01*
X59047750Y-89995581D01*
X59027538Y-89988349D01*
X59008132Y-89979170D01*
X58989719Y-89968134D01*
X58972476Y-89955346D01*
X58956570Y-89940930D01*
X58942154Y-89925024D01*
X58929366Y-89907781D01*
X58918330Y-89889368D01*
X58909151Y-89869962D01*
X58901919Y-89849750D01*
X58896703Y-89828926D01*
X58893553Y-89807691D01*
X58892500Y-89786250D01*
X58892500Y-89273750D01*
X58893553Y-89252309D01*
X58896703Y-89231074D01*
X58901919Y-89210250D01*
X58909151Y-89190038D01*
X58918330Y-89170632D01*
X58929366Y-89152219D01*
X58942154Y-89134976D01*
X58956570Y-89119070D01*
X58972476Y-89104654D01*
X58989719Y-89091866D01*
X59008132Y-89080830D01*
X59027538Y-89071651D01*
X59047750Y-89064419D01*
X59068574Y-89059203D01*
X59089809Y-89056053D01*
X59111250Y-89055000D01*
X59548750Y-89055000D01*
X59570191Y-89056053D01*
G37*
M02*
