G04 #@! TF.GenerationSoftware,KiCad,Pcbnew,5.1.5+dfsg1-2build2*
G04 #@! TF.CreationDate,2020-06-17T17:16:25+07:00*
G04 #@! TF.ProjectId,wrover_the_thesis,77726f76-6572-45f7-9468-655f74686573,rev?*
G04 #@! TF.SameCoordinates,Original*
G04 #@! TF.FileFunction,Copper,L2,Bot*
G04 #@! TF.FilePolarity,Positive*
%FSLAX46Y46*%
G04 Gerber Fmt 4.6, Leading zero omitted, Abs format (unit mm)*
G04 Created by KiCad (PCBNEW 5.1.5+dfsg1-2build2) date 2020-06-17 17:16:25*
%MOMM*%
%LPD*%
G04 APERTURE LIST*
%ADD10O,1.700000X1.700000*%
%ADD11R,1.700000X1.700000*%
%ADD12O,1.150000X1.800000*%
%ADD13O,1.450000X2.000000*%
%ADD14C,0.800000*%
%ADD15C,0.250000*%
%ADD16C,1.000000*%
%ADD17C,1.500000*%
%ADD18C,0.254000*%
G04 APERTURE END LIST*
D10*
X42820000Y-71620000D03*
X42820000Y-74160000D03*
X42820000Y-76700000D03*
X42820000Y-79240000D03*
D11*
X42820000Y-81780000D03*
D10*
X90010000Y-64290000D03*
X90010000Y-61750000D03*
X90010000Y-59210000D03*
X90010000Y-56670000D03*
X90010000Y-54130000D03*
X90010000Y-51590000D03*
X90010000Y-49050000D03*
D11*
X90010000Y-46510000D03*
D10*
X86370000Y-64290000D03*
X86370000Y-61750000D03*
X86370000Y-59210000D03*
X86370000Y-56670000D03*
X86370000Y-54130000D03*
X86370000Y-51590000D03*
X86370000Y-49050000D03*
D11*
X86370000Y-46510000D03*
D10*
X81530000Y-64240000D03*
X81530000Y-61700000D03*
X81530000Y-59160000D03*
X81530000Y-56620000D03*
X81530000Y-54080000D03*
X81530000Y-51540000D03*
X81530000Y-49000000D03*
D11*
X81530000Y-46460000D03*
D10*
X77900000Y-64250000D03*
X77900000Y-61710000D03*
X77900000Y-59170000D03*
X77900000Y-56630000D03*
X77900000Y-54090000D03*
X77900000Y-51550000D03*
X77900000Y-49010000D03*
D11*
X77900000Y-46470000D03*
D10*
X46470000Y-94470000D03*
X46470000Y-91930000D03*
X46470000Y-89390000D03*
D11*
X46470000Y-86850000D03*
D10*
X86150000Y-82380000D03*
X86150000Y-84920000D03*
X86150000Y-87460000D03*
D11*
X86150000Y-90000000D03*
D10*
X42850000Y-94470000D03*
X42850000Y-91930000D03*
X42850000Y-89390000D03*
D11*
X42850000Y-86850000D03*
D10*
X89880000Y-82360000D03*
X89880000Y-84900000D03*
X89880000Y-87440000D03*
D11*
X89880000Y-89980000D03*
D10*
X89920000Y-75530000D03*
D11*
X89920000Y-78070000D03*
D10*
X42820000Y-67180000D03*
D11*
X42820000Y-64640000D03*
D10*
X89950000Y-71190000D03*
D11*
X89950000Y-68650000D03*
D10*
X42810000Y-59740000D03*
X42810000Y-57200000D03*
X42810000Y-54660000D03*
X42810000Y-52120000D03*
X42810000Y-49580000D03*
D11*
X42810000Y-47040000D03*
D12*
X73065000Y-98510000D03*
X65315000Y-98510000D03*
D13*
X72915000Y-94710000D03*
X65465000Y-94710000D03*
D14*
X64220000Y-54340000D03*
X63190000Y-54330000D03*
X62120000Y-54320000D03*
X61020000Y-54300000D03*
X61000000Y-53330000D03*
X60980000Y-52380000D03*
X60980000Y-51430000D03*
X60960000Y-50520000D03*
X75370000Y-52250000D03*
X75380000Y-53220000D03*
X75420000Y-54240000D03*
X75370000Y-50490000D03*
X75370000Y-49470000D03*
X75370000Y-48400000D03*
X83860000Y-45460000D03*
X83860000Y-46490000D03*
X83860000Y-47560000D03*
X83940000Y-64650000D03*
X83940000Y-63540000D03*
X83960000Y-62420000D03*
X59170000Y-81880000D03*
X79720000Y-46080000D03*
X79720000Y-47170000D03*
X79690000Y-64600000D03*
X79690000Y-63540000D03*
X74370000Y-58440000D03*
X74370000Y-59490000D03*
X49870000Y-61080000D03*
X50720000Y-60260000D03*
X49020000Y-61920000D03*
X74590000Y-46480000D03*
X75390000Y-45610000D03*
X69860000Y-52990000D03*
X69880000Y-53920000D03*
X70770000Y-53000000D03*
X70800000Y-53910000D03*
X69620000Y-60570000D03*
X70690000Y-60520000D03*
X70680000Y-59500000D03*
X69580000Y-59500000D03*
X74310000Y-44570000D03*
X51110000Y-44500000D03*
X53660000Y-44510000D03*
X52430000Y-44490000D03*
X41490000Y-44470000D03*
X42500000Y-44470000D03*
X43520000Y-44470000D03*
X44480000Y-44490000D03*
X45420000Y-44500000D03*
X46420000Y-44500000D03*
X70650000Y-69180000D03*
X71860000Y-69210000D03*
X73230000Y-69220000D03*
X74420000Y-62170000D03*
X74420000Y-63370000D03*
X67170000Y-74960000D03*
X62950000Y-79390000D03*
X63780000Y-78530000D03*
X64680000Y-77730000D03*
X57340000Y-83150000D03*
X57310000Y-84060000D03*
X58280000Y-84550000D03*
X58620000Y-88230000D03*
X58620000Y-87140000D03*
X49410000Y-55980000D03*
X49460000Y-56980000D03*
X49500000Y-57920000D03*
X50490000Y-55970000D03*
X50550000Y-56990000D03*
X51580000Y-56000000D03*
X45730000Y-58210000D03*
X46690000Y-58220000D03*
X46690000Y-57130000D03*
X76770000Y-66740000D03*
X77670000Y-67710000D03*
X57710000Y-44560000D03*
X58920000Y-44550000D03*
X60130000Y-44550000D03*
X61410000Y-44520000D03*
X62600000Y-44550000D03*
X63810000Y-44550000D03*
X65090000Y-44530000D03*
X66430000Y-44530000D03*
X67590000Y-44560000D03*
X68830000Y-44540000D03*
X70010000Y-44540000D03*
X55990000Y-83180000D03*
X69894990Y-74245010D03*
X56620000Y-90630000D03*
X73130000Y-85520000D03*
X73130000Y-86670000D03*
X65060000Y-72790000D03*
X64020000Y-72790000D03*
X63410000Y-90310000D03*
X64460000Y-90280000D03*
X64490000Y-91560000D03*
X63390000Y-91570000D03*
X65520000Y-90280000D03*
X65520000Y-91550000D03*
X53240000Y-46230000D03*
X53280000Y-47660000D03*
X51670000Y-46280000D03*
X51660000Y-47680000D03*
X51710000Y-70490000D03*
X50640000Y-70480000D03*
X50660000Y-69230000D03*
X71970000Y-70530000D03*
X70720000Y-70530000D03*
X76320000Y-70530000D03*
X70520000Y-87590000D03*
X68540000Y-90140000D03*
X65910000Y-82620000D03*
X63885000Y-80595000D03*
D15*
X69894990Y-74810695D02*
X68730684Y-75975001D01*
X69894990Y-74245010D02*
X69894990Y-74810695D01*
X55990000Y-83745685D02*
X56620000Y-84375685D01*
X55990000Y-83180000D02*
X55990000Y-83745685D01*
X56620000Y-84375685D02*
X56620000Y-90630000D01*
X56620000Y-90630000D02*
X56620000Y-90630000D01*
X62629314Y-75975001D02*
X68730684Y-75975001D01*
X55990000Y-82614315D02*
X62629314Y-75975001D01*
X55990000Y-83180000D02*
X55990000Y-82614315D01*
D16*
X73130000Y-86000000D02*
X73130000Y-85520000D01*
X73130000Y-85520000D02*
X73130000Y-85240000D01*
X73130000Y-86670000D02*
X73130000Y-86000000D01*
D17*
X79589708Y-72790000D02*
X64020000Y-72790000D01*
X86150000Y-79350292D02*
X79589708Y-72790000D01*
X86150000Y-82380000D02*
X86150000Y-79350292D01*
D16*
X73130000Y-89890000D02*
X73130000Y-85520000D01*
D17*
X84600000Y-91550000D02*
X86150000Y-90000000D01*
X63660000Y-91550000D02*
X75440000Y-91550000D01*
X75440000Y-91550000D02*
X76830000Y-91550000D01*
X76830000Y-91550000D02*
X78280000Y-91550000D01*
X78280000Y-91550000D02*
X84600000Y-91550000D01*
D16*
X74790000Y-91550000D02*
X73130000Y-89890000D01*
X75440000Y-91550000D02*
X74790000Y-91550000D01*
D17*
X63660000Y-91550000D02*
X63660000Y-90430000D01*
X63660000Y-90430000D02*
X65850000Y-90430000D01*
X66970000Y-91550000D02*
X78280000Y-91550000D01*
X65850000Y-90430000D02*
X66970000Y-91550000D01*
X86150000Y-82380000D02*
X86150000Y-90000000D01*
D16*
X66150000Y-70530000D02*
X70720000Y-70530000D01*
X66150000Y-70530000D02*
X52020000Y-70530000D01*
X47919999Y-66429999D02*
X47919999Y-51190001D01*
X52020000Y-70530000D02*
X47919999Y-66429999D01*
X47919999Y-51190001D02*
X51430000Y-47680000D01*
X51430000Y-47680000D02*
X51660000Y-47680000D01*
X53280000Y-47660000D02*
X53280000Y-47660000D01*
X52020000Y-70530000D02*
X51720000Y-70530000D01*
X51720000Y-70530000D02*
X50490000Y-70530000D01*
X73570000Y-70530000D02*
X76320000Y-70530000D01*
X72510000Y-70530000D02*
X73570000Y-70530000D01*
X70720000Y-70530000D02*
X72510000Y-70530000D01*
D17*
X42850000Y-86850000D02*
X42850000Y-94470000D01*
D16*
X50490000Y-70530000D02*
X50490000Y-69430000D01*
X50660000Y-69795685D02*
X50660000Y-69230000D01*
X42850000Y-85000000D02*
X42850000Y-86850000D01*
X47919999Y-79930001D02*
X42850000Y-85000000D01*
X47919999Y-66429999D02*
X47919999Y-79930001D01*
D17*
X53260000Y-47680000D02*
X53280000Y-47660000D01*
X51660000Y-47680000D02*
X53260000Y-47680000D01*
X53280000Y-46270000D02*
X53240000Y-46230000D01*
X53280000Y-47660000D02*
X53280000Y-46270000D01*
X51720000Y-46230000D02*
X51670000Y-46280000D01*
X53240000Y-46230000D02*
X51720000Y-46230000D01*
X51670000Y-47670000D02*
X51660000Y-47680000D01*
X51670000Y-46280000D02*
X51670000Y-47670000D01*
D15*
X68540000Y-89570000D02*
X70520000Y-87590000D01*
X68540000Y-90140000D02*
X68540000Y-89570000D01*
X64284999Y-80195001D02*
X65125001Y-80195001D01*
X63885000Y-80595000D02*
X64284999Y-80195001D01*
X65910000Y-80980000D02*
X65910000Y-82620000D01*
X65125001Y-80195001D02*
X65910000Y-80980000D01*
D18*
G36*
X91678000Y-100588000D02*
G01*
X41022000Y-100588000D01*
X41022000Y-97836115D01*
X43766051Y-97836115D01*
X43766051Y-98163885D01*
X43829996Y-98485356D01*
X43955428Y-98788175D01*
X44137527Y-99060706D01*
X44369294Y-99292473D01*
X44641825Y-99474572D01*
X44944644Y-99600004D01*
X45266115Y-99663949D01*
X45593885Y-99663949D01*
X45915356Y-99600004D01*
X46218175Y-99474572D01*
X46490706Y-99292473D01*
X46722473Y-99060706D01*
X46904572Y-98788175D01*
X47030004Y-98485356D01*
X47093949Y-98163885D01*
X47093949Y-98140694D01*
X64413000Y-98140694D01*
X64413000Y-98879307D01*
X64426052Y-99011823D01*
X64477630Y-99181850D01*
X64561387Y-99338549D01*
X64674105Y-99475896D01*
X64811452Y-99588614D01*
X64968151Y-99672371D01*
X65138178Y-99723948D01*
X65315000Y-99741364D01*
X65491823Y-99723948D01*
X65661850Y-99672371D01*
X65818549Y-99588614D01*
X65955896Y-99475896D01*
X66068614Y-99338549D01*
X66152371Y-99181850D01*
X66203948Y-99011823D01*
X66217000Y-98879307D01*
X66217000Y-98140694D01*
X72163000Y-98140694D01*
X72163000Y-98879307D01*
X72176052Y-99011823D01*
X72227630Y-99181850D01*
X72311387Y-99338549D01*
X72424105Y-99475896D01*
X72561452Y-99588614D01*
X72718151Y-99672371D01*
X72888178Y-99723948D01*
X73065000Y-99741364D01*
X73241823Y-99723948D01*
X73411850Y-99672371D01*
X73568549Y-99588614D01*
X73705896Y-99475896D01*
X73818614Y-99338549D01*
X73902371Y-99181850D01*
X73953948Y-99011823D01*
X73967000Y-98879307D01*
X73967000Y-98140693D01*
X73953948Y-98008177D01*
X73902371Y-97838150D01*
X73901284Y-97836115D01*
X85606051Y-97836115D01*
X85606051Y-98163885D01*
X85669996Y-98485356D01*
X85795428Y-98788175D01*
X85977527Y-99060706D01*
X86209294Y-99292473D01*
X86481825Y-99474572D01*
X86784644Y-99600004D01*
X87106115Y-99663949D01*
X87433885Y-99663949D01*
X87755356Y-99600004D01*
X88058175Y-99474572D01*
X88330706Y-99292473D01*
X88562473Y-99060706D01*
X88744572Y-98788175D01*
X88870004Y-98485356D01*
X88933949Y-98163885D01*
X88933949Y-97836115D01*
X88870004Y-97514644D01*
X88744572Y-97211825D01*
X88562473Y-96939294D01*
X88330706Y-96707527D01*
X88058175Y-96525428D01*
X87755356Y-96399996D01*
X87433885Y-96336051D01*
X87106115Y-96336051D01*
X86784644Y-96399996D01*
X86481825Y-96525428D01*
X86209294Y-96707527D01*
X85977527Y-96939294D01*
X85795428Y-97211825D01*
X85669996Y-97514644D01*
X85606051Y-97836115D01*
X73901284Y-97836115D01*
X73818614Y-97681451D01*
X73705896Y-97544104D01*
X73568548Y-97431386D01*
X73411849Y-97347629D01*
X73241822Y-97296052D01*
X73065000Y-97278636D01*
X72888177Y-97296052D01*
X72718150Y-97347629D01*
X72561451Y-97431386D01*
X72424104Y-97544104D01*
X72311386Y-97681452D01*
X72227629Y-97838151D01*
X72176052Y-98008178D01*
X72163000Y-98140694D01*
X66217000Y-98140694D01*
X66217000Y-98140693D01*
X66203948Y-98008177D01*
X66152371Y-97838150D01*
X66068614Y-97681451D01*
X65955896Y-97544104D01*
X65818548Y-97431386D01*
X65661849Y-97347629D01*
X65491822Y-97296052D01*
X65315000Y-97278636D01*
X65138177Y-97296052D01*
X64968150Y-97347629D01*
X64811451Y-97431386D01*
X64674104Y-97544104D01*
X64561386Y-97681452D01*
X64477629Y-97838151D01*
X64426052Y-98008178D01*
X64413000Y-98140694D01*
X47093949Y-98140694D01*
X47093949Y-97836115D01*
X47030004Y-97514644D01*
X46904572Y-97211825D01*
X46722473Y-96939294D01*
X46490706Y-96707527D01*
X46218175Y-96525428D01*
X45915356Y-96399996D01*
X45593885Y-96336051D01*
X45266115Y-96336051D01*
X44944644Y-96399996D01*
X44641825Y-96525428D01*
X44369294Y-96707527D01*
X44137527Y-96939294D01*
X43955428Y-97211825D01*
X43829996Y-97514644D01*
X43766051Y-97836115D01*
X41022000Y-97836115D01*
X41022000Y-79124076D01*
X41643000Y-79124076D01*
X41643000Y-79355924D01*
X41688231Y-79583318D01*
X41776956Y-79797519D01*
X41905764Y-79990294D01*
X42069706Y-80154236D01*
X42262481Y-80283044D01*
X42476682Y-80371769D01*
X42704076Y-80417000D01*
X42935924Y-80417000D01*
X43163318Y-80371769D01*
X43377519Y-80283044D01*
X43570294Y-80154236D01*
X43734236Y-79990294D01*
X43863044Y-79797519D01*
X43951769Y-79583318D01*
X43997000Y-79355924D01*
X43997000Y-79124076D01*
X43951769Y-78896682D01*
X43863044Y-78682481D01*
X43734236Y-78489706D01*
X43570294Y-78325764D01*
X43377519Y-78196956D01*
X43163318Y-78108231D01*
X42935924Y-78063000D01*
X42704076Y-78063000D01*
X42476682Y-78108231D01*
X42262481Y-78196956D01*
X42069706Y-78325764D01*
X41905764Y-78489706D01*
X41776956Y-78682481D01*
X41688231Y-78896682D01*
X41643000Y-79124076D01*
X41022000Y-79124076D01*
X41022000Y-76584076D01*
X41643000Y-76584076D01*
X41643000Y-76815924D01*
X41688231Y-77043318D01*
X41776956Y-77257519D01*
X41905764Y-77450294D01*
X42069706Y-77614236D01*
X42262481Y-77743044D01*
X42476682Y-77831769D01*
X42704076Y-77877000D01*
X42935924Y-77877000D01*
X43163318Y-77831769D01*
X43377519Y-77743044D01*
X43570294Y-77614236D01*
X43734236Y-77450294D01*
X43863044Y-77257519D01*
X43951769Y-77043318D01*
X43997000Y-76815924D01*
X43997000Y-76584076D01*
X43951769Y-76356682D01*
X43863044Y-76142481D01*
X43734236Y-75949706D01*
X43570294Y-75785764D01*
X43377519Y-75656956D01*
X43163318Y-75568231D01*
X42935924Y-75523000D01*
X42704076Y-75523000D01*
X42476682Y-75568231D01*
X42262481Y-75656956D01*
X42069706Y-75785764D01*
X41905764Y-75949706D01*
X41776956Y-76142481D01*
X41688231Y-76356682D01*
X41643000Y-76584076D01*
X41022000Y-76584076D01*
X41022000Y-74044076D01*
X41643000Y-74044076D01*
X41643000Y-74275924D01*
X41688231Y-74503318D01*
X41776956Y-74717519D01*
X41905764Y-74910294D01*
X42069706Y-75074236D01*
X42262481Y-75203044D01*
X42476682Y-75291769D01*
X42704076Y-75337000D01*
X42935924Y-75337000D01*
X43163318Y-75291769D01*
X43377519Y-75203044D01*
X43570294Y-75074236D01*
X43734236Y-74910294D01*
X43863044Y-74717519D01*
X43951769Y-74503318D01*
X43997000Y-74275924D01*
X43997000Y-74044076D01*
X43951769Y-73816682D01*
X43863044Y-73602481D01*
X43734236Y-73409706D01*
X43570294Y-73245764D01*
X43377519Y-73116956D01*
X43163318Y-73028231D01*
X42935924Y-72983000D01*
X42704076Y-72983000D01*
X42476682Y-73028231D01*
X42262481Y-73116956D01*
X42069706Y-73245764D01*
X41905764Y-73409706D01*
X41776956Y-73602481D01*
X41688231Y-73816682D01*
X41643000Y-74044076D01*
X41022000Y-74044076D01*
X41022000Y-71504076D01*
X41643000Y-71504076D01*
X41643000Y-71735924D01*
X41688231Y-71963318D01*
X41776956Y-72177519D01*
X41905764Y-72370294D01*
X42069706Y-72534236D01*
X42262481Y-72663044D01*
X42476682Y-72751769D01*
X42704076Y-72797000D01*
X42935924Y-72797000D01*
X43163318Y-72751769D01*
X43377519Y-72663044D01*
X43570294Y-72534236D01*
X43734236Y-72370294D01*
X43863044Y-72177519D01*
X43951769Y-71963318D01*
X43997000Y-71735924D01*
X43997000Y-71504076D01*
X43951769Y-71276682D01*
X43863044Y-71062481D01*
X43734236Y-70869706D01*
X43570294Y-70705764D01*
X43377519Y-70576956D01*
X43163318Y-70488231D01*
X42935924Y-70443000D01*
X42704076Y-70443000D01*
X42476682Y-70488231D01*
X42262481Y-70576956D01*
X42069706Y-70705764D01*
X41905764Y-70869706D01*
X41776956Y-71062481D01*
X41688231Y-71276682D01*
X41643000Y-71504076D01*
X41022000Y-71504076D01*
X41022000Y-67064076D01*
X41643000Y-67064076D01*
X41643000Y-67295924D01*
X41688231Y-67523318D01*
X41776956Y-67737519D01*
X41905764Y-67930294D01*
X42069706Y-68094236D01*
X42262481Y-68223044D01*
X42476682Y-68311769D01*
X42704076Y-68357000D01*
X42935924Y-68357000D01*
X43163318Y-68311769D01*
X43377519Y-68223044D01*
X43570294Y-68094236D01*
X43734236Y-67930294D01*
X43863044Y-67737519D01*
X43951769Y-67523318D01*
X43997000Y-67295924D01*
X43997000Y-67064076D01*
X43951769Y-66836682D01*
X43863044Y-66622481D01*
X43734236Y-66429706D01*
X43570294Y-66265764D01*
X43377519Y-66136956D01*
X43163318Y-66048231D01*
X42935924Y-66003000D01*
X42704076Y-66003000D01*
X42476682Y-66048231D01*
X42262481Y-66136956D01*
X42069706Y-66265764D01*
X41905764Y-66429706D01*
X41776956Y-66622481D01*
X41688231Y-66836682D01*
X41643000Y-67064076D01*
X41022000Y-67064076D01*
X41022000Y-63790000D01*
X41641418Y-63790000D01*
X41641418Y-65490000D01*
X41647732Y-65554103D01*
X41666430Y-65615743D01*
X41696794Y-65672550D01*
X41737657Y-65722343D01*
X41787450Y-65763206D01*
X41844257Y-65793570D01*
X41905897Y-65812268D01*
X41970000Y-65818582D01*
X43670000Y-65818582D01*
X43734103Y-65812268D01*
X43795743Y-65793570D01*
X43852550Y-65763206D01*
X43902343Y-65722343D01*
X43943206Y-65672550D01*
X43973570Y-65615743D01*
X43992268Y-65554103D01*
X43998582Y-65490000D01*
X43998582Y-63790000D01*
X43992268Y-63725897D01*
X43973570Y-63664257D01*
X43943206Y-63607450D01*
X43902343Y-63557657D01*
X43852550Y-63516794D01*
X43795743Y-63486430D01*
X43734103Y-63467732D01*
X43670000Y-63461418D01*
X41970000Y-63461418D01*
X41905897Y-63467732D01*
X41844257Y-63486430D01*
X41787450Y-63516794D01*
X41737657Y-63557657D01*
X41696794Y-63607450D01*
X41666430Y-63664257D01*
X41647732Y-63725897D01*
X41641418Y-63790000D01*
X41022000Y-63790000D01*
X41022000Y-59624076D01*
X41633000Y-59624076D01*
X41633000Y-59855924D01*
X41678231Y-60083318D01*
X41766956Y-60297519D01*
X41895764Y-60490294D01*
X42059706Y-60654236D01*
X42252481Y-60783044D01*
X42466682Y-60871769D01*
X42694076Y-60917000D01*
X42925924Y-60917000D01*
X43153318Y-60871769D01*
X43367519Y-60783044D01*
X43560294Y-60654236D01*
X43724236Y-60490294D01*
X43766051Y-60427713D01*
X43766051Y-60743885D01*
X43829996Y-61065356D01*
X43955428Y-61368175D01*
X44137527Y-61640706D01*
X44369294Y-61872473D01*
X44641825Y-62054572D01*
X44944644Y-62180004D01*
X45266115Y-62243949D01*
X45593885Y-62243949D01*
X45915356Y-62180004D01*
X46218175Y-62054572D01*
X46490706Y-61872473D01*
X46722473Y-61640706D01*
X46904572Y-61368175D01*
X47030004Y-61065356D01*
X47092999Y-60748659D01*
X47092999Y-66389385D01*
X47088999Y-66429999D01*
X47092999Y-66470613D01*
X47093000Y-79587445D01*
X42293952Y-84386495D01*
X42262394Y-84412394D01*
X42236498Y-84443949D01*
X42159048Y-84538321D01*
X42153076Y-84549494D01*
X42082255Y-84681991D01*
X42034966Y-84837881D01*
X42023000Y-84959377D01*
X42023000Y-84959386D01*
X42019000Y-85000000D01*
X42023000Y-85040614D01*
X42023000Y-85671418D01*
X42000000Y-85671418D01*
X41935897Y-85677732D01*
X41874257Y-85696430D01*
X41817450Y-85726794D01*
X41767657Y-85767657D01*
X41726794Y-85817450D01*
X41696430Y-85874257D01*
X41677732Y-85935897D01*
X41671418Y-86000000D01*
X41671418Y-87700000D01*
X41677732Y-87764103D01*
X41696430Y-87825743D01*
X41726794Y-87882550D01*
X41767657Y-87932343D01*
X41773000Y-87936728D01*
X41773000Y-88914457D01*
X41718231Y-89046682D01*
X41673000Y-89274076D01*
X41673000Y-89505924D01*
X41718231Y-89733318D01*
X41773000Y-89865543D01*
X41773001Y-91454457D01*
X41718231Y-91586682D01*
X41673000Y-91814076D01*
X41673000Y-92045924D01*
X41718231Y-92273318D01*
X41773001Y-92405544D01*
X41773001Y-93994456D01*
X41718231Y-94126682D01*
X41673000Y-94354076D01*
X41673000Y-94585924D01*
X41718231Y-94813318D01*
X41806956Y-95027519D01*
X41935764Y-95220294D01*
X42099706Y-95384236D01*
X42292481Y-95513044D01*
X42506682Y-95601769D01*
X42734076Y-95647000D01*
X42965924Y-95647000D01*
X43193318Y-95601769D01*
X43407519Y-95513044D01*
X43600294Y-95384236D01*
X43764236Y-95220294D01*
X43893044Y-95027519D01*
X43981769Y-94813318D01*
X44027000Y-94585924D01*
X44027000Y-94383322D01*
X64413000Y-94383322D01*
X64413000Y-95036679D01*
X64428222Y-95191228D01*
X64488377Y-95389531D01*
X64586063Y-95572288D01*
X64717525Y-95732476D01*
X64877713Y-95863938D01*
X65060470Y-95961624D01*
X65258773Y-96021778D01*
X65465000Y-96042090D01*
X65671228Y-96021778D01*
X65869531Y-95961624D01*
X65977394Y-95903970D01*
X65990938Y-95972058D01*
X66045741Y-96104364D01*
X66125302Y-96223436D01*
X66226564Y-96324698D01*
X66345636Y-96404259D01*
X66477942Y-96459062D01*
X66618397Y-96487000D01*
X66761603Y-96487000D01*
X66902058Y-96459062D01*
X67034364Y-96404259D01*
X67153436Y-96324698D01*
X67254698Y-96223436D01*
X67334259Y-96104364D01*
X67389062Y-95972058D01*
X67417000Y-95831603D01*
X67417000Y-95688397D01*
X70963000Y-95688397D01*
X70963000Y-95831603D01*
X70990938Y-95972058D01*
X71045741Y-96104364D01*
X71125302Y-96223436D01*
X71226564Y-96324698D01*
X71345636Y-96404259D01*
X71477942Y-96459062D01*
X71618397Y-96487000D01*
X71761603Y-96487000D01*
X71902058Y-96459062D01*
X72034364Y-96404259D01*
X72153436Y-96324698D01*
X72254698Y-96223436D01*
X72334259Y-96104364D01*
X72389062Y-95972058D01*
X72402606Y-95903969D01*
X72510470Y-95961624D01*
X72708773Y-96021778D01*
X72915000Y-96042090D01*
X73121228Y-96021778D01*
X73319531Y-95961624D01*
X73502288Y-95863938D01*
X73662476Y-95732476D01*
X73793938Y-95572288D01*
X73891624Y-95389530D01*
X73951778Y-95191227D01*
X73967000Y-95036678D01*
X73967000Y-94383321D01*
X73951778Y-94228772D01*
X73891624Y-94030469D01*
X73793938Y-93847712D01*
X73662476Y-93687524D01*
X73502288Y-93556062D01*
X73319530Y-93458376D01*
X73121227Y-93398222D01*
X72915000Y-93377910D01*
X72708772Y-93398222D01*
X72510469Y-93458376D01*
X72327712Y-93556062D01*
X72167524Y-93687524D01*
X72036062Y-93847712D01*
X71938376Y-94030470D01*
X71878222Y-94228773D01*
X71863000Y-94383322D01*
X71863000Y-95036679D01*
X71864657Y-95053498D01*
X71761603Y-95033000D01*
X71618397Y-95033000D01*
X71477942Y-95060938D01*
X71345636Y-95115741D01*
X71226564Y-95195302D01*
X71125302Y-95296564D01*
X71045741Y-95415636D01*
X70990938Y-95547942D01*
X70963000Y-95688397D01*
X67417000Y-95688397D01*
X67389062Y-95547942D01*
X67334259Y-95415636D01*
X67254698Y-95296564D01*
X67153436Y-95195302D01*
X67034364Y-95115741D01*
X66902058Y-95060938D01*
X66761603Y-95033000D01*
X66618397Y-95033000D01*
X66515343Y-95053498D01*
X66517000Y-95036678D01*
X66517000Y-94383321D01*
X66501778Y-94228772D01*
X66441624Y-94030469D01*
X66343938Y-93847712D01*
X66212476Y-93687524D01*
X66052288Y-93556062D01*
X65869530Y-93458376D01*
X65671227Y-93398222D01*
X65465000Y-93377910D01*
X65258772Y-93398222D01*
X65060469Y-93458376D01*
X64877712Y-93556062D01*
X64717524Y-93687524D01*
X64586062Y-93847712D01*
X64488376Y-94030470D01*
X64428222Y-94228773D01*
X64413000Y-94383322D01*
X44027000Y-94383322D01*
X44027000Y-94354076D01*
X43981769Y-94126682D01*
X43927000Y-93994458D01*
X43927000Y-92405542D01*
X43981769Y-92273318D01*
X44027000Y-92045924D01*
X44027000Y-91814076D01*
X43981769Y-91586682D01*
X43927000Y-91454458D01*
X43927000Y-89865542D01*
X43981769Y-89733318D01*
X44027000Y-89505924D01*
X44027000Y-89274076D01*
X43981769Y-89046682D01*
X43927000Y-88914458D01*
X43927000Y-87936728D01*
X43932343Y-87932343D01*
X43973206Y-87882550D01*
X44003570Y-87825743D01*
X44022268Y-87764103D01*
X44028582Y-87700000D01*
X44028582Y-86000000D01*
X44022268Y-85935897D01*
X44003570Y-85874257D01*
X43973206Y-85817450D01*
X43932343Y-85767657D01*
X43882550Y-85726794D01*
X43825743Y-85696430D01*
X43764103Y-85677732D01*
X43700000Y-85671418D01*
X43677000Y-85671418D01*
X43677000Y-85342553D01*
X45911156Y-83108397D01*
X55263000Y-83108397D01*
X55263000Y-83251603D01*
X55290938Y-83392058D01*
X55345741Y-83524364D01*
X55425302Y-83643436D01*
X55526564Y-83744698D01*
X55536360Y-83751244D01*
X55544540Y-83834292D01*
X55570386Y-83919494D01*
X55576122Y-83930225D01*
X55612358Y-83998018D01*
X55668842Y-84066844D01*
X55686096Y-84081004D01*
X56168000Y-84562909D01*
X56168001Y-90057660D01*
X56156564Y-90065302D01*
X56055302Y-90166564D01*
X55975741Y-90285636D01*
X55920938Y-90417942D01*
X55893000Y-90558397D01*
X55893000Y-90701603D01*
X55920938Y-90842058D01*
X55975741Y-90974364D01*
X56055302Y-91093436D01*
X56156564Y-91194698D01*
X56275636Y-91274259D01*
X56407942Y-91329062D01*
X56548397Y-91357000D01*
X56691603Y-91357000D01*
X56832058Y-91329062D01*
X56964364Y-91274259D01*
X57083436Y-91194698D01*
X57184698Y-91093436D01*
X57264259Y-90974364D01*
X57319062Y-90842058D01*
X57347000Y-90701603D01*
X57347000Y-90558397D01*
X57319062Y-90417942D01*
X57264259Y-90285636D01*
X57184698Y-90166564D01*
X57083436Y-90065302D01*
X57072000Y-90057661D01*
X57072000Y-84397890D01*
X57074187Y-84375685D01*
X57065460Y-84287077D01*
X57039614Y-84201875D01*
X57022419Y-84169706D01*
X56997643Y-84123352D01*
X56941159Y-84054526D01*
X56923906Y-84040367D01*
X56540836Y-83657298D01*
X56554698Y-83643436D01*
X56634259Y-83524364D01*
X56689062Y-83392058D01*
X56717000Y-83251603D01*
X56717000Y-83108397D01*
X56689062Y-82967942D01*
X56634259Y-82835636D01*
X56554698Y-82716564D01*
X56540836Y-82702702D01*
X58720141Y-80523397D01*
X63158000Y-80523397D01*
X63158000Y-80666603D01*
X63185938Y-80807058D01*
X63240741Y-80939364D01*
X63320302Y-81058436D01*
X63421564Y-81159698D01*
X63540636Y-81239259D01*
X63672942Y-81294062D01*
X63813397Y-81322000D01*
X63956603Y-81322000D01*
X64097058Y-81294062D01*
X64229364Y-81239259D01*
X64348436Y-81159698D01*
X64449698Y-81058436D01*
X64529259Y-80939364D01*
X64584062Y-80807058D01*
X64612000Y-80666603D01*
X64612000Y-80647001D01*
X64937778Y-80647001D01*
X65458000Y-81167225D01*
X65458001Y-82047660D01*
X65446564Y-82055302D01*
X65345302Y-82156564D01*
X65265741Y-82275636D01*
X65210938Y-82407942D01*
X65183000Y-82548397D01*
X65183000Y-82691603D01*
X65210938Y-82832058D01*
X65265741Y-82964364D01*
X65345302Y-83083436D01*
X65446564Y-83184698D01*
X65565636Y-83264259D01*
X65697942Y-83319062D01*
X65838397Y-83347000D01*
X65981603Y-83347000D01*
X66122058Y-83319062D01*
X66254364Y-83264259D01*
X66373436Y-83184698D01*
X66474698Y-83083436D01*
X66554259Y-82964364D01*
X66609062Y-82832058D01*
X66637000Y-82691603D01*
X66637000Y-82548397D01*
X66609062Y-82407942D01*
X66554259Y-82275636D01*
X66474698Y-82156564D01*
X66373436Y-82055302D01*
X66362000Y-82047661D01*
X66362000Y-81002204D01*
X66364187Y-80979999D01*
X66355460Y-80891392D01*
X66349444Y-80871562D01*
X66329614Y-80806190D01*
X66287643Y-80727667D01*
X66231159Y-80658841D01*
X66213911Y-80644686D01*
X65460324Y-79891101D01*
X65446160Y-79873842D01*
X65377334Y-79817358D01*
X65298811Y-79775387D01*
X65213608Y-79749541D01*
X65147206Y-79743001D01*
X65125001Y-79740814D01*
X65102796Y-79743001D01*
X64307203Y-79743001D01*
X64284998Y-79740814D01*
X64196391Y-79749541D01*
X64135933Y-79767881D01*
X64111189Y-79775387D01*
X64032666Y-79817358D01*
X63968158Y-79870298D01*
X63956603Y-79868000D01*
X63813397Y-79868000D01*
X63672942Y-79895938D01*
X63540636Y-79950741D01*
X63421564Y-80030302D01*
X63320302Y-80131564D01*
X63240741Y-80250636D01*
X63185938Y-80382942D01*
X63158000Y-80523397D01*
X58720141Y-80523397D01*
X62816538Y-76427001D01*
X68708479Y-76427001D01*
X68730684Y-76429188D01*
X68752889Y-76427001D01*
X68819291Y-76420461D01*
X68904494Y-76394615D01*
X68983017Y-76352644D01*
X69051843Y-76296160D01*
X69066007Y-76278901D01*
X70198900Y-75146010D01*
X70216149Y-75131854D01*
X70272633Y-75063028D01*
X70314604Y-74984505D01*
X70340450Y-74899302D01*
X70346990Y-74832900D01*
X70348630Y-74816254D01*
X70358426Y-74809708D01*
X70459688Y-74708446D01*
X70539249Y-74589374D01*
X70594052Y-74457068D01*
X70621990Y-74316613D01*
X70621990Y-74173407D01*
X70594052Y-74032952D01*
X70539249Y-73900646D01*
X70516768Y-73867000D01*
X79143601Y-73867000D01*
X85073001Y-79796401D01*
X85073000Y-81904458D01*
X85018231Y-82036682D01*
X84973000Y-82264076D01*
X84973000Y-82495924D01*
X85018231Y-82723318D01*
X85073000Y-82855542D01*
X85073000Y-84444457D01*
X85018231Y-84576682D01*
X84973000Y-84804076D01*
X84973000Y-85035924D01*
X85018231Y-85263318D01*
X85073000Y-85395543D01*
X85073001Y-86984457D01*
X85018231Y-87116682D01*
X84973000Y-87344076D01*
X84973000Y-87575924D01*
X85018231Y-87803318D01*
X85073001Y-87935544D01*
X85073001Y-88913272D01*
X85067657Y-88917657D01*
X85026794Y-88967450D01*
X84996430Y-89024257D01*
X84977732Y-89085897D01*
X84971418Y-89150000D01*
X84971418Y-89655474D01*
X84153893Y-90473000D01*
X74882554Y-90473000D01*
X73957000Y-89547447D01*
X73957000Y-85199377D01*
X73945034Y-85077881D01*
X73897745Y-84921990D01*
X73820952Y-84778321D01*
X73717606Y-84652394D01*
X73591679Y-84549048D01*
X73448010Y-84472255D01*
X73292120Y-84424966D01*
X73130000Y-84408999D01*
X72967881Y-84424966D01*
X72811991Y-84472255D01*
X72668322Y-84549048D01*
X72542394Y-84652394D01*
X72439048Y-84778321D01*
X72362255Y-84921990D01*
X72314966Y-85077880D01*
X72303000Y-85199376D01*
X72303000Y-86710623D01*
X72303001Y-86710630D01*
X72303000Y-89849386D01*
X72299000Y-89890000D01*
X72303000Y-89930614D01*
X72303000Y-89930623D01*
X72314966Y-90052119D01*
X72362255Y-90208009D01*
X72373265Y-90228607D01*
X72439048Y-90351679D01*
X72490312Y-90414144D01*
X72538614Y-90473000D01*
X69188966Y-90473000D01*
X69239062Y-90352058D01*
X69267000Y-90211603D01*
X69267000Y-90068397D01*
X69239062Y-89927942D01*
X69184259Y-89795636D01*
X69104698Y-89676564D01*
X69088679Y-89660545D01*
X70434907Y-88314317D01*
X70448397Y-88317000D01*
X70591603Y-88317000D01*
X70732058Y-88289062D01*
X70864364Y-88234259D01*
X70983436Y-88154698D01*
X71084698Y-88053436D01*
X71164259Y-87934364D01*
X71219062Y-87802058D01*
X71247000Y-87661603D01*
X71247000Y-87518397D01*
X71219062Y-87377942D01*
X71164259Y-87245636D01*
X71084698Y-87126564D01*
X70983436Y-87025302D01*
X70864364Y-86945741D01*
X70732058Y-86890938D01*
X70591603Y-86863000D01*
X70448397Y-86863000D01*
X70307942Y-86890938D01*
X70175636Y-86945741D01*
X70056564Y-87025302D01*
X69955302Y-87126564D01*
X69875741Y-87245636D01*
X69820938Y-87377942D01*
X69793000Y-87518397D01*
X69793000Y-87661603D01*
X69795683Y-87675093D01*
X68236096Y-89234681D01*
X68218842Y-89248841D01*
X68196145Y-89276498D01*
X68162358Y-89317667D01*
X68120386Y-89396191D01*
X68094540Y-89481393D01*
X68085906Y-89569060D01*
X68076564Y-89575302D01*
X67975302Y-89676564D01*
X67895741Y-89795636D01*
X67840938Y-89927942D01*
X67813000Y-90068397D01*
X67813000Y-90211603D01*
X67840938Y-90352058D01*
X67891034Y-90473000D01*
X67416108Y-90473000D01*
X66648972Y-89705865D01*
X66615239Y-89664761D01*
X66451244Y-89530174D01*
X66264144Y-89430167D01*
X66061129Y-89368583D01*
X65902909Y-89353000D01*
X65902907Y-89353000D01*
X65850000Y-89347789D01*
X65797093Y-89353000D01*
X63712909Y-89353000D01*
X63660000Y-89347789D01*
X63607091Y-89353000D01*
X63448871Y-89368583D01*
X63245856Y-89430167D01*
X63058756Y-89530174D01*
X62894761Y-89664761D01*
X62760174Y-89828756D01*
X62660167Y-90015856D01*
X62598583Y-90218871D01*
X62577789Y-90430000D01*
X62583000Y-90482909D01*
X62583000Y-91497091D01*
X62577789Y-91550000D01*
X62598583Y-91761129D01*
X62660167Y-91964144D01*
X62740640Y-92114698D01*
X62760174Y-92151244D01*
X62894761Y-92315239D01*
X63058756Y-92449826D01*
X63245856Y-92549833D01*
X63448871Y-92611417D01*
X63660000Y-92632211D01*
X63712909Y-92627000D01*
X66917092Y-92627000D01*
X66969999Y-92632211D01*
X67022906Y-92627000D01*
X84547093Y-92627000D01*
X84600000Y-92632211D01*
X84652907Y-92627000D01*
X84652909Y-92627000D01*
X84811129Y-92611417D01*
X85014144Y-92549833D01*
X85201244Y-92449826D01*
X85365239Y-92315239D01*
X85398972Y-92274135D01*
X86494526Y-91178582D01*
X87000000Y-91178582D01*
X87064103Y-91172268D01*
X87125743Y-91153570D01*
X87182550Y-91123206D01*
X87232343Y-91082343D01*
X87273206Y-91032550D01*
X87303570Y-90975743D01*
X87322268Y-90914103D01*
X87328582Y-90850000D01*
X87328582Y-89150000D01*
X87322268Y-89085897D01*
X87303570Y-89024257D01*
X87273206Y-88967450D01*
X87232343Y-88917657D01*
X87227000Y-88913272D01*
X87227000Y-87935542D01*
X87281769Y-87803318D01*
X87327000Y-87575924D01*
X87327000Y-87344076D01*
X87281769Y-87116682D01*
X87227000Y-86984458D01*
X87227000Y-85395542D01*
X87281769Y-85263318D01*
X87327000Y-85035924D01*
X87327000Y-84804076D01*
X87281769Y-84576682D01*
X87227000Y-84444458D01*
X87227000Y-82855542D01*
X87281769Y-82723318D01*
X87327000Y-82495924D01*
X87327000Y-82264076D01*
X87281769Y-82036682D01*
X87227000Y-81904458D01*
X87227000Y-79403199D01*
X87232211Y-79350292D01*
X87227000Y-79297383D01*
X87211417Y-79139163D01*
X87149833Y-78936148D01*
X87049826Y-78749048D01*
X86915239Y-78585053D01*
X86874140Y-78551324D01*
X85542816Y-77220000D01*
X88741418Y-77220000D01*
X88741418Y-78920000D01*
X88747732Y-78984103D01*
X88766430Y-79045743D01*
X88796794Y-79102550D01*
X88837657Y-79152343D01*
X88887450Y-79193206D01*
X88944257Y-79223570D01*
X89005897Y-79242268D01*
X89070000Y-79248582D01*
X90770000Y-79248582D01*
X90834103Y-79242268D01*
X90895743Y-79223570D01*
X90952550Y-79193206D01*
X91002343Y-79152343D01*
X91043206Y-79102550D01*
X91073570Y-79045743D01*
X91092268Y-78984103D01*
X91098582Y-78920000D01*
X91098582Y-77220000D01*
X91092268Y-77155897D01*
X91073570Y-77094257D01*
X91043206Y-77037450D01*
X91002343Y-76987657D01*
X90952550Y-76946794D01*
X90895743Y-76916430D01*
X90834103Y-76897732D01*
X90770000Y-76891418D01*
X89070000Y-76891418D01*
X89005897Y-76897732D01*
X88944257Y-76916430D01*
X88887450Y-76946794D01*
X88837657Y-76987657D01*
X88796794Y-77037450D01*
X88766430Y-77094257D01*
X88747732Y-77155897D01*
X88741418Y-77220000D01*
X85542816Y-77220000D01*
X83736892Y-75414076D01*
X88743000Y-75414076D01*
X88743000Y-75645924D01*
X88788231Y-75873318D01*
X88876956Y-76087519D01*
X89005764Y-76280294D01*
X89169706Y-76444236D01*
X89362481Y-76573044D01*
X89576682Y-76661769D01*
X89804076Y-76707000D01*
X90035924Y-76707000D01*
X90263318Y-76661769D01*
X90477519Y-76573044D01*
X90670294Y-76444236D01*
X90834236Y-76280294D01*
X90963044Y-76087519D01*
X91051769Y-75873318D01*
X91097000Y-75645924D01*
X91097000Y-75414076D01*
X91051769Y-75186682D01*
X90963044Y-74972481D01*
X90834236Y-74779706D01*
X90670294Y-74615764D01*
X90477519Y-74486956D01*
X90263318Y-74398231D01*
X90035924Y-74353000D01*
X89804076Y-74353000D01*
X89576682Y-74398231D01*
X89362481Y-74486956D01*
X89169706Y-74615764D01*
X89005764Y-74779706D01*
X88876956Y-74972481D01*
X88788231Y-75186682D01*
X88743000Y-75414076D01*
X83736892Y-75414076D01*
X80388681Y-72065866D01*
X80354947Y-72024761D01*
X80190952Y-71890174D01*
X80003852Y-71790167D01*
X79800837Y-71728583D01*
X79642617Y-71713000D01*
X79642615Y-71713000D01*
X79589708Y-71707789D01*
X79536801Y-71713000D01*
X63967091Y-71713000D01*
X63808871Y-71728583D01*
X63605856Y-71790167D01*
X63418756Y-71890174D01*
X63254761Y-72024761D01*
X63120174Y-72188756D01*
X63020167Y-72375856D01*
X62958583Y-72578871D01*
X62937789Y-72790000D01*
X62958583Y-73001129D01*
X63020167Y-73204144D01*
X63120174Y-73391244D01*
X63254761Y-73555239D01*
X63418756Y-73689826D01*
X63605856Y-73789833D01*
X63808871Y-73851417D01*
X63967091Y-73867000D01*
X69273212Y-73867000D01*
X69250731Y-73900646D01*
X69195928Y-74032952D01*
X69167990Y-74173407D01*
X69167990Y-74316613D01*
X69195928Y-74457068D01*
X69250731Y-74589374D01*
X69330292Y-74708446D01*
X69344153Y-74722307D01*
X68543461Y-75523001D01*
X62651519Y-75523001D01*
X62629314Y-75520814D01*
X62540706Y-75529541D01*
X62455504Y-75555387D01*
X62376981Y-75597358D01*
X62308155Y-75653842D01*
X62293995Y-75671096D01*
X55686096Y-82278996D01*
X55668842Y-82293156D01*
X55612358Y-82361982D01*
X55570386Y-82440506D01*
X55544540Y-82525708D01*
X55536360Y-82608756D01*
X55526564Y-82615302D01*
X55425302Y-82716564D01*
X55345741Y-82835636D01*
X55290938Y-82967942D01*
X55263000Y-83108397D01*
X45911156Y-83108397D01*
X48476058Y-80543497D01*
X48507605Y-80517607D01*
X48533495Y-80486060D01*
X48533501Y-80486054D01*
X48610950Y-80391682D01*
X48637149Y-80342667D01*
X48687744Y-80248011D01*
X48735033Y-80092121D01*
X48746999Y-79970625D01*
X48746999Y-79970613D01*
X48750999Y-79930002D01*
X48746999Y-79889391D01*
X48746999Y-68426552D01*
X49667199Y-69346753D01*
X49663001Y-69389376D01*
X49663000Y-70489375D01*
X49658999Y-70530000D01*
X49674966Y-70692120D01*
X49722255Y-70848010D01*
X49799048Y-70991679D01*
X49842560Y-71044698D01*
X49902394Y-71117606D01*
X50028321Y-71220952D01*
X50171990Y-71297745D01*
X50327880Y-71345034D01*
X50490000Y-71361001D01*
X50530624Y-71357000D01*
X51979385Y-71357000D01*
X52019999Y-71361000D01*
X52060613Y-71357000D01*
X76360624Y-71357000D01*
X76482120Y-71345034D01*
X76638010Y-71297745D01*
X76781679Y-71220952D01*
X76907606Y-71117606D01*
X76943330Y-71074076D01*
X88773000Y-71074076D01*
X88773000Y-71305924D01*
X88818231Y-71533318D01*
X88906956Y-71747519D01*
X89035764Y-71940294D01*
X89199706Y-72104236D01*
X89392481Y-72233044D01*
X89606682Y-72321769D01*
X89834076Y-72367000D01*
X90065924Y-72367000D01*
X90293318Y-72321769D01*
X90507519Y-72233044D01*
X90700294Y-72104236D01*
X90864236Y-71940294D01*
X90993044Y-71747519D01*
X91081769Y-71533318D01*
X91127000Y-71305924D01*
X91127000Y-71074076D01*
X91081769Y-70846682D01*
X90993044Y-70632481D01*
X90864236Y-70439706D01*
X90700294Y-70275764D01*
X90507519Y-70146956D01*
X90293318Y-70058231D01*
X90065924Y-70013000D01*
X89834076Y-70013000D01*
X89606682Y-70058231D01*
X89392481Y-70146956D01*
X89199706Y-70275764D01*
X89035764Y-70439706D01*
X88906956Y-70632481D01*
X88818231Y-70846682D01*
X88773000Y-71074076D01*
X76943330Y-71074076D01*
X77010952Y-70991679D01*
X77087745Y-70848010D01*
X77135034Y-70692120D01*
X77151001Y-70530000D01*
X77135034Y-70367880D01*
X77087745Y-70211990D01*
X77010952Y-70068321D01*
X76907606Y-69942394D01*
X76781679Y-69839048D01*
X76638010Y-69762255D01*
X76482120Y-69714966D01*
X76360624Y-69703000D01*
X52362554Y-69703000D01*
X50459554Y-67800000D01*
X88771418Y-67800000D01*
X88771418Y-69500000D01*
X88777732Y-69564103D01*
X88796430Y-69625743D01*
X88826794Y-69682550D01*
X88867657Y-69732343D01*
X88917450Y-69773206D01*
X88974257Y-69803570D01*
X89035897Y-69822268D01*
X89100000Y-69828582D01*
X90800000Y-69828582D01*
X90864103Y-69822268D01*
X90925743Y-69803570D01*
X90982550Y-69773206D01*
X91032343Y-69732343D01*
X91073206Y-69682550D01*
X91103570Y-69625743D01*
X91122268Y-69564103D01*
X91128582Y-69500000D01*
X91128582Y-67800000D01*
X91122268Y-67735897D01*
X91103570Y-67674257D01*
X91073206Y-67617450D01*
X91032343Y-67567657D01*
X90982550Y-67526794D01*
X90925743Y-67496430D01*
X90864103Y-67477732D01*
X90800000Y-67471418D01*
X89100000Y-67471418D01*
X89035897Y-67477732D01*
X88974257Y-67496430D01*
X88917450Y-67526794D01*
X88867657Y-67567657D01*
X88826794Y-67617450D01*
X88796430Y-67674257D01*
X88777732Y-67735897D01*
X88771418Y-67800000D01*
X50459554Y-67800000D01*
X48746999Y-66087446D01*
X48746999Y-64134076D01*
X76723000Y-64134076D01*
X76723000Y-64365924D01*
X76768231Y-64593318D01*
X76856956Y-64807519D01*
X76985764Y-65000294D01*
X77149706Y-65164236D01*
X77342481Y-65293044D01*
X77556682Y-65381769D01*
X77784076Y-65427000D01*
X78015924Y-65427000D01*
X78243318Y-65381769D01*
X78457519Y-65293044D01*
X78650294Y-65164236D01*
X78814236Y-65000294D01*
X78943044Y-64807519D01*
X79031769Y-64593318D01*
X79077000Y-64365924D01*
X79077000Y-64134076D01*
X79075011Y-64124076D01*
X80353000Y-64124076D01*
X80353000Y-64355924D01*
X80398231Y-64583318D01*
X80486956Y-64797519D01*
X80615764Y-64990294D01*
X80779706Y-65154236D01*
X80972481Y-65283044D01*
X81186682Y-65371769D01*
X81414076Y-65417000D01*
X81645924Y-65417000D01*
X81873318Y-65371769D01*
X82087519Y-65283044D01*
X82280294Y-65154236D01*
X82444236Y-64990294D01*
X82573044Y-64797519D01*
X82661769Y-64583318D01*
X82707000Y-64355924D01*
X82707000Y-64174076D01*
X85193000Y-64174076D01*
X85193000Y-64405924D01*
X85238231Y-64633318D01*
X85326956Y-64847519D01*
X85455764Y-65040294D01*
X85619706Y-65204236D01*
X85812481Y-65333044D01*
X86026682Y-65421769D01*
X86254076Y-65467000D01*
X86485924Y-65467000D01*
X86713318Y-65421769D01*
X86927519Y-65333044D01*
X87120294Y-65204236D01*
X87284236Y-65040294D01*
X87413044Y-64847519D01*
X87501769Y-64633318D01*
X87547000Y-64405924D01*
X87547000Y-64174076D01*
X88833000Y-64174076D01*
X88833000Y-64405924D01*
X88878231Y-64633318D01*
X88966956Y-64847519D01*
X89095764Y-65040294D01*
X89259706Y-65204236D01*
X89452481Y-65333044D01*
X89666682Y-65421769D01*
X89894076Y-65467000D01*
X90125924Y-65467000D01*
X90353318Y-65421769D01*
X90567519Y-65333044D01*
X90760294Y-65204236D01*
X90924236Y-65040294D01*
X91053044Y-64847519D01*
X91141769Y-64633318D01*
X91187000Y-64405924D01*
X91187000Y-64174076D01*
X91141769Y-63946682D01*
X91053044Y-63732481D01*
X90924236Y-63539706D01*
X90760294Y-63375764D01*
X90567519Y-63246956D01*
X90353318Y-63158231D01*
X90125924Y-63113000D01*
X89894076Y-63113000D01*
X89666682Y-63158231D01*
X89452481Y-63246956D01*
X89259706Y-63375764D01*
X89095764Y-63539706D01*
X88966956Y-63732481D01*
X88878231Y-63946682D01*
X88833000Y-64174076D01*
X87547000Y-64174076D01*
X87501769Y-63946682D01*
X87413044Y-63732481D01*
X87284236Y-63539706D01*
X87120294Y-63375764D01*
X86927519Y-63246956D01*
X86713318Y-63158231D01*
X86485924Y-63113000D01*
X86254076Y-63113000D01*
X86026682Y-63158231D01*
X85812481Y-63246956D01*
X85619706Y-63375764D01*
X85455764Y-63539706D01*
X85326956Y-63732481D01*
X85238231Y-63946682D01*
X85193000Y-64174076D01*
X82707000Y-64174076D01*
X82707000Y-64124076D01*
X82661769Y-63896682D01*
X82573044Y-63682481D01*
X82444236Y-63489706D01*
X82280294Y-63325764D01*
X82087519Y-63196956D01*
X81873318Y-63108231D01*
X81645924Y-63063000D01*
X81414076Y-63063000D01*
X81186682Y-63108231D01*
X80972481Y-63196956D01*
X80779706Y-63325764D01*
X80615764Y-63489706D01*
X80486956Y-63682481D01*
X80398231Y-63896682D01*
X80353000Y-64124076D01*
X79075011Y-64124076D01*
X79031769Y-63906682D01*
X78943044Y-63692481D01*
X78814236Y-63499706D01*
X78650294Y-63335764D01*
X78457519Y-63206956D01*
X78243318Y-63118231D01*
X78015924Y-63073000D01*
X77784076Y-63073000D01*
X77556682Y-63118231D01*
X77342481Y-63206956D01*
X77149706Y-63335764D01*
X76985764Y-63499706D01*
X76856956Y-63692481D01*
X76768231Y-63906682D01*
X76723000Y-64134076D01*
X48746999Y-64134076D01*
X48746999Y-61594076D01*
X76723000Y-61594076D01*
X76723000Y-61825924D01*
X76768231Y-62053318D01*
X76856956Y-62267519D01*
X76985764Y-62460294D01*
X77149706Y-62624236D01*
X77342481Y-62753044D01*
X77556682Y-62841769D01*
X77784076Y-62887000D01*
X78015924Y-62887000D01*
X78243318Y-62841769D01*
X78457519Y-62753044D01*
X78650294Y-62624236D01*
X78814236Y-62460294D01*
X78943044Y-62267519D01*
X79031769Y-62053318D01*
X79077000Y-61825924D01*
X79077000Y-61594076D01*
X79075011Y-61584076D01*
X80353000Y-61584076D01*
X80353000Y-61815924D01*
X80398231Y-62043318D01*
X80486956Y-62257519D01*
X80615764Y-62450294D01*
X80779706Y-62614236D01*
X80972481Y-62743044D01*
X81186682Y-62831769D01*
X81414076Y-62877000D01*
X81645924Y-62877000D01*
X81873318Y-62831769D01*
X82087519Y-62743044D01*
X82280294Y-62614236D01*
X82444236Y-62450294D01*
X82573044Y-62257519D01*
X82661769Y-62043318D01*
X82707000Y-61815924D01*
X82707000Y-61634076D01*
X85193000Y-61634076D01*
X85193000Y-61865924D01*
X85238231Y-62093318D01*
X85326956Y-62307519D01*
X85455764Y-62500294D01*
X85619706Y-62664236D01*
X85812481Y-62793044D01*
X86026682Y-62881769D01*
X86254076Y-62927000D01*
X86485924Y-62927000D01*
X86713318Y-62881769D01*
X86927519Y-62793044D01*
X87120294Y-62664236D01*
X87284236Y-62500294D01*
X87413044Y-62307519D01*
X87501769Y-62093318D01*
X87547000Y-61865924D01*
X87547000Y-61634076D01*
X88833000Y-61634076D01*
X88833000Y-61865924D01*
X88878231Y-62093318D01*
X88966956Y-62307519D01*
X89095764Y-62500294D01*
X89259706Y-62664236D01*
X89452481Y-62793044D01*
X89666682Y-62881769D01*
X89894076Y-62927000D01*
X90125924Y-62927000D01*
X90353318Y-62881769D01*
X90567519Y-62793044D01*
X90760294Y-62664236D01*
X90924236Y-62500294D01*
X91053044Y-62307519D01*
X91141769Y-62093318D01*
X91187000Y-61865924D01*
X91187000Y-61634076D01*
X91141769Y-61406682D01*
X91053044Y-61192481D01*
X90924236Y-60999706D01*
X90760294Y-60835764D01*
X90567519Y-60706956D01*
X90353318Y-60618231D01*
X90125924Y-60573000D01*
X89894076Y-60573000D01*
X89666682Y-60618231D01*
X89452481Y-60706956D01*
X89259706Y-60835764D01*
X89095764Y-60999706D01*
X88966956Y-61192481D01*
X88878231Y-61406682D01*
X88833000Y-61634076D01*
X87547000Y-61634076D01*
X87501769Y-61406682D01*
X87413044Y-61192481D01*
X87284236Y-60999706D01*
X87120294Y-60835764D01*
X86927519Y-60706956D01*
X86713318Y-60618231D01*
X86485924Y-60573000D01*
X86254076Y-60573000D01*
X86026682Y-60618231D01*
X85812481Y-60706956D01*
X85619706Y-60835764D01*
X85455764Y-60999706D01*
X85326956Y-61192481D01*
X85238231Y-61406682D01*
X85193000Y-61634076D01*
X82707000Y-61634076D01*
X82707000Y-61584076D01*
X82661769Y-61356682D01*
X82573044Y-61142481D01*
X82444236Y-60949706D01*
X82280294Y-60785764D01*
X82087519Y-60656956D01*
X81873318Y-60568231D01*
X81645924Y-60523000D01*
X81414076Y-60523000D01*
X81186682Y-60568231D01*
X80972481Y-60656956D01*
X80779706Y-60785764D01*
X80615764Y-60949706D01*
X80486956Y-61142481D01*
X80398231Y-61356682D01*
X80353000Y-61584076D01*
X79075011Y-61584076D01*
X79031769Y-61366682D01*
X78943044Y-61152481D01*
X78814236Y-60959706D01*
X78650294Y-60795764D01*
X78457519Y-60666956D01*
X78243318Y-60578231D01*
X78015924Y-60533000D01*
X77784076Y-60533000D01*
X77556682Y-60578231D01*
X77342481Y-60666956D01*
X77149706Y-60795764D01*
X76985764Y-60959706D01*
X76856956Y-61152481D01*
X76768231Y-61366682D01*
X76723000Y-61594076D01*
X48746999Y-61594076D01*
X48746999Y-59054076D01*
X76723000Y-59054076D01*
X76723000Y-59285924D01*
X76768231Y-59513318D01*
X76856956Y-59727519D01*
X76985764Y-59920294D01*
X77149706Y-60084236D01*
X77342481Y-60213044D01*
X77556682Y-60301769D01*
X77784076Y-60347000D01*
X78015924Y-60347000D01*
X78243318Y-60301769D01*
X78457519Y-60213044D01*
X78650294Y-60084236D01*
X78814236Y-59920294D01*
X78943044Y-59727519D01*
X79031769Y-59513318D01*
X79077000Y-59285924D01*
X79077000Y-59054076D01*
X79075011Y-59044076D01*
X80353000Y-59044076D01*
X80353000Y-59275924D01*
X80398231Y-59503318D01*
X80486956Y-59717519D01*
X80615764Y-59910294D01*
X80779706Y-60074236D01*
X80972481Y-60203044D01*
X81186682Y-60291769D01*
X81414076Y-60337000D01*
X81645924Y-60337000D01*
X81873318Y-60291769D01*
X82087519Y-60203044D01*
X82280294Y-60074236D01*
X82444236Y-59910294D01*
X82573044Y-59717519D01*
X82661769Y-59503318D01*
X82707000Y-59275924D01*
X82707000Y-59094076D01*
X85193000Y-59094076D01*
X85193000Y-59325924D01*
X85238231Y-59553318D01*
X85326956Y-59767519D01*
X85455764Y-59960294D01*
X85619706Y-60124236D01*
X85812481Y-60253044D01*
X86026682Y-60341769D01*
X86254076Y-60387000D01*
X86485924Y-60387000D01*
X86713318Y-60341769D01*
X86927519Y-60253044D01*
X87120294Y-60124236D01*
X87284236Y-59960294D01*
X87413044Y-59767519D01*
X87501769Y-59553318D01*
X87547000Y-59325924D01*
X87547000Y-59094076D01*
X88833000Y-59094076D01*
X88833000Y-59325924D01*
X88878231Y-59553318D01*
X88966956Y-59767519D01*
X89095764Y-59960294D01*
X89259706Y-60124236D01*
X89452481Y-60253044D01*
X89666682Y-60341769D01*
X89894076Y-60387000D01*
X90125924Y-60387000D01*
X90353318Y-60341769D01*
X90567519Y-60253044D01*
X90760294Y-60124236D01*
X90924236Y-59960294D01*
X91053044Y-59767519D01*
X91141769Y-59553318D01*
X91187000Y-59325924D01*
X91187000Y-59094076D01*
X91141769Y-58866682D01*
X91053044Y-58652481D01*
X90924236Y-58459706D01*
X90760294Y-58295764D01*
X90567519Y-58166956D01*
X90353318Y-58078231D01*
X90125924Y-58033000D01*
X89894076Y-58033000D01*
X89666682Y-58078231D01*
X89452481Y-58166956D01*
X89259706Y-58295764D01*
X89095764Y-58459706D01*
X88966956Y-58652481D01*
X88878231Y-58866682D01*
X88833000Y-59094076D01*
X87547000Y-59094076D01*
X87501769Y-58866682D01*
X87413044Y-58652481D01*
X87284236Y-58459706D01*
X87120294Y-58295764D01*
X86927519Y-58166956D01*
X86713318Y-58078231D01*
X86485924Y-58033000D01*
X86254076Y-58033000D01*
X86026682Y-58078231D01*
X85812481Y-58166956D01*
X85619706Y-58295764D01*
X85455764Y-58459706D01*
X85326956Y-58652481D01*
X85238231Y-58866682D01*
X85193000Y-59094076D01*
X82707000Y-59094076D01*
X82707000Y-59044076D01*
X82661769Y-58816682D01*
X82573044Y-58602481D01*
X82444236Y-58409706D01*
X82280294Y-58245764D01*
X82087519Y-58116956D01*
X81873318Y-58028231D01*
X81645924Y-57983000D01*
X81414076Y-57983000D01*
X81186682Y-58028231D01*
X80972481Y-58116956D01*
X80779706Y-58245764D01*
X80615764Y-58409706D01*
X80486956Y-58602481D01*
X80398231Y-58816682D01*
X80353000Y-59044076D01*
X79075011Y-59044076D01*
X79031769Y-58826682D01*
X78943044Y-58612481D01*
X78814236Y-58419706D01*
X78650294Y-58255764D01*
X78457519Y-58126956D01*
X78243318Y-58038231D01*
X78015924Y-57993000D01*
X77784076Y-57993000D01*
X77556682Y-58038231D01*
X77342481Y-58126956D01*
X77149706Y-58255764D01*
X76985764Y-58419706D01*
X76856956Y-58612481D01*
X76768231Y-58826682D01*
X76723000Y-59054076D01*
X48746999Y-59054076D01*
X48746999Y-56514076D01*
X76723000Y-56514076D01*
X76723000Y-56745924D01*
X76768231Y-56973318D01*
X76856956Y-57187519D01*
X76985764Y-57380294D01*
X77149706Y-57544236D01*
X77342481Y-57673044D01*
X77556682Y-57761769D01*
X77784076Y-57807000D01*
X78015924Y-57807000D01*
X78243318Y-57761769D01*
X78457519Y-57673044D01*
X78650294Y-57544236D01*
X78814236Y-57380294D01*
X78943044Y-57187519D01*
X79031769Y-56973318D01*
X79077000Y-56745924D01*
X79077000Y-56514076D01*
X79075011Y-56504076D01*
X80353000Y-56504076D01*
X80353000Y-56735924D01*
X80398231Y-56963318D01*
X80486956Y-57177519D01*
X80615764Y-57370294D01*
X80779706Y-57534236D01*
X80972481Y-57663044D01*
X81186682Y-57751769D01*
X81414076Y-57797000D01*
X81645924Y-57797000D01*
X81873318Y-57751769D01*
X82087519Y-57663044D01*
X82280294Y-57534236D01*
X82444236Y-57370294D01*
X82573044Y-57177519D01*
X82661769Y-56963318D01*
X82707000Y-56735924D01*
X82707000Y-56554076D01*
X85193000Y-56554076D01*
X85193000Y-56785924D01*
X85238231Y-57013318D01*
X85326956Y-57227519D01*
X85455764Y-57420294D01*
X85619706Y-57584236D01*
X85812481Y-57713044D01*
X86026682Y-57801769D01*
X86254076Y-57847000D01*
X86485924Y-57847000D01*
X86713318Y-57801769D01*
X86927519Y-57713044D01*
X87120294Y-57584236D01*
X87284236Y-57420294D01*
X87413044Y-57227519D01*
X87501769Y-57013318D01*
X87547000Y-56785924D01*
X87547000Y-56554076D01*
X88833000Y-56554076D01*
X88833000Y-56785924D01*
X88878231Y-57013318D01*
X88966956Y-57227519D01*
X89095764Y-57420294D01*
X89259706Y-57584236D01*
X89452481Y-57713044D01*
X89666682Y-57801769D01*
X89894076Y-57847000D01*
X90125924Y-57847000D01*
X90353318Y-57801769D01*
X90567519Y-57713044D01*
X90760294Y-57584236D01*
X90924236Y-57420294D01*
X91053044Y-57227519D01*
X91141769Y-57013318D01*
X91187000Y-56785924D01*
X91187000Y-56554076D01*
X91141769Y-56326682D01*
X91053044Y-56112481D01*
X90924236Y-55919706D01*
X90760294Y-55755764D01*
X90567519Y-55626956D01*
X90353318Y-55538231D01*
X90125924Y-55493000D01*
X89894076Y-55493000D01*
X89666682Y-55538231D01*
X89452481Y-55626956D01*
X89259706Y-55755764D01*
X89095764Y-55919706D01*
X88966956Y-56112481D01*
X88878231Y-56326682D01*
X88833000Y-56554076D01*
X87547000Y-56554076D01*
X87501769Y-56326682D01*
X87413044Y-56112481D01*
X87284236Y-55919706D01*
X87120294Y-55755764D01*
X86927519Y-55626956D01*
X86713318Y-55538231D01*
X86485924Y-55493000D01*
X86254076Y-55493000D01*
X86026682Y-55538231D01*
X85812481Y-55626956D01*
X85619706Y-55755764D01*
X85455764Y-55919706D01*
X85326956Y-56112481D01*
X85238231Y-56326682D01*
X85193000Y-56554076D01*
X82707000Y-56554076D01*
X82707000Y-56504076D01*
X82661769Y-56276682D01*
X82573044Y-56062481D01*
X82444236Y-55869706D01*
X82280294Y-55705764D01*
X82087519Y-55576956D01*
X81873318Y-55488231D01*
X81645924Y-55443000D01*
X81414076Y-55443000D01*
X81186682Y-55488231D01*
X80972481Y-55576956D01*
X80779706Y-55705764D01*
X80615764Y-55869706D01*
X80486956Y-56062481D01*
X80398231Y-56276682D01*
X80353000Y-56504076D01*
X79075011Y-56504076D01*
X79031769Y-56286682D01*
X78943044Y-56072481D01*
X78814236Y-55879706D01*
X78650294Y-55715764D01*
X78457519Y-55586956D01*
X78243318Y-55498231D01*
X78015924Y-55453000D01*
X77784076Y-55453000D01*
X77556682Y-55498231D01*
X77342481Y-55586956D01*
X77149706Y-55715764D01*
X76985764Y-55879706D01*
X76856956Y-56072481D01*
X76768231Y-56286682D01*
X76723000Y-56514076D01*
X48746999Y-56514076D01*
X48746999Y-53974076D01*
X76723000Y-53974076D01*
X76723000Y-54205924D01*
X76768231Y-54433318D01*
X76856956Y-54647519D01*
X76985764Y-54840294D01*
X77149706Y-55004236D01*
X77342481Y-55133044D01*
X77556682Y-55221769D01*
X77784076Y-55267000D01*
X78015924Y-55267000D01*
X78243318Y-55221769D01*
X78457519Y-55133044D01*
X78650294Y-55004236D01*
X78814236Y-54840294D01*
X78943044Y-54647519D01*
X79031769Y-54433318D01*
X79077000Y-54205924D01*
X79077000Y-53974076D01*
X79075011Y-53964076D01*
X80353000Y-53964076D01*
X80353000Y-54195924D01*
X80398231Y-54423318D01*
X80486956Y-54637519D01*
X80615764Y-54830294D01*
X80779706Y-54994236D01*
X80972481Y-55123044D01*
X81186682Y-55211769D01*
X81414076Y-55257000D01*
X81645924Y-55257000D01*
X81873318Y-55211769D01*
X82087519Y-55123044D01*
X82280294Y-54994236D01*
X82444236Y-54830294D01*
X82573044Y-54637519D01*
X82661769Y-54423318D01*
X82707000Y-54195924D01*
X82707000Y-54014076D01*
X85193000Y-54014076D01*
X85193000Y-54245924D01*
X85238231Y-54473318D01*
X85326956Y-54687519D01*
X85455764Y-54880294D01*
X85619706Y-55044236D01*
X85812481Y-55173044D01*
X86026682Y-55261769D01*
X86254076Y-55307000D01*
X86485924Y-55307000D01*
X86713318Y-55261769D01*
X86927519Y-55173044D01*
X87120294Y-55044236D01*
X87284236Y-54880294D01*
X87413044Y-54687519D01*
X87501769Y-54473318D01*
X87547000Y-54245924D01*
X87547000Y-54014076D01*
X88833000Y-54014076D01*
X88833000Y-54245924D01*
X88878231Y-54473318D01*
X88966956Y-54687519D01*
X89095764Y-54880294D01*
X89259706Y-55044236D01*
X89452481Y-55173044D01*
X89666682Y-55261769D01*
X89894076Y-55307000D01*
X90125924Y-55307000D01*
X90353318Y-55261769D01*
X90567519Y-55173044D01*
X90760294Y-55044236D01*
X90924236Y-54880294D01*
X91053044Y-54687519D01*
X91141769Y-54473318D01*
X91187000Y-54245924D01*
X91187000Y-54014076D01*
X91141769Y-53786682D01*
X91053044Y-53572481D01*
X90924236Y-53379706D01*
X90760294Y-53215764D01*
X90567519Y-53086956D01*
X90353318Y-52998231D01*
X90125924Y-52953000D01*
X89894076Y-52953000D01*
X89666682Y-52998231D01*
X89452481Y-53086956D01*
X89259706Y-53215764D01*
X89095764Y-53379706D01*
X88966956Y-53572481D01*
X88878231Y-53786682D01*
X88833000Y-54014076D01*
X87547000Y-54014076D01*
X87501769Y-53786682D01*
X87413044Y-53572481D01*
X87284236Y-53379706D01*
X87120294Y-53215764D01*
X86927519Y-53086956D01*
X86713318Y-52998231D01*
X86485924Y-52953000D01*
X86254076Y-52953000D01*
X86026682Y-52998231D01*
X85812481Y-53086956D01*
X85619706Y-53215764D01*
X85455764Y-53379706D01*
X85326956Y-53572481D01*
X85238231Y-53786682D01*
X85193000Y-54014076D01*
X82707000Y-54014076D01*
X82707000Y-53964076D01*
X82661769Y-53736682D01*
X82573044Y-53522481D01*
X82444236Y-53329706D01*
X82280294Y-53165764D01*
X82087519Y-53036956D01*
X81873318Y-52948231D01*
X81645924Y-52903000D01*
X81414076Y-52903000D01*
X81186682Y-52948231D01*
X80972481Y-53036956D01*
X80779706Y-53165764D01*
X80615764Y-53329706D01*
X80486956Y-53522481D01*
X80398231Y-53736682D01*
X80353000Y-53964076D01*
X79075011Y-53964076D01*
X79031769Y-53746682D01*
X78943044Y-53532481D01*
X78814236Y-53339706D01*
X78650294Y-53175764D01*
X78457519Y-53046956D01*
X78243318Y-52958231D01*
X78015924Y-52913000D01*
X77784076Y-52913000D01*
X77556682Y-52958231D01*
X77342481Y-53046956D01*
X77149706Y-53175764D01*
X76985764Y-53339706D01*
X76856956Y-53532481D01*
X76768231Y-53746682D01*
X76723000Y-53974076D01*
X48746999Y-53974076D01*
X48746999Y-51532554D01*
X48845477Y-51434076D01*
X76723000Y-51434076D01*
X76723000Y-51665924D01*
X76768231Y-51893318D01*
X76856956Y-52107519D01*
X76985764Y-52300294D01*
X77149706Y-52464236D01*
X77342481Y-52593044D01*
X77556682Y-52681769D01*
X77784076Y-52727000D01*
X78015924Y-52727000D01*
X78243318Y-52681769D01*
X78457519Y-52593044D01*
X78650294Y-52464236D01*
X78814236Y-52300294D01*
X78943044Y-52107519D01*
X79031769Y-51893318D01*
X79077000Y-51665924D01*
X79077000Y-51434076D01*
X79075011Y-51424076D01*
X80353000Y-51424076D01*
X80353000Y-51655924D01*
X80398231Y-51883318D01*
X80486956Y-52097519D01*
X80615764Y-52290294D01*
X80779706Y-52454236D01*
X80972481Y-52583044D01*
X81186682Y-52671769D01*
X81414076Y-52717000D01*
X81645924Y-52717000D01*
X81873318Y-52671769D01*
X82087519Y-52583044D01*
X82280294Y-52454236D01*
X82444236Y-52290294D01*
X82573044Y-52097519D01*
X82661769Y-51883318D01*
X82707000Y-51655924D01*
X82707000Y-51474076D01*
X85193000Y-51474076D01*
X85193000Y-51705924D01*
X85238231Y-51933318D01*
X85326956Y-52147519D01*
X85455764Y-52340294D01*
X85619706Y-52504236D01*
X85812481Y-52633044D01*
X86026682Y-52721769D01*
X86254076Y-52767000D01*
X86485924Y-52767000D01*
X86713318Y-52721769D01*
X86927519Y-52633044D01*
X87120294Y-52504236D01*
X87284236Y-52340294D01*
X87413044Y-52147519D01*
X87501769Y-51933318D01*
X87547000Y-51705924D01*
X87547000Y-51474076D01*
X88833000Y-51474076D01*
X88833000Y-51705924D01*
X88878231Y-51933318D01*
X88966956Y-52147519D01*
X89095764Y-52340294D01*
X89259706Y-52504236D01*
X89452481Y-52633044D01*
X89666682Y-52721769D01*
X89894076Y-52767000D01*
X90125924Y-52767000D01*
X90353318Y-52721769D01*
X90567519Y-52633044D01*
X90760294Y-52504236D01*
X90924236Y-52340294D01*
X91053044Y-52147519D01*
X91141769Y-51933318D01*
X91187000Y-51705924D01*
X91187000Y-51474076D01*
X91141769Y-51246682D01*
X91053044Y-51032481D01*
X90924236Y-50839706D01*
X90760294Y-50675764D01*
X90567519Y-50546956D01*
X90353318Y-50458231D01*
X90125924Y-50413000D01*
X89894076Y-50413000D01*
X89666682Y-50458231D01*
X89452481Y-50546956D01*
X89259706Y-50675764D01*
X89095764Y-50839706D01*
X88966956Y-51032481D01*
X88878231Y-51246682D01*
X88833000Y-51474076D01*
X87547000Y-51474076D01*
X87501769Y-51246682D01*
X87413044Y-51032481D01*
X87284236Y-50839706D01*
X87120294Y-50675764D01*
X86927519Y-50546956D01*
X86713318Y-50458231D01*
X86485924Y-50413000D01*
X86254076Y-50413000D01*
X86026682Y-50458231D01*
X85812481Y-50546956D01*
X85619706Y-50675764D01*
X85455764Y-50839706D01*
X85326956Y-51032481D01*
X85238231Y-51246682D01*
X85193000Y-51474076D01*
X82707000Y-51474076D01*
X82707000Y-51424076D01*
X82661769Y-51196682D01*
X82573044Y-50982481D01*
X82444236Y-50789706D01*
X82280294Y-50625764D01*
X82087519Y-50496956D01*
X81873318Y-50408231D01*
X81645924Y-50363000D01*
X81414076Y-50363000D01*
X81186682Y-50408231D01*
X80972481Y-50496956D01*
X80779706Y-50625764D01*
X80615764Y-50789706D01*
X80486956Y-50982481D01*
X80398231Y-51196682D01*
X80353000Y-51424076D01*
X79075011Y-51424076D01*
X79031769Y-51206682D01*
X78943044Y-50992481D01*
X78814236Y-50799706D01*
X78650294Y-50635764D01*
X78457519Y-50506956D01*
X78243318Y-50418231D01*
X78015924Y-50373000D01*
X77784076Y-50373000D01*
X77556682Y-50418231D01*
X77342481Y-50506956D01*
X77149706Y-50635764D01*
X76985764Y-50799706D01*
X76856956Y-50992481D01*
X76768231Y-51206682D01*
X76723000Y-51434076D01*
X48845477Y-51434076D01*
X51385477Y-48894076D01*
X76723000Y-48894076D01*
X76723000Y-49125924D01*
X76768231Y-49353318D01*
X76856956Y-49567519D01*
X76985764Y-49760294D01*
X77149706Y-49924236D01*
X77342481Y-50053044D01*
X77556682Y-50141769D01*
X77784076Y-50187000D01*
X78015924Y-50187000D01*
X78243318Y-50141769D01*
X78457519Y-50053044D01*
X78650294Y-49924236D01*
X78814236Y-49760294D01*
X78943044Y-49567519D01*
X79031769Y-49353318D01*
X79077000Y-49125924D01*
X79077000Y-48894076D01*
X79075011Y-48884076D01*
X80353000Y-48884076D01*
X80353000Y-49115924D01*
X80398231Y-49343318D01*
X80486956Y-49557519D01*
X80615764Y-49750294D01*
X80779706Y-49914236D01*
X80972481Y-50043044D01*
X81186682Y-50131769D01*
X81414076Y-50177000D01*
X81645924Y-50177000D01*
X81873318Y-50131769D01*
X82087519Y-50043044D01*
X82280294Y-49914236D01*
X82444236Y-49750294D01*
X82573044Y-49557519D01*
X82661769Y-49343318D01*
X82707000Y-49115924D01*
X82707000Y-48934076D01*
X85193000Y-48934076D01*
X85193000Y-49165924D01*
X85238231Y-49393318D01*
X85326956Y-49607519D01*
X85455764Y-49800294D01*
X85619706Y-49964236D01*
X85812481Y-50093044D01*
X86026682Y-50181769D01*
X86254076Y-50227000D01*
X86485924Y-50227000D01*
X86713318Y-50181769D01*
X86927519Y-50093044D01*
X87120294Y-49964236D01*
X87284236Y-49800294D01*
X87413044Y-49607519D01*
X87501769Y-49393318D01*
X87547000Y-49165924D01*
X87547000Y-48934076D01*
X88833000Y-48934076D01*
X88833000Y-49165924D01*
X88878231Y-49393318D01*
X88966956Y-49607519D01*
X89095764Y-49800294D01*
X89259706Y-49964236D01*
X89452481Y-50093044D01*
X89666682Y-50181769D01*
X89894076Y-50227000D01*
X90125924Y-50227000D01*
X90353318Y-50181769D01*
X90567519Y-50093044D01*
X90760294Y-49964236D01*
X90924236Y-49800294D01*
X91053044Y-49607519D01*
X91141769Y-49393318D01*
X91187000Y-49165924D01*
X91187000Y-48934076D01*
X91141769Y-48706682D01*
X91053044Y-48492481D01*
X90924236Y-48299706D01*
X90760294Y-48135764D01*
X90567519Y-48006956D01*
X90353318Y-47918231D01*
X90125924Y-47873000D01*
X89894076Y-47873000D01*
X89666682Y-47918231D01*
X89452481Y-48006956D01*
X89259706Y-48135764D01*
X89095764Y-48299706D01*
X88966956Y-48492481D01*
X88878231Y-48706682D01*
X88833000Y-48934076D01*
X87547000Y-48934076D01*
X87501769Y-48706682D01*
X87413044Y-48492481D01*
X87284236Y-48299706D01*
X87120294Y-48135764D01*
X86927519Y-48006956D01*
X86713318Y-47918231D01*
X86485924Y-47873000D01*
X86254076Y-47873000D01*
X86026682Y-47918231D01*
X85812481Y-48006956D01*
X85619706Y-48135764D01*
X85455764Y-48299706D01*
X85326956Y-48492481D01*
X85238231Y-48706682D01*
X85193000Y-48934076D01*
X82707000Y-48934076D01*
X82707000Y-48884076D01*
X82661769Y-48656682D01*
X82573044Y-48442481D01*
X82444236Y-48249706D01*
X82280294Y-48085764D01*
X82087519Y-47956956D01*
X81873318Y-47868231D01*
X81645924Y-47823000D01*
X81414076Y-47823000D01*
X81186682Y-47868231D01*
X80972481Y-47956956D01*
X80779706Y-48085764D01*
X80615764Y-48249706D01*
X80486956Y-48442481D01*
X80398231Y-48656682D01*
X80353000Y-48884076D01*
X79075011Y-48884076D01*
X79031769Y-48666682D01*
X78943044Y-48452481D01*
X78814236Y-48259706D01*
X78650294Y-48095764D01*
X78457519Y-47966956D01*
X78243318Y-47878231D01*
X78015924Y-47833000D01*
X77784076Y-47833000D01*
X77556682Y-47878231D01*
X77342481Y-47966956D01*
X77149706Y-48095764D01*
X76985764Y-48259706D01*
X76856956Y-48452481D01*
X76768231Y-48666682D01*
X76723000Y-48894076D01*
X51385477Y-48894076D01*
X51530133Y-48749420D01*
X51607091Y-48757000D01*
X51607093Y-48757000D01*
X51660000Y-48762211D01*
X51712907Y-48757000D01*
X53207093Y-48757000D01*
X53260000Y-48762211D01*
X53312907Y-48757000D01*
X53312909Y-48757000D01*
X53471129Y-48741417D01*
X53674144Y-48679833D01*
X53861244Y-48579826D01*
X54025239Y-48445239D01*
X54034254Y-48434254D01*
X54045239Y-48425239D01*
X54179826Y-48261244D01*
X54279833Y-48074144D01*
X54341417Y-47871129D01*
X54357000Y-47712909D01*
X54357000Y-47712907D01*
X54362211Y-47660001D01*
X54357000Y-47607094D01*
X54357000Y-46322909D01*
X54362211Y-46270000D01*
X54341417Y-46058871D01*
X54279833Y-45855856D01*
X54179826Y-45668756D01*
X54139813Y-45620000D01*
X76721418Y-45620000D01*
X76721418Y-47320000D01*
X76727732Y-47384103D01*
X76746430Y-47445743D01*
X76776794Y-47502550D01*
X76817657Y-47552343D01*
X76867450Y-47593206D01*
X76924257Y-47623570D01*
X76985897Y-47642268D01*
X77050000Y-47648582D01*
X78750000Y-47648582D01*
X78814103Y-47642268D01*
X78875743Y-47623570D01*
X78932550Y-47593206D01*
X78982343Y-47552343D01*
X79023206Y-47502550D01*
X79053570Y-47445743D01*
X79072268Y-47384103D01*
X79078582Y-47320000D01*
X79078582Y-45620000D01*
X79077598Y-45610000D01*
X80351418Y-45610000D01*
X80351418Y-47310000D01*
X80357732Y-47374103D01*
X80376430Y-47435743D01*
X80406794Y-47492550D01*
X80447657Y-47542343D01*
X80497450Y-47583206D01*
X80554257Y-47613570D01*
X80615897Y-47632268D01*
X80680000Y-47638582D01*
X82380000Y-47638582D01*
X82444103Y-47632268D01*
X82505743Y-47613570D01*
X82562550Y-47583206D01*
X82612343Y-47542343D01*
X82653206Y-47492550D01*
X82683570Y-47435743D01*
X82702268Y-47374103D01*
X82708582Y-47310000D01*
X82708582Y-45660000D01*
X85191418Y-45660000D01*
X85191418Y-47360000D01*
X85197732Y-47424103D01*
X85216430Y-47485743D01*
X85246794Y-47542550D01*
X85287657Y-47592343D01*
X85337450Y-47633206D01*
X85394257Y-47663570D01*
X85455897Y-47682268D01*
X85520000Y-47688582D01*
X87220000Y-47688582D01*
X87284103Y-47682268D01*
X87345743Y-47663570D01*
X87402550Y-47633206D01*
X87452343Y-47592343D01*
X87493206Y-47542550D01*
X87523570Y-47485743D01*
X87542268Y-47424103D01*
X87548582Y-47360000D01*
X87548582Y-45660000D01*
X88831418Y-45660000D01*
X88831418Y-47360000D01*
X88837732Y-47424103D01*
X88856430Y-47485743D01*
X88886794Y-47542550D01*
X88927657Y-47592343D01*
X88977450Y-47633206D01*
X89034257Y-47663570D01*
X89095897Y-47682268D01*
X89160000Y-47688582D01*
X90860000Y-47688582D01*
X90924103Y-47682268D01*
X90985743Y-47663570D01*
X91042550Y-47633206D01*
X91092343Y-47592343D01*
X91133206Y-47542550D01*
X91163570Y-47485743D01*
X91182268Y-47424103D01*
X91188582Y-47360000D01*
X91188582Y-45660000D01*
X91182268Y-45595897D01*
X91163570Y-45534257D01*
X91133206Y-45477450D01*
X91092343Y-45427657D01*
X91042550Y-45386794D01*
X90985743Y-45356430D01*
X90924103Y-45337732D01*
X90860000Y-45331418D01*
X89160000Y-45331418D01*
X89095897Y-45337732D01*
X89034257Y-45356430D01*
X88977450Y-45386794D01*
X88927657Y-45427657D01*
X88886794Y-45477450D01*
X88856430Y-45534257D01*
X88837732Y-45595897D01*
X88831418Y-45660000D01*
X87548582Y-45660000D01*
X87542268Y-45595897D01*
X87523570Y-45534257D01*
X87493206Y-45477450D01*
X87452343Y-45427657D01*
X87402550Y-45386794D01*
X87345743Y-45356430D01*
X87284103Y-45337732D01*
X87220000Y-45331418D01*
X85520000Y-45331418D01*
X85455897Y-45337732D01*
X85394257Y-45356430D01*
X85337450Y-45386794D01*
X85287657Y-45427657D01*
X85246794Y-45477450D01*
X85216430Y-45534257D01*
X85197732Y-45595897D01*
X85191418Y-45660000D01*
X82708582Y-45660000D01*
X82708582Y-45610000D01*
X82702268Y-45545897D01*
X82683570Y-45484257D01*
X82653206Y-45427450D01*
X82612343Y-45377657D01*
X82562550Y-45336794D01*
X82505743Y-45306430D01*
X82444103Y-45287732D01*
X82380000Y-45281418D01*
X80680000Y-45281418D01*
X80615897Y-45287732D01*
X80554257Y-45306430D01*
X80497450Y-45336794D01*
X80447657Y-45377657D01*
X80406794Y-45427450D01*
X80376430Y-45484257D01*
X80357732Y-45545897D01*
X80351418Y-45610000D01*
X79077598Y-45610000D01*
X79072268Y-45555897D01*
X79053570Y-45494257D01*
X79023206Y-45437450D01*
X78982343Y-45387657D01*
X78932550Y-45346794D01*
X78875743Y-45316430D01*
X78814103Y-45297732D01*
X78750000Y-45291418D01*
X77050000Y-45291418D01*
X76985897Y-45297732D01*
X76924257Y-45316430D01*
X76867450Y-45346794D01*
X76817657Y-45387657D01*
X76776794Y-45437450D01*
X76746430Y-45494257D01*
X76727732Y-45555897D01*
X76721418Y-45620000D01*
X54139813Y-45620000D01*
X54111697Y-45585741D01*
X54045239Y-45504761D01*
X54023269Y-45486731D01*
X54005239Y-45464761D01*
X53841244Y-45330174D01*
X53654144Y-45230167D01*
X53451129Y-45168583D01*
X53292909Y-45153000D01*
X53292907Y-45153000D01*
X53240000Y-45147789D01*
X53187093Y-45153000D01*
X51772909Y-45153000D01*
X51720000Y-45147789D01*
X51667091Y-45153000D01*
X51508871Y-45168583D01*
X51305856Y-45230167D01*
X51118756Y-45330174D01*
X50954761Y-45464761D01*
X50932223Y-45492223D01*
X50904761Y-45514761D01*
X50770174Y-45678756D01*
X50670167Y-45865857D01*
X50608583Y-46068872D01*
X50602967Y-46125897D01*
X50587789Y-46280000D01*
X50593000Y-46332907D01*
X50593000Y-47347446D01*
X47363947Y-50576500D01*
X47332394Y-50602395D01*
X47306499Y-50633948D01*
X47306497Y-50633950D01*
X47229047Y-50728322D01*
X47152255Y-50871991D01*
X47104966Y-51027881D01*
X47088999Y-51190001D01*
X47093000Y-51230625D01*
X47092999Y-60411341D01*
X47030004Y-60094644D01*
X46904572Y-59791825D01*
X46722473Y-59519294D01*
X46490706Y-59287527D01*
X46218175Y-59105428D01*
X45915356Y-58979996D01*
X45593885Y-58916051D01*
X45266115Y-58916051D01*
X44944644Y-58979996D01*
X44641825Y-59105428D01*
X44369294Y-59287527D01*
X44137527Y-59519294D01*
X43987000Y-59744574D01*
X43987000Y-59624076D01*
X43941769Y-59396682D01*
X43853044Y-59182481D01*
X43724236Y-58989706D01*
X43560294Y-58825764D01*
X43367519Y-58696956D01*
X43153318Y-58608231D01*
X42925924Y-58563000D01*
X42694076Y-58563000D01*
X42466682Y-58608231D01*
X42252481Y-58696956D01*
X42059706Y-58825764D01*
X41895764Y-58989706D01*
X41766956Y-59182481D01*
X41678231Y-59396682D01*
X41633000Y-59624076D01*
X41022000Y-59624076D01*
X41022000Y-57084076D01*
X41633000Y-57084076D01*
X41633000Y-57315924D01*
X41678231Y-57543318D01*
X41766956Y-57757519D01*
X41895764Y-57950294D01*
X42059706Y-58114236D01*
X42252481Y-58243044D01*
X42466682Y-58331769D01*
X42694076Y-58377000D01*
X42925924Y-58377000D01*
X43153318Y-58331769D01*
X43367519Y-58243044D01*
X43560294Y-58114236D01*
X43724236Y-57950294D01*
X43853044Y-57757519D01*
X43941769Y-57543318D01*
X43987000Y-57315924D01*
X43987000Y-57084076D01*
X43941769Y-56856682D01*
X43853044Y-56642481D01*
X43724236Y-56449706D01*
X43560294Y-56285764D01*
X43367519Y-56156956D01*
X43153318Y-56068231D01*
X42925924Y-56023000D01*
X42694076Y-56023000D01*
X42466682Y-56068231D01*
X42252481Y-56156956D01*
X42059706Y-56285764D01*
X41895764Y-56449706D01*
X41766956Y-56642481D01*
X41678231Y-56856682D01*
X41633000Y-57084076D01*
X41022000Y-57084076D01*
X41022000Y-54544076D01*
X41633000Y-54544076D01*
X41633000Y-54775924D01*
X41678231Y-55003318D01*
X41766956Y-55217519D01*
X41895764Y-55410294D01*
X42059706Y-55574236D01*
X42252481Y-55703044D01*
X42466682Y-55791769D01*
X42694076Y-55837000D01*
X42925924Y-55837000D01*
X43153318Y-55791769D01*
X43367519Y-55703044D01*
X43560294Y-55574236D01*
X43724236Y-55410294D01*
X43853044Y-55217519D01*
X43941769Y-55003318D01*
X43987000Y-54775924D01*
X43987000Y-54544076D01*
X43941769Y-54316682D01*
X43853044Y-54102481D01*
X43724236Y-53909706D01*
X43560294Y-53745764D01*
X43367519Y-53616956D01*
X43153318Y-53528231D01*
X42925924Y-53483000D01*
X42694076Y-53483000D01*
X42466682Y-53528231D01*
X42252481Y-53616956D01*
X42059706Y-53745764D01*
X41895764Y-53909706D01*
X41766956Y-54102481D01*
X41678231Y-54316682D01*
X41633000Y-54544076D01*
X41022000Y-54544076D01*
X41022000Y-52004076D01*
X41633000Y-52004076D01*
X41633000Y-52235924D01*
X41678231Y-52463318D01*
X41766956Y-52677519D01*
X41895764Y-52870294D01*
X42059706Y-53034236D01*
X42252481Y-53163044D01*
X42466682Y-53251769D01*
X42694076Y-53297000D01*
X42925924Y-53297000D01*
X43153318Y-53251769D01*
X43367519Y-53163044D01*
X43560294Y-53034236D01*
X43724236Y-52870294D01*
X43853044Y-52677519D01*
X43941769Y-52463318D01*
X43987000Y-52235924D01*
X43987000Y-52004076D01*
X43941769Y-51776682D01*
X43853044Y-51562481D01*
X43724236Y-51369706D01*
X43560294Y-51205764D01*
X43367519Y-51076956D01*
X43153318Y-50988231D01*
X42925924Y-50943000D01*
X42694076Y-50943000D01*
X42466682Y-50988231D01*
X42252481Y-51076956D01*
X42059706Y-51205764D01*
X41895764Y-51369706D01*
X41766956Y-51562481D01*
X41678231Y-51776682D01*
X41633000Y-52004076D01*
X41022000Y-52004076D01*
X41022000Y-49464076D01*
X41633000Y-49464076D01*
X41633000Y-49695924D01*
X41678231Y-49923318D01*
X41766956Y-50137519D01*
X41895764Y-50330294D01*
X42059706Y-50494236D01*
X42252481Y-50623044D01*
X42466682Y-50711769D01*
X42694076Y-50757000D01*
X42925924Y-50757000D01*
X43153318Y-50711769D01*
X43367519Y-50623044D01*
X43560294Y-50494236D01*
X43724236Y-50330294D01*
X43853044Y-50137519D01*
X43941769Y-49923318D01*
X43987000Y-49695924D01*
X43987000Y-49464076D01*
X43941769Y-49236682D01*
X43853044Y-49022481D01*
X43724236Y-48829706D01*
X43560294Y-48665764D01*
X43367519Y-48536956D01*
X43153318Y-48448231D01*
X42925924Y-48403000D01*
X42694076Y-48403000D01*
X42466682Y-48448231D01*
X42252481Y-48536956D01*
X42059706Y-48665764D01*
X41895764Y-48829706D01*
X41766956Y-49022481D01*
X41678231Y-49236682D01*
X41633000Y-49464076D01*
X41022000Y-49464076D01*
X41022000Y-46190000D01*
X41631418Y-46190000D01*
X41631418Y-47890000D01*
X41637732Y-47954103D01*
X41656430Y-48015743D01*
X41686794Y-48072550D01*
X41727657Y-48122343D01*
X41777450Y-48163206D01*
X41834257Y-48193570D01*
X41895897Y-48212268D01*
X41960000Y-48218582D01*
X43660000Y-48218582D01*
X43724103Y-48212268D01*
X43785743Y-48193570D01*
X43842550Y-48163206D01*
X43892343Y-48122343D01*
X43933206Y-48072550D01*
X43963570Y-48015743D01*
X43982268Y-47954103D01*
X43988582Y-47890000D01*
X43988582Y-46190000D01*
X43982268Y-46125897D01*
X43963570Y-46064257D01*
X43933206Y-46007450D01*
X43892343Y-45957657D01*
X43842550Y-45916794D01*
X43785743Y-45886430D01*
X43724103Y-45867732D01*
X43660000Y-45861418D01*
X41960000Y-45861418D01*
X41895897Y-45867732D01*
X41834257Y-45886430D01*
X41777450Y-45916794D01*
X41727657Y-45957657D01*
X41686794Y-46007450D01*
X41656430Y-46064257D01*
X41637732Y-46125897D01*
X41631418Y-46190000D01*
X41022000Y-46190000D01*
X41022000Y-44152000D01*
X91678001Y-44152000D01*
X91678000Y-100588000D01*
G37*
X91678000Y-100588000D02*
X41022000Y-100588000D01*
X41022000Y-97836115D01*
X43766051Y-97836115D01*
X43766051Y-98163885D01*
X43829996Y-98485356D01*
X43955428Y-98788175D01*
X44137527Y-99060706D01*
X44369294Y-99292473D01*
X44641825Y-99474572D01*
X44944644Y-99600004D01*
X45266115Y-99663949D01*
X45593885Y-99663949D01*
X45915356Y-99600004D01*
X46218175Y-99474572D01*
X46490706Y-99292473D01*
X46722473Y-99060706D01*
X46904572Y-98788175D01*
X47030004Y-98485356D01*
X47093949Y-98163885D01*
X47093949Y-98140694D01*
X64413000Y-98140694D01*
X64413000Y-98879307D01*
X64426052Y-99011823D01*
X64477630Y-99181850D01*
X64561387Y-99338549D01*
X64674105Y-99475896D01*
X64811452Y-99588614D01*
X64968151Y-99672371D01*
X65138178Y-99723948D01*
X65315000Y-99741364D01*
X65491823Y-99723948D01*
X65661850Y-99672371D01*
X65818549Y-99588614D01*
X65955896Y-99475896D01*
X66068614Y-99338549D01*
X66152371Y-99181850D01*
X66203948Y-99011823D01*
X66217000Y-98879307D01*
X66217000Y-98140694D01*
X72163000Y-98140694D01*
X72163000Y-98879307D01*
X72176052Y-99011823D01*
X72227630Y-99181850D01*
X72311387Y-99338549D01*
X72424105Y-99475896D01*
X72561452Y-99588614D01*
X72718151Y-99672371D01*
X72888178Y-99723948D01*
X73065000Y-99741364D01*
X73241823Y-99723948D01*
X73411850Y-99672371D01*
X73568549Y-99588614D01*
X73705896Y-99475896D01*
X73818614Y-99338549D01*
X73902371Y-99181850D01*
X73953948Y-99011823D01*
X73967000Y-98879307D01*
X73967000Y-98140693D01*
X73953948Y-98008177D01*
X73902371Y-97838150D01*
X73901284Y-97836115D01*
X85606051Y-97836115D01*
X85606051Y-98163885D01*
X85669996Y-98485356D01*
X85795428Y-98788175D01*
X85977527Y-99060706D01*
X86209294Y-99292473D01*
X86481825Y-99474572D01*
X86784644Y-99600004D01*
X87106115Y-99663949D01*
X87433885Y-99663949D01*
X87755356Y-99600004D01*
X88058175Y-99474572D01*
X88330706Y-99292473D01*
X88562473Y-99060706D01*
X88744572Y-98788175D01*
X88870004Y-98485356D01*
X88933949Y-98163885D01*
X88933949Y-97836115D01*
X88870004Y-97514644D01*
X88744572Y-97211825D01*
X88562473Y-96939294D01*
X88330706Y-96707527D01*
X88058175Y-96525428D01*
X87755356Y-96399996D01*
X87433885Y-96336051D01*
X87106115Y-96336051D01*
X86784644Y-96399996D01*
X86481825Y-96525428D01*
X86209294Y-96707527D01*
X85977527Y-96939294D01*
X85795428Y-97211825D01*
X85669996Y-97514644D01*
X85606051Y-97836115D01*
X73901284Y-97836115D01*
X73818614Y-97681451D01*
X73705896Y-97544104D01*
X73568548Y-97431386D01*
X73411849Y-97347629D01*
X73241822Y-97296052D01*
X73065000Y-97278636D01*
X72888177Y-97296052D01*
X72718150Y-97347629D01*
X72561451Y-97431386D01*
X72424104Y-97544104D01*
X72311386Y-97681452D01*
X72227629Y-97838151D01*
X72176052Y-98008178D01*
X72163000Y-98140694D01*
X66217000Y-98140694D01*
X66217000Y-98140693D01*
X66203948Y-98008177D01*
X66152371Y-97838150D01*
X66068614Y-97681451D01*
X65955896Y-97544104D01*
X65818548Y-97431386D01*
X65661849Y-97347629D01*
X65491822Y-97296052D01*
X65315000Y-97278636D01*
X65138177Y-97296052D01*
X64968150Y-97347629D01*
X64811451Y-97431386D01*
X64674104Y-97544104D01*
X64561386Y-97681452D01*
X64477629Y-97838151D01*
X64426052Y-98008178D01*
X64413000Y-98140694D01*
X47093949Y-98140694D01*
X47093949Y-97836115D01*
X47030004Y-97514644D01*
X46904572Y-97211825D01*
X46722473Y-96939294D01*
X46490706Y-96707527D01*
X46218175Y-96525428D01*
X45915356Y-96399996D01*
X45593885Y-96336051D01*
X45266115Y-96336051D01*
X44944644Y-96399996D01*
X44641825Y-96525428D01*
X44369294Y-96707527D01*
X44137527Y-96939294D01*
X43955428Y-97211825D01*
X43829996Y-97514644D01*
X43766051Y-97836115D01*
X41022000Y-97836115D01*
X41022000Y-79124076D01*
X41643000Y-79124076D01*
X41643000Y-79355924D01*
X41688231Y-79583318D01*
X41776956Y-79797519D01*
X41905764Y-79990294D01*
X42069706Y-80154236D01*
X42262481Y-80283044D01*
X42476682Y-80371769D01*
X42704076Y-80417000D01*
X42935924Y-80417000D01*
X43163318Y-80371769D01*
X43377519Y-80283044D01*
X43570294Y-80154236D01*
X43734236Y-79990294D01*
X43863044Y-79797519D01*
X43951769Y-79583318D01*
X43997000Y-79355924D01*
X43997000Y-79124076D01*
X43951769Y-78896682D01*
X43863044Y-78682481D01*
X43734236Y-78489706D01*
X43570294Y-78325764D01*
X43377519Y-78196956D01*
X43163318Y-78108231D01*
X42935924Y-78063000D01*
X42704076Y-78063000D01*
X42476682Y-78108231D01*
X42262481Y-78196956D01*
X42069706Y-78325764D01*
X41905764Y-78489706D01*
X41776956Y-78682481D01*
X41688231Y-78896682D01*
X41643000Y-79124076D01*
X41022000Y-79124076D01*
X41022000Y-76584076D01*
X41643000Y-76584076D01*
X41643000Y-76815924D01*
X41688231Y-77043318D01*
X41776956Y-77257519D01*
X41905764Y-77450294D01*
X42069706Y-77614236D01*
X42262481Y-77743044D01*
X42476682Y-77831769D01*
X42704076Y-77877000D01*
X42935924Y-77877000D01*
X43163318Y-77831769D01*
X43377519Y-77743044D01*
X43570294Y-77614236D01*
X43734236Y-77450294D01*
X43863044Y-77257519D01*
X43951769Y-77043318D01*
X43997000Y-76815924D01*
X43997000Y-76584076D01*
X43951769Y-76356682D01*
X43863044Y-76142481D01*
X43734236Y-75949706D01*
X43570294Y-75785764D01*
X43377519Y-75656956D01*
X43163318Y-75568231D01*
X42935924Y-75523000D01*
X42704076Y-75523000D01*
X42476682Y-75568231D01*
X42262481Y-75656956D01*
X42069706Y-75785764D01*
X41905764Y-75949706D01*
X41776956Y-76142481D01*
X41688231Y-76356682D01*
X41643000Y-76584076D01*
X41022000Y-76584076D01*
X41022000Y-74044076D01*
X41643000Y-74044076D01*
X41643000Y-74275924D01*
X41688231Y-74503318D01*
X41776956Y-74717519D01*
X41905764Y-74910294D01*
X42069706Y-75074236D01*
X42262481Y-75203044D01*
X42476682Y-75291769D01*
X42704076Y-75337000D01*
X42935924Y-75337000D01*
X43163318Y-75291769D01*
X43377519Y-75203044D01*
X43570294Y-75074236D01*
X43734236Y-74910294D01*
X43863044Y-74717519D01*
X43951769Y-74503318D01*
X43997000Y-74275924D01*
X43997000Y-74044076D01*
X43951769Y-73816682D01*
X43863044Y-73602481D01*
X43734236Y-73409706D01*
X43570294Y-73245764D01*
X43377519Y-73116956D01*
X43163318Y-73028231D01*
X42935924Y-72983000D01*
X42704076Y-72983000D01*
X42476682Y-73028231D01*
X42262481Y-73116956D01*
X42069706Y-73245764D01*
X41905764Y-73409706D01*
X41776956Y-73602481D01*
X41688231Y-73816682D01*
X41643000Y-74044076D01*
X41022000Y-74044076D01*
X41022000Y-71504076D01*
X41643000Y-71504076D01*
X41643000Y-71735924D01*
X41688231Y-71963318D01*
X41776956Y-72177519D01*
X41905764Y-72370294D01*
X42069706Y-72534236D01*
X42262481Y-72663044D01*
X42476682Y-72751769D01*
X42704076Y-72797000D01*
X42935924Y-72797000D01*
X43163318Y-72751769D01*
X43377519Y-72663044D01*
X43570294Y-72534236D01*
X43734236Y-72370294D01*
X43863044Y-72177519D01*
X43951769Y-71963318D01*
X43997000Y-71735924D01*
X43997000Y-71504076D01*
X43951769Y-71276682D01*
X43863044Y-71062481D01*
X43734236Y-70869706D01*
X43570294Y-70705764D01*
X43377519Y-70576956D01*
X43163318Y-70488231D01*
X42935924Y-70443000D01*
X42704076Y-70443000D01*
X42476682Y-70488231D01*
X42262481Y-70576956D01*
X42069706Y-70705764D01*
X41905764Y-70869706D01*
X41776956Y-71062481D01*
X41688231Y-71276682D01*
X41643000Y-71504076D01*
X41022000Y-71504076D01*
X41022000Y-67064076D01*
X41643000Y-67064076D01*
X41643000Y-67295924D01*
X41688231Y-67523318D01*
X41776956Y-67737519D01*
X41905764Y-67930294D01*
X42069706Y-68094236D01*
X42262481Y-68223044D01*
X42476682Y-68311769D01*
X42704076Y-68357000D01*
X42935924Y-68357000D01*
X43163318Y-68311769D01*
X43377519Y-68223044D01*
X43570294Y-68094236D01*
X43734236Y-67930294D01*
X43863044Y-67737519D01*
X43951769Y-67523318D01*
X43997000Y-67295924D01*
X43997000Y-67064076D01*
X43951769Y-66836682D01*
X43863044Y-66622481D01*
X43734236Y-66429706D01*
X43570294Y-66265764D01*
X43377519Y-66136956D01*
X43163318Y-66048231D01*
X42935924Y-66003000D01*
X42704076Y-66003000D01*
X42476682Y-66048231D01*
X42262481Y-66136956D01*
X42069706Y-66265764D01*
X41905764Y-66429706D01*
X41776956Y-66622481D01*
X41688231Y-66836682D01*
X41643000Y-67064076D01*
X41022000Y-67064076D01*
X41022000Y-63790000D01*
X41641418Y-63790000D01*
X41641418Y-65490000D01*
X41647732Y-65554103D01*
X41666430Y-65615743D01*
X41696794Y-65672550D01*
X41737657Y-65722343D01*
X41787450Y-65763206D01*
X41844257Y-65793570D01*
X41905897Y-65812268D01*
X41970000Y-65818582D01*
X43670000Y-65818582D01*
X43734103Y-65812268D01*
X43795743Y-65793570D01*
X43852550Y-65763206D01*
X43902343Y-65722343D01*
X43943206Y-65672550D01*
X43973570Y-65615743D01*
X43992268Y-65554103D01*
X43998582Y-65490000D01*
X43998582Y-63790000D01*
X43992268Y-63725897D01*
X43973570Y-63664257D01*
X43943206Y-63607450D01*
X43902343Y-63557657D01*
X43852550Y-63516794D01*
X43795743Y-63486430D01*
X43734103Y-63467732D01*
X43670000Y-63461418D01*
X41970000Y-63461418D01*
X41905897Y-63467732D01*
X41844257Y-63486430D01*
X41787450Y-63516794D01*
X41737657Y-63557657D01*
X41696794Y-63607450D01*
X41666430Y-63664257D01*
X41647732Y-63725897D01*
X41641418Y-63790000D01*
X41022000Y-63790000D01*
X41022000Y-59624076D01*
X41633000Y-59624076D01*
X41633000Y-59855924D01*
X41678231Y-60083318D01*
X41766956Y-60297519D01*
X41895764Y-60490294D01*
X42059706Y-60654236D01*
X42252481Y-60783044D01*
X42466682Y-60871769D01*
X42694076Y-60917000D01*
X42925924Y-60917000D01*
X43153318Y-60871769D01*
X43367519Y-60783044D01*
X43560294Y-60654236D01*
X43724236Y-60490294D01*
X43766051Y-60427713D01*
X43766051Y-60743885D01*
X43829996Y-61065356D01*
X43955428Y-61368175D01*
X44137527Y-61640706D01*
X44369294Y-61872473D01*
X44641825Y-62054572D01*
X44944644Y-62180004D01*
X45266115Y-62243949D01*
X45593885Y-62243949D01*
X45915356Y-62180004D01*
X46218175Y-62054572D01*
X46490706Y-61872473D01*
X46722473Y-61640706D01*
X46904572Y-61368175D01*
X47030004Y-61065356D01*
X47092999Y-60748659D01*
X47092999Y-66389385D01*
X47088999Y-66429999D01*
X47092999Y-66470613D01*
X47093000Y-79587445D01*
X42293952Y-84386495D01*
X42262394Y-84412394D01*
X42236498Y-84443949D01*
X42159048Y-84538321D01*
X42153076Y-84549494D01*
X42082255Y-84681991D01*
X42034966Y-84837881D01*
X42023000Y-84959377D01*
X42023000Y-84959386D01*
X42019000Y-85000000D01*
X42023000Y-85040614D01*
X42023000Y-85671418D01*
X42000000Y-85671418D01*
X41935897Y-85677732D01*
X41874257Y-85696430D01*
X41817450Y-85726794D01*
X41767657Y-85767657D01*
X41726794Y-85817450D01*
X41696430Y-85874257D01*
X41677732Y-85935897D01*
X41671418Y-86000000D01*
X41671418Y-87700000D01*
X41677732Y-87764103D01*
X41696430Y-87825743D01*
X41726794Y-87882550D01*
X41767657Y-87932343D01*
X41773000Y-87936728D01*
X41773000Y-88914457D01*
X41718231Y-89046682D01*
X41673000Y-89274076D01*
X41673000Y-89505924D01*
X41718231Y-89733318D01*
X41773000Y-89865543D01*
X41773001Y-91454457D01*
X41718231Y-91586682D01*
X41673000Y-91814076D01*
X41673000Y-92045924D01*
X41718231Y-92273318D01*
X41773001Y-92405544D01*
X41773001Y-93994456D01*
X41718231Y-94126682D01*
X41673000Y-94354076D01*
X41673000Y-94585924D01*
X41718231Y-94813318D01*
X41806956Y-95027519D01*
X41935764Y-95220294D01*
X42099706Y-95384236D01*
X42292481Y-95513044D01*
X42506682Y-95601769D01*
X42734076Y-95647000D01*
X42965924Y-95647000D01*
X43193318Y-95601769D01*
X43407519Y-95513044D01*
X43600294Y-95384236D01*
X43764236Y-95220294D01*
X43893044Y-95027519D01*
X43981769Y-94813318D01*
X44027000Y-94585924D01*
X44027000Y-94383322D01*
X64413000Y-94383322D01*
X64413000Y-95036679D01*
X64428222Y-95191228D01*
X64488377Y-95389531D01*
X64586063Y-95572288D01*
X64717525Y-95732476D01*
X64877713Y-95863938D01*
X65060470Y-95961624D01*
X65258773Y-96021778D01*
X65465000Y-96042090D01*
X65671228Y-96021778D01*
X65869531Y-95961624D01*
X65977394Y-95903970D01*
X65990938Y-95972058D01*
X66045741Y-96104364D01*
X66125302Y-96223436D01*
X66226564Y-96324698D01*
X66345636Y-96404259D01*
X66477942Y-96459062D01*
X66618397Y-96487000D01*
X66761603Y-96487000D01*
X66902058Y-96459062D01*
X67034364Y-96404259D01*
X67153436Y-96324698D01*
X67254698Y-96223436D01*
X67334259Y-96104364D01*
X67389062Y-95972058D01*
X67417000Y-95831603D01*
X67417000Y-95688397D01*
X70963000Y-95688397D01*
X70963000Y-95831603D01*
X70990938Y-95972058D01*
X71045741Y-96104364D01*
X71125302Y-96223436D01*
X71226564Y-96324698D01*
X71345636Y-96404259D01*
X71477942Y-96459062D01*
X71618397Y-96487000D01*
X71761603Y-96487000D01*
X71902058Y-96459062D01*
X72034364Y-96404259D01*
X72153436Y-96324698D01*
X72254698Y-96223436D01*
X72334259Y-96104364D01*
X72389062Y-95972058D01*
X72402606Y-95903969D01*
X72510470Y-95961624D01*
X72708773Y-96021778D01*
X72915000Y-96042090D01*
X73121228Y-96021778D01*
X73319531Y-95961624D01*
X73502288Y-95863938D01*
X73662476Y-95732476D01*
X73793938Y-95572288D01*
X73891624Y-95389530D01*
X73951778Y-95191227D01*
X73967000Y-95036678D01*
X73967000Y-94383321D01*
X73951778Y-94228772D01*
X73891624Y-94030469D01*
X73793938Y-93847712D01*
X73662476Y-93687524D01*
X73502288Y-93556062D01*
X73319530Y-93458376D01*
X73121227Y-93398222D01*
X72915000Y-93377910D01*
X72708772Y-93398222D01*
X72510469Y-93458376D01*
X72327712Y-93556062D01*
X72167524Y-93687524D01*
X72036062Y-93847712D01*
X71938376Y-94030470D01*
X71878222Y-94228773D01*
X71863000Y-94383322D01*
X71863000Y-95036679D01*
X71864657Y-95053498D01*
X71761603Y-95033000D01*
X71618397Y-95033000D01*
X71477942Y-95060938D01*
X71345636Y-95115741D01*
X71226564Y-95195302D01*
X71125302Y-95296564D01*
X71045741Y-95415636D01*
X70990938Y-95547942D01*
X70963000Y-95688397D01*
X67417000Y-95688397D01*
X67389062Y-95547942D01*
X67334259Y-95415636D01*
X67254698Y-95296564D01*
X67153436Y-95195302D01*
X67034364Y-95115741D01*
X66902058Y-95060938D01*
X66761603Y-95033000D01*
X66618397Y-95033000D01*
X66515343Y-95053498D01*
X66517000Y-95036678D01*
X66517000Y-94383321D01*
X66501778Y-94228772D01*
X66441624Y-94030469D01*
X66343938Y-93847712D01*
X66212476Y-93687524D01*
X66052288Y-93556062D01*
X65869530Y-93458376D01*
X65671227Y-93398222D01*
X65465000Y-93377910D01*
X65258772Y-93398222D01*
X65060469Y-93458376D01*
X64877712Y-93556062D01*
X64717524Y-93687524D01*
X64586062Y-93847712D01*
X64488376Y-94030470D01*
X64428222Y-94228773D01*
X64413000Y-94383322D01*
X44027000Y-94383322D01*
X44027000Y-94354076D01*
X43981769Y-94126682D01*
X43927000Y-93994458D01*
X43927000Y-92405542D01*
X43981769Y-92273318D01*
X44027000Y-92045924D01*
X44027000Y-91814076D01*
X43981769Y-91586682D01*
X43927000Y-91454458D01*
X43927000Y-89865542D01*
X43981769Y-89733318D01*
X44027000Y-89505924D01*
X44027000Y-89274076D01*
X43981769Y-89046682D01*
X43927000Y-88914458D01*
X43927000Y-87936728D01*
X43932343Y-87932343D01*
X43973206Y-87882550D01*
X44003570Y-87825743D01*
X44022268Y-87764103D01*
X44028582Y-87700000D01*
X44028582Y-86000000D01*
X44022268Y-85935897D01*
X44003570Y-85874257D01*
X43973206Y-85817450D01*
X43932343Y-85767657D01*
X43882550Y-85726794D01*
X43825743Y-85696430D01*
X43764103Y-85677732D01*
X43700000Y-85671418D01*
X43677000Y-85671418D01*
X43677000Y-85342553D01*
X45911156Y-83108397D01*
X55263000Y-83108397D01*
X55263000Y-83251603D01*
X55290938Y-83392058D01*
X55345741Y-83524364D01*
X55425302Y-83643436D01*
X55526564Y-83744698D01*
X55536360Y-83751244D01*
X55544540Y-83834292D01*
X55570386Y-83919494D01*
X55576122Y-83930225D01*
X55612358Y-83998018D01*
X55668842Y-84066844D01*
X55686096Y-84081004D01*
X56168000Y-84562909D01*
X56168001Y-90057660D01*
X56156564Y-90065302D01*
X56055302Y-90166564D01*
X55975741Y-90285636D01*
X55920938Y-90417942D01*
X55893000Y-90558397D01*
X55893000Y-90701603D01*
X55920938Y-90842058D01*
X55975741Y-90974364D01*
X56055302Y-91093436D01*
X56156564Y-91194698D01*
X56275636Y-91274259D01*
X56407942Y-91329062D01*
X56548397Y-91357000D01*
X56691603Y-91357000D01*
X56832058Y-91329062D01*
X56964364Y-91274259D01*
X57083436Y-91194698D01*
X57184698Y-91093436D01*
X57264259Y-90974364D01*
X57319062Y-90842058D01*
X57347000Y-90701603D01*
X57347000Y-90558397D01*
X57319062Y-90417942D01*
X57264259Y-90285636D01*
X57184698Y-90166564D01*
X57083436Y-90065302D01*
X57072000Y-90057661D01*
X57072000Y-84397890D01*
X57074187Y-84375685D01*
X57065460Y-84287077D01*
X57039614Y-84201875D01*
X57022419Y-84169706D01*
X56997643Y-84123352D01*
X56941159Y-84054526D01*
X56923906Y-84040367D01*
X56540836Y-83657298D01*
X56554698Y-83643436D01*
X56634259Y-83524364D01*
X56689062Y-83392058D01*
X56717000Y-83251603D01*
X56717000Y-83108397D01*
X56689062Y-82967942D01*
X56634259Y-82835636D01*
X56554698Y-82716564D01*
X56540836Y-82702702D01*
X58720141Y-80523397D01*
X63158000Y-80523397D01*
X63158000Y-80666603D01*
X63185938Y-80807058D01*
X63240741Y-80939364D01*
X63320302Y-81058436D01*
X63421564Y-81159698D01*
X63540636Y-81239259D01*
X63672942Y-81294062D01*
X63813397Y-81322000D01*
X63956603Y-81322000D01*
X64097058Y-81294062D01*
X64229364Y-81239259D01*
X64348436Y-81159698D01*
X64449698Y-81058436D01*
X64529259Y-80939364D01*
X64584062Y-80807058D01*
X64612000Y-80666603D01*
X64612000Y-80647001D01*
X64937778Y-80647001D01*
X65458000Y-81167225D01*
X65458001Y-82047660D01*
X65446564Y-82055302D01*
X65345302Y-82156564D01*
X65265741Y-82275636D01*
X65210938Y-82407942D01*
X65183000Y-82548397D01*
X65183000Y-82691603D01*
X65210938Y-82832058D01*
X65265741Y-82964364D01*
X65345302Y-83083436D01*
X65446564Y-83184698D01*
X65565636Y-83264259D01*
X65697942Y-83319062D01*
X65838397Y-83347000D01*
X65981603Y-83347000D01*
X66122058Y-83319062D01*
X66254364Y-83264259D01*
X66373436Y-83184698D01*
X66474698Y-83083436D01*
X66554259Y-82964364D01*
X66609062Y-82832058D01*
X66637000Y-82691603D01*
X66637000Y-82548397D01*
X66609062Y-82407942D01*
X66554259Y-82275636D01*
X66474698Y-82156564D01*
X66373436Y-82055302D01*
X66362000Y-82047661D01*
X66362000Y-81002204D01*
X66364187Y-80979999D01*
X66355460Y-80891392D01*
X66349444Y-80871562D01*
X66329614Y-80806190D01*
X66287643Y-80727667D01*
X66231159Y-80658841D01*
X66213911Y-80644686D01*
X65460324Y-79891101D01*
X65446160Y-79873842D01*
X65377334Y-79817358D01*
X65298811Y-79775387D01*
X65213608Y-79749541D01*
X65147206Y-79743001D01*
X65125001Y-79740814D01*
X65102796Y-79743001D01*
X64307203Y-79743001D01*
X64284998Y-79740814D01*
X64196391Y-79749541D01*
X64135933Y-79767881D01*
X64111189Y-79775387D01*
X64032666Y-79817358D01*
X63968158Y-79870298D01*
X63956603Y-79868000D01*
X63813397Y-79868000D01*
X63672942Y-79895938D01*
X63540636Y-79950741D01*
X63421564Y-80030302D01*
X63320302Y-80131564D01*
X63240741Y-80250636D01*
X63185938Y-80382942D01*
X63158000Y-80523397D01*
X58720141Y-80523397D01*
X62816538Y-76427001D01*
X68708479Y-76427001D01*
X68730684Y-76429188D01*
X68752889Y-76427001D01*
X68819291Y-76420461D01*
X68904494Y-76394615D01*
X68983017Y-76352644D01*
X69051843Y-76296160D01*
X69066007Y-76278901D01*
X70198900Y-75146010D01*
X70216149Y-75131854D01*
X70272633Y-75063028D01*
X70314604Y-74984505D01*
X70340450Y-74899302D01*
X70346990Y-74832900D01*
X70348630Y-74816254D01*
X70358426Y-74809708D01*
X70459688Y-74708446D01*
X70539249Y-74589374D01*
X70594052Y-74457068D01*
X70621990Y-74316613D01*
X70621990Y-74173407D01*
X70594052Y-74032952D01*
X70539249Y-73900646D01*
X70516768Y-73867000D01*
X79143601Y-73867000D01*
X85073001Y-79796401D01*
X85073000Y-81904458D01*
X85018231Y-82036682D01*
X84973000Y-82264076D01*
X84973000Y-82495924D01*
X85018231Y-82723318D01*
X85073000Y-82855542D01*
X85073000Y-84444457D01*
X85018231Y-84576682D01*
X84973000Y-84804076D01*
X84973000Y-85035924D01*
X85018231Y-85263318D01*
X85073000Y-85395543D01*
X85073001Y-86984457D01*
X85018231Y-87116682D01*
X84973000Y-87344076D01*
X84973000Y-87575924D01*
X85018231Y-87803318D01*
X85073001Y-87935544D01*
X85073001Y-88913272D01*
X85067657Y-88917657D01*
X85026794Y-88967450D01*
X84996430Y-89024257D01*
X84977732Y-89085897D01*
X84971418Y-89150000D01*
X84971418Y-89655474D01*
X84153893Y-90473000D01*
X74882554Y-90473000D01*
X73957000Y-89547447D01*
X73957000Y-85199377D01*
X73945034Y-85077881D01*
X73897745Y-84921990D01*
X73820952Y-84778321D01*
X73717606Y-84652394D01*
X73591679Y-84549048D01*
X73448010Y-84472255D01*
X73292120Y-84424966D01*
X73130000Y-84408999D01*
X72967881Y-84424966D01*
X72811991Y-84472255D01*
X72668322Y-84549048D01*
X72542394Y-84652394D01*
X72439048Y-84778321D01*
X72362255Y-84921990D01*
X72314966Y-85077880D01*
X72303000Y-85199376D01*
X72303000Y-86710623D01*
X72303001Y-86710630D01*
X72303000Y-89849386D01*
X72299000Y-89890000D01*
X72303000Y-89930614D01*
X72303000Y-89930623D01*
X72314966Y-90052119D01*
X72362255Y-90208009D01*
X72373265Y-90228607D01*
X72439048Y-90351679D01*
X72490312Y-90414144D01*
X72538614Y-90473000D01*
X69188966Y-90473000D01*
X69239062Y-90352058D01*
X69267000Y-90211603D01*
X69267000Y-90068397D01*
X69239062Y-89927942D01*
X69184259Y-89795636D01*
X69104698Y-89676564D01*
X69088679Y-89660545D01*
X70434907Y-88314317D01*
X70448397Y-88317000D01*
X70591603Y-88317000D01*
X70732058Y-88289062D01*
X70864364Y-88234259D01*
X70983436Y-88154698D01*
X71084698Y-88053436D01*
X71164259Y-87934364D01*
X71219062Y-87802058D01*
X71247000Y-87661603D01*
X71247000Y-87518397D01*
X71219062Y-87377942D01*
X71164259Y-87245636D01*
X71084698Y-87126564D01*
X70983436Y-87025302D01*
X70864364Y-86945741D01*
X70732058Y-86890938D01*
X70591603Y-86863000D01*
X70448397Y-86863000D01*
X70307942Y-86890938D01*
X70175636Y-86945741D01*
X70056564Y-87025302D01*
X69955302Y-87126564D01*
X69875741Y-87245636D01*
X69820938Y-87377942D01*
X69793000Y-87518397D01*
X69793000Y-87661603D01*
X69795683Y-87675093D01*
X68236096Y-89234681D01*
X68218842Y-89248841D01*
X68196145Y-89276498D01*
X68162358Y-89317667D01*
X68120386Y-89396191D01*
X68094540Y-89481393D01*
X68085906Y-89569060D01*
X68076564Y-89575302D01*
X67975302Y-89676564D01*
X67895741Y-89795636D01*
X67840938Y-89927942D01*
X67813000Y-90068397D01*
X67813000Y-90211603D01*
X67840938Y-90352058D01*
X67891034Y-90473000D01*
X67416108Y-90473000D01*
X66648972Y-89705865D01*
X66615239Y-89664761D01*
X66451244Y-89530174D01*
X66264144Y-89430167D01*
X66061129Y-89368583D01*
X65902909Y-89353000D01*
X65902907Y-89353000D01*
X65850000Y-89347789D01*
X65797093Y-89353000D01*
X63712909Y-89353000D01*
X63660000Y-89347789D01*
X63607091Y-89353000D01*
X63448871Y-89368583D01*
X63245856Y-89430167D01*
X63058756Y-89530174D01*
X62894761Y-89664761D01*
X62760174Y-89828756D01*
X62660167Y-90015856D01*
X62598583Y-90218871D01*
X62577789Y-90430000D01*
X62583000Y-90482909D01*
X62583000Y-91497091D01*
X62577789Y-91550000D01*
X62598583Y-91761129D01*
X62660167Y-91964144D01*
X62740640Y-92114698D01*
X62760174Y-92151244D01*
X62894761Y-92315239D01*
X63058756Y-92449826D01*
X63245856Y-92549833D01*
X63448871Y-92611417D01*
X63660000Y-92632211D01*
X63712909Y-92627000D01*
X66917092Y-92627000D01*
X66969999Y-92632211D01*
X67022906Y-92627000D01*
X84547093Y-92627000D01*
X84600000Y-92632211D01*
X84652907Y-92627000D01*
X84652909Y-92627000D01*
X84811129Y-92611417D01*
X85014144Y-92549833D01*
X85201244Y-92449826D01*
X85365239Y-92315239D01*
X85398972Y-92274135D01*
X86494526Y-91178582D01*
X87000000Y-91178582D01*
X87064103Y-91172268D01*
X87125743Y-91153570D01*
X87182550Y-91123206D01*
X87232343Y-91082343D01*
X87273206Y-91032550D01*
X87303570Y-90975743D01*
X87322268Y-90914103D01*
X87328582Y-90850000D01*
X87328582Y-89150000D01*
X87322268Y-89085897D01*
X87303570Y-89024257D01*
X87273206Y-88967450D01*
X87232343Y-88917657D01*
X87227000Y-88913272D01*
X87227000Y-87935542D01*
X87281769Y-87803318D01*
X87327000Y-87575924D01*
X87327000Y-87344076D01*
X87281769Y-87116682D01*
X87227000Y-86984458D01*
X87227000Y-85395542D01*
X87281769Y-85263318D01*
X87327000Y-85035924D01*
X87327000Y-84804076D01*
X87281769Y-84576682D01*
X87227000Y-84444458D01*
X87227000Y-82855542D01*
X87281769Y-82723318D01*
X87327000Y-82495924D01*
X87327000Y-82264076D01*
X87281769Y-82036682D01*
X87227000Y-81904458D01*
X87227000Y-79403199D01*
X87232211Y-79350292D01*
X87227000Y-79297383D01*
X87211417Y-79139163D01*
X87149833Y-78936148D01*
X87049826Y-78749048D01*
X86915239Y-78585053D01*
X86874140Y-78551324D01*
X85542816Y-77220000D01*
X88741418Y-77220000D01*
X88741418Y-78920000D01*
X88747732Y-78984103D01*
X88766430Y-79045743D01*
X88796794Y-79102550D01*
X88837657Y-79152343D01*
X88887450Y-79193206D01*
X88944257Y-79223570D01*
X89005897Y-79242268D01*
X89070000Y-79248582D01*
X90770000Y-79248582D01*
X90834103Y-79242268D01*
X90895743Y-79223570D01*
X90952550Y-79193206D01*
X91002343Y-79152343D01*
X91043206Y-79102550D01*
X91073570Y-79045743D01*
X91092268Y-78984103D01*
X91098582Y-78920000D01*
X91098582Y-77220000D01*
X91092268Y-77155897D01*
X91073570Y-77094257D01*
X91043206Y-77037450D01*
X91002343Y-76987657D01*
X90952550Y-76946794D01*
X90895743Y-76916430D01*
X90834103Y-76897732D01*
X90770000Y-76891418D01*
X89070000Y-76891418D01*
X89005897Y-76897732D01*
X88944257Y-76916430D01*
X88887450Y-76946794D01*
X88837657Y-76987657D01*
X88796794Y-77037450D01*
X88766430Y-77094257D01*
X88747732Y-77155897D01*
X88741418Y-77220000D01*
X85542816Y-77220000D01*
X83736892Y-75414076D01*
X88743000Y-75414076D01*
X88743000Y-75645924D01*
X88788231Y-75873318D01*
X88876956Y-76087519D01*
X89005764Y-76280294D01*
X89169706Y-76444236D01*
X89362481Y-76573044D01*
X89576682Y-76661769D01*
X89804076Y-76707000D01*
X90035924Y-76707000D01*
X90263318Y-76661769D01*
X90477519Y-76573044D01*
X90670294Y-76444236D01*
X90834236Y-76280294D01*
X90963044Y-76087519D01*
X91051769Y-75873318D01*
X91097000Y-75645924D01*
X91097000Y-75414076D01*
X91051769Y-75186682D01*
X90963044Y-74972481D01*
X90834236Y-74779706D01*
X90670294Y-74615764D01*
X90477519Y-74486956D01*
X90263318Y-74398231D01*
X90035924Y-74353000D01*
X89804076Y-74353000D01*
X89576682Y-74398231D01*
X89362481Y-74486956D01*
X89169706Y-74615764D01*
X89005764Y-74779706D01*
X88876956Y-74972481D01*
X88788231Y-75186682D01*
X88743000Y-75414076D01*
X83736892Y-75414076D01*
X80388681Y-72065866D01*
X80354947Y-72024761D01*
X80190952Y-71890174D01*
X80003852Y-71790167D01*
X79800837Y-71728583D01*
X79642617Y-71713000D01*
X79642615Y-71713000D01*
X79589708Y-71707789D01*
X79536801Y-71713000D01*
X63967091Y-71713000D01*
X63808871Y-71728583D01*
X63605856Y-71790167D01*
X63418756Y-71890174D01*
X63254761Y-72024761D01*
X63120174Y-72188756D01*
X63020167Y-72375856D01*
X62958583Y-72578871D01*
X62937789Y-72790000D01*
X62958583Y-73001129D01*
X63020167Y-73204144D01*
X63120174Y-73391244D01*
X63254761Y-73555239D01*
X63418756Y-73689826D01*
X63605856Y-73789833D01*
X63808871Y-73851417D01*
X63967091Y-73867000D01*
X69273212Y-73867000D01*
X69250731Y-73900646D01*
X69195928Y-74032952D01*
X69167990Y-74173407D01*
X69167990Y-74316613D01*
X69195928Y-74457068D01*
X69250731Y-74589374D01*
X69330292Y-74708446D01*
X69344153Y-74722307D01*
X68543461Y-75523001D01*
X62651519Y-75523001D01*
X62629314Y-75520814D01*
X62540706Y-75529541D01*
X62455504Y-75555387D01*
X62376981Y-75597358D01*
X62308155Y-75653842D01*
X62293995Y-75671096D01*
X55686096Y-82278996D01*
X55668842Y-82293156D01*
X55612358Y-82361982D01*
X55570386Y-82440506D01*
X55544540Y-82525708D01*
X55536360Y-82608756D01*
X55526564Y-82615302D01*
X55425302Y-82716564D01*
X55345741Y-82835636D01*
X55290938Y-82967942D01*
X55263000Y-83108397D01*
X45911156Y-83108397D01*
X48476058Y-80543497D01*
X48507605Y-80517607D01*
X48533495Y-80486060D01*
X48533501Y-80486054D01*
X48610950Y-80391682D01*
X48637149Y-80342667D01*
X48687744Y-80248011D01*
X48735033Y-80092121D01*
X48746999Y-79970625D01*
X48746999Y-79970613D01*
X48750999Y-79930002D01*
X48746999Y-79889391D01*
X48746999Y-68426552D01*
X49667199Y-69346753D01*
X49663001Y-69389376D01*
X49663000Y-70489375D01*
X49658999Y-70530000D01*
X49674966Y-70692120D01*
X49722255Y-70848010D01*
X49799048Y-70991679D01*
X49842560Y-71044698D01*
X49902394Y-71117606D01*
X50028321Y-71220952D01*
X50171990Y-71297745D01*
X50327880Y-71345034D01*
X50490000Y-71361001D01*
X50530624Y-71357000D01*
X51979385Y-71357000D01*
X52019999Y-71361000D01*
X52060613Y-71357000D01*
X76360624Y-71357000D01*
X76482120Y-71345034D01*
X76638010Y-71297745D01*
X76781679Y-71220952D01*
X76907606Y-71117606D01*
X76943330Y-71074076D01*
X88773000Y-71074076D01*
X88773000Y-71305924D01*
X88818231Y-71533318D01*
X88906956Y-71747519D01*
X89035764Y-71940294D01*
X89199706Y-72104236D01*
X89392481Y-72233044D01*
X89606682Y-72321769D01*
X89834076Y-72367000D01*
X90065924Y-72367000D01*
X90293318Y-72321769D01*
X90507519Y-72233044D01*
X90700294Y-72104236D01*
X90864236Y-71940294D01*
X90993044Y-71747519D01*
X91081769Y-71533318D01*
X91127000Y-71305924D01*
X91127000Y-71074076D01*
X91081769Y-70846682D01*
X90993044Y-70632481D01*
X90864236Y-70439706D01*
X90700294Y-70275764D01*
X90507519Y-70146956D01*
X90293318Y-70058231D01*
X90065924Y-70013000D01*
X89834076Y-70013000D01*
X89606682Y-70058231D01*
X89392481Y-70146956D01*
X89199706Y-70275764D01*
X89035764Y-70439706D01*
X88906956Y-70632481D01*
X88818231Y-70846682D01*
X88773000Y-71074076D01*
X76943330Y-71074076D01*
X77010952Y-70991679D01*
X77087745Y-70848010D01*
X77135034Y-70692120D01*
X77151001Y-70530000D01*
X77135034Y-70367880D01*
X77087745Y-70211990D01*
X77010952Y-70068321D01*
X76907606Y-69942394D01*
X76781679Y-69839048D01*
X76638010Y-69762255D01*
X76482120Y-69714966D01*
X76360624Y-69703000D01*
X52362554Y-69703000D01*
X50459554Y-67800000D01*
X88771418Y-67800000D01*
X88771418Y-69500000D01*
X88777732Y-69564103D01*
X88796430Y-69625743D01*
X88826794Y-69682550D01*
X88867657Y-69732343D01*
X88917450Y-69773206D01*
X88974257Y-69803570D01*
X89035897Y-69822268D01*
X89100000Y-69828582D01*
X90800000Y-69828582D01*
X90864103Y-69822268D01*
X90925743Y-69803570D01*
X90982550Y-69773206D01*
X91032343Y-69732343D01*
X91073206Y-69682550D01*
X91103570Y-69625743D01*
X91122268Y-69564103D01*
X91128582Y-69500000D01*
X91128582Y-67800000D01*
X91122268Y-67735897D01*
X91103570Y-67674257D01*
X91073206Y-67617450D01*
X91032343Y-67567657D01*
X90982550Y-67526794D01*
X90925743Y-67496430D01*
X90864103Y-67477732D01*
X90800000Y-67471418D01*
X89100000Y-67471418D01*
X89035897Y-67477732D01*
X88974257Y-67496430D01*
X88917450Y-67526794D01*
X88867657Y-67567657D01*
X88826794Y-67617450D01*
X88796430Y-67674257D01*
X88777732Y-67735897D01*
X88771418Y-67800000D01*
X50459554Y-67800000D01*
X48746999Y-66087446D01*
X48746999Y-64134076D01*
X76723000Y-64134076D01*
X76723000Y-64365924D01*
X76768231Y-64593318D01*
X76856956Y-64807519D01*
X76985764Y-65000294D01*
X77149706Y-65164236D01*
X77342481Y-65293044D01*
X77556682Y-65381769D01*
X77784076Y-65427000D01*
X78015924Y-65427000D01*
X78243318Y-65381769D01*
X78457519Y-65293044D01*
X78650294Y-65164236D01*
X78814236Y-65000294D01*
X78943044Y-64807519D01*
X79031769Y-64593318D01*
X79077000Y-64365924D01*
X79077000Y-64134076D01*
X79075011Y-64124076D01*
X80353000Y-64124076D01*
X80353000Y-64355924D01*
X80398231Y-64583318D01*
X80486956Y-64797519D01*
X80615764Y-64990294D01*
X80779706Y-65154236D01*
X80972481Y-65283044D01*
X81186682Y-65371769D01*
X81414076Y-65417000D01*
X81645924Y-65417000D01*
X81873318Y-65371769D01*
X82087519Y-65283044D01*
X82280294Y-65154236D01*
X82444236Y-64990294D01*
X82573044Y-64797519D01*
X82661769Y-64583318D01*
X82707000Y-64355924D01*
X82707000Y-64174076D01*
X85193000Y-64174076D01*
X85193000Y-64405924D01*
X85238231Y-64633318D01*
X85326956Y-64847519D01*
X85455764Y-65040294D01*
X85619706Y-65204236D01*
X85812481Y-65333044D01*
X86026682Y-65421769D01*
X86254076Y-65467000D01*
X86485924Y-65467000D01*
X86713318Y-65421769D01*
X86927519Y-65333044D01*
X87120294Y-65204236D01*
X87284236Y-65040294D01*
X87413044Y-64847519D01*
X87501769Y-64633318D01*
X87547000Y-64405924D01*
X87547000Y-64174076D01*
X88833000Y-64174076D01*
X88833000Y-64405924D01*
X88878231Y-64633318D01*
X88966956Y-64847519D01*
X89095764Y-65040294D01*
X89259706Y-65204236D01*
X89452481Y-65333044D01*
X89666682Y-65421769D01*
X89894076Y-65467000D01*
X90125924Y-65467000D01*
X90353318Y-65421769D01*
X90567519Y-65333044D01*
X90760294Y-65204236D01*
X90924236Y-65040294D01*
X91053044Y-64847519D01*
X91141769Y-64633318D01*
X91187000Y-64405924D01*
X91187000Y-64174076D01*
X91141769Y-63946682D01*
X91053044Y-63732481D01*
X90924236Y-63539706D01*
X90760294Y-63375764D01*
X90567519Y-63246956D01*
X90353318Y-63158231D01*
X90125924Y-63113000D01*
X89894076Y-63113000D01*
X89666682Y-63158231D01*
X89452481Y-63246956D01*
X89259706Y-63375764D01*
X89095764Y-63539706D01*
X88966956Y-63732481D01*
X88878231Y-63946682D01*
X88833000Y-64174076D01*
X87547000Y-64174076D01*
X87501769Y-63946682D01*
X87413044Y-63732481D01*
X87284236Y-63539706D01*
X87120294Y-63375764D01*
X86927519Y-63246956D01*
X86713318Y-63158231D01*
X86485924Y-63113000D01*
X86254076Y-63113000D01*
X86026682Y-63158231D01*
X85812481Y-63246956D01*
X85619706Y-63375764D01*
X85455764Y-63539706D01*
X85326956Y-63732481D01*
X85238231Y-63946682D01*
X85193000Y-64174076D01*
X82707000Y-64174076D01*
X82707000Y-64124076D01*
X82661769Y-63896682D01*
X82573044Y-63682481D01*
X82444236Y-63489706D01*
X82280294Y-63325764D01*
X82087519Y-63196956D01*
X81873318Y-63108231D01*
X81645924Y-63063000D01*
X81414076Y-63063000D01*
X81186682Y-63108231D01*
X80972481Y-63196956D01*
X80779706Y-63325764D01*
X80615764Y-63489706D01*
X80486956Y-63682481D01*
X80398231Y-63896682D01*
X80353000Y-64124076D01*
X79075011Y-64124076D01*
X79031769Y-63906682D01*
X78943044Y-63692481D01*
X78814236Y-63499706D01*
X78650294Y-63335764D01*
X78457519Y-63206956D01*
X78243318Y-63118231D01*
X78015924Y-63073000D01*
X77784076Y-63073000D01*
X77556682Y-63118231D01*
X77342481Y-63206956D01*
X77149706Y-63335764D01*
X76985764Y-63499706D01*
X76856956Y-63692481D01*
X76768231Y-63906682D01*
X76723000Y-64134076D01*
X48746999Y-64134076D01*
X48746999Y-61594076D01*
X76723000Y-61594076D01*
X76723000Y-61825924D01*
X76768231Y-62053318D01*
X76856956Y-62267519D01*
X76985764Y-62460294D01*
X77149706Y-62624236D01*
X77342481Y-62753044D01*
X77556682Y-62841769D01*
X77784076Y-62887000D01*
X78015924Y-62887000D01*
X78243318Y-62841769D01*
X78457519Y-62753044D01*
X78650294Y-62624236D01*
X78814236Y-62460294D01*
X78943044Y-62267519D01*
X79031769Y-62053318D01*
X79077000Y-61825924D01*
X79077000Y-61594076D01*
X79075011Y-61584076D01*
X80353000Y-61584076D01*
X80353000Y-61815924D01*
X80398231Y-62043318D01*
X80486956Y-62257519D01*
X80615764Y-62450294D01*
X80779706Y-62614236D01*
X80972481Y-62743044D01*
X81186682Y-62831769D01*
X81414076Y-62877000D01*
X81645924Y-62877000D01*
X81873318Y-62831769D01*
X82087519Y-62743044D01*
X82280294Y-62614236D01*
X82444236Y-62450294D01*
X82573044Y-62257519D01*
X82661769Y-62043318D01*
X82707000Y-61815924D01*
X82707000Y-61634076D01*
X85193000Y-61634076D01*
X85193000Y-61865924D01*
X85238231Y-62093318D01*
X85326956Y-62307519D01*
X85455764Y-62500294D01*
X85619706Y-62664236D01*
X85812481Y-62793044D01*
X86026682Y-62881769D01*
X86254076Y-62927000D01*
X86485924Y-62927000D01*
X86713318Y-62881769D01*
X86927519Y-62793044D01*
X87120294Y-62664236D01*
X87284236Y-62500294D01*
X87413044Y-62307519D01*
X87501769Y-62093318D01*
X87547000Y-61865924D01*
X87547000Y-61634076D01*
X88833000Y-61634076D01*
X88833000Y-61865924D01*
X88878231Y-62093318D01*
X88966956Y-62307519D01*
X89095764Y-62500294D01*
X89259706Y-62664236D01*
X89452481Y-62793044D01*
X89666682Y-62881769D01*
X89894076Y-62927000D01*
X90125924Y-62927000D01*
X90353318Y-62881769D01*
X90567519Y-62793044D01*
X90760294Y-62664236D01*
X90924236Y-62500294D01*
X91053044Y-62307519D01*
X91141769Y-62093318D01*
X91187000Y-61865924D01*
X91187000Y-61634076D01*
X91141769Y-61406682D01*
X91053044Y-61192481D01*
X90924236Y-60999706D01*
X90760294Y-60835764D01*
X90567519Y-60706956D01*
X90353318Y-60618231D01*
X90125924Y-60573000D01*
X89894076Y-60573000D01*
X89666682Y-60618231D01*
X89452481Y-60706956D01*
X89259706Y-60835764D01*
X89095764Y-60999706D01*
X88966956Y-61192481D01*
X88878231Y-61406682D01*
X88833000Y-61634076D01*
X87547000Y-61634076D01*
X87501769Y-61406682D01*
X87413044Y-61192481D01*
X87284236Y-60999706D01*
X87120294Y-60835764D01*
X86927519Y-60706956D01*
X86713318Y-60618231D01*
X86485924Y-60573000D01*
X86254076Y-60573000D01*
X86026682Y-60618231D01*
X85812481Y-60706956D01*
X85619706Y-60835764D01*
X85455764Y-60999706D01*
X85326956Y-61192481D01*
X85238231Y-61406682D01*
X85193000Y-61634076D01*
X82707000Y-61634076D01*
X82707000Y-61584076D01*
X82661769Y-61356682D01*
X82573044Y-61142481D01*
X82444236Y-60949706D01*
X82280294Y-60785764D01*
X82087519Y-60656956D01*
X81873318Y-60568231D01*
X81645924Y-60523000D01*
X81414076Y-60523000D01*
X81186682Y-60568231D01*
X80972481Y-60656956D01*
X80779706Y-60785764D01*
X80615764Y-60949706D01*
X80486956Y-61142481D01*
X80398231Y-61356682D01*
X80353000Y-61584076D01*
X79075011Y-61584076D01*
X79031769Y-61366682D01*
X78943044Y-61152481D01*
X78814236Y-60959706D01*
X78650294Y-60795764D01*
X78457519Y-60666956D01*
X78243318Y-60578231D01*
X78015924Y-60533000D01*
X77784076Y-60533000D01*
X77556682Y-60578231D01*
X77342481Y-60666956D01*
X77149706Y-60795764D01*
X76985764Y-60959706D01*
X76856956Y-61152481D01*
X76768231Y-61366682D01*
X76723000Y-61594076D01*
X48746999Y-61594076D01*
X48746999Y-59054076D01*
X76723000Y-59054076D01*
X76723000Y-59285924D01*
X76768231Y-59513318D01*
X76856956Y-59727519D01*
X76985764Y-59920294D01*
X77149706Y-60084236D01*
X77342481Y-60213044D01*
X77556682Y-60301769D01*
X77784076Y-60347000D01*
X78015924Y-60347000D01*
X78243318Y-60301769D01*
X78457519Y-60213044D01*
X78650294Y-60084236D01*
X78814236Y-59920294D01*
X78943044Y-59727519D01*
X79031769Y-59513318D01*
X79077000Y-59285924D01*
X79077000Y-59054076D01*
X79075011Y-59044076D01*
X80353000Y-59044076D01*
X80353000Y-59275924D01*
X80398231Y-59503318D01*
X80486956Y-59717519D01*
X80615764Y-59910294D01*
X80779706Y-60074236D01*
X80972481Y-60203044D01*
X81186682Y-60291769D01*
X81414076Y-60337000D01*
X81645924Y-60337000D01*
X81873318Y-60291769D01*
X82087519Y-60203044D01*
X82280294Y-60074236D01*
X82444236Y-59910294D01*
X82573044Y-59717519D01*
X82661769Y-59503318D01*
X82707000Y-59275924D01*
X82707000Y-59094076D01*
X85193000Y-59094076D01*
X85193000Y-59325924D01*
X85238231Y-59553318D01*
X85326956Y-59767519D01*
X85455764Y-59960294D01*
X85619706Y-60124236D01*
X85812481Y-60253044D01*
X86026682Y-60341769D01*
X86254076Y-60387000D01*
X86485924Y-60387000D01*
X86713318Y-60341769D01*
X86927519Y-60253044D01*
X87120294Y-60124236D01*
X87284236Y-59960294D01*
X87413044Y-59767519D01*
X87501769Y-59553318D01*
X87547000Y-59325924D01*
X87547000Y-59094076D01*
X88833000Y-59094076D01*
X88833000Y-59325924D01*
X88878231Y-59553318D01*
X88966956Y-59767519D01*
X89095764Y-59960294D01*
X89259706Y-60124236D01*
X89452481Y-60253044D01*
X89666682Y-60341769D01*
X89894076Y-60387000D01*
X90125924Y-60387000D01*
X90353318Y-60341769D01*
X90567519Y-60253044D01*
X90760294Y-60124236D01*
X90924236Y-59960294D01*
X91053044Y-59767519D01*
X91141769Y-59553318D01*
X91187000Y-59325924D01*
X91187000Y-59094076D01*
X91141769Y-58866682D01*
X91053044Y-58652481D01*
X90924236Y-58459706D01*
X90760294Y-58295764D01*
X90567519Y-58166956D01*
X90353318Y-58078231D01*
X90125924Y-58033000D01*
X89894076Y-58033000D01*
X89666682Y-58078231D01*
X89452481Y-58166956D01*
X89259706Y-58295764D01*
X89095764Y-58459706D01*
X88966956Y-58652481D01*
X88878231Y-58866682D01*
X88833000Y-59094076D01*
X87547000Y-59094076D01*
X87501769Y-58866682D01*
X87413044Y-58652481D01*
X87284236Y-58459706D01*
X87120294Y-58295764D01*
X86927519Y-58166956D01*
X86713318Y-58078231D01*
X86485924Y-58033000D01*
X86254076Y-58033000D01*
X86026682Y-58078231D01*
X85812481Y-58166956D01*
X85619706Y-58295764D01*
X85455764Y-58459706D01*
X85326956Y-58652481D01*
X85238231Y-58866682D01*
X85193000Y-59094076D01*
X82707000Y-59094076D01*
X82707000Y-59044076D01*
X82661769Y-58816682D01*
X82573044Y-58602481D01*
X82444236Y-58409706D01*
X82280294Y-58245764D01*
X82087519Y-58116956D01*
X81873318Y-58028231D01*
X81645924Y-57983000D01*
X81414076Y-57983000D01*
X81186682Y-58028231D01*
X80972481Y-58116956D01*
X80779706Y-58245764D01*
X80615764Y-58409706D01*
X80486956Y-58602481D01*
X80398231Y-58816682D01*
X80353000Y-59044076D01*
X79075011Y-59044076D01*
X79031769Y-58826682D01*
X78943044Y-58612481D01*
X78814236Y-58419706D01*
X78650294Y-58255764D01*
X78457519Y-58126956D01*
X78243318Y-58038231D01*
X78015924Y-57993000D01*
X77784076Y-57993000D01*
X77556682Y-58038231D01*
X77342481Y-58126956D01*
X77149706Y-58255764D01*
X76985764Y-58419706D01*
X76856956Y-58612481D01*
X76768231Y-58826682D01*
X76723000Y-59054076D01*
X48746999Y-59054076D01*
X48746999Y-56514076D01*
X76723000Y-56514076D01*
X76723000Y-56745924D01*
X76768231Y-56973318D01*
X76856956Y-57187519D01*
X76985764Y-57380294D01*
X77149706Y-57544236D01*
X77342481Y-57673044D01*
X77556682Y-57761769D01*
X77784076Y-57807000D01*
X78015924Y-57807000D01*
X78243318Y-57761769D01*
X78457519Y-57673044D01*
X78650294Y-57544236D01*
X78814236Y-57380294D01*
X78943044Y-57187519D01*
X79031769Y-56973318D01*
X79077000Y-56745924D01*
X79077000Y-56514076D01*
X79075011Y-56504076D01*
X80353000Y-56504076D01*
X80353000Y-56735924D01*
X80398231Y-56963318D01*
X80486956Y-57177519D01*
X80615764Y-57370294D01*
X80779706Y-57534236D01*
X80972481Y-57663044D01*
X81186682Y-57751769D01*
X81414076Y-57797000D01*
X81645924Y-57797000D01*
X81873318Y-57751769D01*
X82087519Y-57663044D01*
X82280294Y-57534236D01*
X82444236Y-57370294D01*
X82573044Y-57177519D01*
X82661769Y-56963318D01*
X82707000Y-56735924D01*
X82707000Y-56554076D01*
X85193000Y-56554076D01*
X85193000Y-56785924D01*
X85238231Y-57013318D01*
X85326956Y-57227519D01*
X85455764Y-57420294D01*
X85619706Y-57584236D01*
X85812481Y-57713044D01*
X86026682Y-57801769D01*
X86254076Y-57847000D01*
X86485924Y-57847000D01*
X86713318Y-57801769D01*
X86927519Y-57713044D01*
X87120294Y-57584236D01*
X87284236Y-57420294D01*
X87413044Y-57227519D01*
X87501769Y-57013318D01*
X87547000Y-56785924D01*
X87547000Y-56554076D01*
X88833000Y-56554076D01*
X88833000Y-56785924D01*
X88878231Y-57013318D01*
X88966956Y-57227519D01*
X89095764Y-57420294D01*
X89259706Y-57584236D01*
X89452481Y-57713044D01*
X89666682Y-57801769D01*
X89894076Y-57847000D01*
X90125924Y-57847000D01*
X90353318Y-57801769D01*
X90567519Y-57713044D01*
X90760294Y-57584236D01*
X90924236Y-57420294D01*
X91053044Y-57227519D01*
X91141769Y-57013318D01*
X91187000Y-56785924D01*
X91187000Y-56554076D01*
X91141769Y-56326682D01*
X91053044Y-56112481D01*
X90924236Y-55919706D01*
X90760294Y-55755764D01*
X90567519Y-55626956D01*
X90353318Y-55538231D01*
X90125924Y-55493000D01*
X89894076Y-55493000D01*
X89666682Y-55538231D01*
X89452481Y-55626956D01*
X89259706Y-55755764D01*
X89095764Y-55919706D01*
X88966956Y-56112481D01*
X88878231Y-56326682D01*
X88833000Y-56554076D01*
X87547000Y-56554076D01*
X87501769Y-56326682D01*
X87413044Y-56112481D01*
X87284236Y-55919706D01*
X87120294Y-55755764D01*
X86927519Y-55626956D01*
X86713318Y-55538231D01*
X86485924Y-55493000D01*
X86254076Y-55493000D01*
X86026682Y-55538231D01*
X85812481Y-55626956D01*
X85619706Y-55755764D01*
X85455764Y-55919706D01*
X85326956Y-56112481D01*
X85238231Y-56326682D01*
X85193000Y-56554076D01*
X82707000Y-56554076D01*
X82707000Y-56504076D01*
X82661769Y-56276682D01*
X82573044Y-56062481D01*
X82444236Y-55869706D01*
X82280294Y-55705764D01*
X82087519Y-55576956D01*
X81873318Y-55488231D01*
X81645924Y-55443000D01*
X81414076Y-55443000D01*
X81186682Y-55488231D01*
X80972481Y-55576956D01*
X80779706Y-55705764D01*
X80615764Y-55869706D01*
X80486956Y-56062481D01*
X80398231Y-56276682D01*
X80353000Y-56504076D01*
X79075011Y-56504076D01*
X79031769Y-56286682D01*
X78943044Y-56072481D01*
X78814236Y-55879706D01*
X78650294Y-55715764D01*
X78457519Y-55586956D01*
X78243318Y-55498231D01*
X78015924Y-55453000D01*
X77784076Y-55453000D01*
X77556682Y-55498231D01*
X77342481Y-55586956D01*
X77149706Y-55715764D01*
X76985764Y-55879706D01*
X76856956Y-56072481D01*
X76768231Y-56286682D01*
X76723000Y-56514076D01*
X48746999Y-56514076D01*
X48746999Y-53974076D01*
X76723000Y-53974076D01*
X76723000Y-54205924D01*
X76768231Y-54433318D01*
X76856956Y-54647519D01*
X76985764Y-54840294D01*
X77149706Y-55004236D01*
X77342481Y-55133044D01*
X77556682Y-55221769D01*
X77784076Y-55267000D01*
X78015924Y-55267000D01*
X78243318Y-55221769D01*
X78457519Y-55133044D01*
X78650294Y-55004236D01*
X78814236Y-54840294D01*
X78943044Y-54647519D01*
X79031769Y-54433318D01*
X79077000Y-54205924D01*
X79077000Y-53974076D01*
X79075011Y-53964076D01*
X80353000Y-53964076D01*
X80353000Y-54195924D01*
X80398231Y-54423318D01*
X80486956Y-54637519D01*
X80615764Y-54830294D01*
X80779706Y-54994236D01*
X80972481Y-55123044D01*
X81186682Y-55211769D01*
X81414076Y-55257000D01*
X81645924Y-55257000D01*
X81873318Y-55211769D01*
X82087519Y-55123044D01*
X82280294Y-54994236D01*
X82444236Y-54830294D01*
X82573044Y-54637519D01*
X82661769Y-54423318D01*
X82707000Y-54195924D01*
X82707000Y-54014076D01*
X85193000Y-54014076D01*
X85193000Y-54245924D01*
X85238231Y-54473318D01*
X85326956Y-54687519D01*
X85455764Y-54880294D01*
X85619706Y-55044236D01*
X85812481Y-55173044D01*
X86026682Y-55261769D01*
X86254076Y-55307000D01*
X86485924Y-55307000D01*
X86713318Y-55261769D01*
X86927519Y-55173044D01*
X87120294Y-55044236D01*
X87284236Y-54880294D01*
X87413044Y-54687519D01*
X87501769Y-54473318D01*
X87547000Y-54245924D01*
X87547000Y-54014076D01*
X88833000Y-54014076D01*
X88833000Y-54245924D01*
X88878231Y-54473318D01*
X88966956Y-54687519D01*
X89095764Y-54880294D01*
X89259706Y-55044236D01*
X89452481Y-55173044D01*
X89666682Y-55261769D01*
X89894076Y-55307000D01*
X90125924Y-55307000D01*
X90353318Y-55261769D01*
X90567519Y-55173044D01*
X90760294Y-55044236D01*
X90924236Y-54880294D01*
X91053044Y-54687519D01*
X91141769Y-54473318D01*
X91187000Y-54245924D01*
X91187000Y-54014076D01*
X91141769Y-53786682D01*
X91053044Y-53572481D01*
X90924236Y-53379706D01*
X90760294Y-53215764D01*
X90567519Y-53086956D01*
X90353318Y-52998231D01*
X90125924Y-52953000D01*
X89894076Y-52953000D01*
X89666682Y-52998231D01*
X89452481Y-53086956D01*
X89259706Y-53215764D01*
X89095764Y-53379706D01*
X88966956Y-53572481D01*
X88878231Y-53786682D01*
X88833000Y-54014076D01*
X87547000Y-54014076D01*
X87501769Y-53786682D01*
X87413044Y-53572481D01*
X87284236Y-53379706D01*
X87120294Y-53215764D01*
X86927519Y-53086956D01*
X86713318Y-52998231D01*
X86485924Y-52953000D01*
X86254076Y-52953000D01*
X86026682Y-52998231D01*
X85812481Y-53086956D01*
X85619706Y-53215764D01*
X85455764Y-53379706D01*
X85326956Y-53572481D01*
X85238231Y-53786682D01*
X85193000Y-54014076D01*
X82707000Y-54014076D01*
X82707000Y-53964076D01*
X82661769Y-53736682D01*
X82573044Y-53522481D01*
X82444236Y-53329706D01*
X82280294Y-53165764D01*
X82087519Y-53036956D01*
X81873318Y-52948231D01*
X81645924Y-52903000D01*
X81414076Y-52903000D01*
X81186682Y-52948231D01*
X80972481Y-53036956D01*
X80779706Y-53165764D01*
X80615764Y-53329706D01*
X80486956Y-53522481D01*
X80398231Y-53736682D01*
X80353000Y-53964076D01*
X79075011Y-53964076D01*
X79031769Y-53746682D01*
X78943044Y-53532481D01*
X78814236Y-53339706D01*
X78650294Y-53175764D01*
X78457519Y-53046956D01*
X78243318Y-52958231D01*
X78015924Y-52913000D01*
X77784076Y-52913000D01*
X77556682Y-52958231D01*
X77342481Y-53046956D01*
X77149706Y-53175764D01*
X76985764Y-53339706D01*
X76856956Y-53532481D01*
X76768231Y-53746682D01*
X76723000Y-53974076D01*
X48746999Y-53974076D01*
X48746999Y-51532554D01*
X48845477Y-51434076D01*
X76723000Y-51434076D01*
X76723000Y-51665924D01*
X76768231Y-51893318D01*
X76856956Y-52107519D01*
X76985764Y-52300294D01*
X77149706Y-52464236D01*
X77342481Y-52593044D01*
X77556682Y-52681769D01*
X77784076Y-52727000D01*
X78015924Y-52727000D01*
X78243318Y-52681769D01*
X78457519Y-52593044D01*
X78650294Y-52464236D01*
X78814236Y-52300294D01*
X78943044Y-52107519D01*
X79031769Y-51893318D01*
X79077000Y-51665924D01*
X79077000Y-51434076D01*
X79075011Y-51424076D01*
X80353000Y-51424076D01*
X80353000Y-51655924D01*
X80398231Y-51883318D01*
X80486956Y-52097519D01*
X80615764Y-52290294D01*
X80779706Y-52454236D01*
X80972481Y-52583044D01*
X81186682Y-52671769D01*
X81414076Y-52717000D01*
X81645924Y-52717000D01*
X81873318Y-52671769D01*
X82087519Y-52583044D01*
X82280294Y-52454236D01*
X82444236Y-52290294D01*
X82573044Y-52097519D01*
X82661769Y-51883318D01*
X82707000Y-51655924D01*
X82707000Y-51474076D01*
X85193000Y-51474076D01*
X85193000Y-51705924D01*
X85238231Y-51933318D01*
X85326956Y-52147519D01*
X85455764Y-52340294D01*
X85619706Y-52504236D01*
X85812481Y-52633044D01*
X86026682Y-52721769D01*
X86254076Y-52767000D01*
X86485924Y-52767000D01*
X86713318Y-52721769D01*
X86927519Y-52633044D01*
X87120294Y-52504236D01*
X87284236Y-52340294D01*
X87413044Y-52147519D01*
X87501769Y-51933318D01*
X87547000Y-51705924D01*
X87547000Y-51474076D01*
X88833000Y-51474076D01*
X88833000Y-51705924D01*
X88878231Y-51933318D01*
X88966956Y-52147519D01*
X89095764Y-52340294D01*
X89259706Y-52504236D01*
X89452481Y-52633044D01*
X89666682Y-52721769D01*
X89894076Y-52767000D01*
X90125924Y-52767000D01*
X90353318Y-52721769D01*
X90567519Y-52633044D01*
X90760294Y-52504236D01*
X90924236Y-52340294D01*
X91053044Y-52147519D01*
X91141769Y-51933318D01*
X91187000Y-51705924D01*
X91187000Y-51474076D01*
X91141769Y-51246682D01*
X91053044Y-51032481D01*
X90924236Y-50839706D01*
X90760294Y-50675764D01*
X90567519Y-50546956D01*
X90353318Y-50458231D01*
X90125924Y-50413000D01*
X89894076Y-50413000D01*
X89666682Y-50458231D01*
X89452481Y-50546956D01*
X89259706Y-50675764D01*
X89095764Y-50839706D01*
X88966956Y-51032481D01*
X88878231Y-51246682D01*
X88833000Y-51474076D01*
X87547000Y-51474076D01*
X87501769Y-51246682D01*
X87413044Y-51032481D01*
X87284236Y-50839706D01*
X87120294Y-50675764D01*
X86927519Y-50546956D01*
X86713318Y-50458231D01*
X86485924Y-50413000D01*
X86254076Y-50413000D01*
X86026682Y-50458231D01*
X85812481Y-50546956D01*
X85619706Y-50675764D01*
X85455764Y-50839706D01*
X85326956Y-51032481D01*
X85238231Y-51246682D01*
X85193000Y-51474076D01*
X82707000Y-51474076D01*
X82707000Y-51424076D01*
X82661769Y-51196682D01*
X82573044Y-50982481D01*
X82444236Y-50789706D01*
X82280294Y-50625764D01*
X82087519Y-50496956D01*
X81873318Y-50408231D01*
X81645924Y-50363000D01*
X81414076Y-50363000D01*
X81186682Y-50408231D01*
X80972481Y-50496956D01*
X80779706Y-50625764D01*
X80615764Y-50789706D01*
X80486956Y-50982481D01*
X80398231Y-51196682D01*
X80353000Y-51424076D01*
X79075011Y-51424076D01*
X79031769Y-51206682D01*
X78943044Y-50992481D01*
X78814236Y-50799706D01*
X78650294Y-50635764D01*
X78457519Y-50506956D01*
X78243318Y-50418231D01*
X78015924Y-50373000D01*
X77784076Y-50373000D01*
X77556682Y-50418231D01*
X77342481Y-50506956D01*
X77149706Y-50635764D01*
X76985764Y-50799706D01*
X76856956Y-50992481D01*
X76768231Y-51206682D01*
X76723000Y-51434076D01*
X48845477Y-51434076D01*
X51385477Y-48894076D01*
X76723000Y-48894076D01*
X76723000Y-49125924D01*
X76768231Y-49353318D01*
X76856956Y-49567519D01*
X76985764Y-49760294D01*
X77149706Y-49924236D01*
X77342481Y-50053044D01*
X77556682Y-50141769D01*
X77784076Y-50187000D01*
X78015924Y-50187000D01*
X78243318Y-50141769D01*
X78457519Y-50053044D01*
X78650294Y-49924236D01*
X78814236Y-49760294D01*
X78943044Y-49567519D01*
X79031769Y-49353318D01*
X79077000Y-49125924D01*
X79077000Y-48894076D01*
X79075011Y-48884076D01*
X80353000Y-48884076D01*
X80353000Y-49115924D01*
X80398231Y-49343318D01*
X80486956Y-49557519D01*
X80615764Y-49750294D01*
X80779706Y-49914236D01*
X80972481Y-50043044D01*
X81186682Y-50131769D01*
X81414076Y-50177000D01*
X81645924Y-50177000D01*
X81873318Y-50131769D01*
X82087519Y-50043044D01*
X82280294Y-49914236D01*
X82444236Y-49750294D01*
X82573044Y-49557519D01*
X82661769Y-49343318D01*
X82707000Y-49115924D01*
X82707000Y-48934076D01*
X85193000Y-48934076D01*
X85193000Y-49165924D01*
X85238231Y-49393318D01*
X85326956Y-49607519D01*
X85455764Y-49800294D01*
X85619706Y-49964236D01*
X85812481Y-50093044D01*
X86026682Y-50181769D01*
X86254076Y-50227000D01*
X86485924Y-50227000D01*
X86713318Y-50181769D01*
X86927519Y-50093044D01*
X87120294Y-49964236D01*
X87284236Y-49800294D01*
X87413044Y-49607519D01*
X87501769Y-49393318D01*
X87547000Y-49165924D01*
X87547000Y-48934076D01*
X88833000Y-48934076D01*
X88833000Y-49165924D01*
X88878231Y-49393318D01*
X88966956Y-49607519D01*
X89095764Y-49800294D01*
X89259706Y-49964236D01*
X89452481Y-50093044D01*
X89666682Y-50181769D01*
X89894076Y-50227000D01*
X90125924Y-50227000D01*
X90353318Y-50181769D01*
X90567519Y-50093044D01*
X90760294Y-49964236D01*
X90924236Y-49800294D01*
X91053044Y-49607519D01*
X91141769Y-49393318D01*
X91187000Y-49165924D01*
X91187000Y-48934076D01*
X91141769Y-48706682D01*
X91053044Y-48492481D01*
X90924236Y-48299706D01*
X90760294Y-48135764D01*
X90567519Y-48006956D01*
X90353318Y-47918231D01*
X90125924Y-47873000D01*
X89894076Y-47873000D01*
X89666682Y-47918231D01*
X89452481Y-48006956D01*
X89259706Y-48135764D01*
X89095764Y-48299706D01*
X88966956Y-48492481D01*
X88878231Y-48706682D01*
X88833000Y-48934076D01*
X87547000Y-48934076D01*
X87501769Y-48706682D01*
X87413044Y-48492481D01*
X87284236Y-48299706D01*
X87120294Y-48135764D01*
X86927519Y-48006956D01*
X86713318Y-47918231D01*
X86485924Y-47873000D01*
X86254076Y-47873000D01*
X86026682Y-47918231D01*
X85812481Y-48006956D01*
X85619706Y-48135764D01*
X85455764Y-48299706D01*
X85326956Y-48492481D01*
X85238231Y-48706682D01*
X85193000Y-48934076D01*
X82707000Y-48934076D01*
X82707000Y-48884076D01*
X82661769Y-48656682D01*
X82573044Y-48442481D01*
X82444236Y-48249706D01*
X82280294Y-48085764D01*
X82087519Y-47956956D01*
X81873318Y-47868231D01*
X81645924Y-47823000D01*
X81414076Y-47823000D01*
X81186682Y-47868231D01*
X80972481Y-47956956D01*
X80779706Y-48085764D01*
X80615764Y-48249706D01*
X80486956Y-48442481D01*
X80398231Y-48656682D01*
X80353000Y-48884076D01*
X79075011Y-48884076D01*
X79031769Y-48666682D01*
X78943044Y-48452481D01*
X78814236Y-48259706D01*
X78650294Y-48095764D01*
X78457519Y-47966956D01*
X78243318Y-47878231D01*
X78015924Y-47833000D01*
X77784076Y-47833000D01*
X77556682Y-47878231D01*
X77342481Y-47966956D01*
X77149706Y-48095764D01*
X76985764Y-48259706D01*
X76856956Y-48452481D01*
X76768231Y-48666682D01*
X76723000Y-48894076D01*
X51385477Y-48894076D01*
X51530133Y-48749420D01*
X51607091Y-48757000D01*
X51607093Y-48757000D01*
X51660000Y-48762211D01*
X51712907Y-48757000D01*
X53207093Y-48757000D01*
X53260000Y-48762211D01*
X53312907Y-48757000D01*
X53312909Y-48757000D01*
X53471129Y-48741417D01*
X53674144Y-48679833D01*
X53861244Y-48579826D01*
X54025239Y-48445239D01*
X54034254Y-48434254D01*
X54045239Y-48425239D01*
X54179826Y-48261244D01*
X54279833Y-48074144D01*
X54341417Y-47871129D01*
X54357000Y-47712909D01*
X54357000Y-47712907D01*
X54362211Y-47660001D01*
X54357000Y-47607094D01*
X54357000Y-46322909D01*
X54362211Y-46270000D01*
X54341417Y-46058871D01*
X54279833Y-45855856D01*
X54179826Y-45668756D01*
X54139813Y-45620000D01*
X76721418Y-45620000D01*
X76721418Y-47320000D01*
X76727732Y-47384103D01*
X76746430Y-47445743D01*
X76776794Y-47502550D01*
X76817657Y-47552343D01*
X76867450Y-47593206D01*
X76924257Y-47623570D01*
X76985897Y-47642268D01*
X77050000Y-47648582D01*
X78750000Y-47648582D01*
X78814103Y-47642268D01*
X78875743Y-47623570D01*
X78932550Y-47593206D01*
X78982343Y-47552343D01*
X79023206Y-47502550D01*
X79053570Y-47445743D01*
X79072268Y-47384103D01*
X79078582Y-47320000D01*
X79078582Y-45620000D01*
X79077598Y-45610000D01*
X80351418Y-45610000D01*
X80351418Y-47310000D01*
X80357732Y-47374103D01*
X80376430Y-47435743D01*
X80406794Y-47492550D01*
X80447657Y-47542343D01*
X80497450Y-47583206D01*
X80554257Y-47613570D01*
X80615897Y-47632268D01*
X80680000Y-47638582D01*
X82380000Y-47638582D01*
X82444103Y-47632268D01*
X82505743Y-47613570D01*
X82562550Y-47583206D01*
X82612343Y-47542343D01*
X82653206Y-47492550D01*
X82683570Y-47435743D01*
X82702268Y-47374103D01*
X82708582Y-47310000D01*
X82708582Y-45660000D01*
X85191418Y-45660000D01*
X85191418Y-47360000D01*
X85197732Y-47424103D01*
X85216430Y-47485743D01*
X85246794Y-47542550D01*
X85287657Y-47592343D01*
X85337450Y-47633206D01*
X85394257Y-47663570D01*
X85455897Y-47682268D01*
X85520000Y-47688582D01*
X87220000Y-47688582D01*
X87284103Y-47682268D01*
X87345743Y-47663570D01*
X87402550Y-47633206D01*
X87452343Y-47592343D01*
X87493206Y-47542550D01*
X87523570Y-47485743D01*
X87542268Y-47424103D01*
X87548582Y-47360000D01*
X87548582Y-45660000D01*
X88831418Y-45660000D01*
X88831418Y-47360000D01*
X88837732Y-47424103D01*
X88856430Y-47485743D01*
X88886794Y-47542550D01*
X88927657Y-47592343D01*
X88977450Y-47633206D01*
X89034257Y-47663570D01*
X89095897Y-47682268D01*
X89160000Y-47688582D01*
X90860000Y-47688582D01*
X90924103Y-47682268D01*
X90985743Y-47663570D01*
X91042550Y-47633206D01*
X91092343Y-47592343D01*
X91133206Y-47542550D01*
X91163570Y-47485743D01*
X91182268Y-47424103D01*
X91188582Y-47360000D01*
X91188582Y-45660000D01*
X91182268Y-45595897D01*
X91163570Y-45534257D01*
X91133206Y-45477450D01*
X91092343Y-45427657D01*
X91042550Y-45386794D01*
X90985743Y-45356430D01*
X90924103Y-45337732D01*
X90860000Y-45331418D01*
X89160000Y-45331418D01*
X89095897Y-45337732D01*
X89034257Y-45356430D01*
X88977450Y-45386794D01*
X88927657Y-45427657D01*
X88886794Y-45477450D01*
X88856430Y-45534257D01*
X88837732Y-45595897D01*
X88831418Y-45660000D01*
X87548582Y-45660000D01*
X87542268Y-45595897D01*
X87523570Y-45534257D01*
X87493206Y-45477450D01*
X87452343Y-45427657D01*
X87402550Y-45386794D01*
X87345743Y-45356430D01*
X87284103Y-45337732D01*
X87220000Y-45331418D01*
X85520000Y-45331418D01*
X85455897Y-45337732D01*
X85394257Y-45356430D01*
X85337450Y-45386794D01*
X85287657Y-45427657D01*
X85246794Y-45477450D01*
X85216430Y-45534257D01*
X85197732Y-45595897D01*
X85191418Y-45660000D01*
X82708582Y-45660000D01*
X82708582Y-45610000D01*
X82702268Y-45545897D01*
X82683570Y-45484257D01*
X82653206Y-45427450D01*
X82612343Y-45377657D01*
X82562550Y-45336794D01*
X82505743Y-45306430D01*
X82444103Y-45287732D01*
X82380000Y-45281418D01*
X80680000Y-45281418D01*
X80615897Y-45287732D01*
X80554257Y-45306430D01*
X80497450Y-45336794D01*
X80447657Y-45377657D01*
X80406794Y-45427450D01*
X80376430Y-45484257D01*
X80357732Y-45545897D01*
X80351418Y-45610000D01*
X79077598Y-45610000D01*
X79072268Y-45555897D01*
X79053570Y-45494257D01*
X79023206Y-45437450D01*
X78982343Y-45387657D01*
X78932550Y-45346794D01*
X78875743Y-45316430D01*
X78814103Y-45297732D01*
X78750000Y-45291418D01*
X77050000Y-45291418D01*
X76985897Y-45297732D01*
X76924257Y-45316430D01*
X76867450Y-45346794D01*
X76817657Y-45387657D01*
X76776794Y-45437450D01*
X76746430Y-45494257D01*
X76727732Y-45555897D01*
X76721418Y-45620000D01*
X54139813Y-45620000D01*
X54111697Y-45585741D01*
X54045239Y-45504761D01*
X54023269Y-45486731D01*
X54005239Y-45464761D01*
X53841244Y-45330174D01*
X53654144Y-45230167D01*
X53451129Y-45168583D01*
X53292909Y-45153000D01*
X53292907Y-45153000D01*
X53240000Y-45147789D01*
X53187093Y-45153000D01*
X51772909Y-45153000D01*
X51720000Y-45147789D01*
X51667091Y-45153000D01*
X51508871Y-45168583D01*
X51305856Y-45230167D01*
X51118756Y-45330174D01*
X50954761Y-45464761D01*
X50932223Y-45492223D01*
X50904761Y-45514761D01*
X50770174Y-45678756D01*
X50670167Y-45865857D01*
X50608583Y-46068872D01*
X50602967Y-46125897D01*
X50587789Y-46280000D01*
X50593000Y-46332907D01*
X50593000Y-47347446D01*
X47363947Y-50576500D01*
X47332394Y-50602395D01*
X47306499Y-50633948D01*
X47306497Y-50633950D01*
X47229047Y-50728322D01*
X47152255Y-50871991D01*
X47104966Y-51027881D01*
X47088999Y-51190001D01*
X47093000Y-51230625D01*
X47092999Y-60411341D01*
X47030004Y-60094644D01*
X46904572Y-59791825D01*
X46722473Y-59519294D01*
X46490706Y-59287527D01*
X46218175Y-59105428D01*
X45915356Y-58979996D01*
X45593885Y-58916051D01*
X45266115Y-58916051D01*
X44944644Y-58979996D01*
X44641825Y-59105428D01*
X44369294Y-59287527D01*
X44137527Y-59519294D01*
X43987000Y-59744574D01*
X43987000Y-59624076D01*
X43941769Y-59396682D01*
X43853044Y-59182481D01*
X43724236Y-58989706D01*
X43560294Y-58825764D01*
X43367519Y-58696956D01*
X43153318Y-58608231D01*
X42925924Y-58563000D01*
X42694076Y-58563000D01*
X42466682Y-58608231D01*
X42252481Y-58696956D01*
X42059706Y-58825764D01*
X41895764Y-58989706D01*
X41766956Y-59182481D01*
X41678231Y-59396682D01*
X41633000Y-59624076D01*
X41022000Y-59624076D01*
X41022000Y-57084076D01*
X41633000Y-57084076D01*
X41633000Y-57315924D01*
X41678231Y-57543318D01*
X41766956Y-57757519D01*
X41895764Y-57950294D01*
X42059706Y-58114236D01*
X42252481Y-58243044D01*
X42466682Y-58331769D01*
X42694076Y-58377000D01*
X42925924Y-58377000D01*
X43153318Y-58331769D01*
X43367519Y-58243044D01*
X43560294Y-58114236D01*
X43724236Y-57950294D01*
X43853044Y-57757519D01*
X43941769Y-57543318D01*
X43987000Y-57315924D01*
X43987000Y-57084076D01*
X43941769Y-56856682D01*
X43853044Y-56642481D01*
X43724236Y-56449706D01*
X43560294Y-56285764D01*
X43367519Y-56156956D01*
X43153318Y-56068231D01*
X42925924Y-56023000D01*
X42694076Y-56023000D01*
X42466682Y-56068231D01*
X42252481Y-56156956D01*
X42059706Y-56285764D01*
X41895764Y-56449706D01*
X41766956Y-56642481D01*
X41678231Y-56856682D01*
X41633000Y-57084076D01*
X41022000Y-57084076D01*
X41022000Y-54544076D01*
X41633000Y-54544076D01*
X41633000Y-54775924D01*
X41678231Y-55003318D01*
X41766956Y-55217519D01*
X41895764Y-55410294D01*
X42059706Y-55574236D01*
X42252481Y-55703044D01*
X42466682Y-55791769D01*
X42694076Y-55837000D01*
X42925924Y-55837000D01*
X43153318Y-55791769D01*
X43367519Y-55703044D01*
X43560294Y-55574236D01*
X43724236Y-55410294D01*
X43853044Y-55217519D01*
X43941769Y-55003318D01*
X43987000Y-54775924D01*
X43987000Y-54544076D01*
X43941769Y-54316682D01*
X43853044Y-54102481D01*
X43724236Y-53909706D01*
X43560294Y-53745764D01*
X43367519Y-53616956D01*
X43153318Y-53528231D01*
X42925924Y-53483000D01*
X42694076Y-53483000D01*
X42466682Y-53528231D01*
X42252481Y-53616956D01*
X42059706Y-53745764D01*
X41895764Y-53909706D01*
X41766956Y-54102481D01*
X41678231Y-54316682D01*
X41633000Y-54544076D01*
X41022000Y-54544076D01*
X41022000Y-52004076D01*
X41633000Y-52004076D01*
X41633000Y-52235924D01*
X41678231Y-52463318D01*
X41766956Y-52677519D01*
X41895764Y-52870294D01*
X42059706Y-53034236D01*
X42252481Y-53163044D01*
X42466682Y-53251769D01*
X42694076Y-53297000D01*
X42925924Y-53297000D01*
X43153318Y-53251769D01*
X43367519Y-53163044D01*
X43560294Y-53034236D01*
X43724236Y-52870294D01*
X43853044Y-52677519D01*
X43941769Y-52463318D01*
X43987000Y-52235924D01*
X43987000Y-52004076D01*
X43941769Y-51776682D01*
X43853044Y-51562481D01*
X43724236Y-51369706D01*
X43560294Y-51205764D01*
X43367519Y-51076956D01*
X43153318Y-50988231D01*
X42925924Y-50943000D01*
X42694076Y-50943000D01*
X42466682Y-50988231D01*
X42252481Y-51076956D01*
X42059706Y-51205764D01*
X41895764Y-51369706D01*
X41766956Y-51562481D01*
X41678231Y-51776682D01*
X41633000Y-52004076D01*
X41022000Y-52004076D01*
X41022000Y-49464076D01*
X41633000Y-49464076D01*
X41633000Y-49695924D01*
X41678231Y-49923318D01*
X41766956Y-50137519D01*
X41895764Y-50330294D01*
X42059706Y-50494236D01*
X42252481Y-50623044D01*
X42466682Y-50711769D01*
X42694076Y-50757000D01*
X42925924Y-50757000D01*
X43153318Y-50711769D01*
X43367519Y-50623044D01*
X43560294Y-50494236D01*
X43724236Y-50330294D01*
X43853044Y-50137519D01*
X43941769Y-49923318D01*
X43987000Y-49695924D01*
X43987000Y-49464076D01*
X43941769Y-49236682D01*
X43853044Y-49022481D01*
X43724236Y-48829706D01*
X43560294Y-48665764D01*
X43367519Y-48536956D01*
X43153318Y-48448231D01*
X42925924Y-48403000D01*
X42694076Y-48403000D01*
X42466682Y-48448231D01*
X42252481Y-48536956D01*
X42059706Y-48665764D01*
X41895764Y-48829706D01*
X41766956Y-49022481D01*
X41678231Y-49236682D01*
X41633000Y-49464076D01*
X41022000Y-49464076D01*
X41022000Y-46190000D01*
X41631418Y-46190000D01*
X41631418Y-47890000D01*
X41637732Y-47954103D01*
X41656430Y-48015743D01*
X41686794Y-48072550D01*
X41727657Y-48122343D01*
X41777450Y-48163206D01*
X41834257Y-48193570D01*
X41895897Y-48212268D01*
X41960000Y-48218582D01*
X43660000Y-48218582D01*
X43724103Y-48212268D01*
X43785743Y-48193570D01*
X43842550Y-48163206D01*
X43892343Y-48122343D01*
X43933206Y-48072550D01*
X43963570Y-48015743D01*
X43982268Y-47954103D01*
X43988582Y-47890000D01*
X43988582Y-46190000D01*
X43982268Y-46125897D01*
X43963570Y-46064257D01*
X43933206Y-46007450D01*
X43892343Y-45957657D01*
X43842550Y-45916794D01*
X43785743Y-45886430D01*
X43724103Y-45867732D01*
X43660000Y-45861418D01*
X41960000Y-45861418D01*
X41895897Y-45867732D01*
X41834257Y-45886430D01*
X41777450Y-45916794D01*
X41727657Y-45957657D01*
X41686794Y-46007450D01*
X41656430Y-46064257D01*
X41637732Y-46125897D01*
X41631418Y-46190000D01*
X41022000Y-46190000D01*
X41022000Y-44152000D01*
X91678001Y-44152000D01*
X91678000Y-100588000D01*
M02*
