G04 #@! TF.GenerationSoftware,KiCad,Pcbnew,5.1.5+dfsg1-2build2*
G04 #@! TF.CreationDate,2020-06-17T17:16:25+07:00*
G04 #@! TF.ProjectId,wrover_the_thesis,77726f76-6572-45f7-9468-655f74686573,rev?*
G04 #@! TF.SameCoordinates,Original*
G04 #@! TF.FileFunction,Legend,Top*
G04 #@! TF.FilePolarity,Positive*
%FSLAX46Y46*%
G04 Gerber Fmt 4.6, Leading zero omitted, Abs format (unit mm)*
G04 Created by KiCad (PCBNEW 5.1.5+dfsg1-2build2) date 2020-06-17 17:16:25*
%MOMM*%
%LPD*%
G04 APERTURE LIST*
%ADD10C,0.150000*%
%ADD11C,0.120000*%
%ADD12C,0.200000*%
%ADD13C,0.127000*%
G04 APERTURE END LIST*
D10*
X83487619Y-77910000D02*
X83392380Y-77862380D01*
X83249523Y-77862380D01*
X83106666Y-77910000D01*
X83011428Y-78005238D01*
X82963809Y-78100476D01*
X82916190Y-78290952D01*
X82916190Y-78433809D01*
X82963809Y-78624285D01*
X83011428Y-78719523D01*
X83106666Y-78814761D01*
X83249523Y-78862380D01*
X83344761Y-78862380D01*
X83487619Y-78814761D01*
X83535238Y-78767142D01*
X83535238Y-78433809D01*
X83344761Y-78433809D01*
X83963809Y-78862380D02*
X83963809Y-77862380D01*
X84344761Y-77862380D01*
X84440000Y-77910000D01*
X84487619Y-77957619D01*
X84535238Y-78052857D01*
X84535238Y-78195714D01*
X84487619Y-78290952D01*
X84440000Y-78338571D01*
X84344761Y-78386190D01*
X83963809Y-78386190D01*
X84963809Y-78862380D02*
X84963809Y-77862380D01*
X85630476Y-77862380D02*
X85820952Y-77862380D01*
X85916190Y-77910000D01*
X86011428Y-78005238D01*
X86059047Y-78195714D01*
X86059047Y-78529047D01*
X86011428Y-78719523D01*
X85916190Y-78814761D01*
X85820952Y-78862380D01*
X85630476Y-78862380D01*
X85535238Y-78814761D01*
X85440000Y-78719523D01*
X85392380Y-78529047D01*
X85392380Y-78195714D01*
X85440000Y-78005238D01*
X85535238Y-77910000D01*
X85630476Y-77862380D01*
X87011428Y-78862380D02*
X86440000Y-78862380D01*
X86725714Y-78862380D02*
X86725714Y-77862380D01*
X86630476Y-78005238D01*
X86535238Y-78100476D01*
X86440000Y-78148095D01*
X87916190Y-77862380D02*
X87440000Y-77862380D01*
X87392380Y-78338571D01*
X87440000Y-78290952D01*
X87535238Y-78243333D01*
X87773333Y-78243333D01*
X87868571Y-78290952D01*
X87916190Y-78338571D01*
X87963809Y-78433809D01*
X87963809Y-78671904D01*
X87916190Y-78767142D01*
X87868571Y-78814761D01*
X87773333Y-78862380D01*
X87535238Y-78862380D01*
X87440000Y-78814761D01*
X87392380Y-78767142D01*
X45398095Y-81630000D02*
X45302857Y-81582380D01*
X45160000Y-81582380D01*
X45017142Y-81630000D01*
X44921904Y-81725238D01*
X44874285Y-81820476D01*
X44826666Y-82010952D01*
X44826666Y-82153809D01*
X44874285Y-82344285D01*
X44921904Y-82439523D01*
X45017142Y-82534761D01*
X45160000Y-82582380D01*
X45255238Y-82582380D01*
X45398095Y-82534761D01*
X45445714Y-82487142D01*
X45445714Y-82153809D01*
X45255238Y-82153809D01*
X45874285Y-82582380D02*
X45874285Y-81582380D01*
X46445714Y-82582380D01*
X46445714Y-81582380D01*
X47445714Y-81630000D02*
X47350476Y-81582380D01*
X47207619Y-81582380D01*
X47064761Y-81630000D01*
X46969523Y-81725238D01*
X46921904Y-81820476D01*
X46874285Y-82010952D01*
X46874285Y-82153809D01*
X46921904Y-82344285D01*
X46969523Y-82439523D01*
X47064761Y-82534761D01*
X47207619Y-82582380D01*
X47302857Y-82582380D01*
X47445714Y-82534761D01*
X47493333Y-82487142D01*
X47493333Y-82153809D01*
X47302857Y-82153809D01*
X44908571Y-80012380D02*
X44908571Y-79012380D01*
X45241904Y-79726666D01*
X45575238Y-79012380D01*
X45575238Y-80012380D01*
X46241904Y-79012380D02*
X46432380Y-79012380D01*
X46527619Y-79060000D01*
X46622857Y-79155238D01*
X46670476Y-79345714D01*
X46670476Y-79679047D01*
X46622857Y-79869523D01*
X46527619Y-79964761D01*
X46432380Y-80012380D01*
X46241904Y-80012380D01*
X46146666Y-79964761D01*
X46051428Y-79869523D01*
X46003809Y-79679047D01*
X46003809Y-79345714D01*
X46051428Y-79155238D01*
X46146666Y-79060000D01*
X46241904Y-79012380D01*
X47051428Y-79964761D02*
X47194285Y-80012380D01*
X47432380Y-80012380D01*
X47527619Y-79964761D01*
X47575238Y-79917142D01*
X47622857Y-79821904D01*
X47622857Y-79726666D01*
X47575238Y-79631428D01*
X47527619Y-79583809D01*
X47432380Y-79536190D01*
X47241904Y-79488571D01*
X47146666Y-79440952D01*
X47099047Y-79393333D01*
X47051428Y-79298095D01*
X47051428Y-79202857D01*
X47099047Y-79107619D01*
X47146666Y-79060000D01*
X47241904Y-79012380D01*
X47480000Y-79012380D01*
X47622857Y-79060000D01*
X48051428Y-80012380D02*
X48051428Y-79012380D01*
X44948571Y-77382380D02*
X44948571Y-76382380D01*
X45281904Y-77096666D01*
X45615238Y-76382380D01*
X45615238Y-77382380D01*
X46091428Y-77382380D02*
X46091428Y-76382380D01*
X46520000Y-77334761D02*
X46662857Y-77382380D01*
X46900952Y-77382380D01*
X46996190Y-77334761D01*
X47043809Y-77287142D01*
X47091428Y-77191904D01*
X47091428Y-77096666D01*
X47043809Y-77001428D01*
X46996190Y-76953809D01*
X46900952Y-76906190D01*
X46710476Y-76858571D01*
X46615238Y-76810952D01*
X46567619Y-76763333D01*
X46520000Y-76668095D01*
X46520000Y-76572857D01*
X46567619Y-76477619D01*
X46615238Y-76430000D01*
X46710476Y-76382380D01*
X46948571Y-76382380D01*
X47091428Y-76430000D01*
X47710476Y-76382380D02*
X47900952Y-76382380D01*
X47996190Y-76430000D01*
X48091428Y-76525238D01*
X48139047Y-76715714D01*
X48139047Y-77049047D01*
X48091428Y-77239523D01*
X47996190Y-77334761D01*
X47900952Y-77382380D01*
X47710476Y-77382380D01*
X47615238Y-77334761D01*
X47520000Y-77239523D01*
X47472380Y-77049047D01*
X47472380Y-76715714D01*
X47520000Y-76525238D01*
X47615238Y-76430000D01*
X47710476Y-76382380D01*
X45374761Y-74457142D02*
X45327142Y-74504761D01*
X45184285Y-74552380D01*
X45089047Y-74552380D01*
X44946190Y-74504761D01*
X44850952Y-74409523D01*
X44803333Y-74314285D01*
X44755714Y-74123809D01*
X44755714Y-73980952D01*
X44803333Y-73790476D01*
X44850952Y-73695238D01*
X44946190Y-73600000D01*
X45089047Y-73552380D01*
X45184285Y-73552380D01*
X45327142Y-73600000D01*
X45374761Y-73647619D01*
X46279523Y-74552380D02*
X45803333Y-74552380D01*
X45803333Y-73552380D01*
X46612857Y-74552380D02*
X46612857Y-73552380D01*
X47184285Y-74552380D02*
X46755714Y-73980952D01*
X47184285Y-73552380D02*
X46612857Y-74123809D01*
X45111904Y-71914761D02*
X45254761Y-71962380D01*
X45492857Y-71962380D01*
X45588095Y-71914761D01*
X45635714Y-71867142D01*
X45683333Y-71771904D01*
X45683333Y-71676666D01*
X45635714Y-71581428D01*
X45588095Y-71533809D01*
X45492857Y-71486190D01*
X45302380Y-71438571D01*
X45207142Y-71390952D01*
X45159523Y-71343333D01*
X45111904Y-71248095D01*
X45111904Y-71152857D01*
X45159523Y-71057619D01*
X45207142Y-71010000D01*
X45302380Y-70962380D01*
X45540476Y-70962380D01*
X45683333Y-71010000D01*
X46111904Y-71438571D02*
X46445238Y-71438571D01*
X46588095Y-71962380D02*
X46111904Y-71962380D01*
X46111904Y-70962380D01*
X46588095Y-70962380D01*
X44803333Y-68052380D02*
X44803333Y-67052380D01*
X45041428Y-67052380D01*
X45184285Y-67100000D01*
X45279523Y-67195238D01*
X45327142Y-67290476D01*
X45374761Y-67480952D01*
X45374761Y-67623809D01*
X45327142Y-67814285D01*
X45279523Y-67909523D01*
X45184285Y-68004761D01*
X45041428Y-68052380D01*
X44803333Y-68052380D01*
X45755714Y-67766666D02*
X46231904Y-67766666D01*
X45660476Y-68052380D02*
X45993809Y-67052380D01*
X46327142Y-68052380D01*
X47231904Y-67957142D02*
X47184285Y-68004761D01*
X47041428Y-68052380D01*
X46946190Y-68052380D01*
X46803333Y-68004761D01*
X46708095Y-67909523D01*
X46660476Y-67814285D01*
X46612857Y-67623809D01*
X46612857Y-67480952D01*
X46660476Y-67290476D01*
X46708095Y-67195238D01*
X46803333Y-67100000D01*
X46946190Y-67052380D01*
X47041428Y-67052380D01*
X47184285Y-67100000D01*
X47231904Y-67147619D01*
X47850952Y-67052380D02*
X47946190Y-67052380D01*
X48041428Y-67100000D01*
X48089047Y-67147619D01*
X48136666Y-67242857D01*
X48184285Y-67433333D01*
X48184285Y-67671428D01*
X48136666Y-67861904D01*
X48089047Y-67957142D01*
X48041428Y-68004761D01*
X47946190Y-68052380D01*
X47850952Y-68052380D01*
X47755714Y-68004761D01*
X47708095Y-67957142D01*
X47660476Y-67861904D01*
X47612857Y-67671428D01*
X47612857Y-67433333D01*
X47660476Y-67242857D01*
X47708095Y-67147619D01*
X47755714Y-67100000D01*
X47850952Y-67052380D01*
X44823333Y-64652380D02*
X44823333Y-63652380D01*
X45061428Y-63652380D01*
X45204285Y-63700000D01*
X45299523Y-63795238D01*
X45347142Y-63890476D01*
X45394761Y-64080952D01*
X45394761Y-64223809D01*
X45347142Y-64414285D01*
X45299523Y-64509523D01*
X45204285Y-64604761D01*
X45061428Y-64652380D01*
X44823333Y-64652380D01*
X45775714Y-64366666D02*
X46251904Y-64366666D01*
X45680476Y-64652380D02*
X46013809Y-63652380D01*
X46347142Y-64652380D01*
X47251904Y-64557142D02*
X47204285Y-64604761D01*
X47061428Y-64652380D01*
X46966190Y-64652380D01*
X46823333Y-64604761D01*
X46728095Y-64509523D01*
X46680476Y-64414285D01*
X46632857Y-64223809D01*
X46632857Y-64080952D01*
X46680476Y-63890476D01*
X46728095Y-63795238D01*
X46823333Y-63700000D01*
X46966190Y-63652380D01*
X47061428Y-63652380D01*
X47204285Y-63700000D01*
X47251904Y-63747619D01*
X48204285Y-64652380D02*
X47632857Y-64652380D01*
X47918571Y-64652380D02*
X47918571Y-63652380D01*
X47823333Y-63795238D01*
X47728095Y-63890476D01*
X47632857Y-63938095D01*
X47095714Y-60146666D02*
X47571904Y-60146666D01*
X47000476Y-60432380D02*
X47333809Y-59432380D01*
X47667142Y-60432380D01*
X48476666Y-59432380D02*
X48000476Y-59432380D01*
X47952857Y-59908571D01*
X48000476Y-59860952D01*
X48095714Y-59813333D01*
X48333809Y-59813333D01*
X48429047Y-59860952D01*
X48476666Y-59908571D01*
X48524285Y-60003809D01*
X48524285Y-60241904D01*
X48476666Y-60337142D01*
X48429047Y-60384761D01*
X48333809Y-60432380D01*
X48095714Y-60432380D01*
X48000476Y-60384761D01*
X47952857Y-60337142D01*
X45035714Y-57146666D02*
X45511904Y-57146666D01*
X44940476Y-57432380D02*
X45273809Y-56432380D01*
X45607142Y-57432380D01*
X46369047Y-56765714D02*
X46369047Y-57432380D01*
X46130952Y-56384761D02*
X45892857Y-57099047D01*
X46511904Y-57099047D01*
X45115714Y-54656666D02*
X45591904Y-54656666D01*
X45020476Y-54942380D02*
X45353809Y-53942380D01*
X45687142Y-54942380D01*
X45925238Y-53942380D02*
X46591904Y-53942380D01*
X46163333Y-54942380D01*
X45065714Y-51966666D02*
X45541904Y-51966666D01*
X44970476Y-52252380D02*
X45303809Y-51252380D01*
X45637142Y-52252380D01*
X46399047Y-51252380D02*
X46208571Y-51252380D01*
X46113333Y-51300000D01*
X46065714Y-51347619D01*
X45970476Y-51490476D01*
X45922857Y-51680952D01*
X45922857Y-52061904D01*
X45970476Y-52157142D01*
X46018095Y-52204761D01*
X46113333Y-52252380D01*
X46303809Y-52252380D01*
X46399047Y-52204761D01*
X46446666Y-52157142D01*
X46494285Y-52061904D01*
X46494285Y-51823809D01*
X46446666Y-51728571D01*
X46399047Y-51680952D01*
X46303809Y-51633333D01*
X46113333Y-51633333D01*
X46018095Y-51680952D01*
X45970476Y-51728571D01*
X45922857Y-51823809D01*
X44945714Y-49766666D02*
X45421904Y-49766666D01*
X44850476Y-50052380D02*
X45183809Y-49052380D01*
X45517142Y-50052380D01*
X45755238Y-49052380D02*
X46374285Y-49052380D01*
X46040952Y-49433333D01*
X46183809Y-49433333D01*
X46279047Y-49480952D01*
X46326666Y-49528571D01*
X46374285Y-49623809D01*
X46374285Y-49861904D01*
X46326666Y-49957142D01*
X46279047Y-50004761D01*
X46183809Y-50052380D01*
X45898095Y-50052380D01*
X45802857Y-50004761D01*
X45755238Y-49957142D01*
X44195714Y-47526666D02*
X44671904Y-47526666D01*
X44100476Y-47812380D02*
X44433809Y-46812380D01*
X44767142Y-47812380D01*
X45290952Y-46812380D02*
X45386190Y-46812380D01*
X45481428Y-46860000D01*
X45529047Y-46907619D01*
X45576666Y-47002857D01*
X45624285Y-47193333D01*
X45624285Y-47431428D01*
X45576666Y-47621904D01*
X45529047Y-47717142D01*
X45481428Y-47764761D01*
X45386190Y-47812380D01*
X45290952Y-47812380D01*
X45195714Y-47764761D01*
X45148095Y-47717142D01*
X45100476Y-47621904D01*
X45052857Y-47431428D01*
X45052857Y-47193333D01*
X45100476Y-47002857D01*
X45148095Y-46907619D01*
X45195714Y-46860000D01*
X45290952Y-46812380D01*
X87601428Y-73637142D02*
X87553809Y-73684761D01*
X87410952Y-73732380D01*
X87315714Y-73732380D01*
X87172857Y-73684761D01*
X87077619Y-73589523D01*
X87030000Y-73494285D01*
X86982380Y-73303809D01*
X86982380Y-73160952D01*
X87030000Y-72970476D01*
X87077619Y-72875238D01*
X87172857Y-72780000D01*
X87315714Y-72732380D01*
X87410952Y-72732380D01*
X87553809Y-72780000D01*
X87601428Y-72827619D01*
X87982380Y-73446666D02*
X88458571Y-73446666D01*
X87887142Y-73732380D02*
X88220476Y-72732380D01*
X88553809Y-73732380D01*
X88887142Y-73732380D02*
X88887142Y-72732380D01*
X89458571Y-73732380D01*
X89458571Y-72732380D01*
X89696666Y-73827619D02*
X90458571Y-73827619D01*
X91172857Y-73732380D02*
X90696666Y-73732380D01*
X90696666Y-72732380D01*
D11*
X57480000Y-92190000D02*
X61180000Y-92190000D01*
X57480000Y-98310000D02*
X57480000Y-92190000D01*
X61180000Y-98310000D02*
X57480000Y-98310000D01*
X61180000Y-92190000D02*
X61180000Y-98310000D01*
X44150000Y-83110000D02*
X42820000Y-83110000D01*
X44150000Y-81780000D02*
X44150000Y-83110000D01*
X44150000Y-80510000D02*
X41490000Y-80510000D01*
X41490000Y-80510000D02*
X41490000Y-70290000D01*
X44150000Y-80510000D02*
X44150000Y-70290000D01*
X44150000Y-70290000D02*
X41490000Y-70290000D01*
X60030000Y-73537936D02*
X60030000Y-74742064D01*
X62750000Y-73537936D02*
X62750000Y-74742064D01*
X90010000Y-45180000D02*
X91340000Y-45180000D01*
X91340000Y-45180000D02*
X91340000Y-46510000D01*
X91340000Y-47780000D02*
X91340000Y-65620000D01*
X88680000Y-65620000D02*
X91340000Y-65620000D01*
X88680000Y-47780000D02*
X88680000Y-65620000D01*
X88680000Y-47780000D02*
X91340000Y-47780000D01*
X86370000Y-45180000D02*
X87700000Y-45180000D01*
X87700000Y-45180000D02*
X87700000Y-46510000D01*
X87700000Y-47780000D02*
X87700000Y-65620000D01*
X85040000Y-65620000D02*
X87700000Y-65620000D01*
X85040000Y-47780000D02*
X85040000Y-65620000D01*
X85040000Y-47780000D02*
X87700000Y-47780000D01*
X81530000Y-45130000D02*
X82860000Y-45130000D01*
X82860000Y-45130000D02*
X82860000Y-46460000D01*
X82860000Y-47730000D02*
X82860000Y-65570000D01*
X80200000Y-65570000D02*
X82860000Y-65570000D01*
X80200000Y-47730000D02*
X80200000Y-65570000D01*
X80200000Y-47730000D02*
X82860000Y-47730000D01*
X77900000Y-45140000D02*
X79230000Y-45140000D01*
X79230000Y-45140000D02*
X79230000Y-46470000D01*
X79230000Y-47740000D02*
X79230000Y-65580000D01*
X76570000Y-65580000D02*
X79230000Y-65580000D01*
X76570000Y-47740000D02*
X76570000Y-65580000D01*
X76570000Y-47740000D02*
X79230000Y-47740000D01*
X46470000Y-85520000D02*
X47800000Y-85520000D01*
X47800000Y-85520000D02*
X47800000Y-86850000D01*
X47800000Y-88120000D02*
X47800000Y-95800000D01*
X45140000Y-95800000D02*
X47800000Y-95800000D01*
X45140000Y-88120000D02*
X45140000Y-95800000D01*
X45140000Y-88120000D02*
X47800000Y-88120000D01*
X86150000Y-91330000D02*
X84820000Y-91330000D01*
X84820000Y-91330000D02*
X84820000Y-90000000D01*
X84820000Y-88730000D02*
X84820000Y-81050000D01*
X87480000Y-81050000D02*
X84820000Y-81050000D01*
X87480000Y-88730000D02*
X87480000Y-81050000D01*
X87480000Y-88730000D02*
X84820000Y-88730000D01*
X42850000Y-85520000D02*
X44180000Y-85520000D01*
X44180000Y-85520000D02*
X44180000Y-86850000D01*
X44180000Y-88120000D02*
X44180000Y-95800000D01*
X41520000Y-95800000D02*
X44180000Y-95800000D01*
X41520000Y-88120000D02*
X41520000Y-95800000D01*
X41520000Y-88120000D02*
X44180000Y-88120000D01*
X89880000Y-91310000D02*
X88550000Y-91310000D01*
X88550000Y-91310000D02*
X88550000Y-89980000D01*
X88550000Y-88710000D02*
X88550000Y-81030000D01*
X91210000Y-81030000D02*
X88550000Y-81030000D01*
X91210000Y-88710000D02*
X91210000Y-81030000D01*
X91210000Y-88710000D02*
X88550000Y-88710000D01*
X76276267Y-80030000D02*
X75933733Y-80030000D01*
X76276267Y-81050000D02*
X75933733Y-81050000D01*
X80845000Y-79795000D02*
X78560000Y-79795000D01*
X80845000Y-81265000D02*
X80845000Y-79795000D01*
X78560000Y-81265000D02*
X80845000Y-81265000D01*
X62110000Y-85628733D02*
X62110000Y-85971267D01*
X63130000Y-85628733D02*
X63130000Y-85971267D01*
X75163733Y-84040000D02*
X75506267Y-84040000D01*
X75163733Y-83020000D02*
X75506267Y-83020000D01*
X74930000Y-86351267D02*
X74930000Y-86008733D01*
X73910000Y-86351267D02*
X73910000Y-86008733D01*
X62100000Y-81753733D02*
X62100000Y-82096267D01*
X63120000Y-81753733D02*
X63120000Y-82096267D01*
X68066267Y-76630000D02*
X67723733Y-76630000D01*
X68066267Y-77650000D02*
X67723733Y-77650000D01*
X68086267Y-78430000D02*
X67743733Y-78430000D01*
X68086267Y-79450000D02*
X67743733Y-79450000D01*
X74526267Y-78410000D02*
X74183733Y-78410000D01*
X74526267Y-79430000D02*
X74183733Y-79430000D01*
X74506267Y-76600000D02*
X74163733Y-76600000D01*
X74506267Y-77620000D02*
X74163733Y-77620000D01*
X58330000Y-84150000D02*
X59790000Y-84150000D01*
X58330000Y-87310000D02*
X61490000Y-87310000D01*
X58330000Y-87310000D02*
X58330000Y-86380000D01*
X58330000Y-84150000D02*
X58330000Y-85080000D01*
X58360000Y-80250000D02*
X59820000Y-80250000D01*
X58360000Y-83410000D02*
X61520000Y-83410000D01*
X58360000Y-83410000D02*
X58360000Y-82480000D01*
X58360000Y-80250000D02*
X58360000Y-81180000D01*
X69677500Y-79665000D02*
X71962500Y-79665000D01*
X69677500Y-78195000D02*
X69677500Y-79665000D01*
X71962500Y-78195000D02*
X69677500Y-78195000D01*
X69657500Y-77855000D02*
X71942500Y-77855000D01*
X69657500Y-76385000D02*
X69657500Y-77855000D01*
X71942500Y-76385000D02*
X69657500Y-76385000D01*
X81470000Y-68490000D02*
X78020000Y-68490000D01*
X81470000Y-68490000D02*
X83420000Y-68490000D01*
X81470000Y-73610000D02*
X79520000Y-73610000D01*
X81470000Y-73610000D02*
X83420000Y-73610000D01*
X57920000Y-78870000D02*
X51910000Y-78870000D01*
X55670000Y-72050000D02*
X51910000Y-72050000D01*
X51910000Y-78870000D02*
X51910000Y-77610000D01*
X51910000Y-72050000D02*
X51910000Y-73310000D01*
X66870000Y-85415000D02*
X66870000Y-86140000D01*
X72090000Y-80920000D02*
X71365000Y-80920000D01*
X72090000Y-81645000D02*
X72090000Y-80920000D01*
X72090000Y-86140000D02*
X71365000Y-86140000D01*
X72090000Y-85415000D02*
X72090000Y-86140000D01*
X66870000Y-80920000D02*
X67595000Y-80920000D01*
X66870000Y-81645000D02*
X66870000Y-80920000D01*
D12*
X53620000Y-44970000D02*
G75*
G03X53620000Y-44970000I-100000J0D01*
G01*
D13*
X72920000Y-68970000D02*
X72920000Y-68630000D01*
X54920000Y-68970000D02*
X72920000Y-68970000D01*
X54920000Y-68630000D02*
X54920000Y-68970000D01*
X72920000Y-37570000D02*
X72920000Y-44240000D01*
X54920000Y-37570000D02*
X72920000Y-37570000D01*
X54920000Y-44240000D02*
X54920000Y-37570000D01*
D11*
X50750000Y-92200000D02*
X54450000Y-92200000D01*
X50750000Y-98320000D02*
X50750000Y-92200000D01*
X54450000Y-98320000D02*
X50750000Y-98320000D01*
X54450000Y-92200000D02*
X54450000Y-98320000D01*
X85670000Y-71303733D02*
X85670000Y-71646267D01*
X86690000Y-71303733D02*
X86690000Y-71646267D01*
X83236267Y-66990000D02*
X82893733Y-66990000D01*
X83236267Y-68010000D02*
X82893733Y-68010000D01*
X53631267Y-89020000D02*
X53288733Y-89020000D01*
X53631267Y-90040000D02*
X53288733Y-90040000D01*
X56748733Y-90030000D02*
X57091267Y-90030000D01*
X56748733Y-89010000D02*
X57091267Y-89010000D01*
X91250000Y-79400000D02*
X89920000Y-79400000D01*
X91250000Y-78070000D02*
X91250000Y-79400000D01*
X91250000Y-76800000D02*
X88590000Y-76800000D01*
X88590000Y-76800000D02*
X88590000Y-74200000D01*
X91250000Y-76800000D02*
X91250000Y-74200000D01*
X91250000Y-74200000D02*
X88590000Y-74200000D01*
X41490000Y-63310000D02*
X42820000Y-63310000D01*
X41490000Y-64640000D02*
X41490000Y-63310000D01*
X41490000Y-65910000D02*
X44150000Y-65910000D01*
X44150000Y-65910000D02*
X44150000Y-68510000D01*
X41490000Y-65910000D02*
X41490000Y-68510000D01*
X41490000Y-68510000D02*
X44150000Y-68510000D01*
X88620000Y-67320000D02*
X89950000Y-67320000D01*
X88620000Y-68650000D02*
X88620000Y-67320000D01*
X88620000Y-69920000D02*
X91280000Y-69920000D01*
X91280000Y-69920000D02*
X91280000Y-72520000D01*
X88620000Y-69920000D02*
X88620000Y-72520000D01*
X88620000Y-72520000D02*
X91280000Y-72520000D01*
X41480000Y-45710000D02*
X42810000Y-45710000D01*
X41480000Y-47040000D02*
X41480000Y-45710000D01*
X41480000Y-48310000D02*
X44140000Y-48310000D01*
X44140000Y-48310000D02*
X44140000Y-61070000D01*
X41480000Y-48310000D02*
X41480000Y-61070000D01*
X41480000Y-61070000D02*
X44140000Y-61070000D01*
D10*
X70990000Y-94160000D02*
X71990000Y-94160000D01*
X67390000Y-94160000D02*
X66390000Y-94160000D01*
X67390000Y-93735000D02*
X67390000Y-94160000D01*
X68115000Y-93735000D02*
X67390000Y-93735000D01*
X73340000Y-97310000D02*
X73340000Y-95910000D01*
X73340000Y-99860000D02*
X73340000Y-99710000D01*
X73040000Y-99860000D02*
X73340000Y-99860000D01*
X73040000Y-100310000D02*
X73040000Y-99860000D01*
X65340000Y-99860000D02*
X65340000Y-100310000D01*
X65040000Y-99860000D02*
X65340000Y-99860000D01*
X65040000Y-99710000D02*
X65040000Y-99860000D01*
X65040000Y-95910000D02*
X65040000Y-97310000D01*
D11*
X47580000Y-45777936D02*
X47580000Y-46982064D01*
X50300000Y-45777936D02*
X50300000Y-46982064D01*
X46030000Y-46837221D02*
X46030000Y-47162779D01*
X47050000Y-46837221D02*
X47050000Y-47162779D01*
X49130000Y-74882779D02*
X49130000Y-74557221D01*
X48110000Y-74882779D02*
X48110000Y-74557221D01*
X58510000Y-73184721D02*
X58510000Y-73510279D01*
X59530000Y-73184721D02*
X59530000Y-73510279D01*
X50415279Y-89020000D02*
X50089721Y-89020000D01*
X50415279Y-90040000D02*
X50089721Y-90040000D01*
X59954721Y-90040000D02*
X60280279Y-90040000D01*
X59954721Y-89020000D02*
X60280279Y-89020000D01*
D10*
X144830000Y-163367142D02*
X144782380Y-163414761D01*
X144639523Y-163462380D01*
X144544285Y-163462380D01*
X144401428Y-163414761D01*
X144306190Y-163319523D01*
X144258571Y-163224285D01*
X144210952Y-163033809D01*
X144210952Y-162890952D01*
X144258571Y-162700476D01*
X144306190Y-162605238D01*
X144401428Y-162510000D01*
X144544285Y-162462380D01*
X144639523Y-162462380D01*
X144782380Y-162510000D01*
X144830000Y-162557619D01*
X145687142Y-163462380D02*
X145687142Y-162938571D01*
X145639523Y-162843333D01*
X145544285Y-162795714D01*
X145353809Y-162795714D01*
X145258571Y-162843333D01*
X145687142Y-163414761D02*
X145591904Y-163462380D01*
X145353809Y-163462380D01*
X145258571Y-163414761D01*
X145210952Y-163319523D01*
X145210952Y-163224285D01*
X145258571Y-163129047D01*
X145353809Y-163081428D01*
X145591904Y-163081428D01*
X145687142Y-163033809D01*
X146163333Y-162795714D02*
X146163333Y-163462380D01*
X146163333Y-162890952D02*
X146210952Y-162843333D01*
X146306190Y-162795714D01*
X146449047Y-162795714D01*
X146544285Y-162843333D01*
X146591904Y-162938571D01*
X146591904Y-163462380D01*
X146830000Y-163557619D02*
X147591904Y-163557619D01*
X147830000Y-163462380D02*
X147830000Y-162462380D01*
X147830000Y-162938571D02*
X148401428Y-162938571D01*
X148401428Y-163462380D02*
X148401428Y-162462380D01*
X145030000Y-163227142D02*
X144982380Y-163274761D01*
X144839523Y-163322380D01*
X144744285Y-163322380D01*
X144601428Y-163274761D01*
X144506190Y-163179523D01*
X144458571Y-163084285D01*
X144410952Y-162893809D01*
X144410952Y-162750952D01*
X144458571Y-162560476D01*
X144506190Y-162465238D01*
X144601428Y-162370000D01*
X144744285Y-162322380D01*
X144839523Y-162322380D01*
X144982380Y-162370000D01*
X145030000Y-162417619D01*
X145887142Y-163322380D02*
X145887142Y-162798571D01*
X145839523Y-162703333D01*
X145744285Y-162655714D01*
X145553809Y-162655714D01*
X145458571Y-162703333D01*
X145887142Y-163274761D02*
X145791904Y-163322380D01*
X145553809Y-163322380D01*
X145458571Y-163274761D01*
X145410952Y-163179523D01*
X145410952Y-163084285D01*
X145458571Y-162989047D01*
X145553809Y-162941428D01*
X145791904Y-162941428D01*
X145887142Y-162893809D01*
X146363333Y-162655714D02*
X146363333Y-163322380D01*
X146363333Y-162750952D02*
X146410952Y-162703333D01*
X146506190Y-162655714D01*
X146649047Y-162655714D01*
X146744285Y-162703333D01*
X146791904Y-162798571D01*
X146791904Y-163322380D01*
X147030000Y-163417619D02*
X147791904Y-163417619D01*
X148030000Y-163322380D02*
X148030000Y-162322380D01*
X148030000Y-162798571D02*
X148601428Y-162798571D01*
X148601428Y-163322380D02*
X148601428Y-162322380D01*
X62241904Y-92282380D02*
X61908571Y-91806190D01*
X61670476Y-92282380D02*
X61670476Y-91282380D01*
X62051428Y-91282380D01*
X62146666Y-91330000D01*
X62194285Y-91377619D01*
X62241904Y-91472857D01*
X62241904Y-91615714D01*
X62194285Y-91710952D01*
X62146666Y-91758571D01*
X62051428Y-91806190D01*
X61670476Y-91806190D01*
X63051428Y-92234761D02*
X62956190Y-92282380D01*
X62765714Y-92282380D01*
X62670476Y-92234761D01*
X62622857Y-92139523D01*
X62622857Y-91758571D01*
X62670476Y-91663333D01*
X62765714Y-91615714D01*
X62956190Y-91615714D01*
X63051428Y-91663333D01*
X63099047Y-91758571D01*
X63099047Y-91853809D01*
X62622857Y-91949047D01*
X63480000Y-92234761D02*
X63575238Y-92282380D01*
X63765714Y-92282380D01*
X63860952Y-92234761D01*
X63908571Y-92139523D01*
X63908571Y-92091904D01*
X63860952Y-91996666D01*
X63765714Y-91949047D01*
X63622857Y-91949047D01*
X63527619Y-91901428D01*
X63480000Y-91806190D01*
X63480000Y-91758571D01*
X63527619Y-91663333D01*
X63622857Y-91615714D01*
X63765714Y-91615714D01*
X63860952Y-91663333D01*
X64718095Y-92234761D02*
X64622857Y-92282380D01*
X64432380Y-92282380D01*
X64337142Y-92234761D01*
X64289523Y-92139523D01*
X64289523Y-91758571D01*
X64337142Y-91663333D01*
X64432380Y-91615714D01*
X64622857Y-91615714D01*
X64718095Y-91663333D01*
X64765714Y-91758571D01*
X64765714Y-91853809D01*
X64289523Y-91949047D01*
X65051428Y-91615714D02*
X65432380Y-91615714D01*
X65194285Y-91282380D02*
X65194285Y-92139523D01*
X65241904Y-92234761D01*
X65337142Y-92282380D01*
X65432380Y-92282380D01*
X41996190Y-70074761D02*
X42139047Y-70122380D01*
X42377142Y-70122380D01*
X42472380Y-70074761D01*
X42520000Y-70027142D01*
X42567619Y-69931904D01*
X42567619Y-69836666D01*
X42520000Y-69741428D01*
X42472380Y-69693809D01*
X42377142Y-69646190D01*
X42186666Y-69598571D01*
X42091428Y-69550952D01*
X42043809Y-69503333D01*
X41996190Y-69408095D01*
X41996190Y-69312857D01*
X42043809Y-69217619D01*
X42091428Y-69170000D01*
X42186666Y-69122380D01*
X42424761Y-69122380D01*
X42567619Y-69170000D01*
X42996190Y-70122380D02*
X42996190Y-69122380D01*
X43377142Y-69122380D01*
X43472380Y-69170000D01*
X43520000Y-69217619D01*
X43567619Y-69312857D01*
X43567619Y-69455714D01*
X43520000Y-69550952D01*
X43472380Y-69598571D01*
X43377142Y-69646190D01*
X42996190Y-69646190D01*
X43996190Y-70122380D02*
X43996190Y-69122380D01*
X61143333Y-71597142D02*
X61095714Y-71644761D01*
X60952857Y-71692380D01*
X60857619Y-71692380D01*
X60714761Y-71644761D01*
X60619523Y-71549523D01*
X60571904Y-71454285D01*
X60524285Y-71263809D01*
X60524285Y-71120952D01*
X60571904Y-70930476D01*
X60619523Y-70835238D01*
X60714761Y-70740000D01*
X60857619Y-70692380D01*
X60952857Y-70692380D01*
X61095714Y-70740000D01*
X61143333Y-70787619D01*
X61476666Y-70692380D02*
X62095714Y-70692380D01*
X61762380Y-71073333D01*
X61905238Y-71073333D01*
X62000476Y-71120952D01*
X62048095Y-71168571D01*
X62095714Y-71263809D01*
X62095714Y-71501904D01*
X62048095Y-71597142D01*
X62000476Y-71644761D01*
X61905238Y-71692380D01*
X61619523Y-71692380D01*
X61524285Y-71644761D01*
X61476666Y-71597142D01*
X87260000Y-45074761D02*
X87402857Y-45122380D01*
X87640952Y-45122380D01*
X87736190Y-45074761D01*
X87783809Y-45027142D01*
X87831428Y-44931904D01*
X87831428Y-44836666D01*
X87783809Y-44741428D01*
X87736190Y-44693809D01*
X87640952Y-44646190D01*
X87450476Y-44598571D01*
X87355238Y-44550952D01*
X87307619Y-44503333D01*
X87260000Y-44408095D01*
X87260000Y-44312857D01*
X87307619Y-44217619D01*
X87355238Y-44170000D01*
X87450476Y-44122380D01*
X87688571Y-44122380D01*
X87831428Y-44170000D01*
X88831428Y-45027142D02*
X88783809Y-45074761D01*
X88640952Y-45122380D01*
X88545714Y-45122380D01*
X88402857Y-45074761D01*
X88307619Y-44979523D01*
X88260000Y-44884285D01*
X88212380Y-44693809D01*
X88212380Y-44550952D01*
X88260000Y-44360476D01*
X88307619Y-44265238D01*
X88402857Y-44170000D01*
X88545714Y-44122380D01*
X88640952Y-44122380D01*
X88783809Y-44170000D01*
X88831428Y-44217619D01*
X89736190Y-45122380D02*
X89260000Y-45122380D01*
X89260000Y-44122380D01*
X89831428Y-45217619D02*
X90593333Y-45217619D01*
X91164761Y-44598571D02*
X90831428Y-44598571D01*
X90831428Y-45122380D02*
X90831428Y-44122380D01*
X91307619Y-44122380D01*
X84854761Y-53613809D02*
X84902380Y-53470952D01*
X84902380Y-53232857D01*
X84854761Y-53137619D01*
X84807142Y-53090000D01*
X84711904Y-53042380D01*
X84616666Y-53042380D01*
X84521428Y-53090000D01*
X84473809Y-53137619D01*
X84426190Y-53232857D01*
X84378571Y-53423333D01*
X84330952Y-53518571D01*
X84283333Y-53566190D01*
X84188095Y-53613809D01*
X84092857Y-53613809D01*
X83997619Y-53566190D01*
X83950000Y-53518571D01*
X83902380Y-53423333D01*
X83902380Y-53185238D01*
X83950000Y-53042380D01*
X84902380Y-52613809D02*
X83902380Y-52613809D01*
X83902380Y-52375714D01*
X83950000Y-52232857D01*
X84045238Y-52137619D01*
X84140476Y-52090000D01*
X84330952Y-52042380D01*
X84473809Y-52042380D01*
X84664285Y-52090000D01*
X84759523Y-52137619D01*
X84854761Y-52232857D01*
X84902380Y-52375714D01*
X84902380Y-52613809D01*
X84616666Y-51661428D02*
X84616666Y-51185238D01*
X84902380Y-51756666D02*
X83902380Y-51423333D01*
X84902380Y-51090000D01*
X84997619Y-50994761D02*
X84997619Y-50232857D01*
X84378571Y-49661428D02*
X84378571Y-49994761D01*
X84902380Y-49994761D02*
X83902380Y-49994761D01*
X83902380Y-49518571D01*
X78972380Y-45024761D02*
X79115238Y-45072380D01*
X79353333Y-45072380D01*
X79448571Y-45024761D01*
X79496190Y-44977142D01*
X79543809Y-44881904D01*
X79543809Y-44786666D01*
X79496190Y-44691428D01*
X79448571Y-44643809D01*
X79353333Y-44596190D01*
X79162857Y-44548571D01*
X79067619Y-44500952D01*
X79020000Y-44453333D01*
X78972380Y-44358095D01*
X78972380Y-44262857D01*
X79020000Y-44167619D01*
X79067619Y-44120000D01*
X79162857Y-44072380D01*
X79400952Y-44072380D01*
X79543809Y-44120000D01*
X80543809Y-44977142D02*
X80496190Y-45024761D01*
X80353333Y-45072380D01*
X80258095Y-45072380D01*
X80115238Y-45024761D01*
X80020000Y-44929523D01*
X79972380Y-44834285D01*
X79924761Y-44643809D01*
X79924761Y-44500952D01*
X79972380Y-44310476D01*
X80020000Y-44215238D01*
X80115238Y-44120000D01*
X80258095Y-44072380D01*
X80353333Y-44072380D01*
X80496190Y-44120000D01*
X80543809Y-44167619D01*
X81448571Y-45072380D02*
X80972380Y-45072380D01*
X80972380Y-44072380D01*
X81543809Y-45167619D02*
X82305714Y-45167619D01*
X82496190Y-45024761D02*
X82639047Y-45072380D01*
X82877142Y-45072380D01*
X82972380Y-45024761D01*
X83020000Y-44977142D01*
X83067619Y-44881904D01*
X83067619Y-44786666D01*
X83020000Y-44691428D01*
X82972380Y-44643809D01*
X82877142Y-44596190D01*
X82686666Y-44548571D01*
X82591428Y-44500952D01*
X82543809Y-44453333D01*
X82496190Y-44358095D01*
X82496190Y-44262857D01*
X82543809Y-44167619D01*
X82591428Y-44120000D01*
X82686666Y-44072380D01*
X82924761Y-44072380D01*
X83067619Y-44120000D01*
X75994761Y-51931428D02*
X76042380Y-51788571D01*
X76042380Y-51550476D01*
X75994761Y-51455238D01*
X75947142Y-51407619D01*
X75851904Y-51360000D01*
X75756666Y-51360000D01*
X75661428Y-51407619D01*
X75613809Y-51455238D01*
X75566190Y-51550476D01*
X75518571Y-51740952D01*
X75470952Y-51836190D01*
X75423333Y-51883809D01*
X75328095Y-51931428D01*
X75232857Y-51931428D01*
X75137619Y-51883809D01*
X75090000Y-51836190D01*
X75042380Y-51740952D01*
X75042380Y-51502857D01*
X75090000Y-51360000D01*
X76042380Y-50931428D02*
X75042380Y-50931428D01*
X75042380Y-50693333D01*
X75090000Y-50550476D01*
X75185238Y-50455238D01*
X75280476Y-50407619D01*
X75470952Y-50360000D01*
X75613809Y-50360000D01*
X75804285Y-50407619D01*
X75899523Y-50455238D01*
X75994761Y-50550476D01*
X76042380Y-50693333D01*
X76042380Y-50931428D01*
X75756666Y-49979047D02*
X75756666Y-49502857D01*
X76042380Y-50074285D02*
X75042380Y-49740952D01*
X76042380Y-49407619D01*
X76137619Y-49312380D02*
X76137619Y-48550476D01*
X75994761Y-48360000D02*
X76042380Y-48217142D01*
X76042380Y-47979047D01*
X75994761Y-47883809D01*
X75947142Y-47836190D01*
X75851904Y-47788571D01*
X75756666Y-47788571D01*
X75661428Y-47836190D01*
X75613809Y-47883809D01*
X75566190Y-47979047D01*
X75518571Y-48169523D01*
X75470952Y-48264761D01*
X75423333Y-48312380D01*
X75328095Y-48360000D01*
X75232857Y-48360000D01*
X75137619Y-48312380D01*
X75090000Y-48264761D01*
X75042380Y-48169523D01*
X75042380Y-47931428D01*
X75090000Y-47788571D01*
X45988095Y-83690000D02*
X45892857Y-83642380D01*
X45750000Y-83642380D01*
X45607142Y-83690000D01*
X45511904Y-83785238D01*
X45464285Y-83880476D01*
X45416666Y-84070952D01*
X45416666Y-84213809D01*
X45464285Y-84404285D01*
X45511904Y-84499523D01*
X45607142Y-84594761D01*
X45750000Y-84642380D01*
X45845238Y-84642380D01*
X45988095Y-84594761D01*
X46035714Y-84547142D01*
X46035714Y-84213809D01*
X45845238Y-84213809D01*
X46464285Y-84642380D02*
X46464285Y-83642380D01*
X47035714Y-84642380D01*
X47035714Y-83642380D01*
X47511904Y-84642380D02*
X47511904Y-83642380D01*
X47750000Y-83642380D01*
X47892857Y-83690000D01*
X47988095Y-83785238D01*
X48035714Y-83880476D01*
X48083333Y-84070952D01*
X48083333Y-84213809D01*
X48035714Y-84404285D01*
X47988095Y-84499523D01*
X47892857Y-84594761D01*
X47750000Y-84642380D01*
X47511904Y-84642380D01*
X85959523Y-92222380D02*
X85483333Y-92222380D01*
X85435714Y-92698571D01*
X85483333Y-92650952D01*
X85578571Y-92603333D01*
X85816666Y-92603333D01*
X85911904Y-92650952D01*
X85959523Y-92698571D01*
X86007142Y-92793809D01*
X86007142Y-93031904D01*
X85959523Y-93127142D01*
X85911904Y-93174761D01*
X85816666Y-93222380D01*
X85578571Y-93222380D01*
X85483333Y-93174761D01*
X85435714Y-93127142D01*
X86292857Y-92222380D02*
X86626190Y-93222380D01*
X86959523Y-92222380D01*
X41471904Y-83842380D02*
X42090952Y-83842380D01*
X41757619Y-84223333D01*
X41900476Y-84223333D01*
X41995714Y-84270952D01*
X42043333Y-84318571D01*
X42090952Y-84413809D01*
X42090952Y-84651904D01*
X42043333Y-84747142D01*
X41995714Y-84794761D01*
X41900476Y-84842380D01*
X41614761Y-84842380D01*
X41519523Y-84794761D01*
X41471904Y-84747142D01*
X42376666Y-83842380D02*
X42710000Y-84842380D01*
X43043333Y-83842380D01*
X43281428Y-83842380D02*
X43900476Y-83842380D01*
X43567142Y-84223333D01*
X43710000Y-84223333D01*
X43805238Y-84270952D01*
X43852857Y-84318571D01*
X43900476Y-84413809D01*
X43900476Y-84651904D01*
X43852857Y-84747142D01*
X43805238Y-84794761D01*
X43710000Y-84842380D01*
X43424285Y-84842380D01*
X43329047Y-84794761D01*
X43281428Y-84747142D01*
X89118095Y-92250000D02*
X89022857Y-92202380D01*
X88880000Y-92202380D01*
X88737142Y-92250000D01*
X88641904Y-92345238D01*
X88594285Y-92440476D01*
X88546666Y-92630952D01*
X88546666Y-92773809D01*
X88594285Y-92964285D01*
X88641904Y-93059523D01*
X88737142Y-93154761D01*
X88880000Y-93202380D01*
X88975238Y-93202380D01*
X89118095Y-93154761D01*
X89165714Y-93107142D01*
X89165714Y-92773809D01*
X88975238Y-92773809D01*
X89594285Y-93202380D02*
X89594285Y-92202380D01*
X90165714Y-93202380D01*
X90165714Y-92202380D01*
X90641904Y-93202380D02*
X90641904Y-92202380D01*
X90880000Y-92202380D01*
X91022857Y-92250000D01*
X91118095Y-92345238D01*
X91165714Y-92440476D01*
X91213333Y-92630952D01*
X91213333Y-92773809D01*
X91165714Y-92964285D01*
X91118095Y-93059523D01*
X91022857Y-93154761D01*
X90880000Y-93202380D01*
X90641904Y-93202380D01*
X75237142Y-82432380D02*
X74903809Y-81956190D01*
X74665714Y-82432380D02*
X74665714Y-81432380D01*
X75046666Y-81432380D01*
X75141904Y-81480000D01*
X75189523Y-81527619D01*
X75237142Y-81622857D01*
X75237142Y-81765714D01*
X75189523Y-81860952D01*
X75141904Y-81908571D01*
X75046666Y-81956190D01*
X74665714Y-81956190D01*
X76189523Y-82432380D02*
X75618095Y-82432380D01*
X75903809Y-82432380D02*
X75903809Y-81432380D01*
X75808571Y-81575238D01*
X75713333Y-81670476D01*
X75618095Y-81718095D01*
X76522857Y-81432380D02*
X77189523Y-81432380D01*
X76760952Y-82432380D01*
X78621904Y-82412380D02*
X78621904Y-81412380D01*
X78860000Y-81412380D01*
X79002857Y-81460000D01*
X79098095Y-81555238D01*
X79145714Y-81650476D01*
X79193333Y-81840952D01*
X79193333Y-81983809D01*
X79145714Y-82174285D01*
X79098095Y-82269523D01*
X79002857Y-82364761D01*
X78860000Y-82412380D01*
X78621904Y-82412380D01*
X80098095Y-81412380D02*
X79621904Y-81412380D01*
X79574285Y-81888571D01*
X79621904Y-81840952D01*
X79717142Y-81793333D01*
X79955238Y-81793333D01*
X80050476Y-81840952D01*
X80098095Y-81888571D01*
X80145714Y-81983809D01*
X80145714Y-82221904D01*
X80098095Y-82317142D01*
X80050476Y-82364761D01*
X79955238Y-82412380D01*
X79717142Y-82412380D01*
X79621904Y-82364761D01*
X79574285Y-82317142D01*
X62677142Y-88772380D02*
X62343809Y-88296190D01*
X62105714Y-88772380D02*
X62105714Y-87772380D01*
X62486666Y-87772380D01*
X62581904Y-87820000D01*
X62629523Y-87867619D01*
X62677142Y-87962857D01*
X62677142Y-88105714D01*
X62629523Y-88200952D01*
X62581904Y-88248571D01*
X62486666Y-88296190D01*
X62105714Y-88296190D01*
X63629523Y-88772380D02*
X63058095Y-88772380D01*
X63343809Y-88772380D02*
X63343809Y-87772380D01*
X63248571Y-87915238D01*
X63153333Y-88010476D01*
X63058095Y-88058095D01*
X64486666Y-87772380D02*
X64296190Y-87772380D01*
X64200952Y-87820000D01*
X64153333Y-87867619D01*
X64058095Y-88010476D01*
X64010476Y-88200952D01*
X64010476Y-88581904D01*
X64058095Y-88677142D01*
X64105714Y-88724761D01*
X64200952Y-88772380D01*
X64391428Y-88772380D01*
X64486666Y-88724761D01*
X64534285Y-88677142D01*
X64581904Y-88581904D01*
X64581904Y-88343809D01*
X64534285Y-88248571D01*
X64486666Y-88200952D01*
X64391428Y-88153333D01*
X64200952Y-88153333D01*
X64105714Y-88200952D01*
X64058095Y-88248571D01*
X64010476Y-88343809D01*
X77897142Y-84302380D02*
X77563809Y-83826190D01*
X77325714Y-84302380D02*
X77325714Y-83302380D01*
X77706666Y-83302380D01*
X77801904Y-83350000D01*
X77849523Y-83397619D01*
X77897142Y-83492857D01*
X77897142Y-83635714D01*
X77849523Y-83730952D01*
X77801904Y-83778571D01*
X77706666Y-83826190D01*
X77325714Y-83826190D01*
X78849523Y-84302380D02*
X78278095Y-84302380D01*
X78563809Y-84302380D02*
X78563809Y-83302380D01*
X78468571Y-83445238D01*
X78373333Y-83540476D01*
X78278095Y-83588095D01*
X79754285Y-83302380D02*
X79278095Y-83302380D01*
X79230476Y-83778571D01*
X79278095Y-83730952D01*
X79373333Y-83683333D01*
X79611428Y-83683333D01*
X79706666Y-83730952D01*
X79754285Y-83778571D01*
X79801904Y-83873809D01*
X79801904Y-84111904D01*
X79754285Y-84207142D01*
X79706666Y-84254761D01*
X79611428Y-84302380D01*
X79373333Y-84302380D01*
X79278095Y-84254761D01*
X79230476Y-84207142D01*
X76007142Y-87092380D02*
X75673809Y-86616190D01*
X75435714Y-87092380D02*
X75435714Y-86092380D01*
X75816666Y-86092380D01*
X75911904Y-86140000D01*
X75959523Y-86187619D01*
X76007142Y-86282857D01*
X76007142Y-86425714D01*
X75959523Y-86520952D01*
X75911904Y-86568571D01*
X75816666Y-86616190D01*
X75435714Y-86616190D01*
X76959523Y-87092380D02*
X76388095Y-87092380D01*
X76673809Y-87092380D02*
X76673809Y-86092380D01*
X76578571Y-86235238D01*
X76483333Y-86330476D01*
X76388095Y-86378095D01*
X77816666Y-86425714D02*
X77816666Y-87092380D01*
X77578571Y-86044761D02*
X77340476Y-86759047D01*
X77959523Y-86759047D01*
X62877142Y-80102380D02*
X62543809Y-79626190D01*
X62305714Y-80102380D02*
X62305714Y-79102380D01*
X62686666Y-79102380D01*
X62781904Y-79150000D01*
X62829523Y-79197619D01*
X62877142Y-79292857D01*
X62877142Y-79435714D01*
X62829523Y-79530952D01*
X62781904Y-79578571D01*
X62686666Y-79626190D01*
X62305714Y-79626190D01*
X63829523Y-80102380D02*
X63258095Y-80102380D01*
X63543809Y-80102380D02*
X63543809Y-79102380D01*
X63448571Y-79245238D01*
X63353333Y-79340476D01*
X63258095Y-79388095D01*
X64162857Y-79102380D02*
X64781904Y-79102380D01*
X64448571Y-79483333D01*
X64591428Y-79483333D01*
X64686666Y-79530952D01*
X64734285Y-79578571D01*
X64781904Y-79673809D01*
X64781904Y-79911904D01*
X64734285Y-80007142D01*
X64686666Y-80054761D01*
X64591428Y-80102380D01*
X64305714Y-80102380D01*
X64210476Y-80054761D01*
X64162857Y-80007142D01*
X64237142Y-77252380D02*
X63903809Y-76776190D01*
X63665714Y-77252380D02*
X63665714Y-76252380D01*
X64046666Y-76252380D01*
X64141904Y-76300000D01*
X64189523Y-76347619D01*
X64237142Y-76442857D01*
X64237142Y-76585714D01*
X64189523Y-76680952D01*
X64141904Y-76728571D01*
X64046666Y-76776190D01*
X63665714Y-76776190D01*
X65189523Y-77252380D02*
X64618095Y-77252380D01*
X64903809Y-77252380D02*
X64903809Y-76252380D01*
X64808571Y-76395238D01*
X64713333Y-76490476D01*
X64618095Y-76538095D01*
X65570476Y-76347619D02*
X65618095Y-76300000D01*
X65713333Y-76252380D01*
X65951428Y-76252380D01*
X66046666Y-76300000D01*
X66094285Y-76347619D01*
X66141904Y-76442857D01*
X66141904Y-76538095D01*
X66094285Y-76680952D01*
X65522857Y-77252380D01*
X66141904Y-77252380D01*
X64207142Y-78772380D02*
X63873809Y-78296190D01*
X63635714Y-78772380D02*
X63635714Y-77772380D01*
X64016666Y-77772380D01*
X64111904Y-77820000D01*
X64159523Y-77867619D01*
X64207142Y-77962857D01*
X64207142Y-78105714D01*
X64159523Y-78200952D01*
X64111904Y-78248571D01*
X64016666Y-78296190D01*
X63635714Y-78296190D01*
X65159523Y-78772380D02*
X64588095Y-78772380D01*
X64873809Y-78772380D02*
X64873809Y-77772380D01*
X64778571Y-77915238D01*
X64683333Y-78010476D01*
X64588095Y-78058095D01*
X66111904Y-78772380D02*
X65540476Y-78772380D01*
X65826190Y-78772380D02*
X65826190Y-77772380D01*
X65730952Y-77915238D01*
X65635714Y-78010476D01*
X65540476Y-78058095D01*
X76787142Y-79382380D02*
X76453809Y-78906190D01*
X76215714Y-79382380D02*
X76215714Y-78382380D01*
X76596666Y-78382380D01*
X76691904Y-78430000D01*
X76739523Y-78477619D01*
X76787142Y-78572857D01*
X76787142Y-78715714D01*
X76739523Y-78810952D01*
X76691904Y-78858571D01*
X76596666Y-78906190D01*
X76215714Y-78906190D01*
X77739523Y-79382380D02*
X77168095Y-79382380D01*
X77453809Y-79382380D02*
X77453809Y-78382380D01*
X77358571Y-78525238D01*
X77263333Y-78620476D01*
X77168095Y-78668095D01*
X78358571Y-78382380D02*
X78453809Y-78382380D01*
X78549047Y-78430000D01*
X78596666Y-78477619D01*
X78644285Y-78572857D01*
X78691904Y-78763333D01*
X78691904Y-79001428D01*
X78644285Y-79191904D01*
X78596666Y-79287142D01*
X78549047Y-79334761D01*
X78453809Y-79382380D01*
X78358571Y-79382380D01*
X78263333Y-79334761D01*
X78215714Y-79287142D01*
X78168095Y-79191904D01*
X78120476Y-79001428D01*
X78120476Y-78763333D01*
X78168095Y-78572857D01*
X78215714Y-78477619D01*
X78263333Y-78430000D01*
X78358571Y-78382380D01*
X73933333Y-76162380D02*
X73600000Y-75686190D01*
X73361904Y-76162380D02*
X73361904Y-75162380D01*
X73742857Y-75162380D01*
X73838095Y-75210000D01*
X73885714Y-75257619D01*
X73933333Y-75352857D01*
X73933333Y-75495714D01*
X73885714Y-75590952D01*
X73838095Y-75638571D01*
X73742857Y-75686190D01*
X73361904Y-75686190D01*
X74409523Y-76162380D02*
X74600000Y-76162380D01*
X74695238Y-76114761D01*
X74742857Y-76067142D01*
X74838095Y-75924285D01*
X74885714Y-75733809D01*
X74885714Y-75352857D01*
X74838095Y-75257619D01*
X74790476Y-75210000D01*
X74695238Y-75162380D01*
X74504761Y-75162380D01*
X74409523Y-75210000D01*
X74361904Y-75257619D01*
X74314285Y-75352857D01*
X74314285Y-75590952D01*
X74361904Y-75686190D01*
X74409523Y-75733809D01*
X74504761Y-75781428D01*
X74695238Y-75781428D01*
X74790476Y-75733809D01*
X74838095Y-75686190D01*
X74885714Y-75590952D01*
X55522857Y-85878571D02*
X55465714Y-85850000D01*
X55408571Y-85792857D01*
X55322857Y-85707142D01*
X55265714Y-85678571D01*
X55208571Y-85678571D01*
X55237142Y-85821428D02*
X55180000Y-85792857D01*
X55122857Y-85735714D01*
X55094285Y-85621428D01*
X55094285Y-85421428D01*
X55122857Y-85307142D01*
X55180000Y-85250000D01*
X55237142Y-85221428D01*
X55351428Y-85221428D01*
X55408571Y-85250000D01*
X55465714Y-85307142D01*
X55494285Y-85421428D01*
X55494285Y-85621428D01*
X55465714Y-85735714D01*
X55408571Y-85792857D01*
X55351428Y-85821428D01*
X55237142Y-85821428D01*
X56008571Y-85421428D02*
X56008571Y-85821428D01*
X55865714Y-85192857D02*
X55722857Y-85621428D01*
X56094285Y-85621428D01*
X55642857Y-81898571D02*
X55585714Y-81870000D01*
X55528571Y-81812857D01*
X55442857Y-81727142D01*
X55385714Y-81698571D01*
X55328571Y-81698571D01*
X55357142Y-81841428D02*
X55300000Y-81812857D01*
X55242857Y-81755714D01*
X55214285Y-81641428D01*
X55214285Y-81441428D01*
X55242857Y-81327142D01*
X55300000Y-81270000D01*
X55357142Y-81241428D01*
X55471428Y-81241428D01*
X55528571Y-81270000D01*
X55585714Y-81327142D01*
X55614285Y-81441428D01*
X55614285Y-81641428D01*
X55585714Y-81755714D01*
X55528571Y-81812857D01*
X55471428Y-81841428D01*
X55357142Y-81841428D01*
X55814285Y-81241428D02*
X56185714Y-81241428D01*
X55985714Y-81470000D01*
X56071428Y-81470000D01*
X56128571Y-81498571D01*
X56157142Y-81527142D01*
X56185714Y-81584285D01*
X56185714Y-81727142D01*
X56157142Y-81784285D01*
X56128571Y-81812857D01*
X56071428Y-81841428D01*
X55900000Y-81841428D01*
X55842857Y-81812857D01*
X55814285Y-81784285D01*
X71391904Y-80772380D02*
X71391904Y-79772380D01*
X71630000Y-79772380D01*
X71772857Y-79820000D01*
X71868095Y-79915238D01*
X71915714Y-80010476D01*
X71963333Y-80200952D01*
X71963333Y-80343809D01*
X71915714Y-80534285D01*
X71868095Y-80629523D01*
X71772857Y-80724761D01*
X71630000Y-80772380D01*
X71391904Y-80772380D01*
X72820476Y-80105714D02*
X72820476Y-80772380D01*
X72582380Y-79724761D02*
X72344285Y-80439047D01*
X72963333Y-80439047D01*
X70404404Y-76142380D02*
X70404404Y-75142380D01*
X70642500Y-75142380D01*
X70785357Y-75190000D01*
X70880595Y-75285238D01*
X70928214Y-75380476D01*
X70975833Y-75570952D01*
X70975833Y-75713809D01*
X70928214Y-75904285D01*
X70880595Y-75999523D01*
X70785357Y-76094761D01*
X70642500Y-76142380D01*
X70404404Y-76142380D01*
X71309166Y-75142380D02*
X71928214Y-75142380D01*
X71594880Y-75523333D01*
X71737738Y-75523333D01*
X71832976Y-75570952D01*
X71880595Y-75618571D01*
X71928214Y-75713809D01*
X71928214Y-75951904D01*
X71880595Y-76047142D01*
X71832976Y-76094761D01*
X71737738Y-76142380D01*
X71452023Y-76142380D01*
X71356785Y-76094761D01*
X71309166Y-76047142D01*
X75677142Y-69467142D02*
X75629523Y-69514761D01*
X75486666Y-69562380D01*
X75391428Y-69562380D01*
X75248571Y-69514761D01*
X75153333Y-69419523D01*
X75105714Y-69324285D01*
X75058095Y-69133809D01*
X75058095Y-68990952D01*
X75105714Y-68800476D01*
X75153333Y-68705238D01*
X75248571Y-68610000D01*
X75391428Y-68562380D01*
X75486666Y-68562380D01*
X75629523Y-68610000D01*
X75677142Y-68657619D01*
X76058095Y-69276666D02*
X76534285Y-69276666D01*
X75962857Y-69562380D02*
X76296190Y-68562380D01*
X76629523Y-69562380D01*
X76962857Y-69562380D02*
X76962857Y-68562380D01*
X77534285Y-69562380D01*
X77534285Y-68562380D01*
X50242380Y-71106666D02*
X50718571Y-71106666D01*
X50147142Y-71392380D02*
X50480476Y-70392380D01*
X50813809Y-71392380D01*
X51147142Y-71392380D02*
X51147142Y-70392380D01*
X51480476Y-71106666D01*
X51813809Y-70392380D01*
X51813809Y-71392380D01*
X52242380Y-71344761D02*
X52385238Y-71392380D01*
X52623333Y-71392380D01*
X52718571Y-71344761D01*
X52766190Y-71297142D01*
X52813809Y-71201904D01*
X52813809Y-71106666D01*
X52766190Y-71011428D01*
X52718571Y-70963809D01*
X52623333Y-70916190D01*
X52432857Y-70868571D01*
X52337619Y-70820952D01*
X52290000Y-70773333D01*
X52242380Y-70678095D01*
X52242380Y-70582857D01*
X52290000Y-70487619D01*
X52337619Y-70440000D01*
X52432857Y-70392380D01*
X52670952Y-70392380D01*
X52813809Y-70440000D01*
X53004285Y-71487619D02*
X53766190Y-71487619D01*
X53909047Y-70392380D02*
X54528095Y-70392380D01*
X54194761Y-70773333D01*
X54337619Y-70773333D01*
X54432857Y-70820952D01*
X54480476Y-70868571D01*
X54528095Y-70963809D01*
X54528095Y-71201904D01*
X54480476Y-71297142D01*
X54432857Y-71344761D01*
X54337619Y-71392380D01*
X54051904Y-71392380D01*
X53956666Y-71344761D01*
X53909047Y-71297142D01*
X54813809Y-70392380D02*
X55147142Y-71392380D01*
X55480476Y-70392380D01*
X55718571Y-70392380D02*
X56337619Y-70392380D01*
X56004285Y-70773333D01*
X56147142Y-70773333D01*
X56242380Y-70820952D01*
X56290000Y-70868571D01*
X56337619Y-70963809D01*
X56337619Y-71201904D01*
X56290000Y-71297142D01*
X56242380Y-71344761D01*
X56147142Y-71392380D01*
X55861428Y-71392380D01*
X55766190Y-71344761D01*
X55718571Y-71297142D01*
X65854761Y-87907142D02*
X65807142Y-87954761D01*
X65664285Y-88002380D01*
X65569047Y-88002380D01*
X65426190Y-87954761D01*
X65330952Y-87859523D01*
X65283333Y-87764285D01*
X65235714Y-87573809D01*
X65235714Y-87430952D01*
X65283333Y-87240476D01*
X65330952Y-87145238D01*
X65426190Y-87050000D01*
X65569047Y-87002380D01*
X65664285Y-87002380D01*
X65807142Y-87050000D01*
X65854761Y-87097619D01*
X66283333Y-88002380D02*
X66283333Y-87002380D01*
X66664285Y-87002380D01*
X66759523Y-87050000D01*
X66807142Y-87097619D01*
X66854761Y-87192857D01*
X66854761Y-87335714D01*
X66807142Y-87430952D01*
X66759523Y-87478571D01*
X66664285Y-87526190D01*
X66283333Y-87526190D01*
X67235714Y-87097619D02*
X67283333Y-87050000D01*
X67378571Y-87002380D01*
X67616666Y-87002380D01*
X67711904Y-87050000D01*
X67759523Y-87097619D01*
X67807142Y-87192857D01*
X67807142Y-87288095D01*
X67759523Y-87430952D01*
X67188095Y-88002380D01*
X67807142Y-88002380D01*
X68426190Y-87002380D02*
X68521428Y-87002380D01*
X68616666Y-87050000D01*
X68664285Y-87097619D01*
X68711904Y-87192857D01*
X68759523Y-87383333D01*
X68759523Y-87621428D01*
X68711904Y-87811904D01*
X68664285Y-87907142D01*
X68616666Y-87954761D01*
X68521428Y-88002380D01*
X68426190Y-88002380D01*
X68330952Y-87954761D01*
X68283333Y-87907142D01*
X68235714Y-87811904D01*
X68188095Y-87621428D01*
X68188095Y-87383333D01*
X68235714Y-87192857D01*
X68283333Y-87097619D01*
X68330952Y-87050000D01*
X68426190Y-87002380D01*
X69711904Y-88002380D02*
X69140476Y-88002380D01*
X69426190Y-88002380D02*
X69426190Y-87002380D01*
X69330952Y-87145238D01*
X69235714Y-87240476D01*
X69140476Y-87288095D01*
X70092857Y-87097619D02*
X70140476Y-87050000D01*
X70235714Y-87002380D01*
X70473809Y-87002380D01*
X70569047Y-87050000D01*
X70616666Y-87097619D01*
X70664285Y-87192857D01*
X70664285Y-87288095D01*
X70616666Y-87430952D01*
X70045238Y-88002380D01*
X70664285Y-88002380D01*
D12*
X60060476Y-47172380D02*
X60298571Y-48172380D01*
X60489047Y-47458095D01*
X60679523Y-48172380D01*
X60917619Y-47172380D01*
X61298571Y-48172380D02*
X61298571Y-47505714D01*
X61298571Y-47696190D02*
X61346190Y-47600952D01*
X61393809Y-47553333D01*
X61489047Y-47505714D01*
X61584285Y-47505714D01*
X62060476Y-48172380D02*
X61965238Y-48124761D01*
X61917619Y-48077142D01*
X61870000Y-47981904D01*
X61870000Y-47696190D01*
X61917619Y-47600952D01*
X61965238Y-47553333D01*
X62060476Y-47505714D01*
X62203333Y-47505714D01*
X62298571Y-47553333D01*
X62346190Y-47600952D01*
X62393809Y-47696190D01*
X62393809Y-47981904D01*
X62346190Y-48077142D01*
X62298571Y-48124761D01*
X62203333Y-48172380D01*
X62060476Y-48172380D01*
X62727142Y-47505714D02*
X62965238Y-48172380D01*
X63203333Y-47505714D01*
X63965238Y-48124761D02*
X63870000Y-48172380D01*
X63679523Y-48172380D01*
X63584285Y-48124761D01*
X63536666Y-48029523D01*
X63536666Y-47648571D01*
X63584285Y-47553333D01*
X63679523Y-47505714D01*
X63870000Y-47505714D01*
X63965238Y-47553333D01*
X64012857Y-47648571D01*
X64012857Y-47743809D01*
X63536666Y-47839047D01*
X64441428Y-48172380D02*
X64441428Y-47505714D01*
X64441428Y-47696190D02*
X64489047Y-47600952D01*
X64536666Y-47553333D01*
X64631904Y-47505714D01*
X64727142Y-47505714D01*
D10*
X47790952Y-97918571D02*
X47933809Y-97966190D01*
X47981428Y-98013809D01*
X48029047Y-98109047D01*
X48029047Y-98251904D01*
X47981428Y-98347142D01*
X47933809Y-98394761D01*
X47838571Y-98442380D01*
X47457619Y-98442380D01*
X47457619Y-97442380D01*
X47790952Y-97442380D01*
X47886190Y-97490000D01*
X47933809Y-97537619D01*
X47981428Y-97632857D01*
X47981428Y-97728095D01*
X47933809Y-97823333D01*
X47886190Y-97870952D01*
X47790952Y-97918571D01*
X47457619Y-97918571D01*
X48600476Y-98442380D02*
X48505238Y-98394761D01*
X48457619Y-98347142D01*
X48410000Y-98251904D01*
X48410000Y-97966190D01*
X48457619Y-97870952D01*
X48505238Y-97823333D01*
X48600476Y-97775714D01*
X48743333Y-97775714D01*
X48838571Y-97823333D01*
X48886190Y-97870952D01*
X48933809Y-97966190D01*
X48933809Y-98251904D01*
X48886190Y-98347142D01*
X48838571Y-98394761D01*
X48743333Y-98442380D01*
X48600476Y-98442380D01*
X49505238Y-98442380D02*
X49410000Y-98394761D01*
X49362380Y-98347142D01*
X49314761Y-98251904D01*
X49314761Y-97966190D01*
X49362380Y-97870952D01*
X49410000Y-97823333D01*
X49505238Y-97775714D01*
X49648095Y-97775714D01*
X49743333Y-97823333D01*
X49790952Y-97870952D01*
X49838571Y-97966190D01*
X49838571Y-98251904D01*
X49790952Y-98347142D01*
X49743333Y-98394761D01*
X49648095Y-98442380D01*
X49505238Y-98442380D01*
X50124285Y-97775714D02*
X50505238Y-97775714D01*
X50267142Y-97442380D02*
X50267142Y-98299523D01*
X50314761Y-98394761D01*
X50409999Y-98442380D01*
X50505238Y-98442380D01*
X85993333Y-69622380D02*
X85660000Y-69146190D01*
X85421904Y-69622380D02*
X85421904Y-68622380D01*
X85802857Y-68622380D01*
X85898095Y-68670000D01*
X85945714Y-68717619D01*
X85993333Y-68812857D01*
X85993333Y-68955714D01*
X85945714Y-69050952D01*
X85898095Y-69098571D01*
X85802857Y-69146190D01*
X85421904Y-69146190D01*
X86850476Y-68955714D02*
X86850476Y-69622380D01*
X86612380Y-68574761D02*
X86374285Y-69289047D01*
X86993333Y-69289047D01*
X80213333Y-67992380D02*
X79880000Y-67516190D01*
X79641904Y-67992380D02*
X79641904Y-66992380D01*
X80022857Y-66992380D01*
X80118095Y-67040000D01*
X80165714Y-67087619D01*
X80213333Y-67182857D01*
X80213333Y-67325714D01*
X80165714Y-67420952D01*
X80118095Y-67468571D01*
X80022857Y-67516190D01*
X79641904Y-67516190D01*
X80546666Y-66992380D02*
X81165714Y-66992380D01*
X80832380Y-67373333D01*
X80975238Y-67373333D01*
X81070476Y-67420952D01*
X81118095Y-67468571D01*
X81165714Y-67563809D01*
X81165714Y-67801904D01*
X81118095Y-67897142D01*
X81070476Y-67944761D01*
X80975238Y-67992380D01*
X80689523Y-67992380D01*
X80594285Y-67944761D01*
X80546666Y-67897142D01*
X52773333Y-88392380D02*
X52440000Y-87916190D01*
X52201904Y-88392380D02*
X52201904Y-87392380D01*
X52582857Y-87392380D01*
X52678095Y-87440000D01*
X52725714Y-87487619D01*
X52773333Y-87582857D01*
X52773333Y-87725714D01*
X52725714Y-87820952D01*
X52678095Y-87868571D01*
X52582857Y-87916190D01*
X52201904Y-87916190D01*
X53154285Y-87487619D02*
X53201904Y-87440000D01*
X53297142Y-87392380D01*
X53535238Y-87392380D01*
X53630476Y-87440000D01*
X53678095Y-87487619D01*
X53725714Y-87582857D01*
X53725714Y-87678095D01*
X53678095Y-87820952D01*
X53106666Y-88392380D01*
X53725714Y-88392380D01*
X56733333Y-88572380D02*
X56400000Y-88096190D01*
X56161904Y-88572380D02*
X56161904Y-87572380D01*
X56542857Y-87572380D01*
X56638095Y-87620000D01*
X56685714Y-87667619D01*
X56733333Y-87762857D01*
X56733333Y-87905714D01*
X56685714Y-88000952D01*
X56638095Y-88048571D01*
X56542857Y-88096190D01*
X56161904Y-88096190D01*
X57685714Y-88572380D02*
X57114285Y-88572380D01*
X57400000Y-88572380D02*
X57400000Y-87572380D01*
X57304761Y-87715238D01*
X57209523Y-87810476D01*
X57114285Y-87858095D01*
X83357619Y-74770000D02*
X83262380Y-74722380D01*
X83119523Y-74722380D01*
X82976666Y-74770000D01*
X82881428Y-74865238D01*
X82833809Y-74960476D01*
X82786190Y-75150952D01*
X82786190Y-75293809D01*
X82833809Y-75484285D01*
X82881428Y-75579523D01*
X82976666Y-75674761D01*
X83119523Y-75722380D01*
X83214761Y-75722380D01*
X83357619Y-75674761D01*
X83405238Y-75627142D01*
X83405238Y-75293809D01*
X83214761Y-75293809D01*
X83833809Y-75722380D02*
X83833809Y-74722380D01*
X84214761Y-74722380D01*
X84310000Y-74770000D01*
X84357619Y-74817619D01*
X84405238Y-74912857D01*
X84405238Y-75055714D01*
X84357619Y-75150952D01*
X84310000Y-75198571D01*
X84214761Y-75246190D01*
X83833809Y-75246190D01*
X84833809Y-75722380D02*
X84833809Y-74722380D01*
X85500476Y-74722380D02*
X85690952Y-74722380D01*
X85786190Y-74770000D01*
X85881428Y-74865238D01*
X85929047Y-75055714D01*
X85929047Y-75389047D01*
X85881428Y-75579523D01*
X85786190Y-75674761D01*
X85690952Y-75722380D01*
X85500476Y-75722380D01*
X85405238Y-75674761D01*
X85310000Y-75579523D01*
X85262380Y-75389047D01*
X85262380Y-75055714D01*
X85310000Y-74865238D01*
X85405238Y-74770000D01*
X85500476Y-74722380D01*
X86881428Y-75722380D02*
X86310000Y-75722380D01*
X86595714Y-75722380D02*
X86595714Y-74722380D01*
X86500476Y-74865238D01*
X86405238Y-74960476D01*
X86310000Y-75008095D01*
X87452857Y-75150952D02*
X87357619Y-75103333D01*
X87310000Y-75055714D01*
X87262380Y-74960476D01*
X87262380Y-74912857D01*
X87310000Y-74817619D01*
X87357619Y-74770000D01*
X87452857Y-74722380D01*
X87643333Y-74722380D01*
X87738571Y-74770000D01*
X87786190Y-74817619D01*
X87833809Y-74912857D01*
X87833809Y-74960476D01*
X87786190Y-75055714D01*
X87738571Y-75103333D01*
X87643333Y-75150952D01*
X87452857Y-75150952D01*
X87357619Y-75198571D01*
X87310000Y-75246190D01*
X87262380Y-75341428D01*
X87262380Y-75531904D01*
X87310000Y-75627142D01*
X87357619Y-75674761D01*
X87452857Y-75722380D01*
X87643333Y-75722380D01*
X87738571Y-75674761D01*
X87786190Y-75627142D01*
X87833809Y-75531904D01*
X87833809Y-75341428D01*
X87786190Y-75246190D01*
X87738571Y-75198571D01*
X87643333Y-75150952D01*
X41739523Y-62892380D02*
X41739523Y-61892380D01*
X41977619Y-61892380D01*
X42120476Y-61940000D01*
X42215714Y-62035238D01*
X42263333Y-62130476D01*
X42310952Y-62320952D01*
X42310952Y-62463809D01*
X42263333Y-62654285D01*
X42215714Y-62749523D01*
X42120476Y-62844761D01*
X41977619Y-62892380D01*
X41739523Y-62892380D01*
X42691904Y-62606666D02*
X43168095Y-62606666D01*
X42596666Y-62892380D02*
X42930000Y-61892380D01*
X43263333Y-62892380D01*
X44168095Y-62797142D02*
X44120476Y-62844761D01*
X43977619Y-62892380D01*
X43882380Y-62892380D01*
X43739523Y-62844761D01*
X43644285Y-62749523D01*
X43596666Y-62654285D01*
X43549047Y-62463809D01*
X43549047Y-62320952D01*
X43596666Y-62130476D01*
X43644285Y-62035238D01*
X43739523Y-61940000D01*
X43882380Y-61892380D01*
X43977619Y-61892380D01*
X44120476Y-61940000D01*
X44168095Y-61987619D01*
X86892380Y-67137142D02*
X86844761Y-67184761D01*
X86701904Y-67232380D01*
X86606666Y-67232380D01*
X86463809Y-67184761D01*
X86368571Y-67089523D01*
X86320952Y-66994285D01*
X86273333Y-66803809D01*
X86273333Y-66660952D01*
X86320952Y-66470476D01*
X86368571Y-66375238D01*
X86463809Y-66280000D01*
X86606666Y-66232380D01*
X86701904Y-66232380D01*
X86844761Y-66280000D01*
X86892380Y-66327619D01*
X87273333Y-66946666D02*
X87749523Y-66946666D01*
X87178095Y-67232380D02*
X87511428Y-66232380D01*
X87844761Y-67232380D01*
X88178095Y-67232380D02*
X88178095Y-66232380D01*
X88749523Y-67232380D01*
X88749523Y-66232380D01*
X88987619Y-67327619D02*
X89749523Y-67327619D01*
X89987619Y-67232380D02*
X89987619Y-66232380D01*
X89987619Y-66708571D02*
X90559047Y-66708571D01*
X90559047Y-67232380D02*
X90559047Y-66232380D01*
X41551904Y-45096666D02*
X42028095Y-45096666D01*
X41456666Y-45382380D02*
X41790000Y-44382380D01*
X42123333Y-45382380D01*
X42456666Y-45382380D02*
X42456666Y-44382380D01*
X42694761Y-44382380D01*
X42837619Y-44430000D01*
X42932857Y-44525238D01*
X42980476Y-44620476D01*
X43028095Y-44810952D01*
X43028095Y-44953809D01*
X42980476Y-45144285D01*
X42932857Y-45239523D01*
X42837619Y-45334761D01*
X42694761Y-45382380D01*
X42456666Y-45382380D01*
X44028095Y-45287142D02*
X43980476Y-45334761D01*
X43837619Y-45382380D01*
X43742380Y-45382380D01*
X43599523Y-45334761D01*
X43504285Y-45239523D01*
X43456666Y-45144285D01*
X43409047Y-44953809D01*
X43409047Y-44810952D01*
X43456666Y-44620476D01*
X43504285Y-44525238D01*
X43599523Y-44430000D01*
X43742380Y-44382380D01*
X43837619Y-44382380D01*
X43980476Y-44430000D01*
X44028095Y-44477619D01*
X67888095Y-92032380D02*
X67888095Y-92841904D01*
X67935714Y-92937142D01*
X67983333Y-92984761D01*
X68078571Y-93032380D01*
X68269047Y-93032380D01*
X68364285Y-92984761D01*
X68411904Y-92937142D01*
X68459523Y-92841904D01*
X68459523Y-92032380D01*
X68888095Y-92984761D02*
X69030952Y-93032380D01*
X69269047Y-93032380D01*
X69364285Y-92984761D01*
X69411904Y-92937142D01*
X69459523Y-92841904D01*
X69459523Y-92746666D01*
X69411904Y-92651428D01*
X69364285Y-92603809D01*
X69269047Y-92556190D01*
X69078571Y-92508571D01*
X68983333Y-92460952D01*
X68935714Y-92413333D01*
X68888095Y-92318095D01*
X68888095Y-92222857D01*
X68935714Y-92127619D01*
X68983333Y-92080000D01*
X69078571Y-92032380D01*
X69316666Y-92032380D01*
X69459523Y-92080000D01*
X70221428Y-92508571D02*
X70364285Y-92556190D01*
X70411904Y-92603809D01*
X70459523Y-92699047D01*
X70459523Y-92841904D01*
X70411904Y-92937142D01*
X70364285Y-92984761D01*
X70269047Y-93032380D01*
X69888095Y-93032380D01*
X69888095Y-92032380D01*
X70221428Y-92032380D01*
X70316666Y-92080000D01*
X70364285Y-92127619D01*
X70411904Y-92222857D01*
X70411904Y-92318095D01*
X70364285Y-92413333D01*
X70316666Y-92460952D01*
X70221428Y-92508571D01*
X69888095Y-92508571D01*
X48683333Y-49687142D02*
X48635714Y-49734761D01*
X48492857Y-49782380D01*
X48397619Y-49782380D01*
X48254761Y-49734761D01*
X48159523Y-49639523D01*
X48111904Y-49544285D01*
X48064285Y-49353809D01*
X48064285Y-49210952D01*
X48111904Y-49020476D01*
X48159523Y-48925238D01*
X48254761Y-48830000D01*
X48397619Y-48782380D01*
X48492857Y-48782380D01*
X48635714Y-48830000D01*
X48683333Y-48877619D01*
X49016666Y-48782380D02*
X49683333Y-48782380D01*
X49254761Y-49782380D01*
X46043333Y-45207142D02*
X45995714Y-45254761D01*
X45852857Y-45302380D01*
X45757619Y-45302380D01*
X45614761Y-45254761D01*
X45519523Y-45159523D01*
X45471904Y-45064285D01*
X45424285Y-44873809D01*
X45424285Y-44730952D01*
X45471904Y-44540476D01*
X45519523Y-44445238D01*
X45614761Y-44350000D01*
X45757619Y-44302380D01*
X45852857Y-44302380D01*
X45995714Y-44350000D01*
X46043333Y-44397619D01*
X46900476Y-44302380D02*
X46710000Y-44302380D01*
X46614761Y-44350000D01*
X46567142Y-44397619D01*
X46471904Y-44540476D01*
X46424285Y-44730952D01*
X46424285Y-45111904D01*
X46471904Y-45207142D01*
X46519523Y-45254761D01*
X46614761Y-45302380D01*
X46805238Y-45302380D01*
X46900476Y-45254761D01*
X46948095Y-45207142D01*
X46995714Y-45111904D01*
X46995714Y-44873809D01*
X46948095Y-44778571D01*
X46900476Y-44730952D01*
X46805238Y-44683333D01*
X46614761Y-44683333D01*
X46519523Y-44730952D01*
X46471904Y-44778571D01*
X46424285Y-44873809D01*
X48183333Y-72777142D02*
X48135714Y-72824761D01*
X47992857Y-72872380D01*
X47897619Y-72872380D01*
X47754761Y-72824761D01*
X47659523Y-72729523D01*
X47611904Y-72634285D01*
X47564285Y-72443809D01*
X47564285Y-72300952D01*
X47611904Y-72110476D01*
X47659523Y-72015238D01*
X47754761Y-71920000D01*
X47897619Y-71872380D01*
X47992857Y-71872380D01*
X48135714Y-71920000D01*
X48183333Y-71967619D01*
X49088095Y-71872380D02*
X48611904Y-71872380D01*
X48564285Y-72348571D01*
X48611904Y-72300952D01*
X48707142Y-72253333D01*
X48945238Y-72253333D01*
X49040476Y-72300952D01*
X49088095Y-72348571D01*
X49135714Y-72443809D01*
X49135714Y-72681904D01*
X49088095Y-72777142D01*
X49040476Y-72824761D01*
X48945238Y-72872380D01*
X48707142Y-72872380D01*
X48611904Y-72824761D01*
X48564285Y-72777142D01*
X58733333Y-71447142D02*
X58685714Y-71494761D01*
X58542857Y-71542380D01*
X58447619Y-71542380D01*
X58304761Y-71494761D01*
X58209523Y-71399523D01*
X58161904Y-71304285D01*
X58114285Y-71113809D01*
X58114285Y-70970952D01*
X58161904Y-70780476D01*
X58209523Y-70685238D01*
X58304761Y-70590000D01*
X58447619Y-70542380D01*
X58542857Y-70542380D01*
X58685714Y-70590000D01*
X58733333Y-70637619D01*
X59590476Y-70875714D02*
X59590476Y-71542380D01*
X59352380Y-70494761D02*
X59114285Y-71209047D01*
X59733333Y-71209047D01*
X49503333Y-88317142D02*
X49455714Y-88364761D01*
X49312857Y-88412380D01*
X49217619Y-88412380D01*
X49074761Y-88364761D01*
X48979523Y-88269523D01*
X48931904Y-88174285D01*
X48884285Y-87983809D01*
X48884285Y-87840952D01*
X48931904Y-87650476D01*
X48979523Y-87555238D01*
X49074761Y-87460000D01*
X49217619Y-87412380D01*
X49312857Y-87412380D01*
X49455714Y-87460000D01*
X49503333Y-87507619D01*
X49884285Y-87507619D02*
X49931904Y-87460000D01*
X50027142Y-87412380D01*
X50265238Y-87412380D01*
X50360476Y-87460000D01*
X50408095Y-87507619D01*
X50455714Y-87602857D01*
X50455714Y-87698095D01*
X50408095Y-87840952D01*
X49836666Y-88412380D01*
X50455714Y-88412380D01*
X59863333Y-88577142D02*
X59815714Y-88624761D01*
X59672857Y-88672380D01*
X59577619Y-88672380D01*
X59434761Y-88624761D01*
X59339523Y-88529523D01*
X59291904Y-88434285D01*
X59244285Y-88243809D01*
X59244285Y-88100952D01*
X59291904Y-87910476D01*
X59339523Y-87815238D01*
X59434761Y-87720000D01*
X59577619Y-87672380D01*
X59672857Y-87672380D01*
X59815714Y-87720000D01*
X59863333Y-87767619D01*
X60815714Y-88672380D02*
X60244285Y-88672380D01*
X60530000Y-88672380D02*
X60530000Y-87672380D01*
X60434761Y-87815238D01*
X60339523Y-87910476D01*
X60244285Y-87958095D01*
M02*
