M48
; DRILL file {KiCad 5.1.5+dfsg1-2build2} date Thứ tư, 17 Tháng 6 Năm 2020 17:16:29 +07
; FORMAT={-:-/ absolute / inch / decimal}
; #@! TF.CreationDate,2020-06-17T17:16:29+07:00
; #@! TF.GenerationSoftware,Kicad,Pcbnew,5.1.5+dfsg1-2build2
; #@! TF.FileFunction,Plated,1,2,PTH
FMAT,2
INCH
T1C0.0157
T2C0.0217
T3C0.0335
T4C0.0394
%
G90
G05
T1
X1.6335Y-1.7508
X1.6732Y-1.7508
X1.7134Y-1.7508
X1.7512Y-1.7516
X1.7882Y-1.752
X1.8004Y-2.2917
X1.8276Y-1.752
X1.8382Y-2.2492
X1.8382Y-2.2921
X1.9299Y-2.4378
X1.9453Y-2.2039
X1.9472Y-2.2433
X1.9488Y-2.2803
X1.9634Y-2.4047
X1.9878Y-2.2035
X1.9902Y-2.2437
X1.9937Y-2.7748
X1.9945Y-2.7256
X1.9969Y-2.3724
X2.0122Y-1.752
X2.0307Y-2.2047
X2.0339Y-1.8772
X2.0343Y-1.822
X2.0358Y-2.7752
X2.0642Y-1.7516
X2.0961Y-1.8201
X2.0976Y-1.8764
X2.1126Y-1.7524
X2.2043Y-3.2748
X2.2291Y-3.5681
X2.2563Y-3.3094
X2.2575Y-3.2736
X2.272Y-1.7543
X2.2945Y-3.3287
X2.3079Y-3.4307
X2.3079Y-3.4736
X2.3197Y-1.7539
X2.3295Y-3.2236
X2.3673Y-1.7539
X2.4Y-1.989
X2.4008Y-2.0248
X2.4008Y-2.0622
X2.4016Y-2.0996
X2.4024Y-2.1378
X2.4177Y-1.7528
X2.4457Y-2.1386
X2.4646Y-1.7539
X2.4783Y-3.1256
X2.4878Y-2.139
X2.4957Y-3.6051
X2.4965Y-3.5555
X2.511Y-3.0917
X2.5122Y-1.7539
X2.5152Y-3.173
X2.5205Y-2.8657
X2.5283Y-2.1394
X2.5378Y-3.5543
X2.539Y-3.6047
X2.5465Y-3.0602
X2.5614Y-2.8657
X2.5626Y-1.7531
X2.5795Y-3.5543
X2.5795Y-3.6043
X2.5949Y-3.2528
X2.6154Y-1.7531
X2.6445Y-2.9512
X2.661Y-1.7543
X2.6984Y-3.5488
X2.7098Y-1.7535
X2.7394Y-2.3425
X2.7409Y-2.3846
X2.7504Y-2.0862
X2.7512Y-2.1228
X2.7518Y-2.923
X2.7563Y-1.7535
X2.7764Y-3.4484
X2.7815Y-2.7236
X2.7827Y-2.3425
X2.7831Y-2.3827
X2.7843Y-2.7768
X2.7862Y-2.0866
X2.7874Y-2.1224
X2.8291Y-2.7248
X2.8335Y-2.7768
X2.8791Y-3.3669
X2.8791Y-3.4122
X2.8831Y-2.7252
X2.9256Y-1.7547
X2.928Y-2.3008
X2.928Y-2.3421
X2.9299Y-2.4476
X2.9299Y-2.4949
X2.9366Y-1.8299
X2.9673Y-1.9055
X2.9673Y-1.9476
X2.9673Y-1.9878
X2.9673Y-2.0571
X2.9677Y-2.0953
X2.9681Y-1.7957
X2.9693Y-2.1354
X3.0047Y-2.7768
X3.0224Y-2.6276
X3.0579Y-2.6657
X3.1374Y-2.5016
X3.1374Y-2.5433
X3.1386Y-1.8142
X3.1386Y-1.8571
X3.3016Y-1.7898
X3.3016Y-1.8303
X3.3016Y-1.8724
X3.3047Y-2.5016
X3.3047Y-2.5453
X3.3055Y-2.4575
T4
X3.5413Y-2.7028
X3.5413Y-2.8028
X1.6854Y-1.852
X1.6854Y-1.952
X1.6854Y-2.052
X1.6854Y-2.152
X1.6854Y-2.252
X1.6854Y-2.352
X1.6858Y-2.5449
X1.6858Y-2.6449
X3.5437Y-1.8311
X3.5437Y-1.9311
X3.5437Y-2.0311
X3.5437Y-2.1311
X3.5437Y-2.2311
X3.5437Y-2.3311
X3.5437Y-2.4311
X3.5437Y-2.5311
X3.5386Y-3.2425
X3.5386Y-3.3425
X3.5386Y-3.4425
X3.5386Y-3.5425
X3.5402Y-2.9736
X3.5402Y-3.0736
X3.0669Y-1.8295
X3.0669Y-1.9295
X3.0669Y-2.0295
X3.0669Y-2.1295
X3.0669Y-2.2295
X3.0669Y-2.3295
X3.0669Y-2.4295
X3.0669Y-2.5295
X3.2098Y-1.8291
X3.2098Y-1.9291
X3.2098Y-2.0291
X3.2098Y-2.1291
X3.2098Y-2.2291
X3.2098Y-2.3291
X3.2098Y-2.4291
X3.2098Y-2.5291
X1.6858Y-2.8197
X1.6858Y-2.9197
X1.6858Y-3.0197
X1.6858Y-3.1197
X1.6858Y-3.2197
X1.8295Y-3.4193
X1.8295Y-3.5193
X1.8295Y-3.6193
X1.8295Y-3.7193
X3.4004Y-1.8311
X3.4004Y-1.9311
X3.4004Y-2.0311
X3.4004Y-2.1311
X3.4004Y-2.2311
X3.4004Y-2.3311
X3.4004Y-2.4311
X3.4004Y-2.5311
X3.3917Y-3.2433
X3.3917Y-3.3433
X3.3917Y-3.4433
X3.3917Y-3.5433
X1.687Y-3.4193
X1.687Y-3.5193
X1.687Y-3.6193
X1.687Y-3.7193
T2
G00X2.5715Y-3.8656
M15
G01X2.5715Y-3.8911
M16
G05
G00X2.8766Y-3.8656
M15
G01X2.8766Y-3.8911
M16
G05
T3
G00X2.5774Y-3.7179
M15
G01X2.5774Y-3.7396
M16
G05
G00X2.8707Y-3.7179
M15
G01X2.8707Y-3.7396
M16
G05
T0
M30
